<?xml version="1.0" encoding="UTF-8"?>
<svg id="Layer_2" data-name="Layer 2" xmlns="http://www.w3.org/2000/svg" viewBox="0 0 138.49 250.58">
  <defs>
    <style>
      .cls-1 {
        fill: #2c45c9;
      }
    </style>
  </defs>
  <g id="gentrace-sample-file-last-art">
    <path class="cls-1" d="M137.62,81.28L121.72,0,17.78.03,0,89.35c-.11,14.81,5.25,28.53,15.17,39.06,10.18,11.25,22.95,17.74,37.78,20.81,3.46,2.08,5.29,8.64,5.3,12.82l.04,54.6c0,4.65-3.46,7.03-7.48,7.34-13.61,1.04-33.73,3.86-33.61,12.92.03,2.37,2.4,5.83,5.95,6.89,29.61,8.87,62.27,9.24,92.35.06,3.98-1.22,5.95-4.68,5.93-6.95-.05-9.16-19.54-11.96-32.97-12.83-4.25-.27-8.22-2.54-8.23-7.6l-.14-54.47c0-3.91,2.21-11.55,6.44-12.63,14.28-3.66,26.92-9.29,36.97-20.43,12.16-12.77,17.18-30,14.13-47.65ZM22.83,6.13l93.75-.12,14.31,74.29c-20.85,8.6-42.53,9.72-64.26,2.21-20.23-6.77-40.06-6.89-59.28.75L22.83,6.13ZM115.1,235.83c-2.17,2.86-5.04,3.64-8.75,4.44-26.66,5.76-53.68,5.24-79.4-1.61-9.33-2.48,7.35-7.41,25.91-8.93,6.71-.55,11.3-4.67,11.35-12.01l.36-53.16c.04-5.28-.98-9.58-2.92-14.54l15.11.34c-1.87,5.02-3.06,9.71-3.01,15.42l.4,51.92c.13,17.03,23.08,9.49,40.96,18.14ZM103.07,136.68c-20.81,9.96-45.12,10.3-65.88.29-18.37-8.86-29.9-25.96-31.14-46.49,17.92-8.13,37.29-9.02,55.94-2.64,11.22,3.09,22.05,5.93,33.8,5.79,12.32-.38,23.53-2.83,36.29-6.79,1.4,21.22-9.67,40.57-29.02,49.84Z"/>
  </g>
</svg>