<?xml version="1.0" encoding="UTF-8"?>
<svg id="Layer_2" data-name="Layer 2" xmlns="http://www.w3.org/2000/svg" viewBox="0 0 252.37 232.07">
  <defs>
    <style>
      .cls-1 {
        fill: #2c45c9;
      }

      .cls-2 {
        fill: #2c45c9;
      }

      .cls-3 {
        fill: #2c45c9;
      }

      .cls-4 {
        fill: #2c45c9;
      }

      .cls-5 {
        fill: #2c45c9;
      }
    </style>
  </defs>
  <g id="gentrace-sample-file-last-art">
    <g>
      <path class="cls-4" d="M240.11,193.5c-6.07-2.99-3.99-11.45-12.18-15.55-11.94-5.98-14.88,6.49-24.64,2.4,5.71-11.17,8.4-22.41,6.62-34.21-2.19-14.54-12.17-24.42-26.5-27.33-22.54-4.58-43.26,3.07-61.9-4.01,11.62-7.18,13.14-21.89,5.24-31.54-1.32-1.62-3.65-2.05-5.37-3.23.92-37.68-30.04-62.51-67.38-59.13-4.3-2.57-3.63-12.35,1.51-14.25,2.44-.9,4.29-.99,6.04.15,2.51,1.63.09,7.89,4.2,7.93,1.86.02,3.15-1.36,3.37-3.51.43-4.24-1.36-7.33-4.08-9.2-6.07-4.17-15.86-1.74-18.78,6.09-1.65,4.43-1.26,9.57,1.1,14.55C20.19,29.99,1.91,54.21,4.63,82.13c-6.23,6.26-5.79,14.79-.92,21.22-3.4,23.93,15.21,40.03,38.64,45.21l-6.93,26.18-9.03,23.68c-7.59,1.05-14.07,3.86-18.14,9.73-2.72,3.92-2.98,8.58-.98,12,2.33,3.98,6.2,3.88,10.36,4.83,5.92,1.36,10.31,1.54,16.01-.69l9.8,1.67c2.77,4.37,7.36,4.4,11.78,5.17,5.91,1.03,10.56,2,15.97-1.57,7.35,3.71,16.09,2.14,20-5.22.41-2.4.52-5.73,1.92-7.75l11.1-16.02c13.14,4.22,26.12,5.26,40.57,3.11,4.04,16.21,17.24,24.42,33.45,24.24,14.1-.16,26.35-6.44,40.64-8.38,4.39-.59,26.19,7.98,32.03-3.99,4.22-8.64-1.01-17.24-10.79-22.05ZM175.29,123.63c7.26.08,15.56,2.62,21.12,8.39,7.47,7.73,9.26,18.58,6.98,29.06-8.34-15.96-27.82-19.43-43.43-9.56.27-10.65-1.47-19.55-6.16-28.14l21.49.25ZM42.42,220.15c-9.59-5.24-15.26,3.31-29.2-2.69-3.17-3.48,1.25-9.33,4.68-10.42l12-3.82c3.98-3.31,3.99-10.12,6.21-14.4,4.88-9.39,6.48-18.56,9.28-29.28,5.5,11.61,11.61,20.2,22.88,25.45l-10.25,19.5c-8.11,1.69-14,6.78-15.59,15.66ZM143.27,197.46c-12.24,1.66-24.21,1.47-36.3-2.75,3.87-10.62,10.26-24.42,5.58-27.4-.85-.54-3.4.33-3.7,1.94-3.37,17.97-11.54,33.28-23.1,47.45l-1.09,6.63c-.25,1.53-4.7,2.77-7.2,1.81-4.43-1.7-7.73-1.42-12.58.38-2.27.84-14.54-.93-15.65-2.17-3.17-3.55,3.65-14.25,16.38-14.47l8.83-21.79,5.48-21.6c.41-1.62-.17-3.09-.85-3.64-1.17-.96-3.95-.86-4.49,1.03l-4.66,16.34c-10.91-6.45-18.18-17.16-21.15-29.61,20.11,2.8,50.81-10.16,45.62-16.19-1.61-1.87-3.01-1.1-5.33.48-20.14,13.67-48.88,13.46-67.7-1.89-9.7-7.91-14.02-19.36-11.01-30.82,1.29-4.9,2.34-9.52,1.25-14.75-5.74-27.62,13.42-53.84,40.62-58.28l3.85,2.38c.81.5,2.71-1.76,3.67-3.62,30.74-1.21,56.77,22.01,55.06,52.82l-4.96,2.27c-1.1.5-1.01,4.15.62,4.13,4.07-.03,7.9-1.72,10.8.85,6.1,5.4,4.83,16.05-.96,21.45-5.66,5.27-17.38-.5-14.59,6.2.68,1.63,2.94,1.52,4.38,2.21,11.69,5.57,23.24,8.7,36.64,7.1,6.31,9.42,8.23,20.23,8.06,31.83-10,11.37-13.31,25.94-11.54,41.71ZM245.75,211.72c-2.38,7.11-16.7,4-27.37.53-23.44,8-56.02,18.36-65.74-5.53-5.32-13.09-4.87-27.84,1.95-40.43,5.83-10.75,18.1-16.54,29.78-13.25,5.85,1.65,10.69,5.46,13.01,9.98,2.41,4.71,3.74,13.89-.38,17.53-4.26,3.77-10.35,4.66-12.85,10.8-.8,1.96-.52,4.09,1.82,4.65,4.32,1.04,6.38-12.48,21.77-8.98,7.55,1.71,8.74-6.38,15.75-4.59,7.12,1.82,5.91,11.91,11.28,15.12,6.37,3.8,13.3,7.15,10.96,14.16Z"/>
      <path class="cls-5" d="M61.87,116.86c1.47-1.99,3.39-2.4,4.49-1.7,4.14,2.63-3.88,13.74-16.3,13.41-6.29-.17-13.27-3.32-15.98-9.42-.82-1.84.42-4.02,1.48-4.38,1.71-.58,2.95.44,4.13,2.23,4.93,7.42,16.64,7.35,22.18-.13Z"/>
      <circle class="cls-2" cx="69.17" cy="91.67" r="5.01"/>
      <circle class="cls-3" cx="31.91" cy="91.7" r="5.01"/>
      <path class="cls-1" d="M51.53,105.75c2.04.35,1.62,3.23.82,3.86-1.1.87-2.44,1.65-4.23,1.3l-4.62-.9c-1.93-.37-2.97-3.97-.91-4.77s6.34.07,8.94.51Z"/>
    </g>
  </g>
</svg>