<?xml version="1.0" encoding="UTF-8"?>
<svg id="Layer_2" data-name="Layer 2" xmlns="http://www.w3.org/2000/svg" viewBox="0 0 172.56 251.58">
  <defs>
    <style>
      .cls-1 {
        fill: #2c45c9;
      }

      .cls-2 {
        fill: #2c45c9;
      }
    </style>
  </defs>
  <g id="gentrace-sample-file-last-art">
    <g>
      <path class="cls-2" d="M172.09,39.12c-.77-6.31-6-9.89-12.45-9.49l-4.39-16.42c-1.09-4.07-4.74-10.05-9.92-10.54C106.41-1,67.88-.72,29,2.49c-5.86.48-9.89,4.29-11.46,9.49l-5.31,17.58c-5.96.13-11.62,3.19-11.82,9.01L0,50.54c-.2,5.71,4.19,8.9,9.7,9.93l21.63,175.5c.74,6.01,8.97,9.84,14.44,11.04,27.53,6.03,55.98,6.4,83.8-.71,5.74-1.47,12.53-5.28,13.17-10.88l19.73-174.57c4.55-1.36,8.96-3.52,9.67-8.33.65-4.39.47-9.07-.06-13.41ZM23.43,14.28c1.26-4.43,4.57-5.39,8.78-5.74,37.05-3.1,73.47-3.34,110.46.33,3.15.31,5.22,2.01,6.19,4.78l3.74,15.6c-44.52,2.56-88.74,2.15-133.47.09l4.3-15.07ZM136.11,234.9c-1.96,4.39-8.71,5.33-12.85,6.87-24.49,4.53-48.83,4.51-73.94-.07-3.82-1.59-10.8-2.36-11.34-6.41l-5.15-37.96c36.25,7.08,72.1,7.32,108.06-.66l-4.77,38.23ZM141.52,190.34c-36.61,7.99-73.68,7.91-109.56.39l-10.94-91.4c43.45,6.65,86.17,6.81,130.46-.08l-9.96,91.09ZM152.25,92.92c-44.31,7.03-88.2,7.12-131.89.01l-3.9-32.09c47.56,3.41,92.78,3.36,139.45.04l-3.66,32.04ZM164.87,54.02c-52.43,4.45-104.31,4.2-156.66.1-3.02-4.56-2.16-14.45-.68-16.42,1.13-1.51,3.45-2.49,6.23-2.34,48.38,2.48,95.96,2.55,144.37.04,2.38-.12,6.25.21,6.98,2.56,1.74,5.59,1.51,10.73-.23,16.07Z"/>
      <path class="cls-1" d="M111.37,130.31c-8.99-15.4-29.12-16.96-41.93-5.74-9.88,8.66-14.52,21.43-12.46,34.32,1.56,9.73,7.81,16.58,15.11,20.32,9.09,4.66,18.56,3.8,27.6-2.24,15.05-10.05,20.72-31.15,11.67-46.66ZM68.47,169.47c-7.99-9.69-7.28-22.82-1.03-33.51,6.29-10.76,19.1-16.69,31.05-10.03-26.3,11.52-6.69,38.69-30.02,43.54ZM95.18,172.74c-6.99,4.32-14.51,4.59-20.91,1.07,9.92-4.4,13.84-13.51,13.97-23.43.12-9.86,5.98-17.98,15.11-20.63,11.01,10.97,6.73,33.78-8.16,42.99Z"/>
    </g>
  </g>
</svg>