<?xml version="1.0" encoding="UTF-8"?>
<svg id="Layer_2" data-name="Layer 2" xmlns="http://www.w3.org/2000/svg" viewBox="0 0 239.88 213.7">
  <defs>
    <style>
      .cls-1 {
        fill: #2c45c9;
      }
    </style>
  </defs>
  <g id="gentrace-sample-file-last-art">
    <g>
      <path class="cls-1" d="M57.4,137.89c9.54,0,17.27-7.73,17.27-17.27s-7.73-17.27-17.27-17.27-17.27,7.73-17.27,17.27,7.73,17.27,17.27,17.27ZM57.41,109.37c6.13,0,11.1,4.97,11.1,11.1s-4.97,11.1-11.1,11.1-11.1-4.97-11.1-11.1,4.97-11.1,11.1-11.1Z"/>
      <path class="cls-1" d="M184.6,172.19c9.5,0,17.21-7.7,17.21-17.21s-7.7-17.21-17.21-17.21-17.21,7.7-17.21,17.21,7.7,17.21,17.21,17.21ZM184.65,143.93c6.12,0,11.08,4.96,11.08,11.08s-4.96,11.08-11.08,11.08-11.08-4.96-11.08-11.08,4.96-11.08,11.08-11.08Z"/>
      <path class="cls-1" d="M181.73,105.61c7.03,0,12.73-5.7,12.73-12.73s-5.7-12.73-12.73-12.73-12.73,5.7-12.73,12.73,5.7,12.73,12.73,12.73ZM181.82,86.59c3.55,0,6.42,2.88,6.42,6.42s-2.88,6.42-6.42,6.42-6.42-2.88-6.42-6.42,2.88-6.42,6.42-6.42Z"/>
      <path class="cls-1" d="M61.31,177.19c0,6.93,5.62,12.54,12.54,12.54s12.54-5.62,12.54-12.54-5.62-12.54-12.54-12.54-12.54,5.62-12.54,12.54ZM80.19,177.18c0,3.51-2.85,6.36-6.36,6.36s-6.36-2.85-6.36-6.36,2.85-6.36,6.36-6.36,6.36,2.85,6.36,6.36Z"/>
      <path class="cls-1" d="M122.96,145.24c6.85,0,12.4-5.55,12.4-12.4s-5.55-12.4-12.4-12.4-12.4,5.55-12.4,12.4,5.55,12.4,12.4,12.4ZM123.07,126.68c3.4,0,6.15,2.75,6.15,6.15s-2.75,6.15-6.15,6.15-6.15-2.75-6.15-6.15,2.75-6.15,6.15-6.15Z"/>
      <path class="cls-1" d="M161.21,19.66c-6.04-2.84-13.14-2.38-18.69,1.53-3.23,2.27-4.38,6.01-4.04,9.68.26,2.79,2.11,5.82,5.27,7.65,5.75,3.32,13.38,3.05,19.02-1.19,3.61-2.72,4.92-6.12,4.46-9.6-.45-3.42-2.36-6.36-6.02-8.08ZM154.17,34.62c-3.26.56-8.76-.27-9.36-4.3-.59-3.97,4.04-5.91,6.49-6.22,3.17-.4,8.52-.26,9.57,3.97,1,4.04-4.09,6.11-6.7,6.55Z"/>
      <path class="cls-1" d="M227.42,25.42C205.03,5.15,166.37-3.09,136.81,1.03l-24.28,14.27-1.11,11.27c-4.66,9.67-16.52,11.51-26.08,8.33-3.22-1.94-6.16-1.92-9.37.07L0,82.16l23.82,131.48,109.48.06c-.33-11.9,7.17-18.25,16.51-18.13,9.39.12,13.92,8.81,14.62,17.87l54.67.09,20.69-167.19c.98-7.91-7.16-16.2-12.38-20.92ZM213.71,207.63h-43.69c-1.51-10.86-9.73-18.02-21.28-18-11.65-.1-19.71,7.18-21.18,18.02l-98.26.04L7.42,86.68l225.58-36.03-19.29,156.98ZM82.73,61.84c2.17-5.39,14.55-8.85,22.41-6.66,3.78,1.06,6.42,3.88,5.42,8.8l-26.66,3.7c-1.44-.31-1.74-4.43-1.17-5.84ZM212.94,47.3c-.43-2.32-1.34-3.8-2.47-4.46-1.09-.63-3.65-.21-4.42.9-.64.92-.19,2.97.01,4.81l-88.77,13.99c-.02-6.84-4.34-11.78-11.43-13.65-7.04-1.86-13.12.47-19.3,2.51-7.87,2.59-12.17,9.68-9.08,17.87l-59,8.65,61.57-38.25c10.78,4.69,22.61,4.02,31.39-3.25,5.62-4.46,8.23-10.65,7.55-17.86l19.05-11.81c23.18-1.74,46.19,1.05,67.12,11.46,11.7,5.82,21.96,13.47,27.99,25.82l-20.22,3.27Z"/>
    </g>
  </g>
</svg>