<?xml version="1.0" encoding="UTF-8"?>
<svg id="Layer_2" data-name="Layer 2" xmlns="http://www.w3.org/2000/svg" viewBox="0 0 116.11 253">
  <defs>
    <style>
      .cls-1 {
        fill: #2c45c9;
      }

      .cls-2 {
        fill: #2c45c9;
      }

      .cls-3 {
        fill: #2c45c9;
      }
    </style>
  </defs>
  <g id="gentrace-sample-file-last-art">
    <g>
      <path class="cls-2" d="M116.05,108.34c0-17.3-15.01-29.24-30.77-30.69l-1.22-24.78c-1.36-4.19-8.73-3.97-12.5-3.24l-.18-22.93,23.85-.51c8.74-.19,8.36-18.7,5.03-22.7C98.77,1.69,95.62-.04,92.03,0l-46.05.56c-4.1.05-7.36,3.31-12.43,2.54-7.09-1.09-14.68,1.4-20.19,5.61-4.85,3.71-5.37,10.74-1.41,14.73,3.91,3.93,9.1,3.68,14.34.36,4.62-2.93,16.2-2.35,18.3,3.41,2.49,6.83.08,15,.72,22.2-5.52-1.01-12.98-.47-13.15,4.83l-.78,23.23C12.2,80.25-.09,95.2,0,114.3l.56,114.29c.05,10.58,7.97,19.15,18.27,20.95,25.91,4.54,52.35,4.7,78.91-.12,10.54-1.91,18.37-10.9,18.37-21.22l-.06-119.88ZM20.73,19.94c-1.25.95-3.8.13-4.52-.79-4.05-5.17,8.17-12.08,18.59-10.18,4.6.84,7.88-2.04,11.6-2.08l48.67-.54c1.13,5.06,1.18,8.99-.02,14.07l-48.71-.41c-5.06-5.49-19.42-4.79-25.61-.07ZM64.83,26.73v25.2h-13.14v-25.2h13.14ZM37.92,54.88c14.37,3.73,27.11,3.84,40.58.58l.04,25.32c-13.85,2.73-26.91,2.6-40.64-.16l.02-25.74ZM95.11,243.77c-24.36,3.72-48.73,3.69-73.2.17-8.32-1.2-15.23-7.94-15.23-16.78l-.02-116.54c0-14.1,11.39-24.6,24.35-26.89l6.84,3.24c13.75,3,35.31,3.5,47.24-2.89,12.84.46,24.79,11.8,24.81,25.5l.17,116.92c.01,9.51-6.49,15.97-14.96,17.27Z"/>
      <path class="cls-1" d="M97.98,120.41c-25.89,6.33-52.83,6.41-78.67-.1-2.02-.51-2.43-2.96-2.14-4.05.46-1.67,2.05-2.2,4.22-1.67,24.47,5.88,50,5.89,74.49-.01,2.34-.57,3.73-.23,4.43,1.66.46,1.26-.13,3.64-2.34,4.17Z"/>
      <path class="cls-3" d="M99.85,194.98c0,2.52-1.32,3.25-2.32,3.59-1.15.39-3.63-.45-3.63-2.47l-.04-61.91c0-1.6,1.72-2.73,2.64-2.85,1.47-.18,3.29,1.4,3.29,3.58l.05,60.05Z"/>
    </g>
  </g>
</svg>