<?xml version="1.0" encoding="UTF-8"?>
<svg id="Layer_2" data-name="Layer 2" xmlns="http://www.w3.org/2000/svg" viewBox="0 0 247.1 230.42">
  <defs>
    <style>
      .cls-1 {
        fill: #2c45c9;
      }

      .cls-2 {
        fill: #2c45c9;
      }

      .cls-3 {
        fill: #2c45c9;
      }

      .cls-4 {
        fill: #2c45c9;
      }

      .cls-5 {
        fill: #2c45c9;
      }

      .cls-6 {
        fill: #2c45c9;
      }

      .cls-7 {
        fill: #2c45c9;
      }

      .cls-8 {
        fill: #2c45c9;
      }

      .cls-9 {
        fill: #2c45c9;
      }

      .cls-10 {
        fill: #2c45c9;
      }

      .cls-11 {
        fill: #2c45c9;
      }

      .cls-12 {
        fill: #2c45c9;
      }

      .cls-13 {
        fill: #2c45c9;
      }

      .cls-14 {
        fill: #2c45c9;
      }

      .cls-15 {
        fill: #2c45c9;
      }

      .cls-16 {
        fill: #2c45c9;
      }

      .cls-17 {
        fill: #2c45c9;
      }
    </style>
  </defs>
  <g id="gentrace-sample-file-last-art">
    <g>
      <path class="cls-10" d="M184.91,0c-11.93,0-21.6,9.67-21.6,21.6s9.67,21.6,21.6,21.6,21.6-9.67,21.6-21.6S196.84,0,184.91,0ZM184.96,36.85c-8.48,0-15.36-6.88-15.36-15.36s6.88-15.36,15.36-15.36,15.36,6.88,15.36,15.36-6.88,15.36-15.36,15.36Z"/>
      <path class="cls-4" d="M228.62,51.51c-10.21,0-18.48,8.27-18.48,18.48s8.27,18.48,18.48,18.48,18.48-8.27,18.48-18.48-8.27-18.48-18.48-18.48ZM228.58,82.24c-6.79,0-12.3-5.5-12.3-12.3s5.5-12.3,12.3-12.3,12.3,5.5,12.3,12.3-5.5,12.3-12.3,12.3Z"/>
      <g>
        <g>
          <circle class="cls-16" cx="161.86" cy="187.19" r="4.66"/>
          <circle class="cls-13" cx="123.36" cy="198.19" r="4.56"/>
          <circle class="cls-6" cx="96.14" cy="182.09" r="4.38"/>
          <circle class="cls-11" cx="58.8" cy="173.73" r="4.81"/>
          <circle class="cls-12" cx="36.3" cy="187.36" r="4.56"/>
          <circle class="cls-1" cx="184.07" cy="161.67" r="4.6"/>
          <circle class="cls-17" cx="139.89" cy="168.79" r="4.31"/>
          <circle class="cls-14" cx="22.46" cy="160.75" r="4.39"/>
          <circle class="cls-15" cx="78.42" cy="203.13" r="4.19"/>
        </g>
        <g>
          <path class="cls-5" d="M207.95,122.65c-.05-8.09-10.56-11.24-15.62-14.9.35-6.88,2.3-14.16-2.55-20.65-3.69-4.94-10.93-6.32-16.53-8.69-6.21-6.92-13.11-14.08-24.1-12.38-8.93-.48-16.82,4.31-21.36,11.83-10.14-.36-18.5,4.83-21.64,14.07-8.06.97-14.75,4.18-22.16,6.98-25.52,9.63-48.12-.14-70.46,9.92-4.89,2.2-13.19,6.85-13.22,13.04L0,187.34c-.06,12.46,15.66,22.38,30.12,23.08,12.71.62,22.12,6.04,32.71,13,14.54,9.55,50.82,9.18,65.3-.16,11.8-7.61,23.64-12.72,38.27-12.7,19.44.02,42.02-6.23,41.92-24.67l-.36-63.23ZM113.91,89.57c3.31-5.83,11.35-5.02,16.59-5.91,5.24-6.61,10.74-12.14,19.42-12.08,9.15.06,14.84,5.63,19.34,13.27,5.34.91,12.86,1.41,15.77,6.82,3.03,5.63,2.85,12.67-2.06,17.46-5.37,5.25-12.16,1.64-18.37.63-5.53,2.75-9.83,7.14-15.99,7.08-5.66-.05-10.48-3.81-15.1-7.18-6.66,1.86-14.22,3.39-19.21-2.84-4.08-5.09-3.27-12.21-.4-17.25ZM201.87,187.39c-.01,5.74-5.22,9.85-10.29,12.56-8.17,3.53-16.79,4.66-25.14,4.57-16.5-.16-29.34,6.06-42.9,14.03-11.21,6.59-25.95,5.71-38.45,5.03-9.24-.5-16.98-3.53-24.12-8.67-9.74-7.01-20.89-9.92-32.84-10.8-9.39-1.62-18.09-6.02-21.69-14.96l-.05-52.1c10.26,6.64,20.46,8.75,31.48,9.75,8.8,1.63,16.12,5.92,23.9,10.52,21.59,9.15,46.17,8.64,67.8-.37,24-16.96,48.02-3.62,72.42-20.04l-.12,50.47ZM168.27,140.23c-16.24-.18-28.41,4.21-41.98,10.81-18.68,9.09-42.58,9.12-61.32.49-10.33-4.76-18.5-10.74-30.12-11.4-11.8-.68-28.17-6.64-28.67-14.28-.73-11.13,20.86-16.89,37.42-16.2,13.92.58,27.36-.1,40.54-4.43l21.17-6.96c-.27,7.62,3.79,12.59,7.81,15.74,5.72,4.47,12.98,3.31,19.02,2.56,10.16,8.6,22.98,7.36,33.52.43,6.63.76,15.89,2.63,21.77-3.83,5.17.55,10.79,4.6,13.6,9.04,5.83,9.26-14.51,18.24-32.77,18.04Z"/>
          <g>
            <path class="cls-9" d="M46.75,127.86c-3.01-.47-4.41-2.34-4.32-4.29.1-2.31,2.29-3.81,4.95-3.9,2.86-.09,4.92,1.9,5.08,3.95.23,2.96-2.05,4.8-5.72,4.23Z"/>
            <path class="cls-8" d="M95.65,115.19c1.85,1.13,1.67,3.33,1.22,4.48-1.18,2.97-7.14,2.98-8.89.79-.89-1.11-1.1-3.72.45-5.02,1.68-1.41,4.95-1.64,7.22-.25Z"/>
            <path class="cls-2" d="M169.72,126.19c1.9,3.71-2.05,4.88-4.13,4.87s-5.81.22-5.8-3.6,8.16-4.73,9.93-1.27Z"/>
            <path class="cls-7" d="M87.98,137.95c1.77,3.29-1.4,5.56-3.76,5.86-3.09.39-6.25-1.06-5.22-5.12.87-3.43,7.33-3.81,8.98-.74Z"/>
            <circle class="cls-3" cx="118.94" cy="134.39" r="4.22"/>
          </g>
        </g>
      </g>
    </g>
  </g>
</svg>