<?xml version="1.0" encoding="UTF-8"?>
<svg id="Layer_2" data-name="Layer 2" xmlns="http://www.w3.org/2000/svg" viewBox="0 0 281.89 231.57">
  <defs>
    <style>
      .cls-1 {
        fill: #2c45c9;
      }
    </style>
  </defs>
  <g id="gentrace-sample-file-last-art">
    <g>
      <path class="cls-1" d="M269.44,4.82c-2.91-3.76-7.55-5.01-11.6-3.18-3.62,1.63-5.51,5.98-4.61,10.67,5.77,30.03-1.35,58.68-26.26,77.03-24.35-10.99-45.81.99-71.56-1.36l2.04-14.81,5.77-11.04c4.86-11.91.62-24.61-11.07-30.1-14.44-6.79-15.02-22.33-35.52-19.6-18.77-16.85-50.13-16.39-68.63.26-19.15-2.92-21.43,13.01-35.01,19.54C1.05,37.96-3.45,51.65,2.84,63.78c3.38,6.52,6.31,12.42,6.36,20.22.05,7.64,7.26,12.72,14.53,11.2,5.31-1.11,8.67-4.48,12.15-8.34,3.05,10.38,9.16,17.67,18.75,22.23-2.97,12.46,1.85,23.08,5.21,34.36l1.86,25.13c.63,8.57,1.24,18.96-2.43,26.27-5.37,2.52-10.96,4.75-12.88,10.31-1.67,4.86-2.08,12.5,3.3,15.49,9.11,5.07,20.35,2.99,29.97,2.4,5.77,9.67,28.1,10.47,38.65,5.65,7.4-3.38,7.54-10.8,9.13-17.68,2.45-10.61,7.83-20.07,8.66-31.63,14.07.76,26.65-.05,40.27-3.29l9.26,9.69c1.53,1.6,2.11,5.74-.1,6.58-5.5,2.1-9.24,4.97-10.87,9.78-1.45,4.28-1.87,11.13,2.88,14,7.87,4.76,18.17,2.5,25.95,2.56,1.89,4.45,4.7,8.09,10.14,8.64,8.04.83,15.77,2.14,23.76.11,7.74-1.97,13.6-7.85,13.12-16.44-1.03-18.29,10.85-27.34,1.01-40.28-2.01-5.22-.66-10.5.86-15.78,4.47-15.49,4.76-31.21-2.5-45.97,31.12-23.24,43.26-73.59,19.56-104.15ZM40.51,80.7l1.25-31.74c.09-2.17.61-3.69-1.31-4.47-1.79-.72-4.01.51-4.17,2.59l-1.88,23.48c-.89,11.06-7.39,20.16-15.14,18.37-2.71-.63-4.08-3.54-3.94-6.55.35-8.09-3.24-14.23-6.57-20.75-4.81-9.42-1.83-19.48,7.14-24.1,15.93-8.2,16.17-22.54,33.53-18.33,18.79-17.58,46.31-17,65.67-.66,6.9-.22,15.09-.39,19.48,6.96,6.39,10.68,20.57,12.24,23.37,21.04,1.75,5.51,1.05,11.21-1.81,15.81-9,14.49-4.03,22.63-8.79,25.77-2.05,1.35-4.89,1.31-7.51-.02-6.73-3.41-9.06-10.64-9.61-18.17l-1.65-22.74c-.13-1.74-1.71-3.5-2.93-3.47-2.19.05-3.72,2.03-2.79,4.49l1.97,32.05c-3.13,14.88-14.11,22.05-26.75,28.18-5.93,2.88-8.19,8.72-14.97,8.73-7.26.01-9.73-4.56-15.35-8.07-11.85-5.7-25.71-12.95-27.26-28.42ZM79.4,216.6c-8.23.99-19.02,3.16-26.45-1.94-4.97-3.41,1.73-13.57,7.13-13.61,10.98-.07,8.41-30.64,6.62-47.71,8.14,8.9,16.88,15.28,27.96,18.76,1.17,6,.02,10.99-1.8,16.47l-5.23,14.03c-3.68,4.31-7.72,6.44-8.23,14ZM204.02,211.37c-6,2.85-15.81,2.57-22.46-.31-3.35-1.45-1.5-6.88-.42-8.79,1.42-2.52,5.07-3.24,8.45-4.93,5.54-2.77,4.65-12.98.19-16.67-2.66-2.2-4.83-3.14-6.64-5.97l11.41-3.62c5.39,7.59,11.97,13.04,21.31,16.67-1.25,14.27-7.64,14.99-11.83,23.62ZM240.25,106.39c20.83,28.3-1.89,52.86,5.73,66.28,3.3,5.81,4.5,10.09,1.84,16.54-2.96,7.18-4,15.16-3.63,23.04.53,11.43-19.27,12.53-33.21,7.44-2.83-1.57-.79-7.47.37-10.06,1.48-3.3,5.51-2.91,9.04-5.91,4.38-3.73,4.22-16.53-.26-20.43-18.19-7.18-28.98-23.1-26.42-42.92.18-1.43-1.24-3.05-2.52-3.21-5.77-.73-5.39,16.41.62,28.51-17.39,5.78-35.65,8.65-54.4,7.89l1.25-17.23c.16-2.25-1.38-3.32-3.11-3.19-1.59.11-2.89,1.32-2.85,4.01.27,19.22-5.78,35.87-11.77,53.15-1.51,4.37.52,10.91-5.87,13.06-8.12,2.73-20.8,3.4-28.33-2.1-4.59-3.94,1.77-14.07,6.57-14.68,3.93-.5,5.53-2.23,6.06-5.5,2.72-16.63,2.04-50.55-1.87-51.59-1.33-.35-3.54.43-3.47,2.48l.47,13.42c-22.37-8.02-35.88-29.99-34.56-53.2,4.21-.38,4.79,2.42,6.65,4.26,10.17,10.12,27.5,7.99,34.84-3.96,13.44-3.98,23.17-13.12,27.89-25.74,5.36,7.71,13.8,11.31,21.55,6.18,13.28,2.6,26.17.88,39.44-1.3,14.18-2.1,28.31-1.27,40.38,6.49,1.22.78,2.77,1.19,3.74.78.76-.32,2.01-1.54,2-2.65,0-1.05-1.54-2.49-3.44-3.72,11.45-8.92,19.38-20.73,24.3-34.82,9.13-26.14-.31-48.68,3.23-50.78,4.3-2.56,13.31,14.26,14.66,29.75,1.97,22.47-6.23,44.71-21.44,61.09-3.79,4.08-7.39,6.24-13.5,8.65Z"/>
      <path class="cls-1" d="M70.05,100.07c.77,3.89,3.4,10.76,12.4,10.76s11.54-4.92,12.51-8.86l1.72-6.99c6.26-1.14,11.26-5.26,12.59-11.55.38-1.8-1.01-3.17-1.9-3.59-4.3-2.05-3.37,7.72-11.3,9.3-3.73.75-8.24-.49-10.21-3.93-3.84-6.7,6.24-7.14,7.07-13.51.22-1.72-.48-4.68-2.79-5.62-4.98-2.02-11.4-2-16.39.1-2.61,1.1-2.83,4.48-2.23,6.75,1.43,5.4,8.31,4.45,7.79,11.13-.21,2.74-2.19,4.57-5.52,5.19-12.39,2.31-12.05-9.67-16-9.05-1.27.2-2.41,1.6-2.19,3.25.91,6.87,6.41,10.13,12.44,12.04,1.01,1.47,1.53,3.13,2.02,4.58ZM76.26,93.93c.89-.68,2.45-1.89,4.11-1.19-.96,2.37-.76,6.96.85,7.46,3.38,1.05,4.52-2.99,3.64-6.14.51-1.57,4.26-.35,5.24.65,1.03,1.05.15,3.33-.19,5.37h0c-1.61,6.9-5.11,6.47-7.22,6.47s-6.04-.02-6.74-5.3c0-.02,0-.03-.01-.05-.17-2.39-1.67-5.72.32-7.26Z"/>
      <path class="cls-1" d="M61.59,58.47c3.53,0,6.39-2.86,6.39-6.39s-2.86-6.39-6.39-6.39-6.39,2.86-6.39,6.39,2.86,6.39,6.39,6.39Z"/>
      <path class="cls-1" d="M102.69,58.55c3.5,0,6.33-2.83,6.33-6.33s-2.83-6.33-6.33-6.33-6.33,2.83-6.33,6.33,2.83,6.33,6.33,6.33Z"/>
    </g>
  </g>
</svg>