<?xml version="1.0" encoding="UTF-8"?>
<svg id="Layer_2" data-name="Layer 2" xmlns="http://www.w3.org/2000/svg" viewBox="0 0 142.9 260.32">
  <defs>
    <style>
      .cls-1 {
        fill: #2c45c9;
      }

      .cls-2 {
        fill: #2c45c9;
      }

      .cls-3 {
        fill: #2c45c9;
      }
    </style>
  </defs>
  <g id="gentrace-sample-file-last-art">
    <g>
      <path class="cls-3" d="M112.65,39.27c-9.36,4.78-30.51,6.75-31.16,2.94-.78-4.56,16.05-2.02,27.28-7,.89-.74,1.79-1.86,2.54-2.14,1.52-.56,3.19.34,3.2,1.82,0,1.19-.34,3.6-1.85,4.37Z"/>
      <g>
        <path class="cls-2" d="M142.61,87.89c-.03-13.78-10.83-23.26-22.67-27.84-1.23-2.56-1.9-7.69.59-9.36,2.08-1.39,6.74-2.15,6.7-5.67l-.44-32.44c-.06-4.24-7.3-6.96-11.51-7.88-29.21-6.36-59.34-6.35-88.46.48-3.9.91-10.6,3.53-10.65,7.52l-.39,32.26c-.04,3.62,4.91,4.56,6.96,6.24,1.79,1.47,1.99,8.09-.33,9.13C11.65,65.19.39,73.72.36,86.86L0,229.72c-.02,9.34,5.35,16.73,13.15,20.72,26.08,13.35,95.04,13.31,117.97-.93,7.5-4.66,11.8-11.81,11.78-20.95l-.29-140.67ZM21.78,43.89l.04-29.82c4.22-2.43,8.32-3.6,12.97-4.43,24.05-4.3,48.25-4.41,72.36-.32,4.99.85,9.48,2.03,13.84,4.64l.18,29.78c-16.08,5.93-32.47,7-49.4,6.88-17.11-.12-33.66-1.23-49.98-6.73ZM113.23,56.7c-.12.94-1.2,1.67-3.5,2.2-26.5,6.17-53.2,5.44-79.29-.8-1.04-.83-.98-4.29-.17-5.37,28,5.12,55.68,6.04,82.67-.04.44,2.23.4,3.15.29,4ZM18.78,69.02l11.54-5.71c27.13,7.04,55.18,7.1,82.35.17l9.83,4.73c10.72,5.15,15.77,16.52,13.5,27.73-40.39,10.52-88.62,10.26-129.13-.03-2.45-10.49,1.86-21.91,11.91-26.89ZM6.37,102.11c43.34,10.49,86.9,10.78,130.06-.12l-.02,102.46c-23.98,8.41-48.47,10.24-73.46,9.53-19.4-.55-37.92-2.8-56.53-9.4l-.05-102.47ZM135.52,234.52c-2.01,7.58-9.54,10.97-17.08,14.11-28.86,8.25-112.07,10.03-112-18l.04-19.48c40.7,12.86,89.44,12.71,129.59-.12.01,8.37,1.43,16.06-.55,23.5Z"/>
        <path class="cls-1" d="M107.85,149.86c-7.49-1.09-13.62,1.24-20.1,3.44-1.12-12.19-7.02-22.81-16.19-30.75-9.77,7.98-15.71,18.41-16.92,30.79-6.88-2.79-13.2-4.67-20.41-3.11-1.96,21.85,10.7,40.7,32.98,42.67,1.85.16.02,6.6,2.54,7.83.98.48,2.41.29,3.1-.5,1.88-2.12.15-6.28,2.16-7.4.97-.54,2.37-.31,3.77-.53,20.12-3.19,32.3-22.54,29.08-42.45ZM68.43,181.37l-14.94-14.97c-1-1-2.29-1.18-3.22-.7-5.38,2.71,9.49,11.5,15.05,21.57-15.68-2.88-26.5-16.39-26.06-32.17,15.79,1.15,32.04,13,29.17,26.27ZM71.94,143.65c-1.1-.32-3.1.7-3.12,2.41l-.19,17.05-8.71-7.39c-.05-10.07,4.68-18.45,11.56-26.04,6.6,7.54,10.86,15.93,10.81,25.66l-8.24,7.91-.17-16.67c-.02-1.79-1.27-2.75-1.94-2.94ZM77.41,187.27c4.86-10.05,17-17.48,15.33-20.73-1.89-3.68-11.75,6.7-18.27,15.09-4.07-13.21,13.08-26.09,28.46-26.18-1.11,17.24-9.07,28.13-25.52,31.82Z"/>
      </g>
    </g>
  </g>
</svg>