<?xml version="1.0" encoding="UTF-8"?>
<svg id="Layer_2" data-name="Layer 2" xmlns="http://www.w3.org/2000/svg" viewBox="0 0 306.23 269.72">
  <defs>
    <style>
      .cls-1 {
        fill: #2c45c9;
      }

      .cls-2 {
        fill: none;
        stroke: #2c45c9;
        stroke-linecap: round;
        stroke-linejoin: round;
        stroke-width: 10.68px;
      }
    </style>
  </defs>
  <g id="Layer_1-2" data-name="Layer 1">
    <g>
      <path class="cls-2" d="M208.08,133.03l18.76,30.11c-12.52-5.72-23.87-2.56-30.92,5.76-8.56,10.1-27.01,36.84-27.01,36.84"/>
      <path class="cls-2" d="M162.45,174.23l-18.48,30.72c-2.13,3.55-2.12,7.99.05,11.52l20.65,33.65"/>
      <path class="cls-2" d="M186.27,151.54c-12.65-15.63-22.18-21.95-34.34-21.95s-23.7,4.99-39.32,20.36c-15.63,15.36-36.13,22.52-71.47,22.31"/>
      <path class="cls-1" d="M302.64,123.33l-27.63.08c-1.6,0-3.63-3.17-3.63-4.69s2.02-4.65,3.62-4.66l25.7-.29c2.17-.02,4.73,1.69,5.33,3.31.74,1.99-.58,6.25-3.39,6.25Z"/>
      <path class="cls-1" d="M24.82,256.84c14.37,2.11,27.95,3.14,42.18,2.93l68.96-1.03,141.63-2.46c4.6-.08,9.63-1.83,12.16-5.35,4.29-5.97,4.66-14.57.81-21.19l-48.57-83.48L164.77,20.81c-3.66-5.95-8.22-9.8-14.46-10.59-6.15-.78-13.61,1.07-16.99,6.85l-23.36,39.96-55.12,98.39s-2.85,4.58-7.01,2.95c-2.39-.93-4.17-3.26-2.63-5.83L123.68,13.3C128.83,4.16,138.2-.02,147.9,0c9.62.02,18.84,5.13,24.43,14.23l82.51,134.39,43.23,74.56c4.86,8.39,6.33,17.73,3.12,27.08-2.83,8.25-10.92,15.43-20.37,15.6l-131.38,2.41-72.85,1.37c-17.71.33-34.85-.35-52.13-2.71-9.89-1.35-18.22-7.21-22.05-15.94-4.2-9.58-2.62-19.49,2.52-28.36l28.78-49.72c4.68-7.72,8.43-4.56,8.99-3.05.6,1.59,1.26,4.87.23,6.64l-30.56,52.66c-3.19,5.5-3.65,11.96-1,17.61,2.14,4.55,6.85,9.11,13.45,10.08Z"/>
      <path class="cls-1" d="M269.53,101.49c-1.27,1.03-5.14.22-6.01-1s-1.33-5.09-.17-6.08l23.75-20.33c2.18-1.86,5.6-1.55,7.13.31,2,2.43,1.56,5.73-.96,7.78l-23.74,19.31Z"/>
      <path class="cls-1" d="M252.96,85.8c-.47,2.04-4.47,3.29-6.32,2.82-2.17-.55-3.48-3.58-2.88-6.23l6.24-27.35c.46-2.02,4.14-3.66,5.8-3.14,2.02.62,4.2,3.63,3.67,5.92l-6.51,27.99Z"/>
    </g>
  </g>
</svg>