<?xml version="1.0" encoding="UTF-8"?>
<svg id="Layer_2" data-name="Layer 2" xmlns="http://www.w3.org/2000/svg" viewBox="0 0 310.26 256.73">
  <defs>
    <style>
      .cls-1 {
        fill: #2c45c9;
      }

      .cls-2 {
        fill: none;
        stroke: #2c45c9;
        stroke-linecap: round;
        stroke-linejoin: round;
        stroke-width: 9.94px;
      }
    </style>
  </defs>
  <g id="Layer_1-2" data-name="Layer 1">
    <g>
      <g>
        <path class="cls-1" d="M69.84,256.43l-47.88.3c-11.1.07-20.33-8.24-21.08-19.5-1.32-19.84-.8-38.91-.7-59.19L.9,22.41c.05-9.72,6.26-17.81,15.8-18.48,23.63-1.68,46.65-2.04,70.5-2.25l65.36-.58L224.45.07,285.62,0c11.98-.01,20.1,9.24,21.75,20.61,2.15,14.81,3.12,28.99,2.84,44.28l-2.25,126.58-1.91,44.63c-.45,10.54-8.73,19.89-19.8,19.79l-52.45-.47-163.97,1.01ZM155.8,245.97l127.97.18c7.19,0,12.28-4.75,12.58-11.57l1.79-39.66,2.2-119.65c.34-18.15.18-35.26-2.86-52.86-1.39-8.08-6.69-13.18-15.49-13.09l-163.38,1.79-48.45-.26-50.6,2.23c-4.5.2-8.71,3.95-8.73,8.75l-.23,106.16-.31,106.79c-.02,6.92,5.67,12.15,12.66,12.1l132.83-.93Z"/>
        <path class="cls-1" d="M280.61,237.55c-1.87.17-4.95-.19-5.69-1.19s-.82-3.58-.18-4.68,2.79-1.65,5.15-2.3c4.55-1.27-.16-11.8,4.77-14.29,1.36-.69,5.53.52,5.49,2.1l-.28,12.14c-.11,4.92-3.97,7.74-9.26,8.24Z"/>
      </g>
      <line class="cls-2" x1="43.83" y1="213.86" x2="43.83" y2="43.55"/>
      <line class="cls-2" x1="67.19" y1="213.86" x2="67.19" y2="43.55"/>
      <line class="cls-2" x1="90.54" y1="180.07" x2="90.54" y2="43.55"/>
      <line class="cls-2" x1="117.25" y1="213.86" x2="117.25" y2="43.55"/>
      <line class="cls-2" x1="151.49" y1="180.07" x2="151.49" y2="43.55"/>
      <line class="cls-2" x1="181.05" y1="213.86" x2="181.05" y2="43.55"/>
      <line class="cls-2" x1="210.88" y1="180.07" x2="210.88" y2="43.55"/>
      <line class="cls-2" x1="239.75" y1="213.86" x2="239.75" y2="43.55"/>
      <line class="cls-2" x1="267.56" y1="180.07" x2="267.56" y2="43.55"/>
    </g>
  </g>
</svg>