<?xml version="1.0" encoding="UTF-8"?>
<svg id="Layer_2" data-name="Layer 2" xmlns="http://www.w3.org/2000/svg" viewBox="0 0 266.72 294.18">
  <defs>
    <style>
      .cls-1 {
        fill: #2c45c9;
      }

      .cls-2 {
        fill: none;
        stroke: #2c45c9;
        stroke-linecap: round;
        stroke-linejoin: round;
        stroke-width: 9.32px;
      }
    </style>
  </defs>
  <g id="Layer_1-2" data-name="Layer 1">
    <g>
      <path class="cls-2" d="M179.15,106.38l16.37,26.27c-10.92-4.99-20.82-2.23-26.98,5.03-7.47,8.81-23.57,32.14-23.57,32.14"/>
      <path class="cls-2" d="M139.35,142.32l-16.12,26.81c-1.86,3.1-1.85,6.97.04,10.05l18.02,29.36"/>
      <path class="cls-2" d="M160.12,122.52c-11.04-13.63-19.35-19.15-29.96-19.15s-20.68,4.36-34.31,17.76c-13.63,13.4-23.7,18.97-54.54,18.78"/>
      <g>
        <path class="cls-1" d="M252.92,294.18l-240.18-.06c-7.78,0-12.77-6.7-12.74-13.27l.12-27.22c.03-6.77,5.96-11.92,13.05-11.95l106.9-.53h132.5c6.3,0,11.92,4.24,12.92,10.15,1.55,9.16,1.41,20.3.77,29.5-.51,7.34-5.09,12.45-13.35,13.38ZM133.47,270.8l-.05,15.01,17.03-.1.1-7.74c.01-1.07,2-2.71,2.97-2.55.81.13,2.18,1.7,2.21,2.64l.22,7.73,15.72.18.09-16.24c0-1.18,2.26-3.08,3.33-2.96s3.09,2.03,3.1,3.13l.22,15.89,16.44-.06.8-9.01c.1-1.09,3.47-1.78,4.18-1.03.59.62,1.3,2.2,1.34,3.14l.3,6.95,16.37.12-.12-15.3c-.01-1.58,1.52-3.68,3.18-3.91,1.32-.18,3.66,1.83,3.68,3.21l.17,15.82,26.24.1c9.61.04,8.01-16.84,6.94-29.79-.3-3.71-1.83-6.6-6.26-6.6l-145.89.03-91.46.3c-1.61,0-4.32,1.19-5.59,2.28-1.16,9.09-1.45,20.4-.2,29.67.32,2.37,3.72,4.32,6.01,4.29l24.08-.29-.39-16.03c-.03-1.24,3.11-2.78,4.17-2.29.91.42,2.14,2.26,2.14,3.47l.05,15.02,16.88-.21.69-8.9c.08-1.02,3.43-1.72,4.1-.96.55.63,1.32,2.36,1.31,3.28l-.03,6.71,16.68.05.1-16.37c0-.97,2.15-2.75,3.04-2.72s2.89,1.86,2.91,2.99l.35,15.91,16.31.21-.04-7.82c0-1.04,1.88-2.79,2.88-2.81s2.67,1.73,2.69,2.79l.13,7.8,14.36-.03.16-15.67c.01-1.36,2.91-3.27,3.99-2.77.92.43,2.39,2.39,2.39,3.45Z"/>
        <path class="cls-1" d="M38,140.38c-.65-.81-.96-5.58-.52-6.55l3.11-6.73L105.32,11.2C109.97,2.87,119.6-.3,128.3.02c9.29.34,16.03,6.2,21.52,14.1l51.73,74.46c17.2,24.76,33.72,48.91,48.15,75.34l14.34,30.46c3.12,6.62,2.76,14.89-.79,21.19-4.12,7.3-12.14,10.76-20.41,10.85l-64.57.68-91.34,1.58-61.8-.21c-15.02-.05-26.11-12.08-24.03-27.15.49-3.58,1.64-7.41,3.5-10.64l27.17-47.17c2.58-.11,4.6,1.8,5.78,4,.98,1.83-.22,4.41-1.52,6.69l-25.14,43.85c-2.41,4.19-1.26,9.97.82,14.21,1.62,3.3,6.68,7.18,11.58,7.23l54.65.61,57.98-1,107.54-1.56c4.64-.07,8.76-1.94,11.25-4.9s3.4-8.25,1.91-12.39c-6.15-17.13-14.28-32.97-24.18-48.29l-31.35-48.54-60.01-86.78c-3.85-5.57-9.38-8.41-16.01-8.05-6.19.34-10.82,4.2-14.14,10.2l-65.42,118.4"/>
      </g>
    </g>
  </g>
</svg>