<?xml version="1.0" encoding="UTF-8"?>
<svg id="Layer_2" data-name="Layer 2" xmlns="http://www.w3.org/2000/svg" viewBox="0 0 277.75 285.06">
  <defs>
    <style>
      .cls-1 {
        fill: #2c45c9;
        stroke: #fff;
        stroke-miterlimit: 10;
        stroke-width: .19px;
      }
    </style>
  </defs>
  <g id="Layer_1-2" data-name="Layer 1">
    <g>
      <path class="cls-1" d="M121.67,230.22c-1.08-2.31-.7-5.67.43-8.39l5.52-13.25c1.48-3.55-.43-8.56-2.76-11.47-2.11-2.64-6.81-4.55-10.75-4.56l-43.17-.11-12.11.58,18.8-36.65,16.39,8.87c1.22.66,3.75.21,4.64-.57.89-.78,2.12-3.86,1.58-5.12l-10.74-25.17-11.78-30.63c-1.12-2.92-5.45-4.31-8.64-4.24-19.89,2.45-38.67,5.37-58.17,9.49-.99,1.21-2.07,2.97-2,4.03s1.37,3.09,2.25,3.8l9.11,7.45L2.61,157.19c-3.76,7.02-3,15.55.27,22.73l25.95,57.15c6.24,13.74,17.03,23.1,32.66,24.94,17.96,2.11,36.04,2.42,54.2.63,4.52-.45,8.87-3.75,10.69-6.48,2.34-3.5,3.1-9.22,1.41-12.84l-6.12-13.09ZM34.03,224.08l-23.09-49.6c-2.78-5.97-1.02-12.19,1.9-17.4l16.56-29.53c2.73-4.86-.98-8.71-5.31-12.36,15.72-3.01,30.48-4.97,45.64-6.28l17.5,42.3-5.87-2.95c-2.18-1.09-8.05-2.24-9.57.74l-32.33,63.14-5.43,11.93ZM113.89,253.43c-17.23,1.98-34.12,1.56-51.33-1.02-5.44-.82-11.49-3.12-15.28-6.89-4.32-4.29-4.48-11.18-3.4-17.11,1.49-8.13,5.53-15.22,9.02-22.72,1.34-2.88,3.79-4.8,7.15-4.77l53.13.44c1.39.01,3.85,1.31,4.59,2.32s.73,4.12.19,5.29l-5.48,12.05c-2.02,4.44-1.34,8.91.69,13.17l5.5,11.53c1.62,3.4-1.36,7.34-4.78,7.73Z"/>
      <path class="cls-1" d="M156.73,86.1l-6.96,5.94c-1.29,1.1-2.69,3.96-2.68,5.53.01,1.37,2.08,4.32,3.49,4.48l56.36,6.49c4.21.48,8.02-2.64,9.64-6.46l21.57-50.83c.61-1.44-.83-4.88-2.09-5.61-1.11-.64-4.23-.85-5.48-.16l-13.1,7.21-19.28-32.72c-5.68-9.64-14.72-15.15-25.94-17.17-21.4-3.84-43.15-3.36-64.7-.07-12.97,1.98-22.96,9.63-28.56,21.33l-21.62,45.17c-2.15,4.49,3.31,10.84,6.75,12.77,5.42,3.05,10.57,3.52,16.86,4.34l6.98,10.35c3.06,4.55,7.8,7.38,13.28,7.13,3.99-.19,9.91-2.72,12.34-6.98l24.09-42.22c.27-.66.71-1.23,1.24-1.76l17.82,33.23ZM130.67,48.71l-23.21,40.97c-1.95,3.44-6.82,6.9-10.63,3.2-6.62-6.42-6.12-14.74-15.24-15.57-6.79-.62-14.5-2.68-14.89-6.49-.12-1.19.83-3.53,1.54-4.91l19.68-38.66c2.97-5.84,7.82-11.19,14.25-12.71,7.59-1.8,15.91,2.22,19.8,8.9l9.25,15.86c1.68,2.89,1.13,6.45-.54,9.4ZM120.68,10.55c3.53-1.01,11.77-1.27,13.78-1.34,13.4-.52,24.55.65,37.56,3.3,6.66,1.35,13.45,4.88,17.02,11l20.82,35.64c1.15,1.97,3.94,4.72,6.33,3.54l9.36-4.64-8.81,20.73-9.88,20.51-45.67-5.07c2.45-2.51,4.32-4.1,5.06-5.61.82-1.67-.17-5.32-1.06-6.91l-23-38.88c-4.83-10.52-14.45-27.89-21.51-32.26Z"/>
      <path class="cls-1" d="M273.9,147.12c-6.13-13.45-12.57-26.72-22.29-37.73-3.53-4-9.42-5.61-14.36-5.45-4.52.15-9.22,3.4-12.36,7.45l-7.66,9.9-18.78,4.03c-3.75.81-7.53,4.51-8.64,7.27-1.43,3.57-.95,8.31,1.06,11.55,4.53,7.28,15.64,26.13,20.51,37.04,1.93,4.32,4.76,10.74,4.76,10.74l-36.13-.21-.5-11.03c-.1-2.14-1.22-4.69-3.18-5.31-1.72-.54-4.85.56-5.78,2.04l-6.79,10.88-17.89,29.84-5.92,7.31c.52,3.39,3.83,5.82,5.18,8.31l5.78,10.65,23.6,39.39,3.09,1.16c.66.25,1.96-1.65,1.97-2.5l.21-21.22,30.75.19c23.13.14,32.97-16.95,42.33-35.76l18.78-37.72c6.5-13.06,8.4-27.31,2.24-40.81ZM241.4,228.3c-6.18,12.55-15.87,23.72-29.91,23.81l-34.32.22c-1.52,0-4.6,1.09-4.86,2.46l-1.27,6.61-13.42-21.94-8.12-13.47c3.33-3.18,5.37-5.58,7.47-9.14l14.21-24.12,1.65,6.18c.35,1.33,3.76,1.79,5.38,1.79l63.24-.03c3.85,0,11.56-1.48,16.23-4.9l-2.72,5.02-13.55,27.53ZM256.35,187.05c-7.26,3.8-16.04,5.82-24.88,3.99-5.51-1.14-7.93-6.23-10.18-10.38l-21.52-39.76c-1.47-2.71-.63-6.56,2.53-7.18l19.87-3.88,11.09-13.89c3.6-4.51,10.32-2.16,13.47,2.08,8.25,11.07,14.81,23.09,19.46,36.15,4.4,12.37,1.57,26.89-9.85,32.87Z"/>
    </g>
  </g>
</svg>