<?xml version="1.0" encoding="UTF-8"?>
<svg id="Layer_2" data-name="Layer 2" xmlns="http://www.w3.org/2000/svg" viewBox="0 0 288.86 289.43">
  <defs>
    <style>
      .cls-1 {
        fill: #2c45c9;
      }
    </style>
  </defs>
  <g id="gentrace-sample-file-last-art">
    <g>
      <path class="cls-1" d="M249.76,289.43H4c-2.21,0-4-1.79-4-4s1.79-4,4-4h245.76c15.3,0,27.75-12.45,27.75-27.75s-12.45-27.75-27.75-27.75H35.75c-19.71,0-35.75-16.04-35.75-35.75s16.04-35.75,35.75-35.75h214.01c15.3,0,27.75-12.45,27.75-27.75s-12.45-27.75-27.75-27.75H35.75C16.04,98.92,0,82.89,0,63.17S16.04,27.42,35.75,27.42h245.76c2.21,0,4,1.79,4,4s-1.79,4-4,4H35.75c-15.3,0-27.75,12.45-27.75,27.75s12.45,27.75,27.75,27.75h214.01c19.71,0,35.75,16.04,35.75,35.75s-16.04,35.75-35.75,35.75H35.75c-15.3,0-27.75,12.45-27.75,27.75s12.45,27.75,27.75,27.75h214.01c19.71,0,35.75,16.04,35.75,35.75s-16.04,35.75-35.75,35.75Z"/>
      <path class="cls-1" d="M247.97,62.85c-1.22,0-2.43-.56-3.21-1.61-1.32-1.77-.95-4.28.82-5.6l32.57-24.21-32.57-24.21c-1.77-1.32-2.14-3.82-.82-5.6,1.32-1.77,3.82-2.14,5.6-.82l36.89,27.42c1.02.75,1.61,1.95,1.61,3.21s-.6,2.46-1.61,3.21l-36.89,27.42c-.72.53-1.55.79-2.38.79Z"/>
      <path class="cls-1" d="M48.14,76.2c-7.24,0-13.13-5.89-13.13-13.13s5.89-13.13,13.13-13.13,13.13,5.89,13.13,13.13-5.89,13.13-13.13,13.13ZM48.14,57.95c-2.83,0-5.13,2.3-5.13,5.13s2.3,5.13,5.13,5.13,5.13-2.3,5.13-5.13-2.3-5.13-5.13-5.13Z"/>
      <path class="cls-1" d="M104.99,76.2c-7.24,0-13.13-5.89-13.13-13.13s5.89-13.13,13.13-13.13,13.13,5.89,13.13,13.13-5.89,13.13-13.13,13.13ZM104.99,57.95c-2.83,0-5.13,2.3-5.13,5.13s2.3,5.13,5.13,5.13,5.13-2.3,5.13-5.13-2.3-5.13-5.13-5.13Z"/>
      <path class="cls-1" d="M104.99,266.94c-7.24,0-13.13-5.89-13.13-13.13s5.89-13.13,13.13-13.13,13.13,5.89,13.13,13.13-5.89,13.13-13.13,13.13ZM104.99,248.68c-2.83,0-5.13,2.3-5.13,5.13s2.3,5.13,5.13,5.13,5.13-2.3,5.13-5.13-2.3-5.13-5.13-5.13Z"/>
      <path class="cls-1" d="M190.48,203.95c-7.24,0-13.13-5.89-13.13-13.13s5.89-13.13,13.13-13.13,13.13,5.89,13.13,13.13-5.89,13.13-13.13,13.13ZM190.48,185.69c-2.83,0-5.13,2.3-5.13,5.13s2.3,5.13,5.13,5.13,5.13-2.3,5.13-5.13-2.3-5.13-5.13-5.13Z"/>
      <path class="cls-1" d="M247.34,203.95c-7.24,0-13.13-5.89-13.13-13.13s5.89-13.13,13.13-13.13,13.13,5.89,13.13,13.13-5.89,13.13-13.13,13.13ZM247.34,185.69c-2.83,0-5.13,2.3-5.13,5.13s2.3,5.13,5.13,5.13,5.13-2.3,5.13-5.13-2.3-5.13-5.13-5.13Z"/>
    </g>
  </g>
</svg>