<?xml version="1.0" encoding="UTF-8"?>
<svg id="Layer_2" data-name="Layer 2" xmlns="http://www.w3.org/2000/svg" viewBox="0 0 259.86 366.72">
  <defs>
    <style>
      .cls-1 {
        fill: #2c45c9;
      }
    </style>
  </defs>
  <g id="gentrace-sample-file-last-art">
    <g>
      <path class="cls-1" d="M230.65,366.72H27.86C10.86,366.71,0,353.15,0,337.19L.09,78.09c0-14.67,11.34-27.2,25.57-27.32l33.24-.27c1.78-8.39,8.22-14.7,17.39-14.74l19.25-.07C95.37,15.46,110.25.33,128.94,0c19.68-.34,36.14,14.83,35.59,35.65l22.66.5c7.77.17,13.09,6.76,14.09,14.33l28.94-.22c15.52-.12,29.68,11.56,29.63,27.8l-.18,58.25-1.36,200.86c-.1,15.15-10.8,29.53-27.66,29.53ZM184.7,86.68c5.64,0,9.58-5.62,9.54-9.98l-.21-24.1c-.04-4.11-5.02-9.25-9.08-9.26l-22.67-.02c-2.61,0-5.84-3.18-5.56-6.19,1.56-16.91-13.01-30.35-28.61-28.97-16.7,1.48-26.98,15.75-24.51,34.28l-25.87.84c-6.63.22-11.69,3.95-11.64,11.07l.15,22.23c.03,5.02,3.46,10.05,8.98,10.05l109.48.03ZM231.69,58.58l-29.29-.61-.68,21.47c-.24,7.46-7.3,14.91-15.58,14.9h-111.41c-9.12-.01-15.97-8.13-16.14-16.05l-.44-20.15-31.69.44c-9.87.14-18.33,9.14-18.33,19.55l.03,262.13c0,9.6,8.86,18.37,18.13,18.38l202.14.11c11.54,0,21.77-7.79,21.85-20.48l1.7-256.96c.08-12.43-6.79-22.45-20.31-22.73Z"/>
      <path class="cls-1" d="M173.33,310.78l-34.17,18.16-69.02-13.71c-2.39-.48-5.98-5.71-5.98-8.3l.04-122.91,20.61-36.4.65-16.4c.15-3.78,3.85-7.43,7.89-6.83l61.03,9.03c3.52.52,7.56,5.35,7.52,8.43l-.21,14.36,18.57,27.46-.2,117.5c0,3.49-3.57,7.94-6.73,9.62ZM154.28,153.07c.31-4.75.08-9.69-.9-11.75l-59.95-9.2-.02,11.73,60.87,9.21ZM135.93,192.91l16.54-32.96-60.79-8.85-17.77,31.24,62.02,10.56ZM169.68,182.66l-11.2-17.34-12.06,24.06,23.25-6.71ZM134.75,320.37v-120.71s-62.57-9.96-62.57-9.96l-.18,117.96,62.74,12.7ZM172.2,302.29l-.04-112.84-29.58,9.2-.07,120.06,29.69-16.42Z"/>
      <path class="cls-1" d="M197.89,339.25c-2.24.21-5.92-1.13-6.27-2.55-.44-1.77,2.82-5.06,4.82-5.11,14.84-.37,26.94-10.73,27.72-25.85l1.51-29.38c.07-1.42,1.8-4.1,2.72-4.76,1.14-.82,4.22,1.99,4.64,3.42l-.71,27.67c-.51,19.82-13.4,34.59-34.41,36.56Z"/>
      <circle class="cls-1" cx="129.85" cy="30.93" r="7.64"/>
    </g>
  </g>
</svg>