<?xml version="1.0" encoding="UTF-8"?>
<svg id="Layer_2" data-name="Layer 2" xmlns="http://www.w3.org/2000/svg" viewBox="0 0 353.38 221.9">
  <defs>
    <style>
      .cls-1 {
        fill: #2c45c9;
      }
    </style>
  </defs>
  <g id="gentrace-sample-file-last-art">
    <g>
      <path class="cls-1" d="M139.45,213.77c67.05-8.18,124.82-44.53,161.83-98.61,10.63-17.57,19.92-33.38,28.52-53.85l-27.39,15.73c-1.33.77-4.62.81-5.77-.18s-.06-5.35,1.29-6.16l37.32-22.48c2.32-1.4,6.71-.32,7.38,2.29l10.69,41.55c.46,1.77-1.41,5.92-2.89,6.09s-4.16-1.99-4.7-3.96l-8.03-29.52c-14.4,30.12-28.29,56.16-49.26,79.96-30.66,34.78-70.14,57.93-114.61,70.81-22.87,6.63-44.49,8.28-68.06,4.35l-91.57-15.28C5.07,203,0,193.85,0,185.21L.04,61.06c0-8.81,4.05-16.31,12.09-19.98L94.07,3.72C102.34-.06,111.54-.74,120.42.7l104.12,16.86c8.1,1.31,11.86,9.14,12.13,16.74l-.02,114.82c-.53,1.51-2.85,4.65-4.25,4.41s-3.15-2.86-3.98-4.61l.16-111.46c1.39-6.4-2.47-12.27-9.01-13.27L113.29,7.91c-2.59-.4-7.82.55-10.65.96L23.17,44.65c-5.24,2.23-14.87,6.2-14.89,13.26l-.27,127.13c.63,7.53,4.8,11.24,11.72,12.43,37.18,6.4,73.29,12.77,112.02,16.91l-.03-136.06,3.28-4.89c.87-1.3,4.06,3.41,4.44,4.99v135.35Z"/>
      <rect class="cls-1" x="70.73" y="10.07" width="8.55" height="105.54" transform="translate(2.17 128.18) rotate(-81.85)"/>
      <path class="cls-1" d="M32.9,168.49c-.79,1.65-2.45,3.97-3.61,4.16-1.45.24-3.62-2.93-4.03-4.57l-.19-69.47,3.02-4.48c.83-1.23,4.42,2.37,4.74,3.48l.08,70.87Z"/>
      <path class="cls-1" d="M148.72,68.76c-1.73.58-6.87.69-6.54-.64l1.37-5.59,64.67-31.36c1.23-.21,5.96,1.04,5.33,2.3l-2.65,5.26-62.17,30.03Z"/>
    </g>
  </g>
</svg>