<?xml version="1.0" encoding="UTF-8"?>
<svg id="Layer_2" data-name="Layer 2" xmlns="http://www.w3.org/2000/svg" viewBox="0 0 357.42 303.94">
  <defs>
    <style>
      .cls-1 {
        fill: #2c45c9;
      }
    </style>
  </defs>
  <g id="gentrace-sample-file-last-art">
    <g>
      <path class="cls-1" d="M303.03,291.9c-23.53,5.09-45.9,8.88-69.1,11.85-12.51,1.6-22.23-6.86-24.79-18.19l-2.25-9.97-43.82,6.11c-11.19,1.56-22.04,1.45-33.02-1.89-24.81-7.55-49.1-15.16-73.25-24.19-7.76-2.9-8.02-13.05-8.24-19.77l-3.27-96.44-37.12-6.95c-2.84-.53-7.25-4.28-7.96-6.8-.79-2.77.78-7.8,2.83-10.38l38.38-48.25L13.28,28.69c-1.16-1.58-1.54-6.55-.75-8.28.92-2.01,4.68-4.53,7.51-4.83L120.57,4.8,163.22.1c6.84-.75,15.31,3.02,19.18,8.74l27.02,40,23.11-31.36c3.17-4.3,8.97-6.71,14.36-7.9l100.12-.47c3.66-.02,8.92,4.21,10,6.97s-.1,8.98-2.39,11.73l-33.13,39.87,31.97,40.8c1.98,2.53,2.76,7.7,1.77,10.36-.93,2.51-5.47,6.12-8.13,6.43l-27.74,3.14-1.32,104.22c-.09,6.99-1.85,12.36-4.27,19.12l3.04,20.23c1.31,8.74-4.36,17.9-13.77,19.93ZM193.49,70.76l11.23-15.03-30.25-43.91c-2.17-3.15-10.18-3.81-14.22-3.37L19.57,23.86l29.7,40.37,98.11,9.18c15.3,1.43,31.38-2.72,46.1-2.64ZM314.61,63.37l35.82-42.73c-.97-1.5-4.89-3.96-6.44-3.96l-92.97.53c-4.7.3-10.15,2.21-12.86,5.9l-34.57,47.15,111.03-6.89ZM302.84,122.46l46.39-5.8-34.74-45.24-156.37,9.47,69.16,52.17,75.57-10.6ZM251.15,135.91c4.1,1.02,8.4,1.78,11.66,4.71,10.85,9.77,24.41,18.45,31.81,30.6l15.78,61.58,1.14-103.2v-1.59l-60.39,7.9ZM102.87,137.48l38.04-56.59-93.37-9.04L6.66,123.88l84.45,15.49c3.93.72,8.77.42,11.76-1.89ZM192.9,181.85l16.11-32.48c3.92-3.56,8.46-5.47,15.58-8.52l-73.22-55.13-.07,189.16,54.18-7.03-13.98-65.49c-1.4-6.56-1.68-14.3,1.41-20.52ZM56.29,238.05c-.72,7.25,3.15,10.68,8.67,12.51,26.17,8.67,51.67,16.98,78.5,24.39l-.07-183.57-33.14,49.15c-3.98,5.91-10.74,8.98-17.73,7.07l-39.42-6.98,3.19,97.43ZM199.92,204.33l16.97,79.63c1.45,6.81,7.88,12.98,15.29,12.06,23.62-2.92,46.05-6.75,69.14-11.46,5.98-1.22,9.1-8.4,7.85-14.12l-21.01-96.76-32.78-29.42-18.59,1.95c2.01,15.59,16.93,16.02,11.68,26.64-2.7,5.47-9.44,6.87-14.1,3.39s-5.52-9.63-.31-15.17l-5.51-11.69c-6.81-1.75-12.88,2.72-15.78,8.82l-14.22,29.93c-1.58,3.32.38,11.58,1.36,16.19Z"/>
      <path class="cls-1" d="M262.1,271.31l-6.65-8.91c-10.17-1.57-17.68-7.38-14.94-14.33,2.83-7.21,9.42,11.12,20.92,5.77,3.88-1.8,7.21-5.33,7.18-9.44-.09-11.91-17-6.57-27.25-13.18-4.62-2.98-6.6-10.45-5.39-15.85.9-4.01,5.94-9.19,9.54-12.7l-.35-5.26c-.1-1.43,4.35-3.55,5.04-2.3l3.26,5.92c4.64,1.72,11.64,4.11,14.37,8.19.77,1.15.18,4.93-.87,5.59-4.99,3.18-8.16-9.1-18.26-4.28-4.69,2.24-7.72,8.04-3.86,13.28,5.37,7.3,26.93-1.46,31.17,17.77,1.85,8.41-3.8,14.76-10.81,19.12-.41,3.85-.98,5.99-3.09,10.61Z"/>
    </g>
  </g>
</svg>