<?xml version="1.0" encoding="UTF-8"?>
<svg id="Layer_2" data-name="Layer 2" xmlns="http://www.w3.org/2000/svg" viewBox="0 0 328.14 297.61">
  <defs>
    <style>
      .cls-1 {
        fill: #2c45c9;
      }
    </style>
  </defs>
  <g id="gentrace-sample-file-last-art">
    <g>
      <path class="cls-1" d="M280.14,292.14l-74.01-61.65c-7.77-6.47-10.47-15.3-7.29-25.2l-21.3-17.44c-38.44,33.85-94.2,36.25-134.99,5.11C-8.35,154.09-14.32,82.11,28.62,34.93c44.84-49.27,122.46-46.07,163.05,7.45,26.94,35.52,30.4,82.93,5.89,121.65l21.39,17.62c7.27-.93,15.18-2.17,21.09,2.26l78.08,58.53c13.12,9.83,12.32,30.09,3.61,41.93-8.45,11.5-28.29,18.85-41.59,7.78ZM205.9,107.48c0-54.59-44.27-98.84-98.87-98.84S8.16,52.89,8.16,107.48s44.27,98.84,98.87,98.84,98.87-44.25,98.87-98.84ZM203.81,198.96l9.48-11.73-19.94-16.2-9.53,11.37,19.99,16.56ZM284.97,285.59c10.2,8.55,24.48,1.53,30.01-6.05,7.09-9.72,6.46-22.12-1.56-30.6l-78.33-58.62c-2.67-1.64-11.41-2.74-13.52-.19l-14.12,16.9c-5.6,6.71-.63,13.03,4.6,17.42l72.93,61.14Z"/>
      <path class="cls-1" d="M131.65,172c-6.9,3.46-13.59,5.72-20.76,4.25l-56.19-11.51c-4.11-.84-8.64-5.73-8.65-10.06l-.19-60.03c-.01-4.59,3.14-10.79,6.61-13.67l41.56-34.46c3.46-2.87,12.66-2.08,17.02-1.3l48.14,8.63c4.99.89,8.57,5.99,8.57,11.01v82.01c0,4.33-3.58,8.8-7.13,10.58l-28.98,14.55ZM153.97,61.18l-54.35-9.36-42.21,35.19,59.05,9.24,37.5-35.07ZM122.6,167.92l37.22-18.73.16-83.45-37.61,35.06.23,67.13ZM114.65,169.01v-65.32s-60.81-9.71-60.81-9.71l-.28,57.71c.9,3.64,3.97,5.57,7.78,6.35l53.31,10.97Z"/>
    </g>
  </g>
</svg>