<?xml version="1.0" encoding="UTF-8"?>
<svg id="Layer_2" data-name="Layer 2" xmlns="http://www.w3.org/2000/svg" viewBox="0 0 343.85 304.97">
  <defs>
    <style>
      .cls-1 {
        fill: #2c45c9;
      }
    </style>
  </defs>
  <g id="gentrace-sample-file-last-art">
    <g>
      <g>
        <path class="cls-1" d="M97.94,302.8c-19.56,1.38-37.93.35-57.29-3.24l-14.63-.74c-9.05-.46-15.18-5.81-15.7-14.73l-6.96-119.24C1.57,134.44-.02,105.64,0,75.16c0-8.48,4.14-16.6,13.79-17.1l129.86-6.72c9.36-.48,14.65,6.09,14.47,14.41l-2.76,130.4-3.16,81.61c-.43,11.07-7.19,13.76-16.14,16.26-12.66,3.54-24.75,7.83-38.12,8.77ZM122.07,289.9l17.55-5.39c2.28-.7,4.76-5.08,4.85-7.72l3.16-86.51,2.56-126.03c.04-1.94-4.22-5.2-6.34-5.09l-131.61,6.95c-2.89.15-5.09,8.12-4.33,10.5-.3,27.59.4,53.05,2.92,80.38l7.12,127.2c.22,3.96,4.34,6.32,7.68,6.55l17.71,1.24c25.95,4.5,52.67,5.93,78.72-2.07Z"/>
        <path class="cls-1" d="M38.68,257.37c-.53,1.15-3.34,4.54-4.14,3.62l-3.49-3.97c-.93-42.33-3.77-82.97-8.47-125.13.64-2.28,2.59-5.17,4.18-5.31s3.74,3.18,3.92,5.24c4.19,42.36,7.55,83.09,8.01,125.54Z"/>
        <rect class="cls-1" x="21.97" y="95.68" width="114.06" height="8.31" transform="translate(-5.62 4.72) rotate(-3.3)"/>
        <path class="cls-1" d="M128.59,257.87c-8.13,21.51-34.89,20.07-32,16.06l3.69-5.14c15.25.32,24.49-12.33,22.96-26.92l1.93-5.45c.44-1.24,4.85-.9,6.11-.3.28,6.5-.28,15.38-2.69,21.75Z"/>
      </g>
      <path class="cls-1" d="M294.73,302.38c-4.47,1.79-11.21,3.03-15.61,2.44l-95.68-12.87c-4.28-.58-8.11-4.88-8.11-9.42V85.08s30.69-53.85,30.69-53.85l-.32-24.25c1.98-3.88,5.87-7.48,10.44-6.93l93.92,11.3c2.5.3,6.57,4.87,6.61,7.27l.47,25.83,26.71,40.42v191.39c.01,3.17-3.32,7.8-5.67,8.74l-43.44,17.37ZM185.26,84.12l96.83,12.92,26.91-53.47.11-24.07-95.27-11.67-.06,21.13,81.31,9.22,3.32,4.98c.74,1.11-3.7,2.66-5.19,2.72l-81.19-9.24-26.77,47.48ZM333.68,83.6l-20.51-30.29-20.72,41,41.23-10.71ZM336.26,276.59l-.1-185.6-47.1,12.52.04,192.08,47.15-19.01ZM280.82,296.94l.06-192.48-97.58-12.38-.12,191.45,97.63,13.41Z"/>
    </g>
  </g>
</svg>