<?xml version="1.0" encoding="UTF-8"?>
<svg id="Layer_2" data-name="Layer 2" xmlns="http://www.w3.org/2000/svg" viewBox="0 0 394.2 305.62">
  <defs>
    <style>
      .cls-1 {
        fill: #2c45c9;
      }
    </style>
  </defs>
  <g id="gentrace-sample-file-last-art">
    <g>
      <path class="cls-1" d="M8,285.85c40.03-5.36,77.83-6.45,115.48.03,4.67,7.65,11.64,13.3,21.37,11.3,8.18,1.55,14.05-3.5,17.61-10.84,38.08-7.09,77-5.81,116.15-.57v-119.98s2.96-4.28,2.96-4.28c.77-1.11,4.08,1.3,4.88,2.52v117.88c-.31,3.09-1.48,7.32-3.21,8.75s-6.84,2.54-9.48,2.22c-35.56-4.29-69.65-5.03-105.55.05-5.1,8.38-13.24,12.55-23.37,12.68-10.49.14-20.42-3.02-25.9-12.74-35.79-5.36-71.43-3.99-107.55.01C3.82,293.73,0,288.51,0,281.86L.04,126.3c0-3.29,2.63-9.79,5.52-10.29l18.03-3.09.14-15.17c-.3-5.22,3.16-10.33,8.5-11.71,38.32-9.91,78.51-4.44,110.84,18.95,24-16.56,51.25-24.37,80.83-23.27-3.58-23.68,5.77-45.52,24.54-61.38,31.4-24.26,75.35-26.83,110.21-7.6,21.67,13.04,36.37,34.35,35.52,60.02-.89,26.76-17.85,48.95-41.74,59.94-21.5,9.9-44.64,10.38-67.61,4.82-18.16,13.46-50.07,24.59-45.45,8.03l7.19-25.75c-10.15-8.41-16.26-17.5-20.52-30.17-27.79-1.87-55.73,5.69-78.83,22.52l-.03,158.15c34.8-17.36,71.05-23.21,107.94-13.79l-.11-84.76c.34-2.01,2.26-4.85,3.83-5.05s4.04,3.23,4.04,5l.02,85.17c0,4.05-4.93,8.46-9.34,7.38-34.54-8.48-69.6-3.69-101.37,12.51-6,3.06-10.56,3.45-16.62.34-32.06-16.46-67.57-21.67-102.41-12.81-4.44,1.13-9.36-3.36-9.36-7.57V120.63c-5.89.54-10.11,1.27-15.87,3.3l.09,161.92ZM283.74,129.47c26.96,7.48,54.68,4.52,76.56-10.55,29.67-20.43,34.77-60.25,10.22-86.45C340.91.87,283.19,0,250.69,29.09c-26.73,23.92-25.77,64,3.03,86.6-.85,10.55-3.56,19.5-6.5,30.86,13.88-3.47,24.89-9.44,36.52-17.09ZM139.45,269.73l.02-157.64c-30.6-22.4-71.04-29.05-107.64-17.42l.02,161.79c36.93-9.42,72.91-3.43,107.6,13.27Z"/>
      <path class="cls-1" d="M346.31,59.64l-71.13-.2c-1.07-.03-5.8-1.96-5.03-3.04l3.39-4.75,71.21-.1,4.71,3.16c1.05.7-1.81,4.2-3.15,4.94Z"/>
      <path class="cls-1" d="M326.27,91.64l-50.93.06c-1.69,0-5.24-2.49-4.68-3.84s2.98-3.47,4.32-4.1l52.36-.02,3.57,3.97c.83.93-2.97,3.93-4.64,3.93Z"/>
    </g>
  </g>
</svg>