<?xml version="1.0" encoding="UTF-8"?>
<svg id="Layer_2" data-name="Layer 2" xmlns="http://www.w3.org/2000/svg" viewBox="0 0 310.26 248.23">
  <defs>
    <style>
      .cls-1 {
        fill: #3746c4;
      }

      .cls-2 {
        fill: none;
        stroke: #3746c4;
        stroke-linecap: round;
        stroke-linejoin: round;
        stroke-width: 8px;
      }
    </style>
  </defs>
  <g id="Layer_1-2" data-name="Layer 1">
    <g>
      <g>
        <path class="cls-1" d="M69.84,247.93l-47.88.3c-11.1.07-20.33-8.24-21.08-19.5-1.32-19.84-.8-38.91-.7-59.19L.9,22.41c.05-9.72,6.26-17.81,15.8-18.48,23.63-1.68,46.65-2.04,70.5-2.25l65.36-.58L224.45.07,285.62,0c11.98-.01,20.1,9.24,21.75,20.61,2.15,14.81,3.12,28.99,2.84,44.28l-2.25,118.08-1.91,44.63c-.45,10.54-8.73,19.89-19.8,19.79l-52.45-.47-163.97,1.01ZM155.8,238.47l129.06.18c7.25,0,12.38-4.79,12.69-11.66l1.81-40,2.22-112.16c.34-18.3.18-35.56-2.88-53.31-1.41-8.15-6.75-13.29-15.62-13.2l-164.77,1.81-48.87-.26-51.03,2.25c-4.53.2-8.79,3.98-8.8,8.82l-.23,98.57-.31,107.7c-.02,6.98,5.71,12.26,12.77,12.21l133.96-.94Z"/>
        <path class="cls-1" d="M280.61,229.05c-1.87.17-4.95-.19-5.69-1.19s-.26-3.02.38-4.12,2.79-1.65,5.15-2.3c4.55-1.27-.16-11.8,4.77-14.29,1.36-.69,4.96-.04,4.93,1.53l-.28,12.14c-.11,4.92-3.97,7.74-9.26,8.24Z"/>
      </g>
      <line class="cls-2" x1="43.83" y1="205.35" x2="43.83" y2="43.55"/>
      <line class="cls-2" x1="67.19" y1="205.35" x2="67.19" y2="43.55"/>
      <line class="cls-2" x1="90.54" y1="171.57" x2="90.54" y2="43.55"/>
      <line class="cls-2" x1="117.25" y1="205.35" x2="117.25" y2="43.55"/>
      <line class="cls-2" x1="151.49" y1="171.57" x2="151.49" y2="43.55"/>
      <line class="cls-2" x1="181.05" y1="205.35" x2="181.05" y2="43.55"/>
      <line class="cls-2" x1="210.88" y1="171.57" x2="210.88" y2="43.55"/>
      <line class="cls-2" x1="239.75" y1="205.35" x2="239.75" y2="43.55"/>
      <line class="cls-2" x1="267.56" y1="171.57" x2="267.56" y2="43.55"/>
    </g>
  </g>
</svg>