<?xml version="1.0" encoding="UTF-8"?>
<svg id="Layer_2" data-name="Layer 2" xmlns="http://www.w3.org/2000/svg" viewBox="0 0 377.2 279.91">
  <defs>
    <style>
      .cls-1 {
        fill: #2c45c9;
      }
    </style>
  </defs>
  <g id="gentrace-sample-file-last-art">
    <g>
      <path class="cls-1" d="M367.03,172.47c-7.52-19.77-26.64-3.41-35.01-8.11-2.62-1.47-5.98-7.28-6.03-10.73l-.65-42.06c-.08-5.35-3.66-11.49-9.55-12.13-11.65-1.26-23.54-.86-35.23,2.79,9.68,13.93,7.33,28.67-5.71,36.37-12.13,7.16-27.96,6.82-39.43-.91-18.32-12.33-4.78-31.21-4.91-35.14-.04-1.27-3.68-2.62-5.27-2.46l-45.17,4.65c3.5,20.02,9.95,52.39-.19,58.96-8.37,5.42-23.63-8.84-32.49,7.82-4.24,7.97-3.78,18.5.31,26.54,8.86,17.4,24.85,1.36,32.72,5.67,10.7,5.85,8.84,33.2,7.3,51.98-.67,8.12-7.22,16.53-16.11,16.99l-137.75,7.16c-12.84.67-23.91-6.44-26.04-18.74-3.02-17.39-5.75-42.25,4.93-47.8,8.72-4.53,23.73,9.63,31.87-6.45,4.12-8.15,3.82-18.06-.47-26.09-4.5-8.43-13.84-10.93-22.21-5.65-2.44,1.54-8.59,2.2-11.21.99s-6.43-5.34-7.05-8.33c-4.92-23.63-8.29-52.66,12.95-55.23l40-4.86c1.43-.17,4.22-1.81,4.81-2.79,2.16-3.58-10.72-13.17-4.28-30.23,7.33-19.41,40.75-25.34,56.75-10.9,9.69,8.75,9.12,20.78,3.38,34.54l36.12-2.63,21.66,1.82,31.59-4.17,23.48-.99c2.78-.12,7.64,4.18,8.55,6.65,2.88,7.83-14.1,22.62,2.4,32.78,9.24,5.69,21.97,5.33,30.89-.69,14.86-10.03-1.96-23.5,2.75-32.16,4.75-8.75,27.93-9.32,42.67-7.61,8.46.98,15.27,7.89,15.49,16.59l1.1,42.65c.03,1.29.89,4.32,1.5,5.46s4.65.87,6.21.17c12.31-5.57,27.9-.54,32.89,13.59,4.13,11.67,3.62,25.87-3.53,36.45-11.55,17.1-32.3,5.24-35.48,7.85-.98.8-1.97,4.01-2.02,5.28l-1.36,36.33c-.39,10.28-9.8,18.96-20.5,18.79l-114.26-1.74c-1.46-.02-4.77-2.65-4.6-4.08.23-1.98,3.44-3.84,5.85-3.8l113.05,1.74c8.41.13,12.71-8.29,12.97-15.48l1.25-34.88c.1-2.72,3.17-7.25,5.05-8.95,2.15-1.95,8.87-2.7,11.69-1.31,9.11,4.46,19.57,2.21,23.98-7.29,3.63-7.82,3.38-18.28.36-26.23ZM167.94,265.47c7.05-.37,12.44-5.03,12.41-11.23l-.21-37.81c0-1.43-2.08-4.82-3.34-5.48-1-.53-3.86-.07-4.94.51-12.54,6.8-26.43,1.6-32.3-11.84-3.84-8.79-3.85-19.49-.78-28.88,4.41-13.51,19.44-18.91,31.6-14.28,1.19.45,4.21.59,5.16.22,4.19-1.6.73-30.76-2.41-46.62-.59-2.97-6.06-6.88-8.75-6.7l-42.89,2.77c-3.17.2-8.02-1.53-9.51-3.7-6.08-8.85,11.22-26.21-7.7-35.57-9.35-4.63-21.15-3.98-30.59.92-10.44,5.42-13.46,17.72-6.85,27.67,2.36,3.56,3.54,9.66,1.68,13.07-1.45,2.67-6.46,6.68-9.77,7.07l-39.5,4.61c-5.81.68-11.67,4.8-11.15,11.44l2.58,33.2c.11,1.36,2.63,4.24,3.77,4.06l3.96-.62c10.53-7.18,23.51-4.27,30.88,5.96,8.09,11.25,8.58,26.62,1.16,38.33-11.07,17.48-29.89,6.77-34.03,7.82-4.83,1.22-3.23,25.09-.34,40.14,1.09,5.66,6.98,11.15,12.91,10.98l51.84-1.43,87.1-4.62Z"/>
      <path class="cls-1" d="M196.18,47.64c-.62,1.26-3.62,4.33-4.32,3.4l-3.02-4.09,1.83-42.99,4.09-3.83c.95-.89,3.61,3.22,3.73,4.04l-2.31,43.48Z"/>
      <path class="cls-1" d="M165.58,49.32c1.24,1.82,1.31,5.43.1,6.38s-5.33.12-6.35-1.39l-20.93-30.86c-.92-1.36-.82-5.05.35-6.07s5.09.04,6,1.38l20.82,30.55Z"/>
      <path class="cls-1" d="M226.57,56.29c-1.2,1.49-4.51,2.64-5.81,2.44s-3.14-4.15-2.2-5.29l24.1-29.45c.88-1.07,4.81-1.62,5.59-.93,1.04.91,1.2,4.79.28,5.93l-21.97,27.29Z"/>
    </g>
  </g>
</svg>