<?xml version="1.0" encoding="UTF-8"?>
<svg id="Layer_2" data-name="Layer 2" xmlns="http://www.w3.org/2000/svg" viewBox="0 0 274.22 281.38">
  <defs>
    <style>
      .cls-1 {
        fill: #2c45c9;
      }
    </style>
  </defs>
  <g id="gentrace-sample-file-last-art">
    <g>
      <path class="cls-1" d="M30.86,8.14c-11.49,0-22.61,5.44-22.61,18.07l-.14,213.21c0,10.21,7.75,19.71,18.35,19.72l111.27.1c1.39,0,4.22,1.86,4.58,3.1.45,1.56-2.39,4.94-4.16,4.94l-111.82-.23C11.78,267.02,0,254.07,0,239.51L.08,25.97C.08,11.3,12.99.08,26.96.08L182.7,0c13.4,0,27.61,10.42,27.65,24.51l.28,97.02c0,1.82-2.21,4.98-3.78,5.21s-4.24-3.1-4.24-4.92l.07-94.2c0-12.52-10.06-19.38-21.62-19.39l-150.19-.09Z"/>
      <path class="cls-1" d="M274.22,211.12c0,38.8-31.46,70.25-70.27,70.25s-70.27-31.45-70.27-70.25,31.46-70.25,70.27-70.25,70.27,31.45,70.27,70.25ZM265.94,211.16c0-34.33-27.84-62.17-62.18-62.17s-62.18,27.83-62.18,62.17,27.84,62.17,62.18,62.17,62.18-27.83,62.18-62.17Z"/>
      <path class="cls-1" d="M114.28,201.87l-71.36-.1c-5.59,0-9.59-5.91-9.57-10.74l.14-62.79c.01-5.78,5.26-9.95,10.71-9.96l67.71-.15c7.59-.02,13.19,2.9,13.18,11.47l-.13,61.24c-.01,5.73-4.31,11.04-10.67,11.03ZM117.47,125.98l-76.3.08.07,67.95,76.3-.08-.07-67.95Z"/>
      <rect class="cls-1" x="101.44" y="17.58" width="8.39" height="133.56" transform="translate(21.26 189.98) rotate(-89.99)"/>
      <path class="cls-1" d="M141.88,51.43l-99.33-.03c-1.2-.08-4.99-3.42-3.96-4.31l4.19-3.64,98.89.03c1.73.63,4.16,2.42,4.59,3.81s-2.65,3.77-4.38,4.13Z"/>
      <path class="cls-1" d="M114.59,235.84l-73.01.1c-1.1-.27-4.8-2.53-4-3.49l3.55-4.28,72.31.19,3.51,2.73c1.01.79-1.3,4.03-2.35,4.75Z"/>
      <path class="cls-1" d="M171.99,215.75c-.91-.89-1.42-4.62-.65-5.63.93-1.21,4.84-1.38,6.11-.12l16.25,16.01,33.99-37.23c.84-.92,3.34-2.04,4.46-2.28s2.82,3.26,3.38,5.2l-41.42,45.65-22.11-21.61Z"/>
    </g>
  </g>
</svg>