<?xml version="1.0" encoding="UTF-8"?>
<svg id="Layer_2" data-name="Layer 2" xmlns="http://www.w3.org/2000/svg" viewBox="0 0 344.94 292.36">
  <defs>
    <style>
      .cls-1 {
        fill: #2c45c9;
      }
    </style>
  </defs>
  <g id="gentrace-sample-file-last-art">
    <g>
      <path class="cls-1" d="M344.94,279.45c.01,8.2-5.68,12.91-13.46,12.9l-320.16-.03c-6.68,0-11.2-6.27-11.22-11.58l-.11-24.09c.76-5.82,5.42-10.92,11.65-10.94l41.25-.15-.16-155.26c0-9.41,4.85-18.91,11.9-24.13l19.13-14.17.22-40.39C84.03,4.32,91.32,0,98.14,0l40.85.02c9.28,0,14.49,5.99,14.47,14.71l-.06,37.18,19.74,15.16c8.49,6.52,10.61,17.45,10.62,27.84l.04,57.14c26.2-33.07,72.7-36.72,102.3-10.03,29.95,27,31.86,73,1.41,103.22l45.46.46c6.71.08,11.91,4.41,11.93,11.5l.04,22.24ZM175.39,245.57l.05-24.79c-7.49-17.9-6.79-36.98.14-54.96l-.14-77.26c-.03-17.39-29.47-28.32-29.58-34.5l-.82-45.58-53.34-.05.04,39.48c0,6.06-3.04,10.46-8.04,13.67-11.7,7.5-23.13,16.45-23.12,30.32l.1,153.67h114.72ZM301.37,194.06c0-34.07-27.63-61.69-61.7-61.69s-61.7,27.62-61.7,61.69,27.63,61.69,61.7,61.69,61.7-27.62,61.7-61.69ZM190.79,245.08l-6.74-8.29-.93,8.79,7.67-.5ZM336.87,253.76l-60.81-.02c-23.2,12.53-49.7,13.43-72.81-.11l-194.24.07v30.51s222.69-.07,222.69-.07l105.32-.35-.16-30.02Z"/>
      <path class="cls-1" d="M151.93,147.42l-.15-46.41c-.04-11.61-14.69-16.03-9.33-20.3,4.74-3.77,17.06,7.05,17.1,20.41l.11,45.88-2.95,4.22c-.81,1.16-4.78-2.28-4.79-3.81Z"/>
      <path class="cls-1" d="M207.3,197.26c-.92-.89.6-5.43,1.9-5.37s4.85.95,6.01,2.09l14.41,14.17,34.51-37.06c.98-1.05,5.79-.61,6.14.79s-.21,4.25-1.32,5.45l-38.84,41.92-22.82-21.99Z"/>
    </g>
  </g>
</svg>