<?xml version="1.0" encoding="UTF-8"?>
<svg id="Layer_2" data-name="Layer 2" xmlns="http://www.w3.org/2000/svg" viewBox="0 0 172.66 314.53">
  <defs>
    <style>
      .cls-1 {
        fill: #2c45c9;
      }

      .cls-2 {
        fill: #2c45c9;
      }

      .cls-3 {
        fill: #2c45c9;
      }
    </style>
  </defs>
  <g id="gentrace-sample-file-last-art">
    <g>
      <path class="cls-3" d="M136.1,47.45c-11.31,5.77-36.86,8.16-37.65,3.55-.94-5.51,19.39-2.44,32.96-8.45,1.07-.89,2.16-2.25,3.06-2.58,1.83-.68,3.86.41,3.87,2.2,0,1.44-.41,4.35-2.24,5.28Z"/>
      <g>
        <path class="cls-2" d="M172.31,106.19c-.03-16.65-13.08-28.1-27.39-33.64-1.49-3.09-2.29-9.3.71-11.31,2.51-1.68,8.15-2.6,8.09-6.84l-.53-39.2c-.07-5.13-8.83-8.41-13.91-9.52C103.98-1.99,67.58-1.98,32.4,6.27c-4.71,1.11-12.81,4.26-12.87,9.09l-.47,38.98c-.05,4.37,5.94,5.51,8.41,7.53,2.16,1.77,2.41,9.77-.39,11.03C14.07,78.76.48,89.07.44,104.94L0,277.55c-.03,11.29,6.46,20.22,15.88,25.03,31.51,16.13,114.82,16.09,142.54-1.12,9.06-5.62,14.26-14.27,14.24-25.31l-.35-169.95ZM26.32,53.03l.05-36.02c5.1-2.94,10.06-4.35,15.67-5.35,29.06-5.2,58.3-5.33,87.43-.39,6.03,1.02,11.46,2.45,16.73,5.61l.21,35.98c-19.43,7.17-39.23,8.46-59.69,8.31-20.67-.14-40.67-1.49-60.39-8.14ZM136.81,68.5c-.15,1.13-1.45,2.01-4.23,2.66-32.02,7.45-64.28,6.57-95.8-.97-1.26-1-1.18-5.18-.2-6.48,33.83,6.19,67.28,7.3,99.88-.05.53,2.69.49,3.8.35,4.84ZM22.69,83.39l13.94-6.89c32.77,8.51,66.67,8.58,99.5.21l11.88,5.71c12.95,6.23,19.06,19.96,16.31,33.5-48.8,12.71-107.07,12.4-156.01-.04-2.96-12.67,2.24-26.48,14.39-32.48ZM7.7,123.37c52.37,12.67,105,13.02,157.14-.15l-.03,123.79c-28.98,10.16-58.56,12.37-88.75,11.52-23.44-.66-45.81-3.38-68.3-11.35l-.06-123.81ZM163.74,283.36c-2.43,9.15-11.52,13.26-20.64,17.04-34.86,9.96-135.4,12.12-135.32-21.75l.05-23.53c49.17,15.53,108.06,15.36,156.57-.15.02,10.11,1.73,19.41-.66,28.39Z"/>
        <path class="cls-1" d="M130.3,181.06c-9.05-1.31-16.45,1.5-24.29,4.16-1.36-14.73-8.48-27.55-19.57-37.15-11.81,9.64-18.98,22.25-20.45,37.2-8.31-3.37-15.95-5.64-24.66-3.76-2.37,26.4,12.93,49.18,39.85,51.55,2.23.2.03,7.97,3.06,9.47,1.19.58,2.91.35,3.75-.6,2.27-2.56.18-7.59,2.61-8.94,1.17-.65,2.86-.38,4.56-.64,24.31-3.85,39.03-27.23,35.13-51.29ZM82.68,219.13l-18.05-18.08c-1.21-1.21-2.76-1.42-3.9-.85-6.5,3.27,11.47,13.89,18.19,26.06-18.95-3.48-32.01-19.8-31.49-38.87,19.07,1.39,38.71,15.71,35.25,31.74ZM86.92,173.56c-1.33-.38-3.74.85-3.77,2.92l-.23,20.6-10.53-8.93c-.06-12.17,5.65-22.29,13.96-31.46,7.98,9.11,13.13,19.25,13.07,31l-9.95,9.56-.2-20.14c-.02-2.17-1.53-3.32-2.35-3.55ZM93.53,226.26c5.87-12.14,20.54-21.12,18.52-25.04-2.28-4.44-14.2,8.09-22.07,18.23-4.91-15.96,15.8-31.52,34.38-31.63-1.34,20.83-10.95,33.98-30.83,38.44Z"/>
      </g>
    </g>
  </g>
</svg>