<?xml version="1.0" encoding="UTF-8"?>
<svg id="Layer_2" data-name="Layer 2" xmlns="http://www.w3.org/2000/svg" viewBox="0 0 300.77 259.16">
  <defs>
    <style>
      .cls-1 {
        fill: #2c45c9;
      }
    </style>
  </defs>
  <g id="gentrace-sample-file-last-art">
    <g>
      <path class="cls-1" d="M289.71,144.83l-20.37,94.74c-2.43,11.3-12.48,19.6-24.54,19.59l-191.31-.12c-13.87,0-20.95-12.21-23.38-23.81l-18.93-90.29C2.5,142.32.21,134.99,0,126.71c-.26-10.37,5.06-19.47,16.49-19.47l56.08-.02,2.31-39.42c.22-3.83,2.22-7.74,4.4-10.85l19.44-26.81-2.32-13.13c-.93-5.27,2.09-10.61,5.63-13.63C106.08-.06,111.06-.23,116.55.14l74.55,5.02c9.18.62,17.52,4.11,17.96,15.44.19,4.83-2.22,11.77-3.44,16.87l14.21,27.95c1.89,3.71,1.86,8.45,2.12,12.92l42.48-46.93c.05-10.09,7.49-18.49,16.98-18.89,10.2-.43,18.72,6.93,19.33,17.15.6,10.02-6.17,17.86-15.25,19.39l-52.34,58.21,52.69.09c10.15.02,16.23,10.09,14.33,19.23,1.16,8.02-1.82,15.4-10.46,18.25ZM198.47,33.31c2.26-5.07,3.57-10.13,2.81-14.86-.66-4.11-4.68-5.08-8.25-5.33l-79.71-5.54c-5.09-.35-9.9,3.24-9.01,8.51l1.85,10.94,92.31,6.29ZM279.97,40.52c5.44,2.2,11.44-2.09,12.82-6.92,1.5-5.24-1.52-10.62-6.83-12.5s-11.33,1.11-13,6.17.75,10.71,7.01,13.24ZM213.92,73.39c.15-3.98-3.76-9.47-5.48-12.86l-10.1-19.9-21.26-1.02-71.94-4.95-22.11,31.12-2.75,41.42h115.12s18.02-19.89,18.02-19.89l.51-13.93ZM208.89,123.15l15.81-17.67,52.36-58.52c-4.75-1.51-6.62-3.64-9.42-7.15l-47.29,51.3-22.29,24.7c-2.44,2.7-1.15,7.42,1.19,9.22,2.96,2.28,6.95,1.13,9.64-1.87ZM40.23,145.35c-1.89,0-4.04-2.31-3.84-3.28s1.18-2.88,2.15-4.21l246.91.03c2.68,0,6.85-2.97,6.86-5.15l.03-12.01c0-3.2-4.39-5.52-7.47-5.52l-58.77.07-14.58,15.99c-4.28,4.69-12.43,3.84-16.74.31-4.84-3.96-7.02-10.66-4.29-16.38l-176.51.15c-7.18,0-7.73,16.88-3.36,20.72s11.22.12,14.17,2.93c.91.87.26,3.87-.46,4.97s-3.08,1.28-5.43.8l19.81,92.56c1.6,7.47,7.73,14.2,16.09,14.2l190.69-.02c8.89,0,15.2-7.61,16.83-15.2l19.49-90.96H40.23Z"/>
      <path class="cls-1" d="M79.84,225.07c0,2.46-2.29,4.39-4.08,4.39-1.41,0-3.89-2.19-3.89-3.89l-.02-52.13c0-1.8,2.46-4.19,3.99-4.25,1.84-.07,3.96,2.16,3.96,4.26l.05,51.61Z"/>
      <path class="cls-1" d="M227.34,225.02c0,2.21-2.45,4.64-3.94,4.67s-3.89-2.31-3.89-4.11l-.03-52.11c0-1.8,2.41-4.28,3.94-4.24s3.89,2.59,3.9,4.3l.03,51.49Z"/>
      <path class="cls-1" d="M190.48,225.61c0,1.69-2.49,3.87-3.92,3.86-1.6-.01-4.09-2.11-4.09-3.84v-52.17c0-1.98,2.34-4.34,4.09-4.37s3.92,2.35,3.92,4.39v52.14Z"/>
      <path class="cls-1" d="M153.61,225.08c0,2.18-2.52,4.39-3.99,4.42s-4.07-2.33-4.07-3.94v-52.11c.01-1.94,2.4-4.34,4.09-4.35s3.93,2.35,3.93,4.35l.05,51.63Z"/>
      <path class="cls-1" d="M116.79,225.05c0,2.56-2.08,4.43-4.11,4.33-1.88-.09-3.78-2.45-3.78-4.85v-51c0-1.8,2.39-4.25,3.88-4.28,1.77-.04,4.04,2.14,4.04,4.19l-.02,51.62Z"/>
      <rect class="cls-1" x="145.55" y="28.29" width="8.41" height="96.86" transform="translate(63.28 221.05) rotate(-86.2)"/>
    </g>
  </g>
</svg>