<?xml version="1.0" encoding="UTF-8"?>
<svg id="Layer_2" data-name="Layer 2" xmlns="http://www.w3.org/2000/svg" viewBox="0 0 1128.17 584.76">
  <defs>
    <style>
      .cls-1 {
        fill: #2c45c9;
      }
    </style>
  </defs>
  <g id="Layer_1-2" data-name="Layer 1">
    <g>
      <path class="cls-1" d="M1094.91,393.1c-8.23-.78-10-6.68-11.29-10.99-.86-2.86-1.6-5.33-4.08-4.72-1.78.44-2.47,2.59-3.27,5.08-1.43,4.44-3.21,9.96-11.43,10.63-1.05.09-2.18,1.19-2.78,2.18-.49.8-.64,1.53-.42,2.05.42.99,2.26,2.41,3.34,2.57,8.37,1.25,10.02,7.13,11.23,11.43.6,2.13,1.07,3.82,2.24,4.47.32.18.67.26,1.05.26.27,0,.56-.04.86-.13,1.88-.54,2.44-2.6,3.08-4.99,1.15-4.27,2.58-9.58,11.54-11.08,1.27-.21,3.22-2.11,3.16-3.41-.05-1.13-1.89-3.22-3.23-3.34ZM1085.09,396.35l-5.17,4.8-5.13-4.79,4.91-4.73,5.39,4.72Z"/>
      <path class="cls-1" d="M1086.39,123.35c.22,0,.43-.01.63-.03.28-.02,2.77-.26,3.18-1.39l7.25-19.72c.51-1.4-.8-4.59-2.11-5.09-.81-.31-2.05,0-2.86.38-.52.24-1.43.74-1.71,1.5l-7.02,19.12c-.41,1.13.24,3.69.73,4.54.3.54,1.12.68,1.91.68Z"/>
      <path class="cls-1" d="M1127.65,126.83c-.94-1.02-3.88-1.17-5.1-.49l-13.66,7.63c-.85.48-1.49,1.46-1.71,2.64-.22,1.14.01,2.26.61,2.98.62.75,1.57,1.13,2.65,1.13.9,0,1.89-.27,2.84-.8l13.6-7.67c.82-.46,1.12-1.84,1.21-2.42.17-1.04.14-2.38-.44-3.01Z"/>
      <path class="cls-1" d="M547.57,327.72l-28.19-29.01-.13-.13-.19-.02c-1.34-.12-4.18-.07-5.25.98-1.09,1.07-.44,4.27.56,5.33l21.62,22.98-154.31.1c-1.81,0-4.09,2.05-4.28,3.44-.16,1.18,1.16,3.78,2.4,4.32l.1.04,155.78.15-22.56,23.43v.2c.02,2.11.31,4.66,1.6,4.77l4.15.37,28.53-28.79c.86-.77,2.71-3.19,2.24-4.61-.33-.99-1.44-2.66-2.08-3.56Z"/>
      <path class="cls-1" d="M613.28,87.9c2.11-12.56,9.42-14.61,14.26-15.96,2.91-.81,5.42-1.51,5-4.33h0c-.36-2.39-3.05-3.13-6.18-3.98-2.93-.8-6.25-1.71-8.42-4.12-2.55-2.84-3.56-6.75-4.38-9.9-.73-2.81-1.3-5.03-2.71-5.84-.59-.34-1.3-.4-2.09-.18-2.21.62-2.83,3.04-3.61,6.11-.82,3.2-1.83,7.18-5.08,10.28-2.2,2.1-5.32,3.06-8.07,3.91-3.35,1.03-6.24,1.92-5.82,4.63.21,1.33,2.52,3.09,3.93,3.29,11.6,1.58,13.58,9.08,15.03,14.57.85,3.2,1.58,5.99,4.2,5.99.14,0,.29,0,.44-.02,1.75-.19,3.15-2.4,3.49-4.43ZM617.84,68.03c-3.2,2.18-5.91,4.57-8.43,7.45l-7.77-7.5c2.68-1.85,5.57-4.79,7.95-8.09,1.67,3.44,4.72,6.46,8.25,8.14Z"/>
      <path class="cls-1" d="M289.22,549.06l-36.04-6.09c-1.55-.81-3.07-1.92-4.67-3.08-3.94-2.88-8.4-6.12-14.44-5.3l-.45-13.86,34.02-.48c3.6-.05,6.78-1.62,9.21-4.54,3.24-3.9,4.85-10.03,4.09-15.41,4.35-.58,7.47-2.82,10.23-4.81.43-.31.85-.61,1.27-.9,5.23-.6,10.4-2.13,12.99-9.01,3.89-10.35,3.64-22.62-.73-35.49,1.38-43.03-6.42-76.25-23.83-101.53l.04-171.51c0-4.8-1.52-9.51-4.18-12.93-3.02-3.89-7.23-5.94-12.17-5.94h0l-220.83.05c-7.88,0-15.62,7.88-15.63,15.91l-.05,175.28c-22.97,34.09-24.15,76.83-22.8,99.35-4.48,13.58-4.91,25.58-1.29,35.62,2.05,6.84,6.9,10.26,14.05,9.89l9.81,5.91c-.02,5.08.51,11.37,4.51,15.59,3.23,3.41,7.88,4.96,14.72,4.97l27.96-.06-.78,13.59c-8.02,1.21-14.12,4.14-18.66,8.95l-31.45,5.13c-8.73,1.42-24.76,6.89-24.11,13.64,1.1,11.39,52.9,16.42,75.11,18.05,27.53,2.02,54.45,3.04,81.13,3.04s53.46-1.02,80.21-3.07c47.85-3.67,72.64-9.71,73.68-17.97.83-6.53-13.23-11.68-20.93-12.98ZM106.61,544.08h0c.13,1.03.44,2.2.76,3.45,1.05,4.01,2.23,8.55-1.4,11.21-12.22,5.01-35.32,8.7-43.79,3.11-2.16-1.42-3.27-3.39-3.3-5.84-.15-10.39,11.47-14.48,22.4-14.85l.47-.02.21-7.65.63-12.79,26.53-.05c-.33,2.03-.7,3.99-1.07,5.89-1.13,5.89-2.21,11.46-1.43,17.53ZM273.22,232.95l-.03,279.83-237.93-.03.03-279.83,237.93.03ZM273.04,224.98l-237.4.04-.02-46.99c0-3.9,1.35-7.27,3.82-9.48,1.94-1.74,4.42-2.64,7.25-2.64.5,0,1.02.03,1.54.09l213.63.03c2.87-.39,5.44.23,7.46,1.79,2.09,1.62,3.45,4.19,3.82,7.17l-.1,50ZM203.76,559.64c-1.11-.23-2.01-.93-2.68-2.09-1.32-2.28-1.34-5.63-.69-7.63,1.79-5.51,2.39-10.53,1.83-15.35l-1.62-13.84,24.95-.17c1.48,5.27,1.6,11.57.37,19.23l-.07.47,16.65,3.68c3.81,2.43,6.28,5.71,6.96,9.26.59,3.07-.2,6.24-2.29,9.19-7.02,2.45-14.67,2.92-23.36,1.44l-20.03-4.17ZM116.55,520.67l76.35-.04,2.37,18.44-81.72.16,2.99-18.56ZM296.83,475.22c.11-.88-.79-1.92-1.18-2.32-.33-.34-1.47-1.42-2.41-1.33-2.41.24-3.08,3.76-3.85,7.83-1.06,5.59-2.38,12.52-8.43,13.37l.03-14.81c3.01-2.94,6.6-7.46,4.09-13.21l-.05-.12-4.2-3.21.19-97.06c4.08,5.21,5.95,11.16,7.93,17.42l.24.75c6.47,20.5,9.16,43.07,8,67.08v.09s.02.09.02.09c8.25,25.72,1.65,33.89-1.76,36.26l1.41-10.82ZM14.13,473.21c-.66.82-1.38,2.13-1.22,3.17l1.45,9.81c-7.87-6.21-6.07-23.2-2-36.24l.03-.08v-.09c-1.26-34.51,3.43-60.53,15.17-84.02l.46,97.12c-2.03.78-3.57,2.3-4.26,4.21-.67,1.84-.46,3.78.58,5.46l3.84,6.22-.29,13.86c-5.33-3.21-6.55-9.55-7.45-14.24-.72-3.76-1.3-6.75-3.69-6.75-.06,0-.13,0-.19,0-.78.05-1.66.62-2.42,1.56Z"/>
      <path class="cls-1" d="M197.09,352.64c.1,0,.2,0,.31,0,2.92-.12,5.48-1.81,7.41-4.88,3.79-6.03,4.21-15.84.99-23.34l-.08-.13c-2.76-3.24-5.44-4.85-8.19-4.93-2.7-.07-6.76,1.67-8.5,4.62-4.02,6.8-4.24,15.51-.58,23.3,1.42,3.02,5.25,5.37,8.65,5.37Z"/>
      <path class="cls-1" d="M114.61,319.48c-3.22.18-5.95,1.99-7.89,5.26-3.52,5.92-3.62,15.41-.24,22.55,1.52,3.2,5.36,5.2,8.21,5.45.21.02.41.03.62.03,2.72,0,5.27-1.59,7.25-4.52,3.61-5.36,5.04-15.13.79-23.44-1.67-3.27-5.37-5.51-8.74-5.32Z"/>
      <path class="cls-1" d="M132.36,382.61c1.14.16,2.78-.04,3.48-.63,5.34-6.09,13.84-9.79,22.14-9.68,7.31.11,13.81,3.15,18.29,8.57.98,1.19,2.72,1.79,3.91,1.85.07,0,.14,0,.21,0,.71,0,1.27-.19,1.63-.54,1.2-1.19,1.22-3.93.54-5.88l-.09-.16c-6.34-7.27-15.24-11.3-25.06-11.35-.06,0-.11,0-.17,0-10.26,0-20.07,4.42-26.94,12.16l-.12.14v.19c-.02,2.37.24,3.86.82,4.7.23.33.69.55,1.37.64Z"/>
      <path class="cls-1" d="M104.35,483.68c2.27,0,6.01-1.65,6.59-3.97.27-1.08-.14-2.78-.54-4.41-.24-1-.47-1.94-.5-2.56-.03-.73-.04-1.43-.06-2.08-.04-1.86-.07-3.33-.33-4.32h0c-.37-1.43-3.39-2.77-4.61-2.77h-9.62s-.06,20.02-.06,20.02l9.07.09s.03,0,.05,0ZM99.95,475.35c2.09.06,4.92.5,6.63,1.27.12.93-.18,1.69-.88,2.28-1.28,1.06-3.67,1.31-5.66.61l-.09-4.17ZM105.75,469.45c-.31.98-1.53,2-2.27,2.11-1.57.24-2.8-.02-3.36-.73-.54-.68-.53-1.82.03-3.31,1.03-.21,4.58.09,5.39.87.28.27.35.62.21,1.06Z"/>
      <path class="cls-1" d="M165.04,463.12c-5.78,0-10.48,4.7-10.48,10.47s4.7,10.47,10.48,10.47,10.48-4.7,10.48-10.47-4.7-10.47-10.48-10.47ZM171,473.5c0,3.31-2.69,6-6,6s-6-2.69-6-6,2.69-6,6-6,6,2.69,6,6Z"/>
      <path class="cls-1" d="M195.11,469.45c.03-1.76-2.42-5.46-4.48-5.56l-10.39-.5.06,20.18.46.03c.26.02.54.05.82.07.58.06,1.06.1,1.45.1.52,0,.87-.08,1.1-.29.16-.15.24-.34.23-.56l-.08-2.6c-.03-.88.38-2.56,1.05-4.35l4.85,5.99c1.04,1.29,3.99,1.94,5.85,1.3l.66-.23-5.54-7.07c2.67-2.35,3.93-4.43,3.97-6.53ZM184.6,468.97c.25-1,.65-1.54.93-1.62.13-.04.3-.06.51-.06.98,0,2.67.44,3.72,1.1.46.29.74.59.78.83.23,1.5-.69,2.31-1.5,2.73-1.41.73-3.48.7-4.26-.05h0c-.4-.39-.48-1.7-.18-2.92Z"/>
      <path class="cls-1" d="M200.85,483.64h14.3s-.12-3.87-.12-3.87l-9.79-.1c-.22-1.55-.02-3.59.29-3.81l8.04-.64c.22-.02.72-.16.69-1.12-.02-.64-.39-2.49-1.32-2.51l-7.69-.1-.22-4.02,10.07-.29-.12-3.65-14.15-.07.03,20.17Z"/>
      <path class="cls-1" d="M130.86,467.24l.27-3.73-14.72.03v20.09l14.71-.07-.2-3.77-9.7-.25c-.19-.1-.61-.97-.7-2.24-.06-.9.11-1.34.19-1.4,1.58-.91,3.49-.82,5.16-.73,2.28.11,4.63.23,4.89-2.7l.04-.51-10.12-.67.49-3.69,9.69-.37Z"/>
      <path class="cls-1" d="M136.59,463.39l.05,20.23,4.03-.04.93-7.69,7.82-.21.12-.07c.53-.34.6-2.39.38-3.1-.23-.73-.73-.8-.94-.79l-3.94.12c-2.6.08-4.02-.24-4.18-.43l.54-4.09c.24-.25,1.81-.16,2.84-.11,2.29.13,4.87.27,6.15-.99.51-.51.76-1.19.72-2.04l-.02-.47-14.49-.32Z"/>
      <path class="cls-1" d="M105.44,315.14h.03c6.55-.16,13.39-3.21,15.91-7.09,1.13-1.74,1.34-3.58.62-5.33-.29-.68-1.19-.96-1.7-1.06-1.03-.21-2.45-.13-3.13.54-4.05,3.96-7.58,4.99-10.17,5.74-2.21.64-3.95,1.14-4.47,3.25-.19.77.41,1.97,1.05,2.77.36.45,1.08,1.19,1.86,1.19Z"/>
      <path class="cls-1" d="M1120.58,221.73c1.49-7.86-1.6-14.94-8.74-19.98-4.51-2.4-9.78-3.62-16.55-3.83,5.28-25.94-1.53-36.75-3.76-39.46-2.91-3.54-6.88-5.33-11.81-5.33-.08,0-.17,0-.25,0-8.26.1-15.03,6.21-16.1,14.59l.14,15.27c.07,7.24-.8,14.35-2.65,21.74-13.09,8.6-17.47,25.27-10.7,40.69-9.73,11.98-22.45,20.5-36.84,24.69l3.53-113.83c-.58-8.41-3-15.45-5.86-23.13l-28.77-77.15.59-34.6c.1-5.96-1.94-11.17-5.91-15.05-4.45-4.36-10.86-6.62-17.99-6.35l-216.39,8.19c-13.91.53-23.96,13.66-24.62,25.59l-1.73,31.31-41.78,84.09c-4.08,8.22-4.38,17.58-4.64,25.85l-3.01,95.95c-36.22,8.89-49.16,28.11-53.65,42.7-3.01,10.36-1.71,21.05,3.78,30.89,4.9,8.79,12.86,16.6,23.01,22.61-1.76,9.3-.36,16.22,4.41,21.76,4.64,5.39,11.2,8.64,18.52,9.17l-3.16,101.52c-.18,5.9,2.07,12.05,5.88,16.04,2.82,2.96,6.33,4.55,10.14,4.61l54.85.81-.88,11.73c-9.03,1.16-15.44,4.18-20.72,9.73l-47.47,6.98c-6.69.98-22.77,6.58-22.29,12.49.42,5.18,12.59,9.6,19.28,10.61l41.84,6.37c41.44,3.83,83.14,5.74,124.78,5.74,38.09,0,76.14-1.6,113.9-4.81,14.01-1.19,60.35-5.81,68.25-15.31.92-1.11,1.33-2.27,1.21-3.46-1.36-13.76-71.79-18.93-75.88-19.21-5.25-4.83-11.08-7.42-19.38-8.6l-.58-10.63,73.63-.54c9.49-.07,19.93-6.46,20.24-16.66l5.75-190.25c26.84-5.17,50.33-18.48,67.96-38.54,13.19,1.85,25.39-1.38,34.38-9.13,6.19-5.82,8.7-13.28,7.26-21.57,3.74-8.92,3.31-17.54-1.21-24.32ZM737.51,538.22c.51-.98.32-2.42.07-4.41-.41-3.14-.96-7.42.65-12.92l28.38.58c-2.83,11.84-3.02,20.35-.68,29.25.5,1.89.09,4.17-1.07,6.09-1.01,1.67-2.49,2.83-4.04,3.18-13.58,3.08-37.61,7.29-45.84.9-2.47-1.92-2.97-4.52-2.95-6.36.03-3.49,1.93-7.24,4.73-9.33,5.7-4.27,11.58-4.87,15.47-5.26,2.79-.28,4.63-.47,5.3-1.74ZM905.25,539.68c15.78,1.54,23.85,5.97,24.69,13.54.29,2.63-1.1,8.05-4.25,9.03-5.88,1.82-11.62,2.56-16.59,2.12-9.24-.8-19.84-1.93-28.78-5.18-4.86-1.77-3.12-8.89-2.18-12.72l.16-.67c1.69-7.05.6-13.35-.67-20.64-.15-.86-.3-1.73-.45-2.61h27.38c1.76,5.56,1.06,11.75.24,16.55l-.09.53.53.05ZM773.92,521.49l95.32,1.11c1.51,4.6,2.32,9.3,2.76,15.98l-100.54.09,2.47-17.18ZM1113.7,244.6c2.39,6.2,1.15,11.79-3.69,16.63-7,6.77-17.85,10.07-26.37,8.01-5.38-1.3-6.87-.23-10.08,3.42-22.31,25.35-54.3,38.46-92.54,37.92-1.78-.03-3.99,1.3-4.39,2.63-.29.95.35,2.67,1.13,3.68.58.76,1.24,1.15,1.89,1.12l24.73-.94-5.43,187.25c-.14,4.91-5.88,9.95-9.89,9.99l-60.45.61c3.13-4.49,4.44-8.64,4.6-14.47l9.74-344.13c.23-7.98.6-14.17,3.42-21.18l26.9-67.06c.4-.99.13-3.88-.76-4.7-.79-.72-3.16-1.37-4.24-.98l-.19.07-4.16,8.54-24.4,60.53c-2.27,5.64-3.25,11.58-4.06,17.23l-.92,31.48-8.87,320.18c-.26,9.4-6.03,14.99-15.46,14.99-.06,0-.11,0-.17,0l-35.8-.25-83.57-1.22-110.38-1.03c-4.01-.04-7.67-1.47-10.04-3.92-1.95-2.03-2.89-4.59-2.81-7.6l5.01-173.5,4.43-136.18c.23-7.15,1.17-25.42,1.18-25.56,1.01-7.42,2.69-12.89,5.99-19.51l38.04-76.26,56.41-.85c-.16.16-.32.32-.47.48-8.14,8.35-12.51,18.92-12,29.01.35,6.91,3.11,13.28,7.76,17.92l17.22,18.36.3.29c5.06,4.24,11.64,6.48,19.04,6.48,10.93,0,22.39-5.06,30.65-13.53,13.73-14.09,14.95-32.89,3.04-46.75l-9.98-13.6,114.84-1.95c2.05-.04,3.69-1.73,3.65-3.78-.03-2.02-1.7-3.65-3.74-3.65h-.04l-122.4,2.08c-10.24-6.67-25.09-6.26-37.92,1.06l-64.85.98,1.39-24.48c.8-14.14,9.31-22.54,23.35-23.04l159.72-5.68,54.87-2.01c2.75-.1,5.65,1.15,7.98,3.43,2.56,2.51,4.05,5.84,4,8.92l-.54,31.81c-.06,3.23.58,6.9,1.76,10.08l31.74,86.07c1.32,3.58,1.37,8.1,1.25,12.06l-3.41,112.49c-5.46,1.58-12.32,1.86-17.85,2.09-6.51.27-9.96.47-10.92,1.86-.26.38-.32.83-.17,1.32l1.35,4.16h.35c34.45,1.36,60.17-9.81,80.96-35.12l.24-.29-.21-.31c-8.62-12.93-5.58-28.67,7.24-37.43l.12-.08.06-.13c4.41-9.87,4.04-20.11,3.74-28.33-.25-6.84-.46-12.74,2.18-16.06,1.88-2.37,5.94-4.14,8.99-3,3.05,1.14,12.44,7.23,5.37,37.9-5.65,1.9-10.6,3.84-13.99,7.9-5.51,6.6-5.52,15.17-.06,20.98-5.14,6.84-4.09,14.47,2.99,21.55,0,.43,0,.87-.02,1.32-.09,5.31-.21,11.93,7.59,14.02,4.87,1.31,14.01,1.33,18.5-2.04.87-.65,1.27-2.76,1.18-3.99-.06-.75-.29-1.24-.69-1.46-1.65-.88-4.33-.41-7.42.13-4.77.84-10.18,1.8-12.03-2.57-.45-1.06.65-4.25,1.71-4.95,4.76-3.17,9.74-3.53,13.38-3.79,3.8-.27,6.8-.49,6.72-3.9-.03-1.17-.54-2.09-1.51-2.73-3.72-2.44-13.99-.08-21.92,3.14-.37.11-.92-.06-1.55-.5-1.37-.94-2.79-2.89-2.86-3.95-.17-2.32.53-4.38,2.07-6.12,3.28-3.7,10.63-6.08,20.15-6.52,1.29-.06,2.78-2.21,2.96-3.24.26-1.45-.1-2.58-1.08-3.36-3.38-2.71-13.96-.15-22.47,3.4-1.4-.99-2.2-2.56-2.26-4.47-.08-2.84,1.49-5.92,3.92-7.66,7.38-5.3,17.52-6.36,25.82-2.72,6.29,3,8.64,9.14,6.13,16.01l-.11.31.24.23c5.53,5.25,6.02,13.09,1.25,19.98l-.15.22.09.25ZM794.95,125.11c11.2,0,22.95-5.18,31.41-13.87,7-7.19,11.2-15.93,11.92-24.75v.02c5.76,6.64,7.76,14.66,5.7,22.67l-4.12-4.4c-.69-.74-1.63-1.17-2.65-1.2-1.01-.03-1.98.33-2.72,1.02-.74.69-1.17,1.63-1.2,2.65-.03,1.01.33,1.98,1.02,2.72l6.42,6.85c-1.37,2.28-3.08,4.47-5.08,6.52-.28.29-.56.57-.85.84l-6.28-6.83c-1.42-1.54-3.82-1.64-5.36-.23-1.54,1.42-1.64,3.82-.23,5.36l5.91,6.43c-2.97,1.92-6.12,3.4-9.38,4.38l-6.42-7.24c-1.39-1.56-3.79-1.71-5.36-.32-.76.67-1.21,1.6-1.27,2.61-.06,1.01.28,1.99.95,2.75l3.19,3.59c-5.6.04-10.54-1.57-14.3-4.65l-4.79-5.11c1.18.12,2.35.18,3.49.18ZM809.37,63.65c5.74,0,10.82,1.71,14.68,4.94,4.11,3.44,6.44,8.29,6.72,14.02.4,7.98-3.19,16.49-9.86,23.33-12.05,12.36-30.26,15.37-40.6,6.7-4.11-3.44-6.44-8.29-6.72-14.02-.4-7.98,3.19-16.49,9.86-23.33,7.11-7.29,16.8-11.65,25.92-11.65ZM651.26,323.77c3.19-5.12,7.04-7.8,13.95-9.67l-.32,16.59-6.68,1.08c-2.42-2.19-4.7-4.81-6.95-8ZM646.69,316.41c-2.16,2.97-2.99,6-2.48,9,.81,4.7,4.8,9.38,12.56,14.72l.17.12,7.6-1.54-1.09,33.83-3.61,4.72.25.31c.16.2.37.44.59.7.79.91,2.42,2.81,2.4,3.51l-.3,8.64c-5.46-.74-10.12-3.25-12.85-6.95-4.13-5.58-3.31-9.87-2.58-13.65.68-3.56,1.27-6.64-3-9.23-8.63-5.23-28.32-19.66-24.68-40.61,2.04-11.7,9.23-21.87,21.36-30.22,7.93-4.91,15.57-8.18,25.44-10.9l-.87,27.23c-7.55,1.85-13.54,5.12-18.9,10.31Z"/>
      <path class="cls-1" d="M1054.93,123.85h0c.37.9,1.67,1.56,2.66,1.85.35.1.86.22,1.36.22.41,0,.82-.08,1.15-.3,1.14-.8,2.23-3.64,1.67-5.03l-6.18-15.17c-.59-1.44-3.24-2.92-4.73-2.63-.87.17-1.9,1.3-2.43,2.27-.31.58-.63,1.42-.34,2.11l6.84,16.68Z"/>
      <path class="cls-1" d="M834.75,412.21c6.07-8.87,9.93-19.72,11.78-33.16l3.51-25.42c.12-.91-.04-3.47-1.16-4.15-.79-.48-2.78-.55-3.55-.41l-19.26,3.52c-1.43.26-2.85.51-4.27.76-9.85,1.73-19.14,3.37-27.93,7.94-23.47,12.19-33.6,36.97-27.13,66.29l-7.89,9.14c-.62.71-.5,1.89-.38,2.52.22,1.16.88,2.55,1.84,3.04.29.15.65.22,1.04.22,1.4,0,3.21-.86,4.02-1.72l7.77-8.27c28.74,4.26,49.47-2.57,61.61-20.31ZM792.34,410.92l10.69-11.3,13.3-13.09c.76-.75.73-2.21.67-2.8-.08-.97-.41-2.18-1.07-2.64-1.42-.99-4.15-.29-5.39.97l-13.29,13.57c-1.59,1.62-2.82,2.96-4.13,4.37-1.16,1.25-2.33,2.53-3.8,4.03l-16.14,16.66c-4.02-19.57,3.37-39.02,18.98-49.76,6.82-4.69,15.36-7.91,25.36-9.56l24.51-4.04-2.43,19.06c-1.25,9.79-4.29,19.51-9.04,28.84-9.83,16.47-27.62,23.52-51.48,20.41l13.24-14.73Z"/>
      <path class="cls-1" d="M788.04,307.29c4.72,4.32,10.52,6.62,16.57,6.62.84,0,1.68-.04,2.52-.13,7.21-.76,13.9-4.78,18.35-11.02,6.55-9.19,7.97-22.12,5.74-26.36-.68-1.29-1.58-1.56-2.19-1.54-1.07.02-2.75.58-5.08,1.35-7.77,2.57-22.23,7.36-38.62.12-1.27-.56-3.97-1.08-5.28-.6-1.03.37-1.78,1.62-2.18,3.62-1.27,6.35,1.08,19.62,10.18,27.95ZM793.66,302.53c-5.44-4.8-8.4-11.27-8.37-18.28,13.14,4.18,26.07,3.88,39.49-.91-.5,7.06-2.97,12.96-7.37,17.54-7.03,7.32-16.58,7.98-23.75,1.66Z"/>
      <path class="cls-1" d="M843.64,222.28c-3.43.28-7.11,3.16-8.56,6.68-3.05,7.41-2.91,17.1.32,23.03,1.56,2.86,3.74,4.62,6.31,5.1.58.11,1.19.16,1.81.16,3.03,0,6.37-1.33,8.18-4.59,3.99-7.17,4.61-15.92,1.69-24.01-1.43-3.98-5.64-6.72-9.76-6.37Z"/>
      <path class="cls-1" d="M768.41,221.87c-2.84-.33-7.06,1.4-8.8,4.49-4.51,8.04-4.79,19.15-.66,25.85,2.04,3.3,4.89,5.04,8.26,5.04.16,0,.31,0,.47-.01,2.84-.13,5.31-1.68,7.15-4.46,3.87-5.87,4.37-16.3,1.2-24.8-1.16-3.11-4.44-5.74-7.62-6.1Z"/>
      <path class="cls-1" d="M849.04,468.46c-.56-2.69-4.08-4.97-6.58-4.97-.01,0-.03,0-.05,0l-8.13.09.07,19.99.46.04c.28.02.57.05.85.08.59.06,1.07.1,1.46.1.5,0,.84-.07,1.07-.28.16-.14.24-.34.24-.55l-.02-2.55c0-.81.39-2.45,1.03-4.31l4.36,5.14c1.49,1.76,3.32,2.52,5.76,2.4l.83-.04-4.56-7.62c2.5-2.39,3.69-5.18,3.2-7.51ZM839.02,467.91c.2-.4.41-.58.53-.61.1-.02.23-.04.38-.04.92,0,2.59.47,3.71,1.19.54.35.88.72.94,1.03.27,1.42-1.11,2.38-2.39,2.77-1.38.43-3.06.31-3.47-.64h0c-.37-.85-.22-2.66.3-3.71Z"/>
      <path class="cls-1" d="M819.22,479.58c-.15-.04-.56-.52-.88-1.47-.3-.9-.25-1.5-.18-1.59,1.71-.99,3.53-.97,5.12-.95,2.27.03,4.42.05,5.19-2.94l.15-.58-10.18-.7.04-3.93,8.22.18c.62.01,1.17-.57,1.53-1.61.1-.29.57-1.77-.09-2.28l-.13-.1-13.87-.13v20.15s14.97-.07,14.97-.07l-.28-3.79-9.61-.19Z"/>
      <path class="cls-1" d="M839.94,189.37c-1.3.6-2.45,3.42-2.38,4.72.05.87,1,1.66,1.8,2.08,1.11.57,2.21.64,2.95.18,5.66-3.53,9.73-.17,12.99,2.53,1.57,1.3,3.08,2.54,4.46,2.54.6,0,1.17-.23,1.72-.8,1.02-1.06,1.08-4.19.35-5.36-4.49-7.2-13.7-9.68-21.89-5.9Z"/>
      <path class="cls-1" d="M751.74,200.91c.33.09.65.13.96.13,1.74,0,3.27-1.3,4.87-2.67,3.03-2.59,6.46-5.52,12.77-1.84.57.33,1.35.17,2.19-.45.9-.67,2.12-2.12,1.89-3.12-.24-1.04-1.47-3.35-2.68-3.87-7.86-3.37-16.59-.84-21.24,6.14-.7,1.05-.6,2.89-.15,4.09.32.87.8,1.41,1.39,1.58Z"/>
      <path class="cls-1" d="M770.73,481.85l-6.74-16.06c-.43-1.03-2.12-2.75-3.32-2.41-.87.25-2.03,1.64-2.36,2.41l-7.47,17.4,4.1.28c.82.05,1.11-.95,1.47-2.11.15-.48.35-1.13.5-1.29.8-.88,3.15-1.37,5.36-1.11,1.51.17,2.62.66,2.98,1.31,1.21,2.17,2.12,3.47,3,3.47.11,0,.21-.02.32-.06,2.64-.97,2.59-1.11,2.44-1.54-.03-.08-.1-.23-.27-.29ZM763.19,474.92h-4.03s2.02-5.08,2.02-5.08l2.02,5.08Z"/>
      <path class="cls-1" d="M775.28,483.62h.49c.35.02.69.03,1.01.05.41.02.76.04,1.07.04.61,0,1.02-.07,1.28-.32.14-.14.22-.33.22-.53l-.06-2.76c-.12-3.71.34-4.04.49-4.05l4.4-.39,3.49-.25c.21-.02.38-.12.5-.29.12-.17.42-.61-.25-2.98l-.1-.36-8.4.04.32-4.46,9.34-.2.07-3.6-14.01-.03.15,20.1Z"/>
      <polygon class="cls-1" points="792.84 467.33 798.98 467.69 798.98 483.56 803.09 483.54 803.08 467.67 809.11 467.03 809.2 463.61 792.87 463.47 792.84 467.33"/>
      <path class="cls-1" d="M997.01,149l.14-.05c1.6-.62,2.47-3.03,2.36-4.92-.07-1.2-.56-2-1.33-2.2-12.95-3.32-25.31-4.45-38.97-5.48-3.43-.26-5.47.24-6.05,1.48-.71,1.52-.1,4.9,1.05,5.83l.13.1h.16c15.62.72,29.09,2.37,42.37,5.21l.15.03Z"/>
    </g>
  </g>
</svg>