<?xml version="1.0" encoding="UTF-8"?>
<svg id="Layer_2" data-name="Layer 2" xmlns="http://www.w3.org/2000/svg" viewBox="0 0 287.18 318.3">
  <defs>
    <style>
      .cls-1 {
        fill: #2c45c9;
      }
    </style>
  </defs>
  <g id="gentrace-sample-file-last-art">
    <g>
      <path class="cls-1" d="M181.5,249.81c-25.62,5.76-50.54,5.37-75.59.04-7.9-1.68-14.93-7.12-14.93-16.05l.06-107.56c0-7.99,5.28-15.09,10.54-19.73l7.02-6.19c1.01-.9,2.45-3.39,2.47-4.63.03-1.42-1.83-3.26-3.15-5.17-1.38-2.01-.95-7.24-1.15-10.12-.52-7.28,3.54-13.23,11.04-14.04,17.08-1.84,33.98-1.87,51.2-.02,3.38.36,7.26,2.37,8.84,4.38,2.01,2.56,2.63,7.09,2.47,10.38l-.44,9.3c-3.38,2.02-4.63,6.44-1.78,9.08l8.87,8.19c5.49,5.07,8.88,12.65,8.88,20.57l-.05,105.62c0,8-6.64,14.24-14.29,15.96ZM172.25,88.81c2.75-6.68,1.97-14.89-2.84-15.47-14.97-1.79-53.92-3.55-55.11,2.57-.63,3.25-.49,7.97-.23,11.81,17.36,4.57,39.57,3.73,58.19,1.08ZM188.61,134.33c1.74-14.42-3.49-20.1-14.21-29.07-3.13-2.62-4.63-5.73-4.83-9.75-17.59,3.19-34.69,2.41-51.59.16-.27,1.87-1.03,5.58-2.31,6.75l-10.93,10.02c-6.28,5.75-7.8,13.71-6.3,21.94,29.7,7.24,60.29,7.19,90.17-.05ZM188.71,214.72l.04-73.61c-30.39,7.35-61.07,7.28-90.76-.26l.15,73.9c30.15,7.71,61.22,8.05,90.58-.03ZM188.41,235.13l.39-13.58c-28.71,8.23-62.17,7.72-90.7-.06l.54,15.84c.11,3.33,6.83,5.39,10.06,6.08,23.48,5,46.81,4.77,70.27-.09,3.82-.79,9.32-3.69,9.45-8.19Z"/>
      <path class="cls-1" d="M161.5,291.68c1.05.97,1.61,4.48.65,5.46l-18.59,18.81c-.88.89-2.71,2.05-3.78,2.32s-3.38-1.19-3.74-2.23c-.44-1.25.46-4.15,1.4-5.09l11.4-11.42c-33.86.88-67.96-6.35-94.24-27.82l-4.34-3.54c-22.25-18.18-36.89-42.83-44.75-70.35C-4.22,163.76-.78,128.69,13.59,96.53,30.88,57.85,64.08,30.19,105.76,21.36c1.62-.34,4.42.44,4.94,1.68s-.52,3.84-1.69,5.34c-18.52,4.13-35.27,11.72-50.47,23-15.51,11.91-26.87,26.71-35.64,44.02C-3.02,146.55,4.98,208.42,43.54,250.96c20.46,22.58,48.03,36.51,78.51,39.64l26.68.87-11.54-11.84c-.98-1.01-1.48-4.03-.7-5.2s4.57-1.78,5.61-.81l19.41,18.07Z"/>
      <path class="cls-1" d="M244.58,250.85c39.2-44.56,45.46-108.05,17.45-159.72-7.95-14.66-17.63-27.22-30.78-37.97-24.18-19.77-54.98-29.12-86.18-27.34l12.16,11.89c.99.97,1.15,3.71.54,4.82s-4.41,2-5.4,1.1l-18.92-17.17c-1.05-.96-2.34-2.57-2.53-3.58-.22-1.22,1.25-3.6,2.23-4.51L151.41,1.41c1.51-1.4,4.52-1.98,6.09-.72,1.24.99,1.32,4.68.11,5.81l-12.16,11.31c52.04-1.66,96.91,21.55,122.59,67.64,28.84,51.77,25.04,115.97-11.06,163.22-17.96,23.51-42.74,39.79-71.65,46.74-1.86.45-4.48-1.63-4.64-3.13s1.31-3.84,3.11-4.31c23.54-6.25,44.39-18.5,60.77-37.12Z"/>
      <path class="cls-1" d="M144.28,201.99l-1.07,4.3c-.27,1.1-3.73,1.8-4.38.87s-1.04-2.88-1.31-5.17c-12.4-1.45-21.62-12.64-18.99-25.9,4.33-.23,7.73.48,12.1,1.55.53-6.42,3.83-14.66,9.92-18.52,7.1,2.18,9.84,11.95,9.79,18.25,4.61-1.14,8.42-1.73,12.94-1.17.66,14.02-5.62,23.96-18.99,25.77ZM141.07,184.02c6.06-4.87,4.37-11.39-.3-18.12-2.9,4.67-4.31,9.22-4.78,14.15l5.08,3.97ZM137.86,190.01c-3.55-5.41-8.46-7.26-14.09-9.66-.22,6.5,4.31,13.63,11.4,15.11,1.43.04,3.52-4.19,2.69-5.45ZM146.77,195.29c6.37-1.17,10.61-7.73,10.93-13.85-6.91.86-13.45,3.97-14.05,9.91-.13,1.25,1.87,4.18,3.13,3.95Z"/>
      <path class="cls-1" d="M160.07,104.12l-28.87.2-2.04-1.64c-.61-.49.59-2.6,1-2.71l27.26-.32,2.56.25c.77.08.6,2.33.09,4.22Z"/>
    </g>
  </g>
</svg>