<?xml version="1.0" encoding="UTF-8"?>
<svg id="Layer_2" data-name="Layer 2" xmlns="http://www.w3.org/2000/svg" viewBox="0 0 379.95 288.16">
  <defs>
    <style>
      .cls-1 {
        fill: #2c45c9;
      }
    </style>
  </defs>
  <g id="gentrace-sample-file-last-art">
    <g>
      <path class="cls-1" d="M262.24,151.84c0-7.85,1.18-13.7,6.97-19.05-1.82-4.26-3.06-8.63-2.83-12.95.38-7.05,5.71-12.51,12.84-12.49l57.73.14c6.02.01,10.19,5.57,11.06,10.77s-.96,9.68-2.56,14.56c1.84,3.24,6.46,7.44,6.46,11.92l.05,104.64c0,4.11-1.13,7.27-3.68,10.76l22.74.02c4.82,0,8.95,3.62,8.94,8.48l-.04,13.73c0,2.52-3.86,5.8-7.13,5.8H6.97c-4.62,0-6.93-4.19-6.94-7.62L0,269.32c-.02-5.09,3.51-9.02,8.94-9.04l26.46-.09c-2.24-3.93-3.35-7.41-3.34-11.8l.13-103.69c0-4.47,4.94-8.8,6.87-12.15-2.75-5.24-4.32-11.45-2.01-17.2,1.92-4.77,6.34-8.04,11.61-8.04l56.89.03c6.59,0,11.5,5.24,12.26,11.65.55,4.62-.97,9.42-2.93,13.84,4.71,4.32,7,9.41,7,15.96l-.02,97.59c0,5.06-.73,9.25-3.04,13.66l32.53.44c-1.16-1.86-3.88-5.98-3.88-9.16l-.03-102.2c0-6.6,2.31-11.53,6.92-16.32-1.57-4.33-2.87-8.64-2.64-13.03.33-6.16,5.1-12.36,11.74-12.37l57.84-.04c6.53,0,11.43,5.67,12,11.83.41,4.45-1.3,9.28-2.57,13.56,2.57,3.65,6.38,7.85,6.38,12.99l-.06,106.7c0,2.14-2,5.75-2.74,7.74l13.61.24,17.84-.42c-2.01-2.67-3.5-6.45-3.5-10.32l-.02-97.84ZM60.63,108.84h-13.47v1h13.47v-1ZM293.16,108.84h-15.47v1h15.47v-1ZM107.85,129.28c3.68-4.26,4.36-11.21-.48-14.62l-60.93.09c-4.99,2.17-4.11,12.25.2,14.5l61.2.04ZM223.16,129.14c4.19-2.38,4.97-11.74-.07-14.31l-60.93.06c-5.2,1.59-4.18,12.53.15,14.3l60.86-.05ZM338.81,129.2c3.29-5.57,3.65-11.46-.69-14.51l-61.19.25c-5.37,1.09-4.41,12.93-.14,14.27h62.01ZM107.74,259.84c2.59-1.37,6.5-4.47,6.5-7.51l-.02-106.47c0-3.59-3.78-7.32-6.12-9.45l-61.92-.05c-2.45,2.27-5.84,5.7-6.62,8.91l-.05,106.65c1.17,3.76,3.8,6.65,7.39,7.9l60.85.03ZM223.25,259.86c2.77-1.7,6.51-4.56,6.51-7.63l.02-107.93c-1.79-3.03-4.2-6.08-6.53-7.98l-61.44.09c-2.47,2.05-5.8,5.58-6.77,8.85v106.88c0,2.95,4.86,7.58,7.54,7.58l60.67.14ZM338.83,259.86l5.89-5.85-.12-108.14c0-3.64-4.36-7.51-6.64-9.55l-61.95.09c-2.55,2.74-4.62,5.38-6.47,8.64l.07,106.31c0,3.41,4.43,8.34,7.77,8.35l61.45.15ZM33.95,225.68l.83-1.69-.28-6.46-.89.51.34,7.65ZM34.69,230.51h-1v11.47h1v-11.47ZM372.58,266.85l-365.29.06v13.9s365.29-.06,365.29-.06v-13.9Z"/>
      <path class="cls-1" d="M272,20.47l-97.75,35.46-69.82,26.19c-1.74.65-4.63-1.24-4.88-2.86s.9-3.92,3.05-4.71L269.03,13.39l-15.26-5.69c-1.92-.72-3.76-2.92-3.39-5.04.27-1.56,3.52-3.14,5.3-2.52l25.62,8.79c1.79.62,4.04,3.97,3.01,5.83l-14.09,25.34c-.87,1.57-3.81,2.57-5.14,1.83-2.39-1.33-2.65-3.86-1.44-6.07l8.37-15.39Z"/>
      <path class="cls-1" d="M312.93,80.07c0,1.41-3.24,3.24-4.35,2.81s-2.84-2.54-2.84-3.75l.03-21.09c0-1.13,1.29-2.94,1.99-3.62.88-.86,5.11.31,5.12,1.67l.05,23.99Z"/>
      <path class="cls-1" d="M285.79,84.28c.81.95.98,3.94.35,4.93-.76,1.19-4.53,1.64-5.56.4l-11.75-14.15c-.9-1.08,1.06-4.51,2.12-4.63,1.27-.15,3.73.48,4.61,1.52l10.23,11.94Z"/>
      <path class="cls-1" d="M339.73,88.23c-1.19,1.38-3.85,2.61-5.15,2.11-1.84-.71-2.72-4.36-1.27-6.01l11.25-12.83c.97-1.1,4.48-.6,5.23.45s.46,4-.42,5.03l-9.64,11.25Z"/>
      <path class="cls-1" d="M210.9,248.26l-4.67-1.04c-.89-.2-.38-3.41.43-3.86,2.8-1.53,8.96.32,8.98-3.14l.1-20.63c0-1.33,1.99-3.52,3.1-3.72s3.13,2.37,3.11,3.52l-.28,20.93c-.08,5.59-5.25,9.15-10.76,7.93Z"/>
      <path class="cls-1" d="M333.57,246.54c-4.26,3.1-12.13,2.49-12.82-.66-.26-1.16,2.12-3.01,3.33-3.34l6.27-1.68.05-21.44c0-1.23,2-3.69,3.13-3.56s3.13,2.32,3.12,3.65l-.19,19.9c-.02,2.15-1.4,6.02-2.89,7.11Z"/>
      <path class="cls-1" d="M95.05,248.38c-1.71-.22-3.75-.75-4.54-1.21s-.32-3.2.45-3.68c3.27-2.05,9.11.18,9-5.25l-.36-17.98c-.02-1.15.98-3.1,1.77-3.83.95-.87,4.79.46,4.78,1.81l-.12,21.25c-.03,5.69-4.85,9.67-10.99,8.88Z"/>
    </g>
  </g>
</svg>