<?xml version="1.0" encoding="UTF-8"?>
<svg id="Layer_2" data-name="Layer 2" xmlns="http://www.w3.org/2000/svg" viewBox="0 0 364.92 280.86">
  <defs>
    <style>
      .cls-1 {
        fill: #2c45c9;
      }
    </style>
  </defs>
  <g id="gentrace-sample-file-last-art">
    <g>
      <path class="cls-1" d="M240.98,280.84l-.3-35.38-117.65.04-.41,29.28-118.16.09c-1.91,0-4.28-1.72-4.45-3.11-.16-1.3,2-3.98,3.42-4.02l15.73-.38c-1.8-3.51-3.3-6.26-3.3-9.28v-103.67c0-5.45,3.49-9.58,7.06-13.28l-2.21-7.41c-1.25-4.17-.63-8.59,1.95-12.34,1.95-2.83,6.31-5.22,10.7-5.2l52.69.16c5.63.02,10.26,3.86,11.58,9.29,1.25,5.15-.64,10.5-1.76,15.7,2.03,3.25,6.22,7.5,6.22,12.05v105.7c0,2.74-1.7,5.38-3.62,8.36l17.22.19.31-28.24,15.31-1.03c-3.32-3.65-4.81-7.47-4.82-12.25l-.02-121.46c0-7.54,2.5-13.77,8.3-18.62l-2.28-10.43c-1.52-6.97,3.14-15.21,10.62-15.43l14.04-.42c15.8-.48,31.01-.25,46.88.39,5.45.22,11.64-.65,16.84.37,8.59,1.68,10.5,11.06,8.92,18.63l-1.5,7.16c4.37,4.16,8.17,8.89,8.17,15.32v123.51c-.01,5.28-1.32,8.93-4.86,13.49l12.75-.08c1.63-.01,3.81,2.63,3.81,4.51l-.03,30.78,15.63-.1c-1.47-3.29-3.07-6.83-3.07-10.66l.05-103.58c0-5.5,3.15-9.77,6.96-13.42l-2.24-9.5c-1.96-8.32,4.13-15.64,12.38-15.63l53,.05c7.87,0,12.96,8.14,11.28,15.39l-2.34,10.12c3.47,2.75,6.58,6.97,6.59,11.96l.04,103.58c0,4.34-1.23,7.87-3.24,11.75l18.38-.02c1.17,0,3.05,2.07,3.34,3.06.35,1.18-1.65,4.05-3.14,4.04h-120.76ZM218.8,237.27c4.81,0,9.98-4.61,9.98-9.13v-127.55c.01-6.78-12.06-9.56-6.33-21.65,1.36-2.88,1.79-11.37-3.03-11.45l-39.22-.73-33.15.14c-2.01,0-5.12.48-6.2,1.55-.93.94-2.22,3.81-1.94,5.17l3,14.52c-3.29,4.03-5.86,7.08-8.2,11.03l.09,128.69c0,7.03,7.75,9.45,13.26,9.45l71.73-.04ZM89.12,138.02l1.9-8.55c.71-3.2-2.61-5.92-5.73-5.91l-54.78.26c-3.09.01-3.79,6.32-3.02,8.43l2.09,5.69,59.52.08ZM331.56,127.91l-56.78.09c-3.98,4.03-3.09,8.8-.56,13.88l59.29.07c2.5-6.45,3.08-12.34-1.94-14.05ZM339.94,137.5l.87-.54-.25-6.54-.87.54.25,6.54ZM86.73,267.08c5.94-.02,8.63-6.9,8.63-11.86v-35.36s-.02-65.04-.02-65.04c0-3.64-3.9-7.53-6.34-9.81l-59.2.05c-2.17,1.87-6.63,5.47-6.64,8.79l-.07,104.32c0,6.87,7.24,9.24,13.21,9.19l23.21-.19,27.23-.09ZM332.63,273.27c2.55-1.52,6.41-4.61,6.41-7.49l.1-107.85c-1.42-3.7-3.75-6.71-6.75-8.82l-57.27-.03c-2.29,1.9-6.88,5.75-6.89,9.4l-.06,106.57c0,2.75,4.43,8.06,7.08,8.07l57.37.16Z"/>
      <path class="cls-1" d="M187.85,26.32c-.02,1.27-2.3,3.15-3.36,3.15-1.27,0-3.61-2.24-3.61-3.67V3.76c0-1.49,2.41-3.7,3.72-3.76s3.69,2.23,3.66,3.82l-.42,22.5Z"/>
      <path class="cls-1" d="M216.23,35.83c-.83.96-4.21,1.22-5.18.45-1.22-.97-1.32-3.98-.06-5.43l11.16-12.79c.8-.92,4.15-.86,4.94-.09.95.92,1.21,3.91.33,4.93l-11.19,12.93Z"/>
      <path class="cls-1" d="M159.51,31.53c.76.87.04,4.53-.98,5.08s-3.86.29-4.61-.58l-11.19-12.89c-.83-.95-.92-3.69-.4-4.68.63-1.2,4.49-1.47,5.49-.33l11.68,13.4Z"/>
      <path class="cls-1" d="M167.4,192.11c-1.76-.43-3.97-2.05-3.95-3.22s2.31-3.28,3.61-3.27l13.25.07-.1-47.14-13.86,6.82c-1.27.62-3.69-2.52-3.31-3.58s1.8-2.75,3.07-3.42l15.72-8.21c.88-.46,3.5-.77,3.83-.09l1.4,2.88-.21,52.73,11.25-.09c1.07,0,3.7,1.28,3.67,2.3s-.83,3.02-1.44,4.17l-32.95.05Z"/>
      <path class="cls-1" d="M211.12,83.88c.82.32,3.2,2.66,2.54,3.24l-3.57,3.13-59.04-.12c-1.44-.37-3.69-1.96-3.86-3.16-.21-1.44,2.47-3.22,4.45-3.7,20.05-.56,39.27-.58,59.49.61Z"/>
      <path class="cls-1" d="M75.82,255.6c-2.32-.14-4.9-1.68-4.85-3,.16-4.7,6.71-1.59,9.66-5.15l-.03-22.44c0-1.28,1.95-3.57,3.14-3.56s3.2,2.32,3.18,3.54l-.35,21.98c-.09,5.49-5.22,8.96-10.74,8.64Z"/>
      <path class="cls-1" d="M320.34,262.16l-3.85-.29c-.95-.07-2-2.73-1.42-3.49s2.58-1.85,3.53-2l4.2-.67c.88-.14,1.31-2.68,1.31-3.62l-.05-23.84c0-1.35,2.09-3.47,3.2-3.47s3.04,2.08,3.04,3.22l-.02,25.26c0,2.04-1.14,5.43-2.35,6.61-1.36,1.33-5.59,2.45-7.6,2.3Z"/>
    </g>
  </g>
</svg>