<?xml version="1.0" encoding="UTF-8"?>
<svg id="Layer_2" data-name="Layer 2" xmlns="http://www.w3.org/2000/svg" viewBox="0 0 266.48 260.04">
  <defs>
    <style>
      .cls-1 {
        fill: #2c45c9;
      }
    </style>
  </defs>
  <g id="Layer_1-2" data-name="Layer 1">
    <g>
      <path class="cls-1" d="M257.31,215.98c9.91,9.61,12.36,23,4.52,34.14-7.51,10.22-21.77,13.18-33.22,5.89l-48.76-48.81c-4.27-4.27-3.29-11.77-1.22-17.12l-9.47-10.18c-34.94,29.79-84.66,33.48-122.81,8.49C9.18,164.04-8.73,118.06,4.16,74.4c5.31-17.97,14.55-34.21,28.31-47.03C68.82-6.5,124.86-9.27,163.94,20.94c43.82,33.88,53.28,95.78,21.6,140.86l10.19,9.82c5.37-2.06,12.81-2.94,17.24,1.36l44.33,42.99ZM195.35,102.5c0-51.49-41.76-93.24-93.28-93.24S8.8,51.01,8.8,102.5s41.76,93.24,93.28,93.24,93.28-41.74,93.28-93.24ZM234.16,248.69c5.41,5.35,15.8,2.11,20.01-3.11s5.35-14.23-.15-19.74l-41.97-42.06c-4.89-4.9-10.64-6.07-17.03-1.56l-14.62-13.96-5.95,6.16,12.62,11.54c4.94,4.52-2.43,6.49-1.41,12.79.32,1.99,2.34,4.38,4.25,6.26l44.25,43.69Z"/>
      <path class="cls-1" d="M127.66,155.59l-17.56,8.07c-1.54.71-5.58-.15-7.23-.79l-44.7-17.36c-2.54-.99-5.69-2.37-5.69-5.33l.06-70.14,50.67-21.98c4.1-.75,8.31.02,12.04,2l43.47,17.44.09,68.86c0,3.45-1.94,5.89-4.67,7.14l-26.49,12.09ZM142.58,70.57l-35.2-14.09c-12.44,4.96-24.48,9.49-37.92,16.08l38.86,14.44,34.25-16.43ZM150.06,135.21l-.15-58.18-37.3,17.35.42,58.13,37.02-17.3ZM104.11,153.71l-.09-58.96-42.73-15.76-.06,58.11,42.88,16.6Z"/>
    </g>
  </g>
</svg>