<?xml version="1.0" encoding="UTF-8"?>
<svg id="Layer_2" data-name="Layer 2" xmlns="http://www.w3.org/2000/svg" viewBox="0 0 186.86 279.12">
  <defs>
    <style>
      .cls-1 {
        fill: #2c45c9;
      }
    </style>
  </defs>
  <g id="Layer_1-2" data-name="Layer 1">
    <g>
      <path class="cls-1" d="M90.85,279c-12.02-1.08-20.59-10.07-22.3-21.95-4.72-.46-10.97-2.2-12.02-7.27-1.49-7.24-1.2-15-1.17-22.48l.06-17.51c.02-6.23-1.51-13.14-6.99-17.32-25.33-19.29-36.42-51.56-27.2-82.34,10.27-34.3,42.61-57.32,78.39-54.38,30.44,2.5,55.41,23.35,65,50.6,10.51,29.85,1.37,62.75-22.42,82.56-6.52,5.42-11.08,10.76-10.99,19.78l.21,21.57-.05,14.33c-.03,8.03-4.76,12.29-13.07,12.46-1.69,13.93-13.19,23.23-27.46,21.95ZM115.19,205.46l7.46.06c.84-7.63,3.8-14.87,10.11-19.84,22.62-17.8,33.06-47.01,23.91-75.05-11.77-36.05-51.75-55.48-87.47-41.42-23.46,9.23-39.31,31.11-41.93,56.62-2.44,23.81,9.11,45.84,27.27,60.46,5.69,4.58,8.64,11.2,9.67,19.06l50.99.11ZM122.92,214.64l-58.83.05v11.63s58.84-.05,58.84-.05v-11.63ZM122.22,247.81c.91-5.49.92-8.8-.16-12.08l-57.8.05.44,12.16,57.51-.13ZM108.94,256.74l-31.35.04c1.22,9.03,8.58,13.58,16.34,13.33,6.93-.23,14.6-4.82,15.01-13.36Z"/>
      <path class="cls-1" d="M97.78,35.94c0,1.52-2.82,3.22-4.02,3.31-1.37.1-4.66-1.54-4.66-3.05l-.05-33.24c0-1.35,2.74-2.83,3.96-2.95,1.39-.14,4.74,1.52,4.74,3.05l.02,32.88Z"/>
      <path class="cls-1" d="M164.37,61.37c-1.17,1.23-4.86.41-5.75-.73s-1.19-4.69-.02-5.94l18.9-20.01c1.52-1.61,3.78-2.64,5.8-2.44,1.74.17,4.39,4.4,3.31,5.86l-22.24,23.26Z"/>
      <path class="cls-1" d="M28.15,54.63c1.56,1.61,1.08,5.19-.63,6.49s-4.62.94-6.5-1.01L.4,38.7c-1.02-1.06.08-4.63,1.2-5.48,1.34-1.01,4.7-1.1,5.97.22l20.58,21.2Z"/>
      <path class="cls-1" d="M101.55,163.05c13.63-5.37,12.97-16.08,19.1-12.16,2.26,1.44,2.61,4.61.99,6.96-8.03,11.66-21.21,18.49-35.37,15.42-15.74-3.41-27.75-20.79-19.74-22.86,1.99-.51,4.55.23,5.7,2.19,6.1,10.37,18.32,14.78,29.33,10.45Z"/>
    </g>
  </g>
</svg>