<?xml version="1.0" encoding="UTF-8"?>
<svg id="Layer_2" data-name="Layer 2" xmlns="http://www.w3.org/2000/svg" viewBox="0 0 261.79 232.4">
  <defs>
    <style>
      .cls-1 {
        fill: #2c45c9;
      }
    </style>
  </defs>
  <g id="Layer_1-2" data-name="Layer 1">
    <g>
      <path class="cls-1" d="M24.53,152.91l48.79-.11c3.11.66,7.44,3.93,7.45,7.57l.12,63.09,20.22-.78.04-102.2c0-5.1,6.12-7.69,10.24-7.67l44.67.24c6.35.03,7.65,7.24,7.65,12.07l-.03,97.95,18.19-.37c.78-1.02,1.94-4.15,1.94-5.89V73.28c0-4.64,2.88-9.3,7.9-9.29l47.28.07c5.24,0,7.05,5.79,7.05,10.24l-.02,148.17,13.51,1.29c.96.09,2.33,2.98,2.24,3.98-.1,1.18-1.39,3.06-2.56,3.99l-58.27.26-188.31-.17-7.27.57c-1.5.12-4.27-1.36-5.03-2.56-.85-1.35-.1-5.64,1.59-6.01,5.26-1.15,10.24-1.11,16.16-.82l.14-63.65c0-2.2,4.08-5.29,6.29-6.43ZM192.59,72.73l-.08,150.77,44.92.02.08-150.77-44.92-.02ZM109.75,121.68v101.8s45.1,0,45.1,0v-101.8s-45.1,0-45.1,0ZM26.95,161.55l-.06,61.89,45.22.05.06-61.89-45.22-.05Z"/>
      <path class="cls-1" d="M194.97,36.44c-21.46,17.93-44.81,31.65-69.96,43.14-28.52,13.03-57.83,21.15-88.95,23.92-1.73.15-4.21-3.2-3.93-4.71.31-1.71,2.32-3.9,4.52-4.13,66.23-6.99,127.51-38.89,175.65-85.52l-24.38-.7c-1.37-.04-3.22-3.06-2.9-4.36S187.42.02,188.75.02L224.13,0c2.23,0,3.99,3.07,3.78,5.34l-3.46,36.95c-.12,1.32-2.67,2.93-3.75,2.8-1.26-.15-3.73-1.26-4.68-2.15l1.83-25.61-22.88,19.11Z"/>
    </g>
  </g>
</svg>