<?xml version="1.0" encoding="UTF-8"?>
<svg id="Layer_2" data-name="Layer 2" xmlns="http://www.w3.org/2000/svg" viewBox="0 0 199.16 235.15">
  <defs>
    <style>
      .cls-1 {
        fill: #2c45c9;
      }
    </style>
  </defs>
  <g id="Layer_1-2" data-name="Layer 1">
    <g>
      <path class="cls-1" d="M72.24,187.42L7.76,209l-4.64-.86c-.95-.18-1.27-3.06-1-4.06l18.4-69.27,57.41-60.36L140.63,9.34c9.65-10.01,24.52-13.02,35.82-3.82,6.42,5.23,12.91,11.1,17.88,17.89,7.85,10.71,5.72,25.95-3.4,35.08l-44.8,48.25-73.89,80.69ZM186.64,49.72c6.3-8.14,3.7-19.11-3.03-25.36l-12.13-11.28c-5.2-4.83-16.08-5.56-21.22-.42l-11.82,11.78,37.29,36.91,10.91-11.63ZM72.93,173.33l96.9-105.31-37.43-37.06-34.49,35.57-64.73,67.79,2.93,3.53,36.82,35.48ZM40.02,189.23l26.49-9.53-38.77-37.53-14.78,55.7,27.06-8.65Z"/>
      <path class="cls-1" d="M131.38,225.24c-8.43-12.12-26.41-7.1-40.02,1.3-15.54,9.59-32.54,10.78-49.98,5.46-11.06-3.38-22.55-5.31-33.88-2.39-2.51.65-5.53.71-6.79-1-1.56-2.12-.41-6.47,2.09-7.12,12.7-3.31,25.16-2.68,37.63,1.11,21.19,6.44,32.67,4.64,51.12-6.3,16.64-9.87,39.55-10.65,49.08,7.25l22.92-.6,18.47.08c2.8.01,5.27,2.1,5.22,4.46-.06,3.1-2.48,4.81-5.73,4.81l-42.46-.09c-3.9,0-5.71-4.13-7.68-6.95Z"/>
    </g>
  </g>
</svg>