<?xml version="1.0" encoding="UTF-8"?>
<svg id="Layer_2" data-name="Layer 2" xmlns="http://www.w3.org/2000/svg" viewBox="0 0 187.63 268.99">
  <defs>
    <style>
      .cls-1 {
        fill: #2c45c9;
      }
    </style>
  </defs>
  <g id="Layer_1-2" data-name="Layer 1">
    <g>
      <path class="cls-1" d="M165.61,268.99H22.41C8.99,266.03-.15,255.19,0,241.32L.27,59.07c.02-13.43,13.63-23.69,25.55-23.86l16.47-.23c1.97-4.98,5.94-7.67,10.94-7.73l13.21-.14C66.77,11.22,79.07.43,93.71.01c14.63-.42,27.41,11.27,28.12,26.98l15.13.46c3.86.12,7.06,4.39,9.04,7.48l16.55.37c11.09.25,24.94,9.61,24.95,22.49l.14,186.61c0,12.51-10.13,21.89-22.02,24.6ZM134.56,65.84c1.88-.94,3.37-5.23,3.36-7.18l-.11-18.13c-.02-3.01-2.65-5.15-5.7-5.17l-15.76-.12c-.9,0-2.89-.52-3.05-1.23l-.76-3.26c1.64-11.39-6.12-21.08-16.88-21.79-10.25-1.06-20.43,6.63-20.19,17.69.07,3.02-.09,6.4-1.55,8.42l-23.21,1.35-.33,24.42c-.03,2.31,2.32,5.09,4.82,5.08l79.37-.08ZM146.54,44.11l-.34,18.54c-.07,3.79-4.24,10.21-8.58,10.93-14.2,2.34-28.06.98-42.44,1l-17.98.02-24.15-.13c-6.31-.03-10.98-7.12-11.03-12.8l-.17-17.74-17.8.29c-7.09.12-15.17,7.57-15.17,15.53l-.02,183.62c0,8.71,7.75,16.73,16.35,16.73l134.93.09c8.03,0,18.63-5.27,18.63-14.83l.05-186.64c0-8.7-10.3-14.95-17.3-14.84l-14.98.23Z"/>
      <path class="cls-1" d="M136.65,204.36l-34.9,16.55c-4.7,2.23-7.96,2.63-12.88.62l-45.09-18.38.09-69.87,47.2-20.65,5.54-.31,46.02,18.89.04,68.83c-1.44,1.57-3.73,3.23-6.02,4.32ZM95.45,149.19l31.68-14.81-32.99-13.48-33.87,14.92,35.17,13.37ZM134.09,195.01l-.26-53.54-34.24,15.12v55.52s34.49-17.1,34.49-17.1ZM90.89,212.54l.11-55.41-38.47-14.86v55.06s38.36,15.21,38.36,15.21Z"/>
      <circle class="cls-1" cx="93.87" cy="27.72" r="7.46"/>
    </g>
  </g>
</svg>