<?xml version="1.0" encoding="UTF-8"?>
<svg id="Layer_2" data-name="Layer 2" xmlns="http://www.w3.org/2000/svg" viewBox="0 0 268.43 234.22">
  <defs>
    <style>
      .cls-1 {
        fill: #2c45c9;
      }
    </style>
  </defs>
  <g id="Layer_1-2" data-name="Layer 1">
    <g>
      <path class="cls-1" d="M240.63,211.42c1.58,2.14,1.91,4.29,1.46,5.93s-5.55,3.06-6.54,1.71l-11.71-15.93c-.9-1.23-.19-4.53.83-5.39s4.94-1.24,5.76-.12l10.2,13.8Z"/>
      <path class="cls-1" d="M209.17,229.11c.58,2.03-1.14,4.62-2.96,4.99-2.74.57-5.08-.92-5.8-3.5l-4.74-17.05c-.47-1.68,3.34-3.97,4.93-3.68,2.13.38,3.68,2.06,4.33,4.34l4.24,14.9Z"/>
      <path class="cls-1" d="M265.81,185.49c2.03,1.28,2.92,3.76,2.54,5.14-.53,1.94-4.19,3.96-6.11,2.69l-16.74-11.07c-1.08-.71-.65-3.89.18-4.77s4.25-2.01,5.37-1.31l14.76,9.31Z"/>
      <path class="cls-1" d="M23.41,58.77c1.35.88,1.18,4.58.07,5.69-1.81,1.81-4.2,1.85-6.28.51L.66,54.28c-1.43-.92-.29-5,.98-5.81,1.78-1.13,4.55-.86,6.45.38l15.31,9.92Z"/>
      <g>
        <path class="cls-1" d="M216.34,177.18c-56.65,39.68-132.34,33.33-182.49-13.48-12.95-12.09-23.73-25.64-33.66-41.55,13.29-23.31,31.31-43.67,53.41-58.51,55.26-37.09,127.72-31.41,176.89,13.12,14.34,12.98,26.4,27.72,36.57,44.78-13.29,21.91-29.67,40.89-50.73,55.64ZM232.75,151.56c9.02-9.47,16.53-18.96,23.78-29.9-14.38-22.6-32.41-41.58-55.37-55-51.55-30.11-113.82-22.57-158.32,16.61-12.81,11.28-22.93,23.95-32.51,38.49,8.65,13.27,18.21,24.87,29.19,35.16,55.21,51.69,140.83,49.59,193.23-5.37Z"/>
        <path class="cls-1" d="M45.98,33.64c1.78,2.62,2.47,5.19.02,7.33-1.97,1.72-4.76,1.11-6.48-1.3l-10.51-14.7c-1.56-2.18-1.2-5.26,1.09-6.81,2.11-1.43,5.18-.31,6.66,1.88l9.22,13.59Z"/>
        <path class="cls-1" d="M77.55,20.67c.8,3-.49,5.76-3.32,6.44-1.74.41-4.68-1.49-5.22-3.49l-5.13-19.16C63.37,2.58,66.06-.02,67.72,0c2.96.04,4.76,1.61,5.49,4.34l4.34,16.33Z"/>
        <path class="cls-1" d="M187.88,121.73c0,31.15-25.27,56.41-56.43,56.41s-56.43-25.26-56.43-56.41,25.27-56.41,56.43-56.41,56.43,25.26,56.43,56.41ZM178.92,121.82c0-26.23-21.27-47.49-47.51-47.49s-47.51,21.26-47.51,47.49,21.27,47.49,47.51,47.49,47.51-21.26,47.51-47.49Z"/>
        <polygon class="cls-1" points="134.23 180.45 128.67 180.72 128.13 179.87 133.68 179.6 134.23 180.45"/>
        <path class="cls-1" d="M129.79,145.47c17.09,1.12,17.58-13.77,24.57-12.12,7.6,1.8-2.6,19.31-20.9,20.76-15.49,1.22-31.03-13.37-26.79-19.37,1.1-1.55,5.35-1.96,6.39-.2,3.98,6.74,9.8,10.48,16.73,10.94Z"/>
        <path class="cls-1" d="M118.35,115.97c-.21,1.59-3.86,3.45-5.38,3.16s-4.65-2.5-4.7-4.15l-.24-9c-.05-1.93,2.33-4.46,3.92-4.79,2.06-.43,6.15.84,6.44,2.91.58,4.08.59,7.19-.04,11.86Z"/>
        <path class="cls-1" d="M153.61,116.88c-.4,1.22-3.55,2.64-4.72,2.34-5.51-1.37-5.76-6.83-4.89-13.98.38-3.11,3.88-4.55,6.52-4.01,4.62.95,5.27,8.94,3.09,15.64Z"/>
      </g>
    </g>
  </g>
</svg>