<?xml version="1.0" encoding="UTF-8"?>
<svg id="Layer_2" data-name="Layer 2" xmlns="http://www.w3.org/2000/svg" viewBox="0 0 166.29 309.95">
  <defs>
    <style>
      .cls-1 {
        fill: #3746c4;
      }
    </style>
  </defs>
  <g id="Layer_1-2" data-name="Layer 1">
    <g>
      <path class="cls-1" d="M151.76,272.86c-.48,18.52-17.93,28.25-35.17,32.8-27.19,7.18-63.62,5.88-87.77-7.99-9.32-5.35-15.57-13.77-16.91-24.48C4.92,269.12-.05,262.53,0,253.77L.83,80.74c.08-15.88,14.96-25.26,9.66-39.48,1.02-12.4,8.36-21.9,19.07-28.11C58.39-3.56,105.48-4.45,135.22,11.09c15.66,8.18,26.19,22.29,19.13,39.42,2.78,14.05,12.55,18.4,11.91,38.16l-2.92,103.67-1.4,62.52c-.17,7.64-3.65,13.9-10.17,18ZM155.28,199.79l3.09-105.06c.29-8.53.34-16.02-3.69-23.6l-6.87-12.93c-27.79,22.78-78.45,23.57-110.43,11.07-1.23-.48-3.91-2.34-4.55-2.87,1.96-1.93,2.76-3.36,3.42-6.23,30.19,13.74,81.72,12.73,105.79-7.85,7.07-6.05,8.5-15.32,2.77-22.83-5.29-6.93-12.52-11.42-21.16-14.47-26.66-9.4-56.26-9-82.56,1.44-8.35,3.32-15.03,8.66-19.9,15.67-3.81,5.5-3.92,12.63,1.04,17.28l8.99,8.42c1.39,1.47-2.27,7.24-6.3,4.23l-6.7-5.12c-2.04,6.01-9,12.92-9.07,20.79l-1.4,174.95c-.11,12.72,16.99,19.6,30,23.2,26.63,7.38,54.35,7.74,81.26,1.51,10.21-2.37,19.79-5.75,28.38-11.03,4.56-2.8,6.85-7.4,6.94-12.45l.94-54.12ZM41.59,294.72c26.79,10.23,66.59,9.66,90.6-4.33,4.7-2.74,9.06-5.91,10.33-12.15-15.21,6.26-29.69,9.6-45.67,10.78l-33.39-.05c-14.33-1.05-27.25-5.05-40.64-9.03,3.63,8.52,10.99,11.81,18.77,14.78Z"/>
      <path class="cls-1" d="M98.16,63.13l-1.23-8.04-11.85,4.44-14.16.72c-9.8,3.43-19.72,1.89-26.12-6.39-3.83-4.95-2.36-11.73,3.51-14.89,4.62-2.48,11.82-3.94,17.08-4.42,3.47-.31,2.28-8.45,8.02-12.3,3.74-2.51,7.54-1.93,11.67-1.49l19.24,2.03c4.14.44,6.25,4.69,5.77,8.83,5.02,2.63,8.91,6.8,9.16,12.16-.44,7.01-5.77,10.39-10.3,14.64-3.24,3.03-5.69,5.83-10.8,4.73ZM92.33,42.15c-4.75-5.06-12.2-1.95-13.18-5.53-.27-.98,1.42-3.33,2.47-3.59,10.74-2.71,16.33,7.24,19.49-2.23-6.68-1.82-12.27-2.36-18.83-2.7-7.58-.4-5.63,4.76-11.24,14.79-.69,1.23-1.43,4.39-.78,5.56,2.67,4.76,11.8,5.21,19.82,1.31,2.34-1.14,4.89-4.78,2.24-7.6ZM97.31,55.81c7.63.14,11.1-4.6,14.7-8.81.97-4.54-.51-8.57-5.08-10.55l-4.38,5.75c-.39,5.32-2.75,8.93-5.24,13.62ZM63.62,54.36c-1.39-5.07-1.56-7.96-.94-12.45-4.46.05-11.84,1.51-13.09,6.06,1.12,5.57,9.3,8.54,14.03,6.39Z"/>
      <path class="cls-1" d="M96.93,263.43c-1.49.09-3.88-1.84-4.16-3.13-1.68-7.87,12.47-2.38,29.6-10.67,5.64-2.73,8.06-6.88,8.27-12.89l1.91-54.21c.05-1.28,2.16-3.67,3.37-3.8s3.18,1.24,4.23,2.69l-1.79,56.55c-2.09,19.71-22.08,24.35-41.44,25.46Z"/>
      <path class="cls-1" d="M92.25,102.51c-15.69,4.37-57.62-1.77-58.85-8.49-.2-1.09.66-3.59,1.53-4.26,1.02-.79,3.46-.28,5.17.3,16.08,5.5,32.65,6.66,49.7,5.18,1.4-.12,3.63,1.35,4.23,2.42s-.59,4.52-1.78,4.85Z"/>
    </g>
  </g>
</svg>