<?xml version="1.0" encoding="UTF-8"?>
<svg id="Layer_2" data-name="Layer 2" xmlns="http://www.w3.org/2000/svg" viewBox="0 0 272.64 259.22">
  <defs>
    <style>
      .cls-1 {
        fill: #2c45c9;
      }
    </style>
  </defs>
  <g id="Layer_1-2" data-name="Layer 1">
    <g>
      <path class="cls-1" d="M183.61,217.73l-.42-21.16c-.27-13.57,14.5-24.24,30.92-25.04l-4.2-62.27-4.19-79.32c-.69-13.31-12.17-23.06-25.6-21.78L30.74,22.38c-11.65,1.11-21.59,7.82-22.36,20.31-.59,9.52-.58,19.04.18,29.11l10.82,137.21c1.04,13.72,13.35,19.03,25.48,18.24l100.21-6.58c13.11-.86,25.45-.88,38.55-2.94ZM216.02,138.32c.09-1.53-6.42-8.28,3.6-8.65,7.68-.28,19.61.4,33.18,6.1s25.98,25.2,16.38,37.14c-22.07,27.42-44.7,52.99-68.42,78.55-4.79,5.23-10.86,8.58-18.32,7.59-17.24-2.27-31.48-14.24-38.42-30.29l-104.03,6.42c-14.72.91-27.39-9.9-28.48-24.48L.78,72.15C0,61.68-.36,51.74.49,41.88,1.84,26.4,13.23,15.83,28.28,14.42L179.72.16c17.89-1.68,32.69,10.39,33.68,28.4l4.58,81.3c1.13,20.6,2.23,39.88,4.23,60.37l16.57-2.51,8.22-.63,17.64-3.78c-1.48-7.88-7.85-16.33-18.77-20.71s-29.86-4.27-29.86-4.27ZM194.07,246.64c17.46-18.21,32.55-35.45,48.05-53.68l16.63-20.09-51.87,7.9c-8.59,1.31-14.66,7.72-16.17,16.14l.65,26.24,2.7,23.49ZM153.31,225.96l-.76,2.25.76-2.25ZM154.16,228.26l-1.12,1.01c6.84,12.28,18.48,21.17,33.34,22.03l-2.43-25.28-29.79,2.25Z"/>
      <path class="cls-1" d="M180.88,147.22c.65,13.37-9.67,24.73-23.05,25.38-13.38.65-24.75-9.67-25.39-23.04-.65-13.37,9.67-24.73,23.05-25.38,13.38-.65,24.75,9.67,25.39,23.04ZM142.95,157.51c4.8,7.43,14.01,9,21.22,5.22,6.83-3.58,10.55-11.99,7.73-19.74-2.44-6.69-9.52-12.33-17.62-10.71-5.23,1.05-10.07,5.25-11.79,8.86-2.63,5.49-2.88,11.2.47,16.38Z"/>
      <path class="cls-1" d="M176.55,73.03c.64,13.32-9.64,24.65-22.97,25.29s-24.66-9.64-25.31-22.96c-.64-13.32,9.64-24.65,22.97-25.29s24.66,9.64,25.31,22.96ZM168.66,73.34c-.43-8.9-8-15.76-16.9-15.33s-15.77,7.99-15.34,16.89,8,15.76,16.9,15.33,15.77-7.99,15.34-16.89Z"/>
      <path class="cls-1" d="M89.29,78.94c.64,13.33-9.64,24.65-22.98,25.3s-24.67-9.64-25.31-22.96,6.73-24.51,22.98-25.3c13.33-.64,24.67,9.64,25.31,22.96ZM76.44,91.36c6.34-6.7,6.72-15.89.73-22.36-5.29-5.72-15.39-6.84-22.2-1.66-8.06,6.14-8.37,16.42-1.94,23.68,6.03,6.8,16.47,7.67,23.41.34Z"/>
      <path class="cls-1" d="M93.96,153.48c1.93,15.97-9.57,24.47-22.81,25.11s-24.48-9.57-25.12-22.79,9.57-24.47,22.81-25.11,23.53,9.65,25.12,22.79ZM73.16,170.27c10.27-.22,14.59-7.72,12.77-17.47-1.39-7.46-7.26-13.68-15.05-14.22s-14.69,4.99-16.64,12.92c-1.34,5.45.47,11.08,4.3,14.81,3.41,3.32,8.99,4.09,14.61,3.97Z"/>
    </g>
  </g>
</svg>