<?xml version="1.0" encoding="UTF-8"?>
<svg id="Layer_2" data-name="Layer 2" xmlns="http://www.w3.org/2000/svg" viewBox="0 0 213.58 286.34">
  <defs>
    <style>
      .cls-1 {
        fill: #2c45c9;
      }
    </style>
  </defs>
  <g id="gentrace-sample-file-last-art">
    <g>
      <path class="cls-1" d="M163.51,249.25c.02,7.32-1.81,14.73-7.16,18.79-7.16,5.44-15.41,9.49-24.36,11.79-33.11,8.52-67.27,8.72-100.38.35-14.98-3.79-31.26-12.59-31.27-27.55l-.02-84.28c0-21.18,16.54-36.85,36.38-44.15l.42-29.77c.06-4.39,3.14-10.17,7.45-11.58l18.23-5.97-.06-40.7-51.85-4.24c-6.06-.5-9.81-7.3-10.73-12.3-.85-4.6,1.87-12.33,8.24-13.56C73-6.45,112.68.32,172.32,27.1c2.37,1.06,4.03,7.42,3.52,9.84-.64,3.02-2.96,5.94-6.5,9.76l7.27,17.36c.4.95.1,3.45-.29,4.3s-4.22-.26-4.61-1.12l-7.99-17.54c-7.04,3.74-11.41,1.89-17.4-.76-14.4-6.37-29.73-8.45-45.71-10.72l.04,38.71c8.43,1.8,21.35,3.3,24.22,12.63,3.23,10.49.39,22.69,1.48,34.01,19.52,7.26,36.81,23.65,36.88,45.78l.27,79.89ZM151.94,42.9c.61-5.2,3.14-9.73,7.35-13.15-24.65-10.74-49.02-17.6-75.27-21.59-25.14-1.1-50.39.13-74.48,5.95-1.77.58-2.18,6.77-.58,7.74l5.96,3.64,57.47,3.19c27.13,1.14,54.61,3.56,79.55,14.21ZM170.08,36.44c-5.19-4.76-11.67-.04-12.27,8.35l12.27-8.35ZM92.65,87.32l-.04-49.89-21.97-1.17.06,50.97c7.15,2.16,14.24,2.02,21.95.09ZM118.49,91c-6.77-3.47-11.84-5.39-17.29-6.91.74,13.98-21.78,14.17-37.01,8.19l-1.76-7.68c-5.89.97-11.77,2.93-17.67,7.55,13.02,13.13,46.6,11.17,66.11,5.67,3.08-.87,5.93-3.19,7.63-6.83ZM118.26,102.35c-22.19,8.42-50.38,9.48-73.46-.07l.22,29.76c24.06,8.41,49.73,8.62,73.1-.11l.13-29.58ZM155.47,253.08l-.17-83.12c-.04-17.6-13.92-31.95-28.92-37.65-2.21,3.66-5.17,6.7-9.18,8.05-22.72,7.63-46.84,7.78-69.66.54-4.33-1.37-7.64-4.57-10.37-8.66-15.07,5.43-29.16,19.51-29.07,37.21l.44,85.59c.04,6.99,9.92,12.03,15.88,14.3,24.44,9.29,50.18,10.53,76.29,8.21,19.02-1.69,54.8-8.4,54.77-24.46Z"/>
      <path class="cls-1" d="M208.87,93.52l-18.33-13.25c-.68-.49-1.17-3.54-.55-4,.82-.61,3.41-.8,4.32-.16l16.84,11.8c.7.49,1.93,2.44,2.4,3.14s-3.86,3.07-4.68,2.48Z"/>
      <path class="cls-1" d="M179.35,104.44c0,.76-2.39,2.87-3.04,2.46-.86-.55-2.63-3.06-2.61-4.17l.21-16.15c0-.75,1.8-2.75,2.51-3.01s2.8,1.3,2.81,2.05l.12,18.82Z"/>
      <path class="cls-1" d="M126.1,255.22l-5.05.52c-.87.09-1.43-2.9-.83-3.52,4.29-4.48,12.99-2.79,15.43-10.4l.09-42.24,3.47-3.81c.93-1.02,3.46,2.67,3.43,4.15l-.63,38.43c-.15,9.28-5.88,15.82-15.91,16.87Z"/>
    </g>
  </g>
</svg>