<?xml version="1.0" encoding="UTF-8"?>
<svg id="Layer_2" data-name="Layer 2" xmlns="http://www.w3.org/2000/svg" viewBox="0 0 223.75 360.18">
  <defs>
    <style>
      .cls-1 {
        fill: #2c45c9;
      }
    </style>
  </defs>
  <g id="gentrace-sample-file-last-art">
    <g>
      <path class="cls-1" d="M138.92,357.33c-5.23,2.81-9.92,3.6-15.12,2.13l-103.57-29.28c-5.42-1.53-8.11-5.88-8.45-11.62L0,121.02c-.21-3.55,3.65-9.87,5.32-12.7l28.08-47.72-6.93-22.21c-2.45-7.86,3.75-13.67,10.74-14.92L167.38.11c7.27-1.3,12.68,8.95,11.24,14.54-1.64,6.36-3.85,10.3-6.87,16.46l2.61,17.34,49.39,55.1-.66,51.65-4.59,150.92c-.19,6.14-2.75,9.98-8,12.8l-71.59,38.4ZM166.16,43.17c-3.68-9.75-2.63-15.99,2.73-22.69,2.49-3.12,2.6-9.25-.51-12.65L36.12,31.55c-1.23,1.36-1.96,5.13-1.45,6.7l6.48,19.7,125-14.78ZM126.43,351.84l-6.31-216.02,46.35-85.04-125.88,13.7L7.84,120.46l12.29,201.38,106.29,30.01ZM162.45,92.61l46.94,7.2-37.35-42.15-13.78,24.78,4.19,10.17ZM155.36,88.28l-10.47,19.83c9.86-8.26,17.04-13.28,10.47-19.83ZM203.74,105.82l-41.58-7.6-25.94,30.01,67.51-22.41ZM210.25,309.85l3.99-122.82,1.6-77.36-88.45,29.48,6.19,211.95,76.67-41.25Z"/>
      <rect class="cls-1" x="62.01" y="78.98" width="6.02" height="98.25" transform="translate(-71.52 172.79) rotate(-81.21)"/>
      <path class="cls-1" d="M87.11,325.02c-1.1-.28-3.16-2.18-3.74-2.84-.78-.88,2.85-4,4.07-3.68l15.97,4.13-.61-14.93-.31-26.47c-.01-1,2.7-4.43,3.31-3.79l2.73,2.85,1.43,39.82c.97,3.32-2.32,10.09-6.16,9.12l-16.68-4.22Z"/>
    </g>
  </g>
</svg>