<?xml version="1.0" encoding="UTF-8"?>
<svg id="Layer_2" data-name="Layer 2" xmlns="http://www.w3.org/2000/svg" viewBox="0 0 177.28 322.18">
  <defs>
    <style>
      .cls-1 {
        fill: #2c45c9;
      }
    </style>
  </defs>
  <g id="gentrace-sample-file-last-art">
    <g>
      <path class="cls-1" d="M169.6,300.29c-29.97,25.05-90.06,25.75-128.87,16.28-16.88-4.12-40.45-15.65-40.47-30.39L0,140.15c-.07-41.57,33.79-33.49,33.36-54.29l-.67-32.58c-5.06-2.13-9.59-4.86-11.37-8.26-2.72-5.2.05-10.76,2.65-15.13-1.74-10.27.78-19.64,12.16-22.75,34.29-9.37,71.03-9.76,105.38.16,4.47,1.29,8.54,4.89,10.48,7.68,2.53,3.62-.1,10.97.73,14.59,1.01,4.42,3.81,9.43,2.23,14.07-1.38,4.05-5.89,7.41-11.14,10.16l-.41,33.5c-.22,17.73,33.06,12.07,33.36,51.29l.51,66.58-.29,80.56c-.02,4.7-4.04,11.73-7.39,14.54ZM131.35,30.07c5.84-1.36,11.85-3.87,14.62-8.27-.1-3.45-5.66-7.12-9.49-8.06-32.24-7.92-65.57-8.04-97.65.47-3.59.95-9.2,5.05-6.91,8.89,2.13,3.57,8.9,6.26,13.45,7.24,28.39,6.14,57.05,6.46,85.98-.27ZM160.99,297.38c4.44-2.67,8.31-8.14,8.29-13.78l-.49-143.49c-.05-14.31-4.41-25.74-18.71-31.96-7.7-3.35-14.34-10.13-14.46-19.83l-.51-38.32,10.69-6.6c1.62-1,1.99-5.64.89-7.19-1.67-2.37-4.21-.97-7.53-.09-33.44,8.82-68.79,8.42-102.46.09-3.81-.94-6.57-1.99-7.84.83-4.96,11.03,27.74,14.2,41.22,17.37l3.52.83c.73.17-.04,2.83-.46,3.97-9.88.24-20.22-.95-31.42-3.54l-.71,31.63c-.23,10.17-5.94,17.31-14.93,21.29-10.47,4.63-17.79,14.41-17.84,26.31l-.61,145.14c-.06,14.05,11.64,21.51,25.66,25.89,38.92,12.15,92.83,12.48,127.7-8.54Z"/>
      <path class="cls-1" d="M123.48,292.65c1.67-12.73,27.71-2.91,25.67-27.87l-.33-78.75,2.66-4.18c.56-.88,3.59.79,4.17,1.53l.46,82.86c.74,18.24-13.71,26.34-32.64,26.42Z"/>
      <path class="cls-1" d="M95.7,60.5c-1.58-.06.34-4.95,2.05-5.16l29.24-3.69c4.4,7.45-15.74,9.41-31.29,8.85Z"/>
      <path class="cls-1" d="M62.22,118.72c-8.28,5.06-22.94-1.04-30.18-4.67-.78-.39-1.91-5.36-1.06-5.23l3.49.51,27.75,9.4Z"/>
      <path class="cls-1" d="M126.34,94.99c.04.81-.92,2.89-1.4,3.51s-3.92.44-3.9-.35l.14-4.47-.53-24.75c-.01-.59.5-2.68.68-3.13s1.67-.67,2.05-.37c.56.45,1.64,2.47,1.69,3.4l1.28,26.15Z"/>
    </g>
  </g>
</svg>