<?xml version="1.0" encoding="UTF-8"?>
<svg id="Layer_2" data-name="Layer 2" xmlns="http://www.w3.org/2000/svg" viewBox="0 0 256.27 283.82">
  <defs>
    <style>
      .cls-1 {
        fill: #2c45c9;
      }
    </style>
  </defs>
  <g id="gentrace-sample-file-last-art">
    <g>
      <path class="cls-1" d="M244.46,281.34c-18.6,2.54-35.69,3.47-53.73,1.13-40.73-5.28-80.42-12.19-120.05-22.75-17.27-4.6-32.94-10.35-47.43-20.8-8.52-6.14-19.73-16.65-19.97-28.4L0,55.87c-.21-9.83,7.56-18.65,14.17-24.61,11.89-10.71,25.75-16.79,41.15-21.61,38.78-12.16,79.87-12.71,119.16-2.32,23.79,6.29,51.96,20.12,57.29,44.36l.45,69.39,10.63-.69c6.97-.45,13.43,4.42,13.42,12.12l-.22,136.43c-.01,6.47-5.12,11.51-11.59,12.39ZM215.28,74.34c10.33-9.77,11.33-24.09,1.84-34.76-9.87-11.09-22.72-17.76-37.37-22.38-42.96-13.56-89.32-12.15-131.76,3.15-13.48,4.86-25.47,12-34.18,22.66-9.04,11.07-7.19,25.3,3.21,34.77,42.96,39.09,154.96,37.49,198.25-3.44ZM172.62,119.76l51.91,2.24-.42-46.39c-9.56,10.35-18.43,16.6-29.94,21.97-21.55,9.69-44.08,13.5-68.18,15.75l46.63,6.42ZM248.28,265.79l-.03-133.55c0-2.23-3.39-4.95-5.35-4.71-20.51,2.55-39.47,3.06-59.96.76-41.62-4.66-82.01-10.81-122.59-20.6-18.83-4.54-39.89-13.53-52.23-28.71l2.2,118.15c.28,15.01,4.25,26.44,17.23,35.41,13.32,9.2,28.68,15.4,45.14,19.72,36.89,9.68,73.6,16.23,111.49,21.7,19.68,2.84,38.28,2.62,57.78.28,4.38-.53,6.31-3.19,6.31-8.46Z"/>
      <path class="cls-1" d="M230.1,253.31c.02,6.17-2.53,9.58-8.31,9.77-23.69.81-46.63-2.91-70.05-6.75-4.6-.75-8.53-1.75-11.41-5.52l-1.09-110c-.03-2.58,5.35-3.97,7.71-3.59,24.37,3.94,47.38,7.69,71.98,6.83,3.58-.12,10.91-.79,10.92,5.23l.26,104.01ZM225.43,258.13l-.26-109.73c-27.96,1.39-53.69-1.74-81.33-6.7l1.15,108.25c27.21,5.42,52.43,10.25,80.44,8.18Z"/>
      <path class="cls-1" d="M126.81,243.71c.02,2.52-1.99,6.49-3.55,6.7s-4.51.03-6.69-.4c-25.51-5.09-49.59-10.34-73.91-20.96l-2.3-108.97c-.05-2.53,3.93-4.53,5.76-3.98l26.82,8.09,46.99,8.78c2.69.5,5.9,3.27,5.93,6.26l.96,104.49ZM121.63,166.58l-.56-28.43c-25.56-4.16-50.18-8.87-75.89-17.28l1.67,105.11c24.82,9.85,49.19,15.57,75.36,20.16l-.58-79.56Z"/>
      <path class="cls-1" d="M153.68,66.64c-28.21,19.54-81.1,8.97-82.42-8.99-.3-4.1,2.51-9.22,6.19-11.74,28.08-19.18,81.83-9.61,82.26,9.19.09,4.14-2.39,9.01-6.03,11.53ZM151.84,55.01c-2.17-15.3-67.32-16.7-72.38,1.1-.68,2.41,4.43,6.7,6.91,7.68,31.91,12.61,66.81.62,65.48-8.78Z"/>
    </g>
  </g>
</svg>