<?xml version="1.0" encoding="UTF-8"?>
<svg id="Layer_2" data-name="Layer 2" xmlns="http://www.w3.org/2000/svg" viewBox="0 0 207.58 322.43">
  <defs>
    <style>
      .cls-1 {
        fill: #2c45c9;
      }
    </style>
  </defs>
  <g id="Layer_1-2" data-name="Layer 1">
    <g>
      <path class="cls-1" d="M113.78,322.09c-35.07-6.32-68.11-17.06-100.2-30.61-6.4-2.7-10.16-6.89-10.43-13.8L.35,185.69,0,99.57c-.02-5.72,2.57-10.81,6.04-14.97l27.61-32.99c1.79-5.04,4.58-8.7,9.23-11.96,2.09-1,7.04-4.17,7.17-6.58l.93-19.67C51.33,6.1,57.69-.32,65.22.01l76.92,3.43c9.77.44,14.93,9.23,14.35,18.3-.43,6.61-.26,13.58,1.36,19.83l44.95,49.14c1.85,2.02,3.1,5.73,3.17,8.59l1.62,73.28-1.23,102.68c-.09,6.02-4.26,10.21-9.23,12.87-21.32,11.4-42.51,21.95-65,30.64-5.45,2.11-11.34,4.58-18.34,3.31ZM7.88,98.62l.85,102.56,2.42,79.06,10.85,5.96c29.84,12.17,60.65,21.12,92.14,27.94,7.07,1.53,11.3-.24,17.25-3.12l63.67-30.92c1.95-.95,3.78-3.76,3.8-6.12l.61-109.44-1.03-66.55-43.74-47.82c-3.57-3.9-5.35-8.9-5.5-14.22l-.49-16.98c-.11-3.77-2.94-7.28-7.16-7.48l-75.31-3.61c-4.81-.23-7.91,4.74-7.86,8.67l.2,16.13c9.12-2.75,15.66,0,23.69.57l48.38,3.5,8.54,1.97c.38.98.07,4.05-.62,5.14l-15.93.54-26.28-1.69c2.78,5.09,2.61,9.83,2.89,15.4.77,15.53,3.53,25.22-13.03,33.9-12.81,6.71-27.4,7.76-40.27,1.33-6.59-3.29-10.24-8.82-10.88-16.11l-1.23-14.03-18.3,22.05c-2.86,3.44-7.67,8.33-7.62,13.36ZM88.13,62.85c1.55-1.33,3.74-4.99,4.45-6.9-.44-7.06-5.59-12.28-12.31-14.43-11.73-3.75-24.74-1.46-34.8,5.94-3.25,2.39-4.57,7.05-4.08,11.04,1.42,11.39,28.22,20.31,46.74,4.35ZM49.17,85.92c11.08,6.14,23.55,4.36,34.24-1.49,5.09-2.79,9.33-7.11,8.05-13.61-14.82,9.54-32.39,12.53-47.88,2.8-1.57,4.89.53,9.49,5.59,12.29Z"/>
      <path class="cls-1" d="M112.09,120.67l-32.7-3.75-64.71-14.5c-1.49-.33-2.79-3.95-2.21-5.31.75-1.75,3.58-2.9,6.11-2.24,30.71,8.08,60.99,14.89,93.42,18.06l32.29-63.1c1.17-.48,3.54-.6,4.24.07.84.8,1.49,3.84,1.01,4.98l-4.24,9.95-26.78,52.79c-.77,1.53-3.97,3.34-6.43,3.06Z"/>
      <path class="cls-1" d="M122.13,294.56c.04,2.68-1.58,4.78-3.25,5.16-1.38.31-4.51-1.57-4.53-3.34l-1.26-131.79-.2-28.06c-.01-1.29,1.55-3.86,2.72-4.27,1.26-.43,3.34.35,4.85,1.61l.46,65.55,1.2,95.14Z"/>
      <path class="cls-1" d="M72.09,286.03c-1.78-.48-3.38-3.72-2.8-5.27.68-1.81,3.52-2.76,5.46-2.22l18.51,5.26-.64-37.14c-.04-2.15,1.56-4.41,3.34-4.58,2.67-.25,4.21,1.93,4.27,4.66l.82,38.42c.03,1.54-.92,4.34-1.81,5.37s-4.28,1.69-5.77,1.29l-21.37-5.8Z"/>
      <path class="cls-1" d="M153.49,84.04c-2.2.2-5.44-.77-6.18-1.88s-.13-3.81.65-5.19c.65-1.15,3.84-1.83,4.89-1.01,1.36,1.06,2.61,2.76,2.96,3.83s-1.2,4.15-2.31,4.25Z"/>
    </g>
  </g>
</svg>