<?xml version="1.0" encoding="UTF-8"?>
<svg id="Layer_2" data-name="Layer 2" xmlns="http://www.w3.org/2000/svg" viewBox="0 0 261.59 266.38">
  <defs>
    <style>
      .cls-1 {
        fill: #2c45c9;
      }
    </style>
  </defs>
  <g id="gentrace-sample-file-last-art">
    <g>
      <path class="cls-1" d="M203.58,258.25c-48.35,10.66-97.37,10.79-145.03.69-14.64-3.1-27.61-7.79-39.88-15.88-6.12-4.04-14.65-11.63-14.69-19.81l-.69-126.78-2.93-7.68L0,62.93c-.08-5.79,2.35-10.28,6.44-13.9l1.35-15.54c1.1-12.62,30.39-22.46,47.4-25.81C104.13-1.94,153.96-2.48,203.15,5.81c14.98,2.52,28.74,6.8,41.21,14.24,12.93,7.72,8.89,17.99,11.26,28.03,3.02,2.48,6,7.53,5.97,11.78l-.17,27.94-2.81,7.06-.43,128.61c-.03,8.05-9.21,15.32-15.13,19.16-12.08,7.84-24.53,12.32-39.48,15.62ZM210.29,57.11c14.6-3.15,36.96-11.46,36.47-21.26-.45-9.14-21.21-17.14-34.3-19.92-53.93-11.47-109.28-10.92-163.14,1.09-13.04,2.91-34.26,11.09-34.49,20.23-.26,10.23,24.99,18.56,40.07,21.53,51.27,10.11,103.53,9.51,155.39-1.66ZM254.02,85.62l-.71-29.37c-2.8.68-5.55,1.57-5.6.2l-.27-6.37-21.84,10.3c-17.4,5.84-34.5,8.83-53.03,10.66-40.74,4.03-80.82,3.4-120.76-5.21-13.72-2.96-26.55-7.79-37.46-15-.66,3.74-2.73,5.97-6.21,7.37v31.69c4.93,4.21,11.08,8.38,17.06,10.82,51.38,20.94,122.89,19.93,177.41,8.95,16.09-3.24,51.65-14.26,51.42-24.05ZM78.04,254.75c47.14,6.57,118.82,5.94,159.35-17.74,5.03-2.94,13.33-9.18,13.34-16l.18-122.41c-12.37,6.68-23.45,10.92-36.47,14.67-52.72,12.35-107.01,13.84-160.13,3.02-15.6-3.18-29.04-7.67-43.49-16.08l.59,123.3c9.76,19.63,44.02,28.09,66.63,31.24Z"/>
      <path class="cls-1" d="M222.53,225.26c-16.88,7.96-36.97,10.82-34.02,6.21.5-.78,2.19-2.75,3.33-3.11l26.48-8.43c6.54-2.08,8.95-7.48,9.02-14.51l.34-33.58c.01-1.06,2.21-3.17,2.84-3.64.84-.62,3.38,1.92,3.37,3.24l-.24,35.53c-.06,8.31-3.65,14.76-11.13,18.29Z"/>
      <path class="cls-1" d="M51.52,32.97c-2.78.8-5.94,5.54-7.87,8.15-6.27-9.65,9.58-14.52,23.67-18.71,25.17-3.7,50.04-7.98,76.07-3.83-23.66,2.71-45.71,3.19-68.39,7.61l-23.48,6.78Z"/>
      <path class="cls-1" d="M212.94,44.47l4.17-7.27c-3.14-3.31-8.12-7.27-13.31-8.37l-41.26-8.79c5.02-1.86,10.44-1.23,15.8-.56,16.77,2.1,43.47,6.95,41.58,18.88-.41,2.57-4.18,5.61-6.98,6.11Z"/>
      <path class="cls-1" d="M250.38,65.07c.14,11.97-34.5,21.06-50.19,24.08-44.23,8.52-88.95,9.17-133.45,2.19-17.79-2.79-34.03-7.58-49.63-15.66-3.9-2.02-7.26-5.36-6.03-10.29,15.55,9.69,31.26,15.05,49.22,18.45,47.5,9,95.44,7.98,142.8-1.43,17.13-3.4,31.53-8.89,47.28-17.34Z"/>
    </g>
  </g>
</svg>