<?xml version="1.0" encoding="UTF-8"?>
<svg id="Layer_2" data-name="Layer 2" xmlns="http://www.w3.org/2000/svg" viewBox="0 0 214.83 309.46">
  <defs>
    <style>
      .cls-1 {
        fill: #2c45c9;
      }
    </style>
  </defs>
  <g id="gentrace-sample-file-last-art">
    <g>
      <path class="cls-1" d="M191.56,296.44c-40.15,17.47-127.42,17.2-168.48.14-12.96-5.39-22.79-17.63-22.82-32.41L0,110.6c-.03-14.94,11.08-25.85,23.42-31.89l3.43-1.68c5.3-2.59-7.31-7.32-7.15-16.37l.71-38.27c.14-7.67,10.72-13.28,18.26-14.95,44.99-9.95,91.29-9.82,136.41-.25,7.31,1.55,18.22,7.17,18.35,14.6l.7,38.96c.15,8.17-8.16,10.62-7.33,14.35,1.17,5.21,28.19,8.13,28.04,41.08l-.67,148.91c-.07,14.47-10.56,26.12-22.6,31.36ZM175.92,29.35c.62-.07,3.43.78,2.97,1.29s-2.4,2.73-3.06,2.9l-17.7,4.39.11,35.45,13.46-2.99c.09-12.38-.37-22.17,1.35-34.7,3.67,11.75,2.75,21.83,2.89,33.03,8.08-.97,11.06-6.5,10.77-13.65l-1.44-34.86c-5.97-3.04-10.5-5.38-16.57-6.5-39.54-7.33-79.49-7.54-119.12-.78-7.18,1.22-13.55,3.37-19.68,7.03-1.05,3.9-2.46,10.23-2.39,13.94l.53,28.06c.06,3.2,8.21,7.05,10.31,6.49,1.21-11.68-2.15-21.21,2.87-32.48l1.61,34.5,13.12,2.99.14-35.36c-7.91-2.8-17.19-1.05-22.36-9.26,25.33,5.45,49.1,8.17,74.36,7.78,23.15-.21,44.92-1.87,67.85-7.27ZM74.25,75.96l.05-35.32-14.31-1.87-.46,35.26,14.73,1.92ZM154.41,74l-.38-35.34-14.74,2.29.4,34.97,14.71-1.91ZM93.63,77.28l-.03-35.1-15.2-.72-.08,35.06,15.32.76ZM135.86,76.2l-.47-35-15.42,1.16.06,35.13,15.83-1.28ZM116.15,77.47l-.04-35.14-18.57.02.11,35.19,18.51-.08ZM206.34,264.12l.13-153.52c0-11.48-8.87-20.19-18.26-24.63-4.38-2.07-7.22-4.96-9.23-9.65l-26.87,5.99c-30.42,3.91-60.25,3.98-90.61-.13l-26.19-6.01c-1.33,4.31-4.48,8.01-8.62,9.79-11.24,4.82-19.06,14.56-19.02,27.4l.19,59.59.29,90.11c.04,12,7.11,22.11,18.06,26.44,37.34,14.77,93.72,14.36,134.16,7.87,21.27-3.42,45.96-11.22,45.97-33.24Z"/>
      <path class="cls-1" d="M22.37,115.2c-.59-.15-2.77-1.39-2.65-1.85l.83-3.11c18.83,5.47,36.27,8.69,55.62,10,26.87,1.78,52.83.99,79.44-2.12l38.24-8.36c.11.02,1.85,1.14,1.55,1.5l-2.22,2.71c-15.1,5.35-30.04,8.66-46.3,10.43-32.48,3.28-64.12,3.12-96.21-2.22l-28.29-6.97Z"/>
      <path class="cls-1" d="M185.97,268.74c-9.9,8.22-32.78,13.03-35.39,8.72-.58-.97,1.62-3.6,2.73-3.89l21.74-5.7c7.01-1.84,10.44-8.46,9.95-15.33l.48-53.11,2.83-3.85c.59-.8,3.32.57,3.96,1.23l-.4,54.33c-.43,5.86-1.2,13.7-5.9,17.6Z"/>
    </g>
  </g>
</svg>