<?xml version="1.0" encoding="UTF-8"?>
<svg id="Layer_2" data-name="Layer 2" xmlns="http://www.w3.org/2000/svg" viewBox="0 0 290.58 296.11">
  <defs>
    <style>
      .cls-1 {
        fill: #2c45c9;
      }
    </style>
  </defs>
  <g id="gentrace-sample-file-last-art">
    <g>
      <g>
        <path class="cls-1" d="M285.11,234.08l-101.86,58c-6.76,3.85-11.97,4.91-19.74,3.29l-143.17-29.87c-6.64-1.39-10.59-4.12-11.15-11.42L.06,136.12c-.52-6.68,2.41-10.71,9.87-12.97L1.27,82.22c-1.34-6.35,4.2-10.61,9.08-12.84L116.26,21.18,264.46.13c6.32-.9,11.23,3,12.7,8.56l11.83,44.96c1.12,4.24-3.12,8.43-6.23,10.55l-37.09,25.21,36.37,4.76c4.07.53,8.59,4.5,8.54,9.19l-1.32,117.63c-.04,3.8.29,10.57-4.15,13.1ZM44.17,129.44l132.78-2.49,104.58-71.7-12.13-44.98c-.75-1.09-5.17-2.36-7.73-1.99L118.34,28.77,8.52,79.02l10.6,49.23,25.04,1.19ZM137.46,148.37l31.19,5.02,58.29-29.7,46.3-22.86-37.64-4.77-42.03,29.05c-4.04,2.71-10.5,8.9-15.22,9.06l-40.33,1.39-.56,12.82ZM167.84,288.05c5.87-.35,9.3-1.4,13.14-3.89l100.22-56.97,1.37-122.45-113.72,56.82-114.66-20-46.42-7.86,9.72,123.13,150.34,31.21ZM133.89,135.79l-61.1,1.05,61.34,10.74-.24-11.79Z"/>
        <rect class="cls-1" x="167.71" y="168.24" width="4.94" height="113.31" transform="translate(-5.73 4.45) rotate(-1.47)"/>
        <path class="cls-1" d="M126.88,264.67c-1.77-.41.57-6.08,2.14-5.76l17.67,3.61-1.35-33.78c-.05-1.2,1.44-4.35,1.93-5.19.62-1.05,3.68-.33,4.62.66l1.31,35.54c.17,4.67-2.07,10.52-7.7,9.22l-18.62-4.3Z"/>
      </g>
      <path class="cls-1" d="M162.22,72.78l-142.57,6.64c5.53-5.01,12.43-3.3,18.91-3.78l122.25-9.1,95.98-53.98,1.21,1.55-80.72,50.07-15.07,8.61Z"/>
      <rect class="cls-1" x="168.04" y="78.61" width="4.21" height="41.23" transform="translate(-19.44 45.83) rotate(-14.52)"/>
    </g>
  </g>
</svg>