<?xml version="1.0" encoding="UTF-8"?>
<svg id="Layer_2" data-name="Layer 2" xmlns="http://www.w3.org/2000/svg" viewBox="0 0 142.26 329.38">
  <defs>
    <style>
      .cls-1 {
        fill: #2c45c9;
      }
    </style>
  </defs>
  <g id="gentrace-sample-file-last-art">
    <g>
      <path class="cls-1" d="M103.06,321.25c-.24,3.37-4.61,7.38-7.31,7.96-3.41.73-7.94-.99-10.47-4.27-3.89-5.06-7.91,2.78-13.93,2.31-5.21-.41-8.7-8.3-9.93-7.57l-3.79,2.26c-1.58.94-5.32,2.56-7.15,2.58-2.08.02-5.21-2.83-6.85-4.58l-3.07-3.29c-1.11-1.19-6.62,6.1-12,4.98-2.03-.42-5.09-3.26-6.58-5.01l-2.26-2.63c-.9-1.05-7.71,6.73-14.99,2.42-11.63-6.89,1.68-32.76,2.94-39.34,13.34-69.28,22.08-138.54,30.01-208.65,1.42-12.56,1.72-23.82.4-35.79-1.3-11.82-.63-27.97,6.35-31.52,4.21-2.14,8.78-1.05,11.76,1.87l2.89,2.83c2.06,2.02,6.42-4.16,11.99-4.25,2.12-.03,5.44,2.45,7.4,4.62,5.23,5.8,7.8-2.79,14.44-1.51,2.05.39,5.31,2.98,6.94,4.68l2.51,2.62c1.14,1.18,6.24-5.14,11.52-3.8,1.9.48,4.26,2.86,6.11,4.75l2.65,2.69c1.12,1.14,7.94-5.57,14.79-1.56,2.35,1.37,5.32,6.48,4.76,9.48l-3.75,19.92-6.82,23.84c-11.75,69.4-20.88,138.41-27.94,208.57l.71,26.91-1.33,18.47ZM17.2,288.6c7.87-4.63,15.46-3.94,22.88-2.7l55.31,9.27,1.04-27.39,15.43-124.77c3.77-30.46,7.92-59.6,15.03-89.23,2.36-9.81,7.18-18.5,6.83-28.97l-.13-3.86c-.1-2.97-9.14,4.5-13.3,2.66s-4.46-5.33-8.73-7.74c-.59-.33-2.38,1.02-3,1.56-4.18,3.65-10.18,3.09-13.51-1.67-4.99-7.15-8.65,2.5-15.3,1.34-4.91-.86-7.71-8.39-9.72-7.12l-3.31,2.09c-1.85,1.17-5.67,3.23-7.65,2.9-4.84-.8-6.64-7.07-11.2-7.36-3.05,11.15-2.19,20.61-1.39,31.52,1.02,13.92-.48,27.31-2.06,41.73-7.28,66.48-17.11,131.62-28.19,197.46-5.39,10.37-7.55,19.47-8.23,31.29,1.99-.33,5.2-1.14,6.34-1.95,4.89-3.49,10.59-1.84,13.1,3.26.43.88,2.49,2.92,3.29,2.39l3.09-2.05c1.73-1.15,5.83-3.18,7.85-2.84,4.73.79,8.17,9.13,9.98,7.94l3.19-2.1c1.75-1.16,5.78-3.32,7.82-3.17s4.84,3.17,6.65,4.89l3.33,3.16c1.01.96,9.1-7.72,12.93-4.39l8.87,7.74,1.95-20.44-79.18-13.41Z"/>
      <path class="cls-1" d="M82.78,266.87c-.58,3.76-2.19,6.57-6.61,7.12.84-25.95,3.6-50.87,8.1-76.36l3.59-2.87c.89-.71,2.81,3.04,2.87,3.84l-7.96,68.28Z"/>
      <path class="cls-1" d="M123.54,44.57l-69.78-10.86-2.92-2.21c-.66-.5,2.17-1.96,2.98-2.12,24.55.61,47.81,3.86,71.28,10.3.6.41,2.91,2.48,2.25,2.84l-3.81,2.05Z"/>
    </g>
  </g>
</svg>