<?xml version="1.0" encoding="UTF-8"?>
<svg id="Layer_2" data-name="Layer 2" xmlns="http://www.w3.org/2000/svg" viewBox="0 0 311.97 320.35">
  <defs>
    <style>
      .cls-1 {
        fill: #2c45c9;
      }
    </style>
  </defs>
  <g id="Layer_1-2" data-name="Layer 1">
    <g>
      <path class="cls-1" d="M217.63,195.6l-19.21,8.76c-1.81,1.08-4.76,2.35-6.74,2.2-1.69-.13-4.05-2.49-5.22-4.29l-29.69-45.52.24,20.83.79,28.45,2.96,107.67,3.12-.48c.12-.02,1.27,6.46-1.11,6.92-1.17.23-3.06-.38-4.86-1.28l-4.38,1.48-19.79-7.31c-28.86-10.66-55.57-24.86-83.23-38.41-2.3-1.13-5.11-2.66-5.23-5.62l-2.79-80.83-.94-15.06-31.62-17.21c-1.65-.9-4.2-3.08-4.65-4.71-.43-1.54.95-4.44,1.9-6.24l11.42-21.64,10.43-22.12,4.13-9.61-24.15,5.85,9.81,14.02-4.95,6.48L.9,99.63c-2.43-3.44.5-7.05,3.4-8.76,9.32-5.5,18.81-10.8,27.96-14.87l2.72,5.83-1.71,1.72c-.39.4,1.88,1.32,2.44,1.6,37.76,19.12,75.53,37.43,114.94,53.75,39.37-21.88,79.5-40.94,121.03-57.54,3.06-1.22,4.75-1.97,7.31-4.17l28,13.84c2.81,1.39,6.47,3.62,4.34,7.93-2.93,5.92-7.18,11.78-11.9,17.25-1.29-1.89-3.94-6.69-2.85-8.56l5.56-9.59-17.94-9.1c-1.39-.71-3.97-.74-5.95-.04l15.54,31.18,12.64,22.66c.93,1.66,2.05,4.15,1.88,5.77-.2,1.9-2.68,3.63-4.59,4.55l-31.7,15.21-1.32,87.42-.3,10.76c-.08,3.03-1.92,6.48-4.92,7.99-31.74,15.97-63.37,30.55-96.68,44.49l-1.72-7.65,36.95-16.7,58.82-28.14,1.31-94.06-46.53,23.2ZM193.72,198.87l14.67-7.85,90.81-44.45c-8.94-15.52-16.08-31.36-23.97-46.92l-5.16-10.17-23.23,11.02c-27.2,12.9-53.9,25.29-80.84,38.84-2.33,1.17-7.18.83-7.44,5.11l6.35,9.79,28.81,44.63ZM115.23,198.04l30.6-52.38c-35.76-14.7-70.85-31.37-106.14-49.64-7.82,18.42-15.48,35.52-25.56,52.91,32.59,18.35,66.13,35,101.11,49.1ZM82.14,281.05c23.39,11.25,46.23,21.41,70.87,30.58l-2.17-67.44-.88-51.46-.23-18.13-1.3-17.99-27.12,46.31c-.93,2.82-4.49,4.47-7.57,3.28-21.87-8.52-42.29-18.21-64.21-28.69l3.34,89.32,29.26,14.23Z"/>
      <path class="cls-1" d="M261.59,77.57c-33.16-16.74-66.47-31.6-101.16-46.61-38.26,13.31-75.62,27.65-111.93,45.28-2,.97-4.68,1.86-6.51,1.17-1.43-.54-3.2-2.28-4.3-4.16l20.17-10.55c30.78-14.26,62.14-26.21,94.15-37.53,6.31-2.23,11.49-1.73,17.5.82,34.67,14.71,68.64,29.96,102.04,47.43-1.92,2.4-2.52,3.7-1.39,6.33-2.45.08-5.46-.6-8.59-2.18Z"/>
      <path class="cls-1" d="M270.82,38.66c-1.11,1.96-3.57,2.84-4.89,2.21-1.79-.85-3.17-3.84-2.18-5.61l15.59-27.94c.73-1.32,4.62-1.94,5.91-1.01,1.2.87,1.65,3.97.79,5.5l-15.22,26.86Z"/>
      <path class="cls-1" d="M247.42,32.96c.17,1.38-2.02,4.04-3.27,4.11-6.56.39-6.08-20.97-5.76-33.36.04-1.72,2.85-3.79,4.56-3.71,1.44.07,3.41,2.4,3.32,4.02-.61,10.12-.13,18.38,1.16,28.94Z"/>
      <path class="cls-1" d="M283.69,58.77c-1.4.58-4.3-2.3-4.25-3.7.05-1.78,1.74-4.17,3.75-4.98l18.05-7.3c1.31-.53,3.89,1.41,4.17,2.68s-.59,4.61-1.84,5.12l-19.87,8.18Z"/>
      <path class="cls-1" d="M130.01,276.12l-.12-25.65c0-1.35,1.51-3.54,2.53-3.99s3.84.35,4.63,1.32l.22,26.44c-.12,3.41.35,8.3-1.09,10.46-1.27,1.9-4.03,1.41-9.87-.21l-12.79-4.56c-1.31-.47-3.14-2.66-3.37-3.95-.26-1.47,2.4-4.77,3.87-4.2l15.09,5.81s.86.03.89-1.47Z"/>
    </g>
  </g>
</svg>