<?xml version="1.0" encoding="UTF-8"?>
<svg id="Layer_2" data-name="Layer 2" xmlns="http://www.w3.org/2000/svg" viewBox="0 0 229.51 331.62">
  <defs>
    <style>
      .cls-1 {
        fill: #2c45c9;
      }
    </style>
  </defs>
  <g id="gentrace-sample-file-last-art">
    <g>
      <path class="cls-1" d="M194.2,315.18c-22.86,24.96-99.96,16.65-137.12,6.62-22.71-6.13-45.35-21.22-41.37-44.27l6.07-35.19c1.58-9.15,2.59-19.13,1.36-28.34l-8.81-65.93L2.71,57.05c1.73-2.83,4.38-5.71,6.93-8.17l-7.53-5.6L.05,16.73C-.7,6.99,7.06-.38,16.69.02l193.96,8.02c10.93.45,19.49,6.45,18.82,18.18l-1.41,24.59c-.16,2.77-5.64,5.93-8.03,7.24l7.11,7.68c-.88,31.85-2.72,62.3-6.11,93.93-2.26,21.1-1.41,41.27.54,62.32l6.14,66.58c.43,4.69-1.2,10.16-4.27,13.2-7.9,7.85-16.71-.25-29.24,13.42ZM185.75,312.61l10.07-9.93c5.91-5.82,25.03-.23,23.9-12.78l-6.5-72.07c-1.79-19.84-2.22-38.61-.02-58.48,3.41-30.86,5.48-61.03,5.97-91.76-4.71-2.33-7.51-5.75-7.17-9.94.25-3.14,4.29-6.45,8.05-8.57l1.28-25.02c.31-5.94-5.74-8.12-10.75-8.32L15.33,7.9c-4.85-.19-8.08,4.51-7.67,8.66l2.25,23.01c3.7,2.01,7.33,5.27,7.68,8.6.4,3.78-2.11,7.18-6.55,9.71l9.96,82.16,9.76,70.77c1.91,13.86.11,27.41-2.48,40.8l-4.48,23.22c-4.19,21.75,15.22,33.94,36.44,39.58,34.36,9.14,97,16.21,125.52-1.8Z"/>
      <path class="cls-1" d="M197.47,261.49c.19,11.78,1.64,21.86-1.34,32.85-4.04-33.18-8-65.95-7.38-100.12.52-29.16,6.04-56.77,11.12-85.47,4.29,2.62,3.63,6.17,3.27,9.75l-6.89,67.74,1.22,75.24Z"/>
      <rect class="cls-1" x="111.07" y="-14.69" width="6.47" height="176.28" transform="translate(34.28 183.24) rotate(-86.63)"/>
      <path class="cls-1" d="M199.39,65.16L28.32,55.24c-1.02-.48-3.02-1.32-2.7-1.86l1.72-2.79,173.6,9.19c.79.41,2.84,2.94,2.08,3.37l-3.64,2.02Z"/>
      <path class="cls-1" d="M45.91,162.36c2.93,13.32,4.57,42.16-.04,49.53-.54.86-3.63-.49-3.59-1.5l.47-11.97c-1.11-23.68-6.3-45.01-10.73-68.23l-6.17-32.33c-.15-.81,1.26-3.84,1.78-4.33.7-.66,2.4.72,3.5,1.75l14.77,67.09Z"/>
      <path class="cls-1" d="M166.31,303.24c-1.03.32-4.12-.2-5.07-.63-1.19-.53.8-4.42,2.1-4.76,7.21-1.93,11.89-8.31,10.36-16.35-2.23-19.76-3.65-38.99-2.61-58.64l2.29-3.4c.63-.93,3.64.02,4.57.89-1.25,20.23.13,38.61,2.35,58.36.97,10.65-2.61,20.96-13.99,24.53Z"/>
    </g>
  </g>
</svg>