<?xml version="1.0" encoding="UTF-8"?>
<svg id="Layer_2" data-name="Layer 2" xmlns="http://www.w3.org/2000/svg" viewBox="0 0 167.56 335.19">
  <defs>
    <style>
      .cls-1 {
        fill: #2c45c9;
      }
    </style>
  </defs>
  <g id="gentrace-sample-file-last-art">
    <g>
      <path class="cls-1" d="M135.28,312.05c.25,19.33-54.33,31.48-96.2,16.3-5.35-1.94-14.51-7.7-14.78-13.77l-2.25-50.85c-12.09-12.48-8.95-41.52-6.65-62.43,2.2-20,2.56-38.66.14-58.69L.21,15.32C-.57,8.86.46-.25,9.59,0c49.18,1.4,97.62,6.13,146.48,11.65,7.99.9,12.78,6.33,11.18,14.43l-4.34,21.95-25.67,165.62c-1.99,12.85-2.9,24.77-2.73,37.54l.77,60.85ZM143.17,128.13l11.83-79.54,5.19-28.1-15.85-2.17c-.45,5.75-.48,8.39-3.06,13.61v-13.57s-14.93-1.97-14.93-1.97c-.27,6.38-.36,10.09-3.14,15.83-2.65-5.78-1.41-9.93.56-16.29C85.19,11.57,47.01,9.16,7.51,7.68l17.16,146.25c3.69,31.47-6.94,66.75-1.9,95.05,1.18,6.6,6.25,11.66,12.64,13.88,25.2,8.75,52.17,9.61,77.93,2.14,5.51-1.6,13.16-6.64,13.26-12.47.32-17.04,1.64-32.47,4.34-49.12l12.23-75.29ZM38.98,319.88c41,16.5,88.59,2.25,88.49-7.92l-.43-45.77c-7.11,4.16-12.56,7.03-19.37,8.46-26.38,5.56-52.68,3.48-77.31-5.22l.96,37.28c.15,5.79.82,10.42,7.66,13.18Z"/>
      <path class="cls-1" d="M83.8,30.71l17.07,1.66c.54-6.36.68-10.43,3.06-16.44,1.85,5.96,1.36,10.72.75,16.56,15.32,3.91,32.41.66,47.33,7.71-47.39-1.52-92.11-5.46-138.5-10.77,7.44-7.11,16.81-.99,23.75-2.22-.09-5.97,0-11.15,1.47-16.67,3.99,4.82,2.72,10.19,2.23,16.72l17.36,1.51c.53-5.68-2.51-11.56,3.14-17.36l.58,17.42,18.09,1.58c0-5.69-.36-10.2,2.04-16.72,2.34,5.86,1.68,9.61,1.64,17.02Z"/>
      <path class="cls-1" d="M94.73,252.89l-5.33.09c-.89.02-1.71-3-1.03-3.6,4.71-4.13,17.51-1.12,17.47-14.17-.06-17.71,5.74-55.01,12.24-51.67,1.05.54,1.93,3.21,1.63,4.4-4.11,16.12-6.54,31.63-7.42,48.07-.52,9.79-6.7,16.68-17.56,16.87Z"/>
      <path class="cls-1" d="M87.3,311.94c-14.95,1.09-28.58-.2-42.54-4.69.96-6.1,3.46-11.24,7.58-14.04,3.87-2.62,10.3-2.68,15.37-2.32,11.45.81,21.01,7.88,19.59,21.05ZM81.35,307.28c-.96-10.56-14.36-12.09-25.92-10.4-2.12.31-4.84,4.79-5.82,7.13l31.73,3.27Z"/>
    </g>
  </g>
</svg>