<?xml version="1.0" encoding="UTF-8"?>
<svg id="Layer_2" data-name="Layer 2" xmlns="http://www.w3.org/2000/svg" viewBox="0 0 205.54 250.31">
  <defs>
    <style>
      .cls-1 {
        fill: #2c45c9;
      }
    </style>
  </defs>
  <g id="Layer_1-2" data-name="Layer 1">
    <g>
      <path class="cls-1" d="M167.78,235.68c-39.74,25.08-134.31,15.79-140.16-11.85-4.91-23.23-7.48-51.81-9.87-75.49l-5.25-74.82c-6.5-2.47-11.29-7.49-11.95-14.38-.89-9.3-.73-18.58.82-27.94C3.93,15.71,28.63,9.38,45.21,6.05c39.63-7.95,89.33-8.91,128.2,2.21,14.95,4.28,31.43,13.4,31.97,28.52.31,8.85.31,17.12-1.21,25.53-1.04,5.78-5.88,9.5-11.34,11.9l-5.91,45.56-8.03,96.73c-.96,8.16-3.84,14.58-11.11,19.17ZM186.36,41.78c2.91-.74,5.48-1.81,7.56-3.89l2.95-2.94c3.31-3.3-10.54-14.19-22.74-17.78-41.98-12.36-93.93-11.1-136.35-.96-10.16,2.43-28.13,8.94-27.45,14.01.85,6.36,17.33,12.9,27.59,15.07,41.23,8.74,83.62,9.26,125.25,2.37l23.19-5.87ZM197.31,57.73l.3-12.63c-10.99,5.34-20.06,8.11-31.37,10.21-42.18,7.82-97.31,7.15-138.64-4.38-7.26-2.03-12.62-4.39-19.6-8.87l.21,17.01c1.89,3.75,4.63,6.43,8.49,8.16,37.89,12.78,83.01,14.89,122.75,11.03,17.86-1.73,34.54-5.27,51.27-11.34,3.49-1.27,6.51-5.48,6.6-9.2ZM170.69,216.8l13.27-138.39-36.34,7.25c-21.38,2.2-41.95,3.11-63.49,1.92-21.51-1.02-41.55-4.35-63.27-10.27l6.77,88.85,7.36,55.69c9.48,15.34,38.54,18.63,57.45,19.81,18.98,1.18,37.72-.87,56-6.01,11.39-3.2,20.95-8.09,22.25-18.86Z"/>
      <path class="cls-1" d="M144.75,218.51c-10.16,4.76-28.48,8.06-29.82,2.2-.31-1.36,1.57-4.3,3.02-4.41,14.28-1.14,30.87-2.88,32.72-18.31l4.81-39.94c.22-1.85,1.12-3.69,2.26-4.66s5.74.32,5.55,2.01l-4.95,44.56c-.95,8.54-5.91,14.95-13.59,18.55Z"/>
    </g>
  </g>
</svg>