<?xml version="1.0" encoding="UTF-8"?>
<svg id="Layer_2" data-name="Layer 2" xmlns="http://www.w3.org/2000/svg" viewBox="0 0 788.04 557.19">
  <defs>
    <style>
      .cls-1 {
        fill: #2c45c9;
      }
    </style>
  </defs>
  <g id="Layer_1-2" data-name="Layer 1">
    <g>
      <path class="cls-1" d="M784.03,237.4c4.75-11.47-.16-24.17-11.34-29.3-6.92-3.17-14-4.02-22.25-3.7,3.83-15.08,5.85-34.58-3.68-45.95-5.05-6.02-12.88-8.34-20.66-5.91-6.46,2.02-12.51,8.44-12.61,16.09l-.2,15.59c-.09,6.9.64,16.35-3.79,21.95-3.77,4.15-9.1,6.61-11.91,11.84-4.04,7.5-5.77,15.42-4.73,24.14-15.7,7.18-30.24,5.48-43.93-5.04l-10.23-77.34c-1.95-14.76-9.37-27.25-21.52-35.87-2.81-1.99-5.98-5.55-4.2-9.33,4.7-4.4,11.61-10.24,10.74-17.82l-7.54-65.41c-1.29-11.19-17.6-18.8-28.88-22.11-15.32-4.5-30.72-6.6-46.77-7.83-67.82-5.21-149.26,4.62-215.81,19.73-27.84,6.32-62.41,16.26-86.56,30.34-11.45,6.68-23.4,16.59-21.98,30.07l5.86,55.47c.61,5.79,1.83,11.32,6.84,14.6l9.81,6.43c.97.78-.51,3.71-1.4,4.67-8.41,9.04-12.5,20.71-12.62,32.83-4.64.67-7.77,2.41-10.98,5.3l-.75-7.38c-.96-9.39-8.95-16.62-18.71-16.19l-41.75,1.85-2.68-7.53c-3.52-9.9-13.9-14.69-23.75-11.28l-51.37,17.81c-9.58,3.32-16.69,11.98-13.39,22.39l4.07,12.83c-6.16-2.67-14.61-3.77-19.94,1.3L4.97,253.05c-7.02,6.67-6.25,18.58.09,25.21l50.78,53.18,55.63,58.39c-1.89,7.08-2.01,14,.13,20.97,3.21,9.35,10.49,16.12,20.12,18.3,10.51,11.1,26.14,15.19,40.81,11.47,14.27-4.75,20.82-16.02,22.73-30.45l23.55,3.84c8.68.69,16.93-4.73,19.95-12.69,2.63-6.92,4.16-13.53,7.4-20.53l6.51,45.64c2.01,14.06,11.93,24.82,24.73,30.27,19.56,8.32,47.43,9.86,68.99,11.38l-1.79,18.13c-10.16,1.44-19.95,5.04-26.67,12.65l-4.35,4.92c-16.09,1.97-74.83,9.52-73.86,23.18,1.57,22.05,141.29,28.81,168.95,29.56l27.14.74,61.78.02c41.88-.88,83.05-2.9,124.6-7.7,16.15-1.87,73.07-9.63,72.28-23.01-.79-13.46-57.42-20.75-74.19-22.75-7.67-10.11-18.85-15.75-31.77-17.42-1.25-15.19-3.38-29.27-8.38-43.85,15.21-4.13,30.03-8.65,44.75-14.79,25.99-10.84,45.11-26.51,41.21-56.74l-8.78-68.08c17.81,4.98,36.27,2.82,51.42-7.61,8.38,5.85,18.74,6.9,28.36,3.4,9.41,2.62,18.93,3.03,28,0,13.23-4.42,20.87-17.16,17.15-30.99,7.06-8.75,7.68-20.64,1.79-30.24ZM294.63,38.49c52.98-15.83,116.25-25.04,171.3-28.51l17.8-.74,33.27-.03c21.46-.02,55.37,4.09,75,12.35,4.31,1.82,8.08,4.61,10.99,8.17,5.48,6.71-2.19,15.19-9.75,20.46-29.31,20.38-89.82,34.53-126.44,40.92-52.9,9.24-112.13,14.75-165.68,11.17-17.69-1.18-71.25-6.3-73.07-23.17-1.98-18.37,49-35.37,66.57-40.62ZM236.23,145.92c-3.31-2.36-4.31-5.59-4.7-9.22l-4.59-42.68c14.84,10.12,34.03,12.7,51.56,15.28,27.08,2.95,53.69,3.65,81.12,2.45,47-2.05,93.2-7.84,139.09-17.85,19.91-4.34,38.8-9.66,57.96-16.13,18.09-6.92,38.27-14.55,52.13-28.59l5.24,44.2c.48,4.01-.48,7.63-3.01,10.64l-3.92-37.27c-.2-1.92-1.92-3.32-3.85-3.11-1.92.2-3.32,1.92-3.11,3.85l4.37,41.49c.02.16.06.31.09.46-3.47,2.45-7.4,4.79-11.61,7.01l-4.08-38.77c-.2-1.92-1.92-3.32-3.85-3.11-1.92.2-3.32,1.92-3.11,3.85l4.35,41.37c-5.41,2.54-11.1,4.9-16.74,7.03l-3.95-37.48c-.2-1.92-1.92-3.32-3.85-3.11-1.92.2-3.32,1.92-3.11,3.85l4.13,39.22c-5.91,2.07-11.62,3.88-16.74,5.38-1.6.47-3.21.91-4.82,1.36l-4-37.96c-.2-1.92-1.91-3.32-3.85-3.11-1.92.2-3.32,1.92-3.11,3.85l4.12,39.13c-52.41,14.19-109.28,21.95-163.13,24.48-3.92.18-8.44.34-13.39.46l-4.06-38.59c-.2-1.92-1.92-3.32-3.85-3.11-1.92.2-3.32,1.92-3.11,3.85l4,37.98c-7.71.09-16.2.05-25.01-.19l-4.06-38.53c-.2-1.92-1.93-3.32-3.85-3.11-1.92.2-3.32,1.92-3.11,3.85l3.95,37.55c-6.8-.27-13.71-.68-20.52-1.25l-4.13-39.22c-.2-1.92-1.92-3.32-3.85-3.11-1.92.2-3.32,1.92-3.11,3.85l3.98,37.82c-6.52-.67-12.88-1.51-18.9-2.55l-4.33-39.65c-.21-1.92-1.93-3.31-3.86-3.1-1.92.21-3.31,1.94-3.1,3.86l4.09,37.52c-5.95-1.26-11.44-2.75-16.28-4.51l-4.87-41.08c-.23-1.92-1.95-3.29-3.89-3.06-1.92.23-3.29,1.97-3.06,3.89l4.4,37.08c-1.89-.96-3.61-1.99-5.14-3.08ZM194.9,185.12c5.66-.25,10.16,4.73,10.62,10.09l7.88,91.34,8.31,91.98c.57,6.27-4.93,11.1-11.22,10.61.63-1.4,1.8-3.82,2.71-4.64,6.4-5.75,5.62-11.64,3.66-20.44l-9.22-28.26-2.72-29.94c-.13-1.39-1.04-3.68-2.27-3.64l-6.29.19-3.55-11.04,9.27-1.14c.89-.95,1.14-3.63,1.02-5.03l-2.67-30.58c-.12-1.42-1.28-3.33-2.6-3.26l-18.96,1.11-3.92-10.72,19.99-1.39c.96-.07,2.55-.38,3.13-.92s.78-2.39.74-3.39l-2.74-31.8c-.52-.93-1.78-2.07-2.74-2.51l-32.08,1.69-5.82-16.55,39.45-1.74ZM76.55,185.85l53.33-18.51c5.65-1.96,11.01,2.36,12.87,7.52l24.92,69.31c14.4,40.06,28.65,79.26,41.15,121.4-13.93-12.63-24.27-26-37.05-38.88l10.93-4.16c.99-.8,1.61-2.77,1.11-4.17l-12.42-34.62-3.76-.2-26.81,9.81-8.47-8.84,32.89-11.88c1.39-1.34.74-4.07.1-5.82l-10.95-29.96c-.62-1.68-1.97-3.9-4.15-3.11l-41.77,14.97c-2.52.9-3.95,1.32-4.3,5.16l-25.63-26.98-9.34-25.8c-2.54-7.01.39-12.81,7.38-15.24ZM184.71,420.21c-2.95,6.9-8.69,11.72-16.3,13.18-10.25,1.96-21.6-.78-29.34-7.88-1.75-1.6-2.9-3.21-5.3-3.72-7.55-1.6-13.21-7.17-15.23-14.88-3.91-14.94,6.81-34.02,16.94-30.47,2.07.73,5.01,3.96,4.23,6.89l-4.15,15.49c-.47,1.75,1.1,4.08,2.79,4.79,1.38.58,4.08-.88,4.63-2.65l4.44-14.42c1.28-4.16,6.13-9.19,11.03-8.31,5.35.96,7.58,10.15,6.23,14.79l-3.32,11.39c-.66,2.27-.63,4.3,1.1,5.65,1.43,1.11,5.27,1.01,6-1.45l3.33-11.35c.65-2.21,1.17-4.3,2.74-5.51,1.66-1.27,4.63-1.99,6.51-.85,8.33,5.03,7.92,19.38,3.68,29.31ZM193.66,394.94c-1.96-3.62-3.53-6.52-6.08-8.9-4.37-4.06-10.11-4.55-15.41-1.92-1.42-8.06-6.25-12.79-14.77-14.06l14.13-13.64c1.14-1.1.05-3.63-.9-4.65l-8.46-9.07c-1.29-1.39-3.03-1.33-4.47.04l-26.78,25.46c-7.38,1.41-12.64,6.55-16.3,13.68L10.73,272.89c-5.45-5.72-2.54-12.67,2.28-17.24l35.26-33.33c2.58-2.43,5.46-3.83,9.15-3.37,2.92.36,5.37,2.26,7.8,4.86l47.46,50.81,45.73,49.14,44.19,47.1c4.23,4.5,4.88,10.38.18,15.03l-9.13,9.04ZM232.52,395.75c-2.49,7.51-8.33,11.73-16.26,10.29l-18.53-3.38,3.59-3.85,16.1-2.83c7.23-1.27,12.01-8.79,12.17-16.3l-1.13-14.75,3.76-1.04,10.93-32.54-.63-3.33-17.95-5.86-1.11-12.02,21.55,7.17c2.03.67,3.38-1.22,3.92-2.89l10.13-30.87c.44-1.34-.75-3.2-1.96-3.62l-37.32-12.97-1.08-12.73,44.45,15.7,7.71-26.58c1.09-3.75-.94-7.7-4.62-9.01l-31.41-11.15c-3.93-1.4-8.23.74-9.5,4.71l-7.21,22.6-3.14-33.94,1.53-5.18c.96-3.25,3.26-5.87,5.35-7.11,4.06-2.42,6.94-1.1,10.67.23l45.35,16.15c5.56,1.98,10.35,7.36,8.23,13.75l-23.27,70.08-30.34,91.28ZM391.93,515.57c-.94,5.81-4.8,9.58-10.23,11.3-10.4,3.3-20.95,4.81-31.89,5.44l-9.44-.04c-12-.05-25.44-4.32-23.33-16.05,2.65-14.72,20.92-23.87,36.1-22.55,1.05-.05,2.36-2.39,2.33-3.44-.04-1.45-.79-2.84-3.06-3.88l1.68-18.06,32.92.15-3.44,31.65c5.62,3.55,8.82,9.06,8.37,15.47ZM538.47,497.62l-20.48-.62-30.83-.73c-31.82-.75-62.86.45-95.38,1.81l3.31-29.83c46.09-1.59,91.37-6.69,136.81-14.88,4.49,12.78,7.15,25.53,8.88,38.71.31,2.39-.21,4.36-2.32,5.54ZM580.56,486.85c-1.8,1.14-2.82,3.08-2.26,4.51.69,1.74,2.45,2.42,4.37,2.44,13.41.13,28.41,6.66,33.37,19.12,2.75,6.92-.2,14.1-7.61,16.63-7.44,2.54-15.2,3.29-22.86,2.78-11.95-.8-23.5-2.44-34.41-7.08-4.67-1.98-8.64-5.25-9.37-10.36-.96-6.73,1.99-12.74,7.28-17-1.08-15.71-4.28-30.8-9.14-45.94l32.61-7.43c4.68,13.95,7.46,28.11,8.03,42.33ZM643.3,405.99c-14.63,11.86-40.85,20.3-59.79,25.54-68.23,18.9-154.3,28.71-224.95,27.19-20.06-.43-39.24-2.01-58.76-5.6-6.97-1.28-13.09-3.18-19.8-6.17-9.95-4.9-16.94-13.6-18.38-24.8l-7.92-61.47,41.53-124.43c2.8-8.39-2.74-18.33-10.58-21.16l-50.76-18.25c.39-11.25,4.68-21.37,12.41-29.28,1.06-1.08,1.74-3.6,2.29-5.43,29.82,8.71,62.97,10.34,94.11,10.41,68.22.15,160.24-11.93,224.43-34.77,12.68-4.51,24.48-9.64,36.3-16.36,1.07,2.57,2.15,5.42,3.47,7.26,11.94,7.26,20.43,18.78,22.28,32.89l11.5,87.98,15.92,124.71c1.59,12.44-4.01,24.21-13.31,31.75ZM728.43,237.15c-8.94,7.63-9.33,20.53-1.13,28.59-8.2,7.42-7.37,19.45.47,27.08-6.38.26-12.23-1.2-16.29-5.67-.81-1.58-2.74-3.2-4.23-2.94-1.89.34-3.72,1.56-3.37,4.74-14.3,9.19-31.59,11.03-47.91,4.94l-5.82-46.23c14.37,8.12,29.89,8.76,44.38,2.5,1.68,1.94,3.72,2.47,5.36,1.58,5.56-3.01-3.48-11.82,3.06-26.89,2.65-6.11,7.58-9.22,12.72-13.15,2.89-3.55,4.56-9.63,4.64-14.33l.42-22.3c.08-4.35.65-8.86,3.41-12.22,2.35-2.85,5.96-3.97,9.74-3.4,2.83.42,6.37,2.63,8.21,5.9,6.45,11.44,3.27,27.06.05,40.14-7.01,1.15-12.82,4.49-16.09,10.31-4.01,7.13-3.05,15.23,2.36,21.35ZM775.9,263.11c-.96,1.12-1.79,2.58-2.52,4.08,3.67,6.63,2.18,14.63-3.48,19.62-5.48,4.83-12.57,6.19-19.73,5.84-10.89-.54-20.95-4.28-20.91-14.77.01-2.77,2.13-6.48,5.08-7.77,9.8,1.6,25.95,4.32,25.19-2.4-.3-2.65-2.42-3.74-5.09-3.62-11.83.52-24.84-.55-25.36-11.97-.19-4.08,3-10.52,8.1-10.48l19.34.18c2.17.02,3.95-1.06,4.57-2.95.46-1.41-.82-4.6-2.63-4.61l-17.94-.12c-4.4-.03-7.63-2.67-8.72-7.04-1.24-4.94,1.46-10.11,6.41-12.35,8.8-3.99,27.11-3.63,34.53,2.79,5.33,4.62,6.93,11.4,3.83,17.76-.81,1.66-.79,4.35.35,5.91,5.03,6.79,4.44,15.5-1.02,21.91Z"/>
      <path class="cls-1" d="M96.93,236.54c.56,1.52,1.36,3.71,4.21,2.7l45.06-15.95c1.53-.54,2.3-2.66,1.78-4.1l-11.99-32.87c-2.1-.98-3.98-.71-6.1.04l-40.86,14.5c-2.33.83-4.48,2.32-3.35,5.37l11.24,30.32Z"/>
      <path class="cls-1" d="M115.93,293.55l-21.17-22.53c-1.14-1.22-2.78-3.09-4.68-2.77l-33.03,31.33c-.83.79-1.94,2.31-1.89,3.2.04.89,1.15,2.32,1.93,3.16l21.12,22.54c.61.65,2.06,1.54,2.83,1.52.76-.01,1.92-.95,2.92-1.89l32.13-30.39c1.26-1.19.86-3.1-.15-4.19Z"/>
      <path class="cls-1" d="M140.89,319.8l-11.86-12.43c-1.31-1.37-2.42-2.45-4.47-2.46l-34.23,32.12c-1.23,1.15-.96,2.96.13,4.09l21.99,23.01c.71.74,1.83,1.68,2.58,1.78.75.1,2.3-.69,2.94-1.29l31.23-29.32c1.25-1.18,3.22-2.96,2-4.29l-10.31-11.23Z"/>
      <path class="cls-1" d="M80.83,256.86l-19.94-21.17c-1.56-1.66-4.18-1.74-5.84-.18l-30.96,28.97c-1.67,1.57-1.76,4.2-.18,5.87l19.94,21.17c1.56,1.66,4.18,1.74,5.84.18l30.96-28.97c1.67-1.57,1.76-4.2.18-5.87Z"/>
      <path class="cls-1" d="M399.97,241.7c-10.72,11.65-5.87,46.86,11.1,47.68,17.42.84,19.42-33.22,7.52-47.13-4.93-5.76-13.42-6.21-18.62-.55Z"/>
      <path class="cls-1" d="M524.28,223.89c-14.76,1.62-16.09,27.1-8,42.31,2.79,5.25,7.75,8.07,13.39,7.59,14.17-1.2,16.89-26.61,7.58-42.79-2.79-4.84-7.64-7.7-12.96-7.11Z"/>
      <path class="cls-1" d="M508.67,302.19c-2.11-.71-4.77.27-5.31,2.55-1.57,6.67-4.07,13.06-9.4,17.74-14.64,12.88-38.22,9.76-48.29-6.99-1.48-2.47-1.81-4.88-5.32-4.38-1.75.25-4.44,2.97-3.11,5.75,6.51,13.62,19.94,21.13,34.59,21.53,19.27.53,34.94-12.14,38.85-30.98.43-2.09-.18-4.61-2.02-5.23Z"/>
      <path class="cls-1" d="M329.34,429.94c-28.43-.75-39.61-5.34-41.27-16.95-1.41-9.87-3.13-24.7-4.96-40.41-.99-8.52-2.01-17.31-3.04-25.74-.27-2.19-2.26-3.76-4.45-3.49-2.19.27-3.75,2.26-3.49,4.45,1.02,8.42,2.04,17.2,3.03,25.7,1.83,15.76,3.56,30.64,4.99,40.61,2.68,18.76,21.52,23.09,48.98,23.81.04,0,.07,0,.11,0,2.16,0,3.94-1.72,4-3.89.06-2.21-1.69-4.05-3.89-4.1Z"/>
    </g>
  </g>
</svg>