<?xml version="1.0" encoding="UTF-8"?>
<svg id="Layer_2" data-name="Layer 2" xmlns="http://www.w3.org/2000/svg" viewBox="0 0 290.62 189.76">
  <defs>
    <style>
      .cls-1 {
        fill: #2c45c9;
      }
    </style>
  </defs>
  <g id="gentrace-sample-file-last-art">
    <g>
      <path class="cls-1" d="M258.65,164.83c.35,13.23-7.83,24.06-20.86,24.85h-10.04c-5.66.01-11.07-2.48-14.83-6.64-4.11-4.55-5.81-10.05-5.88-16.07l-.32-39.94c-.05-4.42-3.67-9.51-8.7-9.51l-106.28-.06c-5.71,0-9.57,3.78-9.57,8.75v27.6s.05,15.11.05,15.11c.02,4.3-1.21,8.31-3.39,11.9-5.09,8.38-13.63,9.31-22.98,8.83-15.13-.78-24.23-9.56-24.43-24.78l-10.91-.2c-6.04-.62-11.58-3.26-15.28-8.1C1.9,152.21,0,146.99,0,141.32V48.54c0-6.2,2.38-11.89,6.44-16.2,4.34-4.6,10.21-6.41,16.35-6.78l8.44.13.37-4.75C32.51,9.31,41.64,1.09,53.47.23c2.99-.22,5.86-.38,8.82-.01l3.98.5c9.81,1.23,16,11.07,15.95,20.59l-.09,17.91-.03,29.89c0,4.02,3.02,7.09,6.98,7.68l6.87.16,7.62-.03,8.05-.06,71.63.04,15.46-.02c4.02,0,7.55-2.99,7.57-7.07l.04-24.01-.06-22.61c-.03-12.87,7.52-21.96,20.65-22.99h8.83c14.46,1.14,22.76,11.26,22.71,25.52,10.49-.86,20.12-.49,27.19,8.1,2.86,4,4.99,8.7,4.99,13.98l-.02,95.66c0,4.91-2.01,9.51-4.71,13.19-4.27,5.82-10.89,8.46-17.9,8.33l-9.33-.17ZM73.19,173.44c1.19-3.88,1.16-7.53,1.11-11.36l-.28-19.28.03-104.06.13-16.57-.54-4.1c-.73-5.53-5.13-9.45-10.69-9.44h-9.5c-8.33.73-14.09,7.11-14.1,15.65l-.12,105.6.08,35.68.88,4.51c1.14,5.84,6.1,9.95,12.21,10.73,4.14.53,8.57.57,12.7.02s6.94-3.64,8.08-7.37ZM243.88,179.1c4.26-2.67,6.4-7.16,6.59-11.92l.26-6.2.07-48.17.13-45.65-.4-12.92-.31-30.77c-.54-8.44-6.5-14.44-14.87-14.87h-8.09c-3.55-.01-7.1,1.49-9.38,4.23-2.5,3-3.49,6.64-3.47,10.68l.32,82.01.25,54.61.04,5.16.33,3.86c.33,3.96,2.23,7.67,5.55,9.82,3.6,2.32,7.68,2.55,11.88,2.48,3.86-.06,7.66-.18,11.11-2.34ZM10.46,149.7c4.18,7.21,12.95,7.51,20.64,6.67l.05-122.46-9.67.1c-4.72.42-8.79,2.79-11.15,6.83-1.49,2.55-1.75,5.28-2.27,8.34l.04,91.99c0,2.99.96,6.09,2.38,8.53ZM282.61,142.21l.05-91.14c0-2.84-.37-5.27-1.16-7.83-1.96-5.36-6.64-8.85-12.38-9.27l-10.39.12.02,122.24c3.15.47,5.88.37,8.87.26,4.19-.16,8.33-1.07,11.17-4.42,2.2-2.6,3.81-6.06,3.82-9.96ZM206.9,107.19l-.21-4.61-.28-19.41c-2.78,1.35-5.44,2.15-8.62,2.15l-107.45-.02c-3.01,0-5.53-1.07-8.29-2.3v29.42c3.36-2.18,6.92-3.46,11.07-3.45l104.37.04c3.55,0,6.53,1.51,9.24,3l.17-4.81Z"/>
      <path class="cls-1" d="M239.83,83.24l-.22-5.31-.33-31.3-.37-8.38c-.18-4.01-.74-7.92-2.03-11.7-1.6-4.68-6.41-4.19-5.38-7.65.37-1.23,1.7-1.84,3.15-1.54,7.05,1.47,9.06,11.65,9.44,18.79l.35,6.57.12,40.3c0,1.22-1.34,2.2-2.2,2.3-.97.11-2.48-.72-2.53-2.09Z"/>
    </g>
  </g>
</svg>