<?xml version="1.0" encoding="UTF-8"?>
<svg id="Layer_2" data-name="Layer 2" xmlns="http://www.w3.org/2000/svg" viewBox="0 0 344.69 284.48">
  <defs>
    <style>
      .cls-1 {
        fill: #0029a6;
      }
    </style>
  </defs>
  <g id="Layer_1-2" data-name="Layer 1">
    <g>
      <g>
        <path class="cls-1" d="M225.55,248.12c-3.39-7.38-8.05-13.74-14.99-17.75l-44.43,5c.25,7.72-1.65,15.21-5.28,22.13,16.84-.58,33.16-.09,49.63,1.72l17.04,2.58c2.01,2.23,4.84,3.1,7.66,2.04,3.97,1.12,10.41,3.54,10.59,6.95.29,5.41-15.7,8.93-21.87,10.05-10.45,1.88-20.77,2.81-31.39,3.33l-27.36.31c-14.13-.29-27.95-1.52-41.83-4.11-5.98-1.11-14.5-3.16-18.71-6.81-1.6-1.38-1.78-3.66-.16-5.16,5.76-5.35,20.38-7.29,28.74-8.63,1.53-3.44,4.61-5.61,7.89-6.85,3.07-4.32,3.97-9.81,3.9-15.13l-15.13,1.53-3.79-1.24-38.39-11.96-61.37,9.53c-2.39.37-4.37.29-6.37-1.12-1.57-1.1-2.74-3.13-2.96-5.43l-2.85-29.93c-3.41.45-6.62-.28-9.06-2.54-2.2-2.07-3.45-5.24-2.91-8.57-2.45-3.35-2.74-7.63-1.3-11.45-1.88-4.36-.42-9.27,3.41-12.04,1.94-1.46,4.13-2.28,6.7-2.43l-3.74-54.47c-.3-4.42,3.31-7.62,7.45-7.53l58.9,1.34-1.84-29.81-20.85-32.23c-.42-1.22-.26-2.34.53-3.29.57-.68,1.85-1.36,2.99-1.19l19.35,2.77-3.13-21.64c-.84-5.79,3.75-10.05,9.29-10.33L191.66.02c5.06-.26,10.15,2.28,11.32,7.58l11.06,50.54.51-11.59c.09-1.99,1.06-4.12,2.98-5.08l32.27-16.12c2.68-1.34,5.23-1.53,7.89-.15l22.47,11.64c3.2,1.66,2.73,5.91.52,8.2l-22.71,23.57,3.2,71.98c8.59,1.9,18.01-1.22,22.88-8.58-2.19-8.14.23-18.19,9.02-19.54l21.18-96.19c.85-3.85,3.61-6.85,7.95-5.88l17.38,3.91c4.12.93,5.77,4.57,4.88,8.5l-12.26,54.17-9.31,41.16c2.92,1.14,4.81,2.3,6.25,5.07,1.25,2.64,1.22,5.6-.06,8.13,1.21,3.73.71,7.42-1.65,10.41.36,2.46-.15,4.84-1.67,6.73-2.36,2.94-6.11,4.09-9.97,3.13l-6.42,27.99c-.67,2.92-3.78,4.11-6.47,3.46l-18.27-4.41c-3.52-.85-5.74-3.98-4.58-7.61l2.35-11.11c-6.4,3.23-13.16,4.3-20.39,3.12l2.32,49.19c.29,6.19-2.92,11.78-9.51,12.88l-19.3,2.36c2.01,2.94,3.51,5.79,4.79,8.92,5.27-2.64,12.13-3.53,16.33.59,2.67,2.62,2.78,6.23.75,9.28-2.56,3.83-5.73,6.98-9.37,9.87-5.19,4.12-14.38,10.22-19.43,5.55-3.69-3.41-4.74-8.69-3.05-13.57ZM121.61,75.06l56.59-3.94,34.18-2.29-13.02-60.11c-.68-3.14-4.05-4.98-7.01-4.82l-26.33,1.4-87.25,4.49c-3.45.91-4.75,3.95-4.25,7.22l3.27,21.32,15.14,2.17c2.98.43,5.47,1.45,7.28,4.04l21.39,30.52ZM325.16,91.25l-3.33-.79c-.42-.1-.92-.91-.85-1.31s.96-.95,1.4-.86l3.25.73,2.03-8.81-7.73-1.79c-.46-.11-1.03-.92-.93-1.33.09-.36.88-.92,1.26-.84l7.87,1.8,2.17-9.66-3.73-.89c-.43-.1-.75-1.16-.55-1.52.18-.3.94-.64,1.33-.55l3.46.81,2.1-9.38-7.66-1.76c-.46-.11-1.09-.69-1.18-1.11s.74-1.25,1.14-1.16l8.17,1.91,1.44-6.73-3.39-.74c-.43-.09-.96-.88-.88-1.3.11-.57.92-.99,1.45-.88l3.4.73,1.45-6.61-7.18-1.61c-.46-.1-1.02-1.02-.88-1.44.19-.56.94-.86,1.53-.73l7.05,1.61,1.5-7.01-4.87-1.11c-.44-.1-.82-1.13-.59-1.5.2-.31,1.05-.7,1.43-.62l4.6,1.06,1.54-6.99c.29-1.3-.85-2.46-2.05-2.73l-17.48-3.99c-.83-.19-1.94.03-2.55.59-.44.4-.67,1.25-.86,2.13l-16.09,73-5.16,23.03c3.43,1.56,4.76,5.17,3.91,8.66s-3.58,6.2-7.23,6.64l-9.85,43.65c-.18.81-.13,1.59.24,2.12.3.43,1.09.72,1.71.87l18.87,4.6c.36.09,1.31-.56,1.4-.93l1.96-8.62-3.69-.89c-.42-.1-.97-.86-.9-1.26.06-.34.85-.94,1.24-.86l3.84.88,1.72-7.36-7.44-1.66c-.46-.1-1.03-.88-.9-1.28.13-.43,1.03-.96,1.44-.86l7.35,1.71,1.69-7.67c-2.5-.83-4.3-2.57-4.95-4.48-.88-2.58-.33-4.91,1.21-6.76-3.47-3.51-2.72-9.26,1.41-11.84-1.1-2.23-1.09-4.27.04-6.53,1.7-3.39,5.54-4.05,9.47-3.8l1.13-5.37-3.5-.73c-.42-.09-.98-1.03-.82-1.45.15-.4.97-.83,1.41-.73l3.44.82,1.57-7.17-7.56-1.79c-.45-.11-.94-.99-.83-1.36s.92-.86,1.3-.77l7.6,1.76,2.08-9.21ZM278,42.28c.63-.66,1.12-1.73.17-2.21l-21.88-11.26c-1.27-.65-2.49-.92-3.8-.47l-12.58,6.37-21.2,10.62,36.41,20.76,22.88-23.81ZM97.05,46.63c-1.25-1.41-2.57-2.05-4.31-2.16l-37.47-5.42,19.48,30.12,42.42,6.29-20.13-28.83ZM248.39,66.4l-30.14-17.19-.79,19.25,30.93-2.05ZM149.97,233.28l104.26-11.93c2.93-.34,6.39-3.43,6.26-6.42l-1.89-45.05-2.51-57.68-1.87-42.3-132.31,9,1,15.62,3.77,63.08,2.28,38.18,2.27,39.52,18.74-2.03ZM111.05,222.41l-14.19,2.38,30.5,9.58-1.34-23.65-7.81-131.1-42.45-6.34,1.67,28.37,24.5.58c3.74.54,6.4,3.09,6.69,6.9l7.75,105.22c.46,3.67-1.45,7.4-5.32,8.05ZM20.92,229.39c.22,2.28,2.52,2.78,4.15,2.53l29.62-4.6,55.29-8.56c1.16-.18,2.83-1.28,2.73-2.64l-7.87-106.63c-.12-1.57-1.22-3.32-3-3.36l-86.91-2.1c-2.33-.06-4.03,1.5-3.86,3.95l3.74,54.04c2.06.21,3.84.57,5.34,1.59,3.53,2.37,4.41,6.97,1.98,10.43,3.95,2.94,4.44,8.68.89,12.11,2.77,3.1,2.21,7.64-.93,10.24-1.19.98-2.59,1.55-4.16,2.11l3,30.89ZM289.98,126.47c.34-1.56,1.35-1.83,2.68-1.73,2.35.17,3.98-1.72,4.58-3.85.38-1.34.15-2.86-.64-3.77-.94-1.08-2.45-1.38-3.87-1.01-5.89,1.57-7.32,11.34-4.23,17.09l1.47-6.74ZM312.03,141.11c-1.25.03-1.82,1.89-1.76,2.69.05.84.58,2.24,1.47,2.79,3.63,2.2,9.58,2.62,11.62-.74.99-1.63.82-3.29.37-5,2.41-2.4,3.3-5.73,1.71-8.97-.27-.55.16-1.54.53-2.15,1.46-2.41.39-5.64-2.04-7.13-3.42-2.1-9.73-2.98-11.3.59-.43.97-.22,3.24.93,3.51l7.17,1.66c.63.15,1.18,1.22,1.08,1.75-.13.69-1.01,1.36-1.77,1.22l-6.27-1.12c-1.93-.35-3.5,1.26-3.91,2.85s.06,4,1.99,4.42l6.89,1.48c.87.19,1.43,1.13,1.21,1.97-.61,2.32-4.32.12-7.9.19ZM283.64,154.8l3.74-16.73-1.33-2.1c-6.18,7.07-15.48,10.14-24.73,8.49l.64,14.79c7.78,1.46,15.34-.16,21.69-4.44ZM10.8,186.94c.07-.85.66-1.42,1.55-1.56l6.22-.95c2.36-.36,3.56-2.43,3.28-4.64-.23-1.8-1.85-3.8-4.05-3.53l-6.86.85c-.81.1-1.69-.68-1.82-1.42-.11-.61.54-1.79,1.26-1.88l7.53-.99c1.27-.17,1.99-1.97,1.98-2.96,0-1.21-.51-2.4-1.57-3.19-2.39-1.77-9.01-1.34-11.91.91-2.52,1.96-3.51,4.99-2.09,7.92.23.48.19,1.59.06,2.15-1.55,3.4-.78,7.03,1.67,9.76-.5,2.03-.57,3.88.63,5.59,2.57,3.69,9.05,3.09,12.84.8,1.05-.64,1.66-2.13,1.69-3.12.03-.85-.55-2.76-1.72-2.8-3.78-.14-8.95,2.14-8.71-.95ZM255.2,240.79c-1.27-2.45-4.02-3.23-6.68-3.13-3.64.14-6.72,1.64-9.76,3.68-.49.33-1.68-.04-1.87-.52-.24-.62-.07-1.46.38-2.15-1.38-3.79-3.39-7.44-6.15-10.67l-14.88,1.64c2.28,1.76,3.98,3.46,5.7,5.49,2.67,3.32,4.71,6.93,6.68,10.72.5.96.8,1.71.39,2.77-1.42,3.7-.71,8.1,2.22,10.81.8-1.74,1.82-3.34,3.17-4.82,4.97-5.46,13.36-12.15,20.78-13.81ZM163.32,272.37c1.52-1.4,1.28-3.74.45-5.54-2.87-6.23-10.71-5.11-8-8.26,4.63-6.64,6.67-14.55,6.67-22.76l-13.75,1.54c.22,6.67-1.41,13.29-5.19,19-5,.27-8.96,5.72-7.35,10.48,4.52,6.89,21.65,10.62,27.16,5.54ZM254.96,243.57c-6.65,2.28-11.96,6.5-16.75,11.11-1.64,1.58-2.98,3.03-4.15,5.1,7.4-1.5,16.65-9.9,20.89-16.2Z"/>
        <g>
          <path class="cls-1" d="M184.51,163.08c-3.5-2.63-5.12-6.85-5.12-10.98,0-1.5,1.64-2.52,2.97-1.92,6.66,2.97,14.28,3.01,20.77-.41.75-.4,1.8-.73,2.49-.42,2.65,1.19.68,8.3-2.72,12.03-4.67,5.12-12.65,6.02-18.39,1.71ZM191.85,161.97c5.25.4,9.62-2.86,10.76-7.83-6.16,2.52-12.63,2.56-19.17.49.73,4.06,4.09,7.01,8.41,7.34Z"/>
          <path class="cls-1" d="M171.73,142.24c-5.74-.19-8.3-11.65-4.55-19.02,1.11-2.18,3.47-3.47,5.69-2.63,1.66.62,2.96,2.14,3.62,3.81,3.08,7.75.69,18.02-4.77,17.85Z"/>
          <path class="cls-1" d="M215.65,119.42c5.34,4.9,4.23,20.07-2.38,20.48s-8.78-13.98-4.15-19.81c1.67-2.11,4.5-2.53,6.53-.67Z"/>
        </g>
      </g>
      <g>
        <path class="cls-1" d="M56.85,217.68c-2.07.24-4.33-.83-4.52-3.05l-.69-7.93c-1.61-.21-2.44-.95-2.55-2.53l-1.12-16.03-10.95,1.2c-.52.06-1.6-.11-1.88-.47-.36-.46-.47-1.22-.56-2.36l-3.72.23c-1.46.09-2.57-.86-2.68-2.31l-1.95-26.5c-.12-1.62.8-3,2.43-3.16l3.4-.33c-.44-1-.25-2.9.98-3l12.23-.94-1.38-20.18c-.09-1.31,1.21-2.08,2.52-1.87l-.7-8.15c-.16-1.92.75-4.73,3.19-4.89l18.59-1.21c2.34-.15,4.34,1.31,4.55,3.75l.68,8.24c.87.12,1.69.25,2.15.59.41.3.72,1.28.76,1.93l1.32,19.1,12.26-1.02c1.39-.12,1.99,1.8,1.65,3.34l4.59-.31c1.41-.1,2.7.73,2.82,2.24l1.96,24.41c.12,1.43-.49,2.91-2.08,3.11l-4.74.59c.28,1.16.26,2.75-.64,3.47l-12.92,1.27,1.33,16.77c.07.93-.85,1.68-1.88,1.79l.57,7.49c.21,2.82-1.75,4.3-4.2,4.58l-18.84,2.15ZM76.32,213.29c.91-.11,1.65-1.11,1.58-1.98l-.65-7.63-2.93.29c-.36.04-1.13-.51-1.15-.85s.54-1.01.89-1.06l5.06-.62-1.27-16.32-5.13.47c-.36.03-1.08-.49-1.14-.84s.52-1.06.88-1.09l5.18-.49-.11-2.1c-.02-.41.58-1.09.98-1.08.34.01,1.01.57,1.04.9l.21,1.96,11.69-1.1-.26-4.37c-.03-.53.81-1.15,1.32-.97.37.13.6.73.75,1.7l4.99-.67-2.07-25.63-4.84.45-1.05.83c-.24.19-1-.48-1.04-.82l-.42-3.44-11.68,1.04.13,1.91c.02.32-.36,1.02-.64,1.17s-1.22-.09-1.26-.42l-.34-2.54-4.78.49c-.34.03-1.01-.46-1.08-.79s.48-1.14.81-1.17l4.93-.53-1.39-19.58-5.16.34c-.4.03-1-.72-.92-1.08.07-.3.62-.84.97-.88l2.2-.24-.66-8.68c-.05-.69-1.1-1.58-1.85-1.53l-17.71,1.08c-.69.04-1.57.19-1.98.52-.34.27-.64,1.29-.6,1.76l.67,8.63,2.74-.15c.35-.02,1,.72.98,1.05s-.66.91-1.04.94l-5.18.41,1.34,19.81,5.36-.33c.37-.02,1.11.45,1.16.82.04.3-.45,1.04-.8,1.07l-5.45.49v2.38c.01.39-.68,1.02-1.03.93-.29-.07-.88-.6-.91-.91l-.22-2.21-11.4.88.24,3.54c.03.42-.69,1.23-1.09,1.17s-.84-.83-1.05-1.47c-1.11-.19-2.67-.05-3.86.41l2.06,27.44,4.09-.2.07-1.64c.01-.3.92-.55,1.17-.4s.71.74.74,1.06l.36,3.83,11.06-1.15-.08-2.37c-.01-.32.44-.89.71-1.03s1.21.19,1.25.5l.37,2.68,5.09-.45c.37-.03,1.14.46,1.17.83.03.31-.46,1.05-.84,1.09l-5.46.59,1.26,16.63,5.53-.58c.37-.04,1.07.64,1.03.99s-.63.93-.99.98l-3.1.41.46,7.44c.08,1.33,1.13,1.99,2.36,1.84l19.73-2.33Z"/>
        <rect class="cls-1" x="46.63" y="158.04" width="2.13" height="22.13" transform="translate(-11.88 3.81) rotate(-4.07)"/>
        <rect class="cls-1" x="76.37" y="155.28" width="2.09" height="22.51" transform="translate(-12.64 6.48) rotate(-4.43)"/>
        <path class="cls-1" d="M63.89,129.09l-7.93.63c-.34.03-1-.55-1.04-.87-.05-.39.56-1.1,1.06-1.14l7.45-.54c.3-.02.85.32,1.04.5.24.24-.22,1.39-.58,1.42Z"/>
        <path class="cls-1" d="M69.43,204.52l-7.37.85c-.42.05-1.16-.35-1.25-.73s.51-1.19.94-1.24l7.27-.77c.32-.03.98.34,1.18.56.24.26-.3,1.28-.76,1.33Z"/>
        <path class="cls-1" d="M67.65,186.07l-7.04.75c-.36.04-1.09-.49-1.13-.84s.5-1.07.92-1.11l6.78-.69c.36-.04,1.05.37,1.18.63.16.32-.34,1.21-.7,1.25Z"/>
        <path class="cls-1" d="M58.55,151.47c-.41.03-1.17-.29-1.34-.55-.2-.32.34-1.29.77-1.32l6.95-.62c.39-.04,1.05.69,1.02,1.04s-.64.89-1.07.93l-6.34.53Z"/>
        <path class="cls-1" d="M35.09,167.57c.06.64-.25,1.35-.74,1.5-.43.14-1.17-.49-1.21-.97l-.46-6.18c-.03-.36.48-1.07.82-1.13s1.02.51,1.05.87l.54,5.91Z"/>
        <path class="cls-1" d="M92.74,172.35c.05.54-.29,1.24-.57,1.37-.34.15-1.25-.32-1.28-.7l-.54-6.14c-.03-.29.39-.96.64-1.1.3-.16,1.21.3,1.25.68l.51,5.89Z"/>
        <path class="cls-1" d="M91.97,162.45c.03.33-.52,1-.81,1.08-.35.09-1.1-.5-1.12-.87l-.45-5.97c-.02-.33.46-.99.77-1.03.38-.05,1.1.55,1.13.95l.49,5.85Z"/>
        <path class="cls-1" d="M35.88,178.32c.04.43-.48,1.22-.82,1.23s-1.02-.54-1.05-.87l-.45-5.91c-.03-.35.27-1.07.53-1.27.31-.23,1.25.38,1.29.81l.5,6.01Z"/>
      </g>
    </g>
  </g>
</svg>