<?xml version="1.0" encoding="UTF-8"?>
<svg id="Layer_2" data-name="Layer 2" xmlns="http://www.w3.org/2000/svg" viewBox="0 0 347.49 375.32">
  <defs>
    <style>
      .cls-1 {
        fill: #3746c4;
      }
    </style>
  </defs>
  <g id="Layer_1-2" data-name="Layer 1">
    <g>
      <path class="cls-1" d="M312.35,63.36c-1.44-.24-3.17-.89-3.88-1.78-.9-1.14-.97-2.76-1.08-4.23-.71-.47-1.86-1.14-2.07-1.79-.22-.71-.08-2.24.16-2.91l1.29-3.6c.43-1.19.18-3.74-.17-5.06-2.47-3.44-4.23-7-4.21-11.25.05-7.34,4.87-13.51,11.54-15.31,7-1.89,14.49.98,17.96,7.49,4.13,7.75,1.25,17.13-6.1,21.71-5.37,3.35-2.7,6.39-3.31,9.65-.44,2.35-2.53,3.05-4.47,3.1-.48,2.68-2.49,4.5-5.67,3.98ZM316.92,37.64c1.23-1.08,1.9-1.79,2.92-2.28.48-.23,1.8.26,2.01.75s-.07,1.81-.52,2.09c-1.06.66-2.24.99-3.72,1.25l-2.45,10.85,3.8.78c.39-3.32,1.78-5.39,4.35-6.95,3.57-2.16,6.09-5.49,6.83-9.68.9-5.15-1.8-10-5.99-12.37-4.61-2.61-10.18-1.96-13.98,1.3-3.91,3.34-5.24,8.78-3.44,13.75l2.87,5.39c1.08,2.03.85,4.38.75,6.87l3.11.6,2.37-10.6c-1.07-.83-2.17-1.77-3.07-2.87-.34-.42.18-1.86.67-2.07s1.78.08,2.04.55l1.46,2.65ZM316.82,55.83c.91.18,1.94-.29,2.34-1.23l-9.29-1.83c-.39-.08-.97.13-1.12.43s.49,1.11.83,1.18l7.23,1.44ZM314.97,58.49l-4.57-.84c.2,1.36.97,2.03,1.78,2.26,1.4.4,2.25.22,2.79-1.42Z"/>
      <path class="cls-1" d="M307.76,10.59c.48.92.22,2.22-.41,2.74-.58.48-2.18.48-2.6-.35l-3.76-7.41c-.28-.54.2-1.64.54-2.04.39-.46,2.17-.68,2.45-.14l3.79,7.2Z"/>
      <path class="cls-1" d="M340.18,21.75c-.84.45-2.06.37-2.57-.24-.45-.54-.34-2.26.33-2.61l7.26-3.77c.61-.31,2.09.51,2.25,1.19.18.75-.35,1.75-1.1,2.15l-6.18,3.28Z"/>
      <path class="cls-1" d="M326.9,9.26c-.3,1.11-1.49,1.76-2.55,1.34-.87-.34-1.1-1.55-.84-2.55l1.78-6.66c.18-.69,1.44-1.54,2.08-1.36.92.25,1.63,1.46,1.37,2.4l-1.85,6.84Z"/>
      <path class="cls-1" d="M344.81,45.46l-6.07-2.5c-.82-.34-1.5-1.21-1.34-2.12.15-.85,1.46-1.62,2.32-1.29l6.4,2.48c.83.32,1.35,1.52,1.12,2.36s-1.54,1.43-2.43,1.06Z"/>
      <path class="cls-1" d="M295,32.17l-5.79-.6c-.76-.08-1.7-1.07-1.7-1.82,0-.95,1.15-1.96,2.12-1.84l6.09.77c.94.12,1.77,1.23,1.61,2.22-.14.86-1.27,1.38-2.33,1.27Z"/>
      <g>
        <path class="cls-1" d="M235.47,348.87c10.26.87,45.28,4.48,46.15,12.23.79,7.02-31.81,10.98-40.74,11.84-33.48,3.24-66.96,3.17-100.45-.21-8.76-.89-38-4.58-38.12-11.28s23.57-9.86,31.91-10.99c-2.38-3.16-2.46-7.05-.37-10.37,2.52-3.68,6.63-5.86,11.46-5.63,4.49-3.57,7.84-8.73,8.25-14.93-10.68-.48-22.88-1.37-31.5-7.55-3.58-2.57-4.87-5.69-5.76-9.87l-26.87-104.72c-13.93-2.4-27.92,2.28-38.07,12.16,2.09,5.32.82,11.05-3.95,14.02.31,7.29-2,17.3-8.78,19.39-3.64,1.12-7.46-.93-8.2-4.81-.39-2.04-.16-4.25.1-6.54-4.74,3.78-11.68,6.85-15.6,2.75-2.44-2.56-2.13-6.5,0-9.52-3.44.22-6.96.45-10.12-.86S-.11,220.04,0,216.91c.12-3.09,2.37-5.7,5.85-6.48-2.8-1.51-4.43-3.86-4.31-6.61.12-2.78,2.12-5.64,5.05-6.06l4.83-.69c-2.21-1.89-3.74-4.15-3.72-6.84.02-3.56,2.52-6.29,6.06-6.65,2.1-.21,4.54.08,6.42,1.17l10.5,6.07c2.34-.48,4.62.05,6.83,1.29,12.98-11.61,28.61-19.38,46.51-19.31l-10.63-48.73c-.91-4.15.23-8.36,1.54-12.16l3.25-9.42c.68-1.97.15-4-.7-5.82-4.34-9.34.88-17.57,8.77-23.35,5.36-3.94,10.87-7.14,17.04-9.94,20.45-9.26,42.31-14.71,64.78-16.64,3.7-7.04,7.15-13.95,11.28-20.69,5.95-9.68,18.07-13.2,28.06-8.05,7.5,4.1,10.6,12.24,8.02,20.4-1.19,3.76-3.19,7.1-5.23,10.79,8.5,2.55,15.45,8.39,14.74,17.96-.14,1.93.39,3.49,1.68,4.91l5.51,6.07c3.16,3.49,7.07,7.41,8.14,12.37l12.24,56.84c14.05-2.9,19.41-17.93,21.54-31.24-4.83-5.57-4.35-16.73-2.56-23.97.65-2.64,2.5-4.29,4.77-5.64l1.2-15.79c.44-5.83-.35-13.36,6.57-15.09,2.35-.59,5.06.2,6.73,2.2,3.9,4.68,2.71,12.78,2.27,19.58,2.51-1.16,5.11-.72,7.28.65s3.62,3.49,3.88,6.34c3.27-.48,6.17,1.32,7.47,4.4,2.27,5.38.95,13.44-4.08,17.19.33,7.91-5.13,15.08-13,15.51-2.49,14.77-7.94,28.92-18.88,39.25-5.25,4.95-11.33,8.47-18.4,10.12l3.05,14.79,21.37,82.11c.83,4.09-1.02,7.65-3.17,10.94-3.29,4.08-7.1,7.32-11.48,10.33l-.35.64c4.57,2.67,8.53,5.39,11.91,9.2,4.72-7.35,11.57-13.94,19.97-12.06,4.16,1.08,6.72,4.23,7.01,8.56.72,10.87-10.37,26.28-18.55,34.11-3.72,3.55-9.1,3.65-12.94.46-3.43-2.85-5.33-6.79-5.75-11.36-7.61-7.7-16.91-13.29-27.57-15.76-14.9,5.97-30,10.44-45.79,13.41l-19.6,2.69c-.36,9.91-4.69,18.98-11.74,25.57l4.2,3.17c22.53-.92,44.76-.71,67.6,1.22ZM197.77,63.82l11.1-19.75c1.79-3.18,3.24-6.49,3.56-10.14.55-6.26-3.2-11.55-8.99-13.47-9.58-3.17-17.51,1.39-22.38,10.06-5.29,9.43-10.17,18.8-14.95,28.5-2.4,4.87-3.24,11.52,1.2,14.23,3.57,2.18,7.39,3.48,11.58,4.21,9.01,1.55,14.69-6.2,18.88-13.64ZM89.33,94.73c-3.3-2.2-3.94-6.21-1.79-9.46s7.29-6.03,7.84-4.31c.11.33-.22,1.12-.49,1.37l-3.37,3.05c-1.25,1.13-2.45,3.64-1.17,5.15,1.76,2.08,4.67,3.06,7.39,3.67,10.63,2.41,21.22,2.77,32.18,1.95,17.35-1.29,34.08-4.85,50.44-10.55,5.1-1.77,9.68-3.8,14.49-6.1,4.02-1.92,7.29-5.45,5.22-7.52-.51-.51-1.62-.96-2.29-.81-5.94,9.02-13.96,12.21-24.4,8.89-9.57,3.74-19.35,6.18-29.62,6.59-6.07.24-15.47-.98-16.83-6.16-1.48-5.64,5.57-9.51,11.27-11.82,7.18-2.91,14.72-4.18,22.56-5.15.36-1.57.73-3.34,1.42-4.79l3.74-7.84c-20.91,2.08-42.39,7.5-61.34,16.22-8.78,4.04-22.22,11.3-24.64,20.4-1.26,4.73,1.31,9.37,5.15,12.2s8.53,4.45,13.42,5.57c20.91,4.77,47.19,1.22,68.09-4.16,13.13-3.38,25.6-7.87,37.39-14.44,6.56-3.65,13.32-8.64,16.24-15.39,2.44-5.65.55-11.84-4.4-15.31-2.29-1.6-4.82-2.65-7.45-3.37l-8.17,14.66c3.17,1.3,4.5,3.87,4.08,7.02,4.75-3.05,9.76-7.52,7.12-12.3-.18-.33-.05-1.32.27-1.41,2.46-.69,4.93,4.71,2.86,8.57-1.61,2.98-4.01,5.37-6.92,7.33-6.48,4.36-13.24,7.8-20.63,10.65-19.21,7.42-39.19,11.86-59.8,13.02-10.77.61-29.72,0-37.84-5.4ZM303.35,103.86c5.4-1.65,6.6-8.91,4.68-13.87-.61-1.57-2.54-2.81-3.91-1.75-.67.52-1.64,1.09-2.23.95-2.43-.56.64-5.68-3.8-8.12-3.63-2-6.49,1.84-7.78,1.96-.47.05-1.37-.75-1.57-1.19l1.04-15.53-1.13-4.87c-.3-1.29-1.93-2.16-3.1-2.18-4.26-.06-4.24,6.37-4.49,10.62l-.86,15.14c4.1-.91,8.28-.64,11.65,1.66,2.22,1.51,3.34,3.82,3.22,6.33s-1.08,4.34-3.52,5.76c.74.87,1.71,1.75,2.46,1.94,4.52,1.16,5.29-6.61,7.68-5.87,2.08.64,1.24,4.21-1.3,7.23-.29,1.04,1.57,2.19,2.97,1.76ZM167.89,78.03c-4.2-3.34-10.27-3.77-6.98-7.73l-.4-3.06c-9.11,1.32-19.85,3.07-27.41,8.26-1.17.8-2.72,2.31-2.56,3.75.13,1.19,1.95,2.1,3.05,2.4,10.67,2.91,23.56-.09,34.3-3.62ZM3.77,217.3c.12,5.11,10.28,4.42,16.62,2.57.61-.18,1.8.54,2.01,1.08.91,2.37-3.75,2.85-5.42,7.91-.24.73.11,2.19.57,2.7,1.95,2.18,6.84.06,9.88-2.2l4.51-3.35c.76-.57,1.32-1.23,2.05-1.47.58-.19,1.97,1,1.83,1.6l-2.24,9.8c-.31,1.37,1.19,3.13,2.19,3.46,4.27,1.43,8.49-6.65,7.65-14.77-.24-2.28.39-3.27,2.29-4.41,2.93-1.75,3.51-5.99,2.26-9.08-.68-1.67-.63-3.2.74-4.47,13.72-12.72,31.35-17.23,49.3-11.14,1.19.4,2,1.18,1.88,2.4-.08.85-1.5,1.64-2.35,1.44l-3.96-.96,26.52,103.1c.68,3.2,1.49,5.32,4.35,7.32,8.28,5.77,22.62,6.71,33.33,6.75,29.34.11,59.08-6.66,85.92-18.33,7.02-3.05,13.44-6.52,19.81-10.66,5.58-3.63,15.71-11.48,14.46-17.61l-24.98-99.87-15.77-74.78c-.7-3.3-1.57-6.09-3.76-8.58l-8.7-9.86-1.69-2.01c-2.17,4.98-7.53,10.12-12.33,13.18-22.76,14.51-55.51,22.51-82.38,24.06-14.12.81-34.98-.1-46.15-8.74-1.41,6.6-5.64,12.62-5.34,19.79l11.13,50.82,8.09,1.15c.86.12,1.58,1.65,1.45,2.36s-1.2,1.7-2.04,1.52c-20.52-4.48-39.32,2.78-54.89,16.47,3.54,3.21,7.48,7.4,6.26,11.51-.16.54-1.26,1.3-1.76,1.16-1.62-.48-.64-3.8-6.5-9.23-1.48-1.37-3.37-3.55-5.57-3.35-2.01.18-3.49.18-5.17-.87l-6.8-4.28c-3.59-2.26-8.13-3.3-9.44-.22-.38.89-.1,2.45.7,3.46,4.28,5.42,10.27,4.65,9.77,7.59-.11.66-1.35,1.57-2.12,1.41-5.16-1.08-13.48-1.83-14.55,1.54-.92,2.93,3.35,5.55,6.4,5.68l5.78.25c1.05.04,2.02.88,2.03,1.83s-1,1.97-2.06,1.96c-5.55-.04-13.92-.13-13.82,4.36ZM300.76,114.6c1.88-2.06,3.14-4.51,3.05-7.24-3.18.45-5.67-.81-6.94-3.34-2.21.69-4.39.26-6.19-.88.2,1.8.11,3.64-.46,5.22-.22.59-1.69,1.02-2.2.79-1.99-.89.26-4.68-2.34-8.55-1.26-.04-2.69-.13-3.65-.87-.62-.48-.52-1.83-.09-2.27,1.71-1.78,5.57.79,8.67-2.54,1.54-1.65.78-4.21-1.26-5.37-4.11-2.33-9.56-1.7-13.13,1.69-.65.62-1.27,2.32-1.47,3.23-1.11,4.93-1.1,9.77-.09,14.69,1.1,5.35,6.93,5.93,2.77,8.74-1.17,6.29-2.95,12.36-5.74,18.23-1.88,3.16-3.89,6.04-6.42,8.62-3.44,3.15-7.26,5.29-11.99,6.29l3.23,16.11c5.91-1.23,11.2-4.41,15.87-8.59,11.11-9.95,15.91-23.5,18.52-38,.95-5.25,4.73-.32,9.88-5.96ZM271.93,317.14c.3,4.83,2.46,9.15,6.7,11.23-.14-1.44-.24-3.18.2-4.67,2.29-7.64,5.84-14.68,10.72-20.92,3.05-3.9,7.47-8.49,12.16-8.95-.82-2.11-3-3.37-5.31-3.58-7.12-.65-13.37,7.64-16.69,14.11-.43.84-1.68,1.3-2.39.86s-.92-1.54-.66-2.54c-3.78-4.6-8.97-8.45-14.41-10.55l-15.77,8.26c8.84,2.91,16.43,7.7,23.04,13.94.76.72,2.35,1.68,2.42,2.81ZM299.17,306.5c1.42-2.93,2.31-5.72,2.68-8.87-1.56.32-3,.72-3.9,1.63l-5.12,5.18c-4.32,5.28-7.39,11.16-9.77,17.5-.77,2.07-1.31,3.89-.73,6.17,6.89-4.6,13.3-14.32,16.83-21.62ZM168.46,363.83c3.8-2.16,3.41-7.74.39-10.12l-9.09-7.17c-.77.12-1.79.28-2.3.24-.44-.03-1.08-1.03-1.19-1.53-.12-.57.56-1.77,1.04-2.08.56-.36,1.54-.42,2.49-.25,7.09-5.65,11.3-14.38,11.6-23.6l-14.12.39c-.57,6.32-3.36,11.86-7.83,16.21l-2.83,3.05c-4.28-1.74-8.82.53-10.34,4.72-.77,2.12.45,4.3,2.15,5.65l16.34,12.93c3.68,2.91,9.36,4.02,13.69,1.56Z"/>
        <path class="cls-1" d="M196.39,218.21c-11.11,2.3-20.37-4.54-21.42-15.68-.11-1.14.55-2.67,1.17-3.31.88-.91,2.42-.82,3.8-.66,6.39.74,12.77.15,18.91-1.74l8.5-3.69c1.77-.77,3.47,1.27,3.65,2.88,1.14,10.59-4.11,20.03-14.6,22.2ZM193.2,214.77c9.14-.59,15.25-8.05,13.89-17.3-7.91,4.2-18.35,6.28-28.34,4.88.48,7.41,6.58,12.92,14.45,12.41Z"/>
        <path class="cls-1" d="M165.07,188.82c-5.57,1.54-8.35-4.86-9.55-10.85-.82-4.06-1.04-8.2.89-11.89.78-1.5,2.46-2.68,3.81-2.81,9.2-.85,12.93,23.32,4.85,25.55Z"/>
        <path class="cls-1" d="M219.08,164.35c.98,5.7.07,12.69-4.88,13.47-1.9.3-4.04-.61-5.26-2.25-5.27-7.07-5.83-22.16,1.51-23.03,5.19-.62,7.66,6.17,8.63,11.81Z"/>
        <path class="cls-1" d="M181.94,70.68c-6.08.62-10.76-4.02-10.27-9.95.53-6.46,6.57-11.29,12.96-10.38,4.83.68,8.15,4.84,7.75,9.68-.45,5.5-4.74,10.08-10.44,10.66ZM184.07,66.45c2.21-1.13,3.83-3.19,4.48-5.42.93-3.18-1-6.43-4.42-7.03-4.86-.85-9.65,3.69-8.73,8.73.71,3.86,5.16,5.5,8.67,3.72Z"/>
        <path class="cls-1" d="M195.82,45.92c-3.35.39-5.98-.77-8-2.85-1.86-1.92-2.71-4.73-2.33-7.73.64-5.05,4.95-8.68,10.05-9.08,3.33-.26,6.46.99,8.34,3.5,1.87,2.49,2.38,5.88,1.24,8.99-1.41,3.84-4.99,6.67-9.3,7.17ZM192.88,41.9c2.98.92,5.67-.17,7.6-2.31,1.73-1.92,2.26-4.7.95-6.96-1.2-2.08-3.66-3.27-6.3-2.73-2.79.57-5.09,2.42-5.91,5.15-.89,2.94.59,5.89,3.66,6.84Z"/>
        <path class="cls-1" d="M155.66,74.72c.13.8-1.52,1.85-2.31,1.93-.95.1-2.64-.15-2.94-1.25s1.12-2.14,1.94-2.27c1.07-.16,2.98-.43,3.31,1.58Z"/>
        <path class="cls-1" d="M145.22,77.07c.11.8-1.43,1.78-2.2,1.85-.91.08-2.43-.2-2.77-1.2-.41-1.23.96-2.11,1.8-2.27,1.14-.21,2.9-.3,3.16,1.62Z"/>
      </g>
    </g>
  </g>
</svg>