<?xml version="1.0" encoding="UTF-8"?>
<svg id="Layer_2" data-name="Layer 2" xmlns="http://www.w3.org/2000/svg" viewBox="0 0 232.69 347.24">
  <defs>
    <style>
      .cls-1 {
        fill: #3746c4;
      }
    </style>
  </defs>
  <g id="Layer_1-2" data-name="Layer 1">
    <g>
      <path class="cls-1" d="M64.52,340.25c-2.73-.62-7.74-3.12-7.62-5.29.15-2.8,5.68-4.55,9.34-5.86-5.68-5.26-11.15-12.02-7.97-19.17,1.84-4.13,6.13-6.23,10.62-6.05,4.93.19,9.15,2.17,13.29,5.39,2.08-6.95,5.36-12.75,9.61-18.25-7.62-2.29-12.71-8-13.91-15.42l-4.63-28.47c-11.39,9.75-26.32,10.94-39.12,4.03-.27,3.49-2.17,5.6-5.3,5.77-2.22.12-4.68-.32-6.81-1.07-4.29-1.51-2.76-6.35-2.97-7.19-.07-.29-.58-.5-.99-.63-5.34-1.8-8.46-7.28-6.51-12.8-2.84-4.35-2.17-9.82,1.35-13.68-.54-3.52.61-6.74,3.38-8.86,2.22-1.7,4.93-2.29,7.84-2l.98-8.56c-12.74-4.35-21.96-14.88-24.46-28.25-2.38-12.7,2.08-25.89,11.7-34.47,12.67-11.29,31.13-12.33,45.27-2.44l-1.67-18.25c-.57-11.38,2.79-22.06,9.45-31.16,2.46-3.36,5.04-6.29,7.94-9.25,2.28-2.34,4.39-4.53,6.29-7.22,4.22-5.97,5.99-13.53,4.25-20.52-7.64-3.38-4.8-9.07-4.99-10.83l-2.12-19.76c-.38-3.55.53-6.45,3.44-8.68,3.19-2.45,6.81-4.29,10.74-5.66C100.94,2.19,111.14.65,121.77.11c8.25-.41,20.63.16,27.04,4.49,2.22,1.5,3.14,3.46,3.41,5.94l2.17,20.12c1.39,2.05,1.74,4.26,1.51,6.72-.56,1.88-1.85,3.36-3.5,4.62.6,10.81,3.84,16.34,12.41,22.54l10.55,7.63c8.02,6.29,13.6,14.6,16.27,24.46l1.9,10.26,5.71,42.45,4.41,33.08c21.82,9.79,37.98,35.89,23.52,57.64-3.6,5.41-8.4,9.65-14.2,12.74,1.95,10.41-.95,18.61-9.68,24.58.66,2.04.96,3.87.03,5.9-.58,1.26-2.18,2.47-3.97,2.99l-14.44,4.14c2.06,6.05,11.74,8.91,17.36,8.46,3.52-.28,6.89.96,8.99,3.49,2.21,2.67,2.75,6.16,1.85,9.61-1.52,5.83-4.11,11.13-7.3,16.41l8.43,2.88c1.34.46,2.83,1.57,3.56,2.71,2.62,4.08-9.93,7.25-15.09,8.25-9.55,1.86-18.93,2.93-28.71,3.67-24.33,1.84-48.49,1.76-72.82,0l-24.74-2.92-11.94-2.7ZM144.08,15.34c1.78-1.02,3.79-2.52,4.24-4.57.9-4.06-9.36-6.24-14.59-6.61-14.26-1.01-28.64.71-42.13,5.38-4.31,1.49-11.5,5-11.17,8.54.22,2.39,4.19,4.06,7.26,4.75,5.25,1.18,10.42,1.5,15.9,1.36,12.26-.32,30.05-2.85,40.48-8.84ZM85,46.9c4.76,1.89,9.52,2.8,14.62,3.08,13.68.75,27.3-1.22,40.19-5.77,4.24-1.5,12.15-4.97,12.59-8.28.15-1.15-.76-2.41-1.39-3.39l-1.84-16.24c-3.73,2.9-7.43,4.71-11.85,6.12-13.6,4.34-27.87,6.1-42.14,5.29-5.12-.29-9.42-1.34-14.18-3.39l1.58,14.53c.1.9-.09,2.18-.22,3.07-.65,2.18.44,4.12,2.64,4.99ZM118.96,147.93c.59-11.53,8.32-20.72,19.07-23.66,12.24-2.96,24.59,4,28.7,15.8l26.09-10.46-2.93-21.65-1.58-9.26c-2.48-9.87-7.95-18.33-16.22-24.25l-10.02-7.18c-8.17-5.85-12.31-12.43-13.28-22.93-14.89,7.57-33.51,10.36-49.91,9.3-3.78-.25-7.15-.86-11.01-1.77,1.43,9.63-2.1,18.48-8.49,25.49l-8.99,9.87c-7.66,9.26-11.64,20.71-10.78,32.84l2.11,18.48c6.86-9.45,17.75-12.99,28.39-7.98,6.98,3.44,11.79,9.72,13.38,17.78,4.72-2.52,10.12-2.63,15.46-.42ZM164.84,148.84c0-11.71-9.49-21.2-21.2-21.2s-21.2,9.49-21.2,21.2,9.49,21.2,21.2,21.2,21.2-9.49,21.2-21.2ZM96.32,166.19c4.68-6.58,5.27-14.71,2.03-21.97-2.94-6.6-8.96-11.36-16.38-12.04s-14.95,3.87-18.26,10.73c6.67,8.16,10.01,18.25,8.94,28.86,8.15,4.53,18.18,2.14,23.67-5.58ZM198.89,203.89c4.39,2.26,7.71,5.55,9.89,9.67,3.69,6.95,1.87,14.86-4.19,19.73-.41.77-1.03,1.94-1.81,1.97-1.12.04-1.77-.46-2.53-1.27-1.74-1.88-4.03-3.54-6.74-3.6-1.89-.04-3.72,1.03-5.32,1.88l-7.31,3.87c-1.49.79-2.02,2.89-1.67,4.35.26,1.07,1.63,3.03,3.19,2.64,5.24-1.31,8.54-5.12,9.79-1.93.33.84-.32,1.85-1.24,2.27l-7.26,3.33c-1.87.86-2.35,3.39-1.52,5.33.62,1.44,2.59,2.96,4.55,2.45,2.47-.65,4.78-1.64,7.05-2.75,1.06-.52,2.23-.21,2.57,1.01.2.72-.44,1.82-1.27,2.17l-6.48,2.74c-1.09.64-.88,2.88-.1,3.88,2.66,3.37,9.32.78,13.71-1.35,3.83-1.86,6.27-5.24,6.6-9.56,11.75-5.29,20.58-16.6,20.13-29.55-.56-16.06-15.47-32.06-30.56-36.64-.82-.25-1.55-.67-1.79-1.37-.21-.61.23-1.85.81-2.06.54-.19,1.38-.14,2.39-.07l-6.47-47.55-25.58,10.24c2.23,10.65-2.65,21.65-12.04,27.09-12.77,7.15-28.72,1.62-34.54-11.74-.95-2.18-1.57-4.23-2-6.76-4.6-2.93-10.72-3.12-15.1.36-.03,5.87-1.48,11.32-4.85,15.93-6.3,8.6-17.57,11.68-27.21,6.96-.9,3.66-2.03,6.69-3.82,9.96l12.9,87.24c1.2,8.13,5.21,13,13.17,15.08,5.84,1.53,11.68,2.44,17.74,2.49l15.15.13c1.24.01,2.45-.21,3.93-.58l-19.55-65.32c-1.11-3.7,1.25-6.7,4.52-7.67l56.37-16.67c3.65-1.08,7.06.49,8.21,4.2l7.34,23.65c5.53-2.66,9.61-1.37,14.02,2.49,1.88-1.9,4.43-4.12,4.45-7.04.06-9.2-1.83-11.47-8.63-16.39-.61-.45-.85-1.43-.74-2.1.08-.54,1.22-1.44,1.82-1.13ZM69.5,167.12c0-18.23-14.77-33-32.99-33S3.52,148.9,3.52,167.12s14.77,33,32.99,33,32.99-14.78,32.99-33ZM45.77,230.31c4.64,1.74,8.92,1.05,12.53-1.49,3.13-2.34,5.56-5.28,7.57-8.63l2.69-4.81-3.48-25.18c-6.43,7.68-14.93,12.66-24.98,13.61l-1.06,8.05c4.16.32,6.8,3.24,7.81,7.03.62,3.86-.04,7.55-1.08,11.43ZM35.14,213.76l1.32-9.71-7.82-.78-1.02,8.05c2.84.48,4.72,1.23,7.52,2.45ZM196.11,266.32c-2.18.52-4.07.76-5.98.33-3.93-.9-6.37-4.38-5.7-8.58-2.68-.64-4.55-2.35-5.49-4.33-1.24-2.6-.83-5.27.26-7.72-1.97-1.45-3.61-3.42-3.71-5.86-.22-5.34,4.11-7.95,9.18-10.24l-7.52-24.25c-.57-1.83-1.83-2.36-3.64-1.82l-56.58,16.73c-1.28.38-2.24,1.54-1.86,2.84l1.69,5.8,20.28,67.87c.43,1.44,2.12,2.24,3.47,1.86l57.79-16.23c1.42-.4,2.33-1.62,1.87-3.11l-4.07-13.29ZM22.62,237.89c-1.01-.15-1.45-1.61-1.24-2.34.67-2.3,4.13-.03,9.35-.24,1.95-.08,3.19-2,3.34-3.54s-.59-3.78-2.34-4.17l-8.32-1.82c-.8-.18-1.35-1.54-1.1-2.16.3-.7,1.18-1.43,1.98-1.28l7.55,1.41c1.31.24,2.66-1.17,2.89-2.39.91-4.92-5.53-6.27-10.75-6.98-2.64-.36-5.38.63-6.98,2.83-1.93,2.65.78,4.94-1.53,7.2-2.68,2.62-2.65,6.77-.3,9.7.19.77-.18,2.23-.43,3.07-.89,2.99.96,5.94,3.75,7.14,4.55,1.95,11.79,2.38,13.3-1.25.48-1.16.33-3.65-1.03-3.98l-8.15-1.19ZM69.45,221.34c-2.59,4.58-5.93,8.72-10.46,11.43-4.56,2.61-9.52,3.16-14.53.9l-1.53,3.15c-.34.69-1.66,1.04-2.32.7-.57-.29-1.17-1.65-.82-2.35,2.74-5.54,5.48-13.05,2.28-18.09-1.36-1.51-3.25-2.22-5.11-.86,2.17,3.15,1.88,7.26-1.13,9.85,2.88,3.45,2.54,8.73-1.2,11.59,2.43,4.23-.09,6.69-.16,10.18,1.42-.65,2.06-1,3.07-.55.64.29,1.09,1.12,1.24,2.08,11.56,5.04,25.13,2.29,33.82-6.93l-3.15-21.08ZM29.92,252.94l.83-4.24c-3.11.68-5.25.74-8.01.53-.48.81-.56,2.68.49,3.1,2.06.84,4.31.96,6.69.6ZM202.1,273.42c5.16-3.65,8.13-8.98,7.63-14.59-2.96,3.41-6.22,5.18-10.17,6.47l2.54,8.13ZM195.11,301.9c-4-.95-7.18-2.5-10.06-4.81-1.62-1.65-2.8-3.26-3.77-5.67l-14.46,4.09c2.68,9.18,9.53,16.04,18.6,18.17,1.81.51,3.45-.34,3.86-2.03,2.8-2.6,5.16-5.76,5.85-9.75ZM61.42,312.59c10.34,1.21,21.56,12.09,28.03,20.05,1,1.24,1.49,2.57,2.15,4.23,4.19-2.52,5.09-9.64,4.29-14.96,3.4-10.44,9.12-19.71,17.1-27.61-6.14-.52-11.51-1.02-17.22-2.19-4.93,5.61-8.33,12.22-10.49,19.44,3.23.59,6.29,1.76,5.97,4.32-.05.43-1.05,1.24-1.47,1.01l-3.23-1.8c-.66.52-1.22.97-1.63.96-.35,0-1-.49-1.3-.79-4.65-4.59-12.13-9.39-18.16-7.22-2.13.76-3.7,2.25-4.06,4.56ZM184.71,317.33c-4.07-.98-7.18-2.44-10.3-4.63-5.41-3.94-9.27-9.49-11.25-16.22l-21.37,5.99c-3.21.9-5.97-.02-7.81-3l-1.71-5.55-6.8.31-6.84.23c-8.13,6.44-13.93,15.17-17.8,24.79-.65,1.62-1.24,3-1.13,4.96l29.13-1.3c17.27-.38,34.29.18,51.49,1.75,1.21-2.65,2.63-4.75,4.37-7.34ZM182.97,330.19c.14,2.37,1.55,4.49,3.6,5.15,5.76,1.84,11.6-2.68,15.14-7.61,3.68-5.13,6.29-10.87,7.99-16.97.57-2.04.34-4.03-.93-5.8-.88-1.23-2.8-2.47-4.78-2.44l-5.66.09c-.74,4.81-3.78,8.36-6.64,11.82l2.26.16c.57.04,1.21,1.15,1.18,1.77-.03.55-.91,1.54-1.51,1.55l-4.7.1-3.82,5.29c-1.37,1.9-2.29,4.32-2.14,6.87ZM88.27,337.61c-.65-1.79-1-2.62-1.82-3.61-4.54-5.49-9.58-10.49-15.53-14.41-2.95-1.94-5.89-3.59-9.69-3.79.66,2.86,2.23,5.17,4.15,7.32,4.78,5.36,10.56,9.69,16.92,13.03,1.91,1,3.66,1.6,5.96,1.46Z"/>
      <path class="cls-1" d="M94.55,42.95c-.18.11-1.16.06-1.78-.06l-.77-7.7c-.04-.4.66-.96,1.01-.94.5.03.95.64.98,1.17l.56,7.54Z"/>
      <path class="cls-1" d="M89.64,41.35c.03.4-.8.88-1.09.81-.35-.09-.79-.74-.82-1.23l-.4-6.35c-.02-.29.38-.94.65-1.06.33-.14,1.14.44,1.17.8l.49,7.02Z"/>
      <path class="cls-1" d="M146,34.35c.08.49-.54,1.32-.91,1.39-.45.08-1.04-.62-1.1-1.22l-.65-6.83c-.03-.27.27-.88.5-.95.3-.1,1.03.36,1.09.77l1.06,6.85Z"/>
      <path class="cls-1" d="M141.28,36.62c.07.55-1.42,1.18-1.81,1.04l-.85-6.64c-.04-.32.26-1.07.54-1.19.34-.14,1.27.33,1.32.71l.8,6.07Z"/>
      <path class="cls-1" d="M99.76,42.54c.05.46-.39,1.23-.75,1.26-.56.05-1.23-.49-1.25-1.09l-.16-5.13c.25-.17.99-.36,1.27-.24s.46.8.49,1.11l.41,4.08Z"/>
      <path class="cls-1" d="M136.03,38.13c.07.45.11,1.43-.2,1.45l-1.3.11c-.3.02-.48-.87-.5-1.22l-.28-3.87c.11-.41,1.64-.44,1.71,0l.57,3.54Z"/>
      <path class="cls-1" d="M145.37,141.65c5.48,6.66,3.39,19.64-2.56,20.16-2.02.18-3.59-.45-4.91-1.97-5.82-6.68-3.98-20.14,2.59-20.45,1.94-.09,3.62.71,4.88,2.26Z"/>
      <path class="cls-1" d="M63.55,167.18c0,14.94-12.11,27.05-27.05,27.05s-27.05-12.11-27.05-27.05,12.11-27.05,27.05-27.05,27.05,12.11,27.05,27.05ZM59.88,167.19c0-12.92-10.47-23.39-23.39-23.39s-23.39,10.47-23.39,23.39,10.47,23.39,23.39,23.39,23.39-10.47,23.39-23.39Z"/>
      <path class="cls-1" d="M112.29,195.41c-7.73-.71-13.61-7.78-10.59-9.55.69-.4,1.91-.18,2.45.68,2.21,3.55,5.99,5.38,10.22,5.24,4.73-.16,9.25-2.72,10.94-7.16.43-1.13,1.18-1.84,2.28-1.68,4.43.64-2.32,13.67-15.29,12.47Z"/>
      <path class="cls-1" d="M86.39,146.07c3.92,7.19,2.49,18.3-3.7,19.25-2.34.36-4.61-.54-5.9-2.66-4.28-7.01-2.9-17.78,3.11-19.67,2.52-.79,5.18.67,6.49,3.08Z"/>
      <path class="cls-1" d="M148.55,116.21c-3.64-4.11-9.8-4.51-13.79-.7-.7.16-1.79.15-2.26-.19s-.67-1.8-.25-2.32c4.26-5.31,13.68-5.16,18.74.38.65.71.64,1.98.15,2.57-.62.75-1.78.81-2.59.26Z"/>
      <path class="cls-1" d="M86.99,118.49c-3.83-3.12-9.11-2.26-11.78,1.89-.42.66-1.87.73-2.51.37-.57-.33-.94-1.71-.49-2.47,3.6-6.03,11.9-7.25,17.13-2.52.75.68.72,1.88.15,2.54s-1.78.79-2.51.2Z"/>
      <path class="cls-1" d="M49.53,152.92c7.14,6.54,6.77,16.4,5.63,15.54l-.96-.72c.07-5.96-2.51-11.29-7.42-14.97.81-1.06,1.97-.58,2.75.14Z"/>
      <g>
        <path class="cls-1" d="M169.17,224.99l-36.31,10.48c-.39.11-1.16-.68-1.18-1.08s.44-1.14.94-1.28l35.58-10.28c.4-.12,1.32.39,1.51.69s-.07,1.33-.54,1.47Z"/>
        <path class="cls-1" d="M136.35,246.97c-.46-.27-.95-.72-1.02-1.06-.08-.4.59-1.13,1.06-1.27l16.2-4.68,18.12-5.11c.31-.09,1.27-.06,1.36.25.11.36.04,1.12-.1,1.69l-35.63,10.18Z"/>
        <path class="cls-1" d="M148.61,281.78c-.62.18-1.77-.14-1.76-.51s.26-.97.57-1.44l34.26-10.04c.5.24,1,.76,1.02,1.12.02.48-.55,1.14-1.12,1.31l-32.97,9.56Z"/>
        <path class="cls-1" d="M174.28,248.63l-33.67,9.85c-.35.1-1.33,0-1.42-.3-.12-.36-.02-1.03.17-1.64l33.92-9.78,1.38.42c.34.11.08,1.31-.39,1.45Z"/>
        <path class="cls-1" d="M144.16,270.27c-.49.14-1.27-.49-1.16-.79l.49-1.33,33.85-9.77c.5.1,1.1.47,1.22.81.13.39-.4,1.27-.9,1.41l-33.51,9.67Z"/>
      </g>
    </g>
  </g>
</svg>