<?xml version="1.0" encoding="UTF-8"?>
<svg id="Layer_2" data-name="Layer 2" xmlns="http://www.w3.org/2000/svg" viewBox="0 0 813.54 913.77">
  <defs>
    <style>
      .cls-1 {
        fill: #2c45c9;
      }
    </style>
  </defs>
  <g id="gentrace-sample-file-last-art">
    <g>
      <path class="cls-1" d="M644.4,603.78c1.09,1.88,3.62,3.62,5.46,3.54,1.41-.06,3.76-1.93,4.85-3.8l27.81-47.42c7.33-12.51,5.87-27.61-2.37-39.35-7.37-10.5-20.49-16.73-34.13-15.05-12.43,1.53-22.76,8.93-28.14,18.41-6.73,11.87-7.53,25.04-.95,36.36l27.48,47.3ZM649.93,521.95c9.38,0,16.99,7.61,16.99,16.99s-7.61,16.99-16.99,16.99-16.99-7.61-16.99-16.99,7.61-16.99,16.99-16.99Z"/>
      <path class="cls-1" d="M183.43,621.02l-18.4-90.8c-.9-1.32-2.18-2.84-3.22-3.85l-43.68-16.61-3.93.24c-.98.06-1.93,3.2-1.69,4.35l40.85,191.78,45.33,15.81c1.89.66,4.42-2.16,3.95-4.53l-19.22-96.39ZM120.07,517.63l38.57,14.8,8.13,39.82-38.38-14.29-8.31-40.33ZM130.25,565.61l38.06,14.28,7.9,39.63-37.5-12.96-8.46-40.95ZM140.46,613.84l37.62,13.48,7.75,39.64-36.76-12.57-8.6-40.54ZM158.9,701.19l-8.25-39.64,36.63,12.99,7.98,39.29-36.36-12.64Z"/>
      <path class="cls-1" d="M524.77,669.93c1.02-.07,2.91-2.04,2.78-3.25l-2.44-23.83,40.02-9.88,1.7,17.7c.12,1.29,2.25,3.1,3.38,3.07,1.12-.03,3.16-2.47,3.03-3.78l-11.16-108.15c-.32-3.13-1.83-4.87-4.96-4.82l-44.64,12.45c-1.1.3-3.41,2.82-3.27,4.15l11.87,113.1c.18,1.74,2.37,3.33,3.69,3.24ZM515.9,555.36l39.82-10.92,4.1,37.6-39.99,10.5-3.92-37.18ZM520.5,599.06l39.86-10.39,4.03,37.75-40.16,10.03-3.73-37.39Z"/>
      <path class="cls-1" d="M389.24,662.07c-.22-1.61-2.64-3.21-4.09-2.86-1.23.3-2.63,2.66-2.44,4.04l3.43,24.52-47.13,6.04-1.45-9.37c-.19-1.23-2.39-3.14-3.55-2.97-1.16.16-3.11,2.71-2.94,3.89l8.51,57.31c.26,1.76,3.19,3.24,4.65,3.05l50.77-6.6c2.04-.26,4.25-2.09,3.94-4.45l-9.69-72.6ZM344.94,739.23l-5.18-38.92,47.47-6.32,5.18,38.92-47.47,6.32Z"/>
      <path class="cls-1" d="M330.87,645.86l-3.87-27.88,48.01-6.17c1.13,1.87,3.04,3.52,4.26,3.3,1.28-.23,2.66-2.87,2.46-4.38l-6.29-47.12c-.23-1.72-2.68-3.77-4.54-3.52l-54.11,7.17c-2.68.36-3.4,3.47-3.05,5.87l10.77,73.8c.16,1.08,2.43,2.77,3.5,2.67,1.07-.1,3.04-2.47,2.86-3.76ZM325.27,611.86l-5.13-38.51,49.42-6.59,5.13,38.51-49.42,6.59Z"/>
      <path class="cls-1" d="M260.09,656.34h.12c3.1-.3,5.32-3.16,4.83-6.23l-18.31-114.66c-.45-2.81-3-4.79-5.83-4.52h-.12c-3.1.3-5.32,3.15-4.83,6.23l18.31,114.66c.45,2.81,3,4.79,5.83,4.52Z"/>
      <path class="cls-1" d="M462.56,655.43h.09c2.79-.19,4.88-2.64,4.59-5.43l-11.27-111.77c-.27-2.64-2.58-4.6-5.23-4.43h-.09c-2.79.18-4.88,2.64-4.59,5.43l11.27,111.77c.27,2.64,2.58,4.6,5.23,4.43Z"/>
      <path class="cls-1" d="M574.37,699.13c-.94.24-2.9,2.29-2.79,3.36l2.72,25.48-39.75,9.69-2.45-22.52c-.12-1.13-3.05-2.5-4.02-1.91-.81.49-2.26,2.65-2.15,3.74l2.39,23.57c.25,2.44,2.24,4.68,4.84,4.07l44.68-10.61c1.27-.3,3.36-2.8,3.23-4.07l-3.02-28.19c-.12-1.15-2.56-2.91-3.68-2.61Z"/>
      <path class="cls-1" d="M273.64,706.09c-.45-2.81-3-4.78-5.83-4.52-3.11.29-5.32,3.14-4.83,6.22l9.96,62.32c.45,2.81,3,4.78,5.83,4.52h0c3.11-.29,5.32-3.14,4.83-6.22l-9.96-62.32Z"/>
      <path class="cls-1" d="M473,708.11c-.28-2.64-2.59-4.59-5.23-4.41-2.79.18-4.87,2.65-4.58,5.44l6.36,60.96c.28,2.64,2.59,4.59,5.23,4.41,2.79-.18,4.87-2.65,4.58-5.44l-6.36-60.96Z"/>
      <circle class="cls-1" cx="649.41" cy="629.34" r="10.83"/>
      <path class="cls-1" d="M367.78,636.08c-2.34.66-3.72,4.22-2.86,6.34.94,2.33,3.62,3.02,6.37,2.34,12.83-3.2,21.48,1.66,20.77-5.98-.6-6.48-14.12-5.55-24.28-2.7Z"/>
      <path class="cls-1" d="M233.13,655.75l-15.66-9.17c-2.15-1.26-5.73-.49-6.76,1.3-1.39,2.43-.33,5.39,1.89,6.64l15.36,8.64c1.78,1,4.93.21,5.91-1.29.85-1.31.69-5.29-.75-6.13Z"/>
      <path class="cls-1" d="M309.07,677.22l-16.04,4.23c-2.38.63-4.41,2.19-4.6,4.49-.6,7.34,12.79,4.68,23.7-.25,1.83-.83,3.08-3.97,2.58-5.59-.62-1.99-3.55-3.42-5.64-2.87Z"/>
      <path class="cls-1" d="M334.56,669.83l12.89-10.8c2.26-1.89,3.61-4.17,2.13-6.95-1.09-2.04-5.01-2.74-6.98-1.08l-13.69,11.56c-1.27,1.07-1.02,5.26.28,6.51,1.03.99,4.21,1.72,5.37.75Z"/>
      <path class="cls-1" d="M271.11,682.51c.51-1.91-.7-4.41-2.92-5.53l-15.3-7.75c-1.41-.71-4.5.53-5.48,1.73-1.04,1.28-.83,5.37.68,6.15l16.23,8.36c2.6,1.34,6.12-.51,6.78-2.96Z"/>
      <path class="cls-1" d="M611.63,643.38l-13.69,9.47c-1.81,1.25-2.77,4.46-1.82,6.38,1.06,2.11,4.71,2.75,6.82,1.26l13.93-9.81c1.83-1.29,2.31-4.65,1.16-6.33-1.22-1.77-4.77-2.09-6.4-.96Z"/>
      <path class="cls-1" d="M466.56,680.64c.76-2-.24-5.13-1.97-6.01l-14.67-7.45c-2.56-1.3-5.75-.37-6.76,2.55-.58,1.68.54,4.61,2.58,5.62l15.5,7.69c1.46.73,4.75-.92,5.32-2.4Z"/>
      <path class="cls-1" d="M583.15,667.45c-1.2-.77-4.18-.67-5.48.12l-14.38,8.77c-1.86,1.13-2.75,4.03-1.77,5.76,1.22,2.15,4.25,3.1,6.69,1.59l15.56-9.66c1.51-.94.76-5.7-.62-6.57Z"/>
      <path class="cls-1" d="M527.54,696.51l16.74-3.01c2.3-.41,3.95-4.44,3-6.44-.92-1.94-3.36-2.81-5.66-2.4l-15.3,2.75c-2.92.52-4.85,2.5-4.4,5.44.26,1.66,3.3,4.07,5.62,3.66Z"/>
      <path class="cls-1" d="M429.87,653.95l-14.82-9.1c-1.98-1.22-5.25-.95-6.83.67-1.15,1.18-1.17,5.13.2,5.95l15.2,9.1c2.02,1.21,4.81,1.01,6.27-.38,1.26-1.2,1.36-5.39-.02-6.23Z"/>
      <path class="cls-1" d="M502.79,686.49l-17.05-3.42c-2.07-.42-4.61,1.66-4.91,3.87-.22,1.64,1.66,4.72,3.44,5.08l16.83,3.43c1.94.4,5.02-1.87,5.26-3.56.35-2.41-1.33-4.95-3.57-5.4Z"/>
      <path class="cls-1" d="M798.51,559.9c-10.4-16.51-24.25-29.58-40.77-39.51l2.87-276.68c.09-8.43-1.76-17-6.26-23.38l-18.81-26.68-67.09-74.96,1.73-72.95c.3-12.83-10.34-22.43-22.88-23.25L306.17.05c-15.28-1.01-25.75,13.52-25.58,26.77l.87,68.16-90.96,113.68c-8.03,10.03-12.16,20.85-11.83,34.07l6.04,240.74-151.48-60.8c-5.1-2.05-9.41-3.43-14.66-4.39-6.1.51-11.48,2.32-14.9,6.87-3.13,4.16-4.75,10.38-2.83,16.11l31.88,95.41c-9.87,3.08-16.73,10.15-19.56,17.48-4.09,10.59-2.11,20.16,3.23,28.84-4.04,13.42-.52,27.33,9.6,36.98-1.38,11.67,3.69,22.14,12.93,29.44,10.38,8.05,23.31,11.31,37.03,10.32l21.39,69.59c1.9,6.19,5.47,8.63,11.45,10.85l166.98,62.04c1.04.39,3.45.34,3.44,1.16l-.04,4.25c-8.7,1.27-16.53,3.57-24.62,7.25-28.69,3.9-56.61,8.66-82.88,20.7-5.13,2.35-9.89,5.95-13.64,9.95-5.5,5.88-4.85,13.96.79,19.69,25.76,26.16,118.5,38.55,159.24,42.46,106.76,10.24,244.64,9.25,348.62-15.9,16.19-3.92,31.25-8.84,45.94-16.08,12.42-6.11,24.36-17.33,16.63-28.04-14.41-19.96-64.61-27.59-90.98-32.11-9.47-5.07-19.49-7.57-29.99-8.85l-2.16-28.81,111.09-17.49c6.76-1.06,11.38-5.99,11.36-12.96l-.05-16.67c24.54-5.25,42.77-19.7,47.22-44.92,7.48-5.44,14.68-11.5,20.2-19.26,22.64-31.83,23.42-73.62,2.59-106.68ZM748.53,231.1c1.29,3.57,1.84,7.29,2.03,11.23,0,.14,0,.28,0,.42l-.54,74.06-1.99,188.28c-.05,4.47-4.6,7.48-8.74,5.76l-11.53-4.79c-2.32-.96-3.85-3.21-3.89-5.72l-.97-56.45c-.08-4.68-3.77-9.23-6.21-11.59-.31-.3-.65-.56-1.02-.79-5.09-3.12-9.92-3.28-15.22-1.26-.1.04-.21.08-.32.11l-88.84,26.97c-4.08,1.24-8.19-1.84-8.15-6.1l1.67-168.2c.03-2.6,1.65-4.92,4.08-5.84l131.49-49.75c3.26-1.23,6.96.39,8.14,3.66ZM671.34,137.3l51.89,57.4c.15.17.29.34.42.52l10.94,15.04c2.45,3.37,1.03,8.14-2.87,9.62l-116.42,44.1c-4.9,1.86-9.74-2.7-8.28-7.74,1.04-3.58,2.47-7.12,4.17-10.77l49.75-106.61c1.91-4.09,7.38-4.92,10.4-1.56ZM285.49,106.7c2.76-3.44,7.03-5.3,11.43-4.98l67.18,4.97,273.29,21.19c3.51-.16,5.49-2.09,5.68-4.91.16-2.32-1.58-5.08-4.8-5.32l-264.56-20.49-82.08-6.15-.62-63.98c-.1-9.86,6.82-16.98,17.11-16.43l340.89,22.53c6.54,2.05,11.3,7.6,11.09,14.55l-2.19,73.46-56.66,121.42c-4.72,10.35-6.85,20.05-6.54,31.64l-1.75,180c-.05,5.2-3.47,9.76-8.45,11.27l-137.33,41.57-211.58-3.31-35.08-13.9c-3.39-1.34-5.64-4.58-5.73-8.22l-3.42-139.91-2.31-96.28c.27-4.78.77-9.8,6.65-9.15,0,0,0,0,0,0l373.02,35.94c.18.02.36.03.53.03,2.8,0,5.19-2.13,5.47-4.97.29-3.02-1.92-5.71-4.95-6l-371.35-35.78c-3.85-1.14-4.53-3.16-1.6-6.9,1.34-1.7,2.59-3.83,3.55-5.6l85.1-106.3ZM47.32,644.16c-9.71-6.58-14.06-16.12-11.46-27.58-9.59-7.19-14.08-18.76-10.79-29.91,1.61-2.97,1.38-5.94-.56-8.58-4.32-5.89-5.61-13.13-2.75-20.49,2.12-5.45,7.68-10.85,14.96-12.44,15.63-3.42,38.81-1.13,46.5,12.39,3.44,6.05,1.1,13.98-5.23,17.05-13.48,6.54-27.41-2.61-27.88,5.13-.41,6.79,17.78,6.27,29.79,3.9,5.36-.52,11.5,6.3,13.2,10.91,2.82,7.63-.21,15.15-7.54,18.62-12.93,6.13-23.6-.56-25.5,5.13-2.45,7.32,16.27,7.22,28.98,2.95,5.39,1,8.95,7.77,8.91,12.45-.13,19.07-33.78,21.33-50.65,10.45ZM346.86,856.48c-22.03,13.88-76.72,14.91-95.77,1.08-7.58-5.5-9.81-14.47-5.05-22.49,7.45-12.57,23.25-17.24,38.3-18.5,1.68-.14,4.27-2.32,4.21-3.76l-.41-9.78,68.11-.27.68,35.25c.15,7.89-3.62,14.05-10.07,18.48ZM434.88,807.69l-68.99.8-.23-5.79,110.36-.92,48.89-9.52,1.18,16.15-91.2-.72ZM645.49,835.79c3.74,7.39,1.85,16.17-5.06,21.35-18.19,13.65-59.98,11.88-82.57,4.58-9.24-2.93-16.81-8.18-20.34-17.28l-3.47-53.85,62.9-11.19,2.41,31.94c.19,2.56,2.06,4.53,4.73,4.26,15.54,1.23,34.66,6.86,41.4,20.19ZM716.02,749.91c-80.71,11.91-160.54,26.66-240.76,39.99l-122.06.87-74.59.94-171.55-63.94-22.31-69.69c6.1-1.52,11.55-4.05,16.18-8.3,9.49-10.43,8.07-26.25-3.59-34.57,6.42-7.12,7.64-17.02,3.45-25.75-2.53-5.27-6.38-9.09-11.63-12.36,5.71-7.48,6.14-16.84,1.56-24.92-9.87-15.5-29.92-18.74-48.85-17.33l-31.89-95.61c-.98-2.95-.11-7.09,1.77-8.87,2.16-2.05,5.68-2.67,8.28.46l63.39,25.46,149.13,59.74,214.2,3.51,187.36-57.85,71.51-22.03c2.46-1.94,7.78.35,7.87,4.7l3.47,159.66-24.15,5.6c-6.83,1.59-13.56,4.33-18.71,8.84-10.4,9.12-11.69,24.6-1.67,34.46-6.26,5.45-9.39,12.26-8.86,20.12.48,7.05,3.79,13.91,10.98,18.9-8.41,12.43-3.45,27.64,9.81,34.53,10.5,5.46,21.89,6.71,34.74,5.65l.36,15.34c.03,1.29-1.95,2.2-3.45,2.42ZM787.48,662.17c-5.42,7.35-12.09,12.81-20.2,17.59-2.19,34.81-41.84,50.15-72.62,41.23-6.12-1.78-11.16-5.22-14.01-10.6-2.49-4.7-1.54-11.73,3.05-13.97,11.97,3.55,23.43,4.54,35.54.73,1.66-.52,3.03-3.51,2.56-5.29-.39-1.45-3.13-2.75-5.08-2.3-20.71,4.76-44.23-1.91-44.23-18.34,0-5.24,3.12-9.88,8.32-13.1,14.44,5.51,42.41,3.14,40.48-4.67-.36-1.47-3.23-3.34-4.85-2.91-16.44,4.33-38.31,3.33-41.55-10.75-1.19-5.19.85-10.76,5.1-14.5,5.44-4.78,12.86-6.62,20-8.21l20.91-4.67c2.01-.45,5.6-3.57,5.54-5.49l-.81-24.41c12.97,5.8,21.66,15.91,25.65,28.54.68,2.14,2.91,3.96,4.87,3.66,2.47-.38,3.83-3.13,3.64-6.02-4.98-16.81-17.3-30.06-34.36-36.3l-1.34-57.77c25.1,8.94,46.77,23.5,62.32,44.39,23.12,30.95,23.94,72.13,1.07,103.15Z"/>
      <path class="cls-1" d="M410,423.47c-1.4-.94-5.14-1.01-6.81-.31-28.39,11.94-46.19,14.18-77.47,11.29-13.55-1.25-4.93,25.1,8.28,37.8,18.16,17.45,47.33,18.54,66.02,2.14,18.62-16.34,16.45-46.57,9.97-50.93ZM383.4,472.58c-14.11,5.97-29.86,3.16-40.75-6.86,5.45-9.65,14.38-18.2,25.52-21.03,11.72-2.98,22.88-5.54,34.53-10.48,2.72,15.66-4.16,31.97-19.3,38.37Z"/>
      <path class="cls-1" d="M433.32,341.46c-5.99-.24-11.93,2.8-15.67,8.2-14.21,20.54-6.48,53.67,11.83,54.85,5.92.38,11.78-2.11,15.75-7.66,9.64-13.49,10.66-32.01,2.66-46.05-3.19-5.6-9.04-9.12-14.56-9.34Z"/>
      <path class="cls-1" d="M326.53,346.97c-2.39-6.43-7.49-12.02-14.17-13.56-8.22-1.89-15.69,3.02-19.79,10.33-11.74,20.91-3.82,51.36,13.78,52.37,18.02,1.04,28.41-26.96,20.18-49.14Z"/>
      <path class="cls-1" d="M421.76,308.62c-3.41,2.08-4.1,6.31-1.65,9.01,2.09,2.31,5.57,2.11,8.5.21,10.26-6.67,23.32-2.35,30.25,8.02,1.87,2.79,5.55,3.33,7.8,2.11,1.6-.86,3.41-5.11,2.33-6.97-9.74-16.83-30.94-22.34-47.24-12.38Z"/>
      <path class="cls-1" d="M288.8,314.37c6.85-9.27,19.71-12.36,29.54-5.43,3.29,2.32,6.99,2.06,8.93-1.12,1.4-2.28.37-6.18-2.46-8.15-14.5-10.12-34.29-6.14-45.02,7.8-2.48,3.22-2.53,6.96.88,9.06,2.68,1.65,6.02.69,8.13-2.16Z"/>
    </g>
  </g>
</svg>