<?xml version="1.0" encoding="UTF-8"?>
<svg id="Layer_2" data-name="Layer 2" xmlns="http://www.w3.org/2000/svg" viewBox="0 0 830.16 926.77">
  <defs>
    <style>
      .cls-1 {
        fill: #2c45c9;
      }
    </style>
  </defs>
  <g id="gentrace-sample-file-last-art">
    <g>
      <g>
        <path class="cls-1" d="M300.01,112.04l-94.88-.86-10.62-.24c-3.32-.08-5.92-1.52-5.81-4.78s2.52-4.7,5.9-4.67l84.53.67h97.66s77.13-.86,77.13-.86l52.68-.89,47.16-.93,40.79-.91,16.47-.55c3.21-.11,5.41,2.6,5.18,5.3-.28,3.31-2.75,4.44-6.03,4.52l-22.58.53-38.08.92-44.46.94-59.01.91-88.84.94h-57.18Z"/>
        <path class="cls-1" d="M367.35,150.85l-142.8-.81-30.19-.88c-1.65-.05-3.97-3.25-3.76-4.77s2.59-4.48,4.14-4.47l16.7.11,201.59.96,6.73-.05,197.23-2.97c2.03-.03,3.7,3.04,3.73,4.48.03,1.69-1.73,4.94-3.58,4.99l-29.45.71-43.54.97-54.53.92-34.68.28-87.6.53Z"/>
        <path class="cls-1" d="M459.04,426.84c-3.57,5.01-8.9,7.92-14.31,7.63-21.71-1.14-26.13-47.94-10.67-64.64,6.66-7.19,16.52-7.67,23.18-.44,6.7,7.27,8.91,16.64,9.18,26.65.3,10.82-.88,21.67-7.38,30.8Z"/>
        <path class="cls-1" d="M330.5,372.66c12.02,18.71,6.96,62.78-15.08,61.57-6.77-.37-12.62-5.62-15.39-12.1-8.31-19.47-5.17-52.21,12.27-57.65,7.41-2.31,14.21,1.97,18.21,8.18Z"/>
        <path class="cls-1" d="M430.69,484.78c-9.9,22.92-30.78,36.15-55.7,34.07-20.33-1.69-37.39-15.01-44.68-34.16-.95-2.5,1.03-5.77,2.98-6.34,2.93-.85,5.58.42,6.69,3.33,7.1,18.61,25.36,28.71,45.32,26.67,15.73-1.61,28.78-11.69,35.55-26.14,1.35-2.87,2.97-4.6,6.36-4.04,1.95.32,4.69,3.82,3.48,6.61Z"/>
        <path class="cls-1" d="M471.48,318.09c-6.12-8.81-17.42-11.33-25.6-4.64-2.17,1.78-5.28,2.4-7.47.72-1.93-1.48-2.18-5.44-.13-7.34,6.51-6.04,16.19-9.09,24.54-6.36,7.64,2.49,14.27,6.63,17.72,13.7,1.12,2.3-.53,5.64-2.68,6.6-2.01.91-4.58-.09-6.38-2.68Z"/>
        <path class="cls-1" d="M322.2,313.59c-9.13-7.75-21.1-6.27-27.83,3.24-1.15,1.63-4.08,2.95-5.88,2.28-1.7-.63-2.96-3.05-3.9-5.86,5.25-7.04,12.58-13.69,21.79-14.53,8.58-.78,17.49,1.94,22.22,8.64.78,1.1.56,4.64-.28,5.63-.96,1.13-4.87,1.66-6.11.6Z"/>
      </g>
      <g>
        <path class="cls-1" d="M26.57,353.18c4.45.73,9.24,3.76,11.39,7.89l8.15,15.64c4.89,1.12,8.36,3.82,10.59,8.31l14.49,29.07,30.31,56.71,9.78,18.35,5.02,9.42c10.12-1.32,18.06.39,27.27,3.17,25.01,7.54,41.5,30.33,40.49,56.81l27.11-.12c22.96,1.46,45.09,4.05,67.77,8.61l45.45,10.88c39,11.12,75.91,26.44,111.46,46.56,5.59-10.52,16.09-14.82,27.28-12.65,9.6-12.45,19.25-23.43,30.23-34.08,37.91-36.34,79.85-61.2,128.17-81.64l.59-20.39.77-21.61.89-21.76.85-17.28,1.13-20.41c4.1-74.01,10.87-147.14,20.53-220.7l3.43-23.63c-.95-1.55-3.09-4.41-2.71-5.82.43-1.62,1.89-3.55,3.22-5.1,10.03-11.71,9.66-28.4.48-40.63-.47-3.03,2.19-5.29,3.93-7.73,11.31-15.84,15.33-46.56,16.07-67.08.25-6.98-5.42-14-12.56-13.96l-54.21.29-48.22.44-11.94.68-59.59.64-46.43.46-10.07.78-56.05.58-59.96.46-11.97.76-79.54.6-64.23.78c-6.59.08-12.27,6.03-12.6,11.95-1.09,19.65,3.03,53,15.22,65.89,3.19,3.37,3.67,6.21,1.11,10.18-8.45,13.09-7.5,30.71,4.33,41.89.48,2.92-.49,6.73-.84,9.98l-6.36,58.16-6.85,72.7-10.24,131.31-.86,12.82-.93,14.51-.88,13.63-1.41,17.55c-.13,1.64-4.16,2.44-5.58,1.98-1.57-.5-3.28-2.77-3.14-5.05l6.4-98.95,15.52-177.63,4.17-38.54,1.48-8.72c-12.2-14.1-12.45-32.89-4.09-49.18l-2.81-4.51c-8.56-13.73-11.77-31.32-13.6-47.9-.8-7.18-1.39-14.29-.33-21.35,1.74-11.57,11.09-20.48,22.84-20.65l39.85-.56,72.56-.88,69.83-.92,60.82-.89,65.31-.92,59.9-.88,63.56-.87,72.97-.65c12.46,3.34,20.02,13.17,19.03,25.86-.76,16.79-3.29,32.96-7.63,49.1-2.29,8.52-5.63,16.07-10.64,23.2,8.38,15.61,6.92,33.41-3.5,47.39,2.44,4.96,5.19,9.54,6.55,14.85,8.05,31.5,15.51,62.55,20,94.97l11.06,79.83c5.05,44.9,7.93,89.02,9.84,134.42l10.86-2.78c28.5-5.87,56.63-10.5,85.52-14.14,3.74-.47,7.26,1.8,7.47,5.3.23,3.76.94,7.08,2.68,11.12,5.09-3.81,11.73-3.91,15.46,1.14,3.28,4.44,2.65,10.72-.45,15.48l-49.49,75.92c4.02,4.31,7.57,7.7,9.83,12.13,15.37,30.17,5.93,69-13.1,95.71-13.24,18.59-30.82,32.37-53.3,38.89l.42,12.55,2.19,61.51c.19,5.35-3.62,9.56-8.14,11.36l-67.29,33.5c-.39.33-2.07,1.99-1.55,2.1l2.98.64c21.41,4.63,42.07,10.15,62.29,18.25,6.34,2.54,12.02,5.89,17.26,9.85,4.31,3.25,6.51,7.82,6.35,12.92-.13,4.35-2.64,9.41-7.02,12.26-31.45,20.47-114.48,32.48-154.95,35.91l-46.77,3.97-14.31.94-18.16.87-21.69.89-27.91.84-78.37.02-29.81-.85-24.42-.88-19.85-.93-14.37-.92-11.06-.81-13.21-1.06-16.93-1.5-37.96-4.36c-27.37-3.14-126.39-18.63-128.57-43.63-.9-10.31,10.65-17.9,21.12-22.34,14.88-6.3,29.8-11.64,45.67-14.99l39.57-8.37,27.33-5.26.07-30.96c-33.33-9.64-67.02-16.41-101.59-20.17l-29.81-3.24-17.8-1.17-10.3-.69c-2.22-.15-5.36-1.12-6.51-2.47s-2.11-5.9-1.13-7.46l4.11-6.51.99-1.57c.31-.5-3.49-1.12-5.58-4.52-.67-1.1-.22-4.14.5-5.21l4.48-6.71c-3.14-.81-5.48-1.39-6.91-2.47-1.29-.98-2.25-5.15-1.37-6.66l5.36-9.14,25.75-37.3c-8.01-1.85-15.16-2.85-21.67-6.62-18.58-10.74-30.11-29.2-35.66-50-7.38-29.28-.46-59.48,16.88-84.03,10.2-14.43,22.75-25.84,38.49-33.14l-40.1-72.26-11.76-19.13c-2.5-4.08-1.95-8.58-.62-13.54l-6.94-11.5c-4.78-7.92-4.3-16.66,2.23-23.41,5.48-5.67,12.85-9.19,21.15-7.82ZM694.53,432.22l-.89-14.56c-2.85-46.65-7.83-92.33-14.73-138.72-4.94-33.19-11.16-65.15-18.55-97.64-.81-3.54-1.38-5.7-3.58-9.86l-2.29,15.63c-12.73,100.97-20.51,201.57-23.2,305.13l64.67-20.51-.49-22.07-.94-17.4ZM35.63,376.73l-4.62-9.34c-2.28-4.62-6.84-6.19-11.8-4.51s-11.07,5.94-9.93,12.27c.69,3.84,4.07,8.13,6.46,11.72,6.39-5.2,11.14-8.39,19.88-10.15ZM37.31,399.05c3.92-1.78,8.53-1.99,13.72-2.83-.27-2.85-1.94-7.73-4.84-9.86-11.51-3.31-24.67,3.55-27.7,15.31-.83,3.21,2.59,7.52,4.76,10.09,4.31-4.29,8.43-10.15,14.06-12.71ZM93.5,495.53l25.08,47.01,16.04,11.72-29.28-56.08-13.14-25.03-35.61-67.05c-3.83-.98-6.46-.84-11.09.58l7.89,15.06,19.92,36.48,20.18,37.31ZM103.12,531.2l-20.84-38.92-23.98-44.22-20.57-37.44c-3.95,2.97-7.01,6.64-8.77,10.34l13.34,23.96,27.86,50.99,20.71,37.55,14.82,2.92-2.57-5.16ZM407.47,756.8c-1.68,1.61-4.7,2-6.01.73-1.65-1.6-1.51-3.92-.8-6.15,1.36-4.3-2.86-8.43-7.08-8.82-9.54,19.17-19.1,36.95-26.41,58.16l29.24-18.65c16.67-10.63,33.86-18.84,52.23-26.67,51.6-21.98,105.75-35.73,161.6-40.87l20.66-1.26,30.46-49.14c-4.93-5.62-8.85-11.67-9.78-18.43-1.6-11.61,4.54-21.71,16.43-24.66-1.86-4.26-2.94-8.12-2.95-12.74-.02-12.96,10.13-22.2,23.75-22.5-2.4-9.17,1.27-18.02,9.05-23.25,8.28-5.58,19.31-6.69,28.74-3.23,2.62.96,3.98-.36,5.5-2.58l2.88-4.22,34.02-51.26,25.67-37.77c-32.7,4.11-62.28,9.83-92.56,16.81l-22.9,6.46c-66.51,18.77-135.25,53.14-184.03,102.7l-22.93,25.63c7.01,3.99,10.32,8.92,9.73,16.11-.18,2.15-2.18,4.5-3.98,4.95-2.11.53-5.51-.98-5.26-3.15.29-2.53,1-5.34-.04-7.01-.96-1.55-3.02-2.92-5.61-4.33l-20.19,29.17c4.96,3.1,8.64,6.26,10.51,11.12,1.66,4.3-.27,10.13-4.37,12.03-1.81.84-5.65-.49-5.67-2.03s.74-3.83,1.37-5.86c1.1-3.53-3.88-7.01-7.03-7.43l-19.91,32.86,6.84,4.99c4.69,3.42,7.33,15.61.52,19.08-1.66.85-5.46.12-5.98-1.31-.64-1.74.39-4.22,1.07-6.33,1.26-3.91-3.63-7.79-7.09-8.36l-18.85,34.51c9.49,6.19,15.49,16.66,9.17,22.72ZM759.31,543.71l32.4-48.8,13.08-19.16c-.54-2.36-1.32-4.06-2.97-5.9l-13.16,18.78-13.58,19.86-36.46,54.81,5.36,3.76,15.33-23.35ZM757.5,576.73l11.32-17.7,51.12-78.49c.83-1.27.89-3.73-.04-4.58l-7.65,3.43-61.02,91.97,6.28,5.38ZM174.5,556.61c.07-6.11-1.17-11.44-3.06-17.25-6.57-20.2-28.06-31.63-50.13-31.22l11.64,22.79,13.61,24.45,1.86,15.16,10.02,16.21c12.78-.66,15.92-16.6,16.07-30.13ZM125.77,635.48c2.78-2.26,5.46-6.26,4.48-10.54-1.48-6.44-5.19-11.59-9.82-15.87l-22.57-20.84c-1.42-1.31-.69-5.4.68-6.35,1.59-1.09,4.45-1.4,6.15.24l25.41,24.51c3.83,3.69,8.38,5.93,13.81,4.4,3.89-1.1,8.54-4.47,8.59-10.07s-2.37-11.25-5.26-15.93c-12.85-20.82-37.62-44.81-62.17-41.39-11.99,1.67-21.17,7.8-27.45,17.64-1.13,1.78-4.79,1.15-5.82-.26-1.19-1.65-.9-3.43,0-5.74,6.42-10.54,16.09-17.28,29.16-20.51l-13.86-25.45c-18.02,7.99-30.69,21.55-40.04,37.81-9.58,15.9-13.53,33.53-12.96,52.15.81,26.38,17.88,58.99,43.99,64.3,6.79,1.38,13.32,1.36,19.95-2.9-7.85-4.76-15.16-9.88-21.43-16.78-1.55-1.7-.69-5.72,1.18-6.57,1.53-.71,4.32-.15,5.78,1.27,9.38,9.13,22.02,18.08,34.59,16.14,5.13-.79,9.87-4.86,9.89-10.01l-27.4-24.07c-1.77-1.56-.41-4.29.9-5.28s4.37-1.51,5.72-.27c12.73,11.7,27.79,29.09,38.51,20.37ZM384.29,740.71c-6.49.1-11.27,3.5-12.34,9.05-.48,1.52-2.32,3.87-3.68,4.05s-4.2-1.79-4.67-3.07c-1.64-4.43,1.44-7.79,4.11-11.14,4.91-6.16,13.02-8.65,21.47-8.09l15.24-27.07c.6-1.07.89-2.88.45-3.68-1.75-3.19-9.26,1.7-9.91,6.36-.48,3.42-2.81,5.43-5.3,4.8s-4.01-3.74-3.2-6.48c3.3-11.09,14.42-17.03,26.05-15.75l19.58-32.54c-6.36-.16-11.55,3.68-13.01,9.15-.43,1.7-1.39,4.08-2.5,4.77s-4.13.22-5.09-.68c-5.33-5.06,6.3-22.59,20.59-22.26,5.19.12,6.4-1.15,9.01-4.89l16.08-23.13c-8.25-.27-12.4,5.22-15.23,12.06l-2.79,6.73c-1.03,2.48-2.84,4.14-5.92,4.55l-.63-10.06c-54.09-30.55-112.79-50.78-174.29-60.13-21.68-3.3-42.48-6.56-64.08-5.65l-9.93.42c-1.19,2.3-2.33,4.94-2.94,7.45-2.5,10.28-9.2,17.94-19.77,20.73l23.16,46.14c.6,6.08,8.25,40.58,8.25,40.58.08,1.33-.91,4.06-1.68,5.13s-4.16,2.16-5.26,1.29l-20.23-15.98-17.38-16.11-11.59-20.52c-4.82,6.91-10.64,10.48-18.56,10.49-4.38,12.97-16.68,19.76-30.12,16.51-2.34,4.29-6.22,6.69-10.38,8.32l-22.56,31.93-11.5,17.2,12.24.87c62.6,4.47,123.61,12.33,183.2,32.59l32.06,12.4c28.51,12.3,54.85,27.27,80.14,45.89l32.9-72.22ZM692.07,683.36c-2.74,5.28-3.54,10.23-4.9,16.39,13.46,6.27,37.01-.67,50.25-8.41,21.51-12.58,36.32-32.61,43.98-56.25,4.58-14.12,6.54-29.16,3.06-43.59-2.04-8.43-5.08-16.17-11.73-21.65l-8.22,12.38c-.61.92.81,3.76,1.4,4.65,1.25,1.88.18,5.54-1.62,6.16-3.25,1.12-4.11.11-6.08-2.13-11.61-13.21-32.71-27.56-49.61-23.28-4.44,1.12-8.19,4.11-9.69,7.01-2.28,4.41-1.74,8.73.34,12.62,12.86,4.28,23.92,10.51,33.51,20.36.5,1.75-.76,4.91-2.35,5.62-1.4.62-4.5-.12-5.86-1.27-14.47-12.26-40.38-26.18-49.25-8.62-2.44,5.82-.3,12.68,4.83,17.08,10.78,3.13,19.52,8.95,28.21,15.99,2.58,2.08,4.87,5.81,2.05,8.64s-5.86.21-8.18-1.75c-7.15-6.05-15.51-11.15-24.49-13.6-8.37-2.29-17.07,3.75-17.17,12.18-.17,13.78,19.51,24.41,32,32,4.04,2.45.98,6.67-.49,9.49ZM159.27,633.04c1.91.81,7.68,7.15,7.68,7.15l1.78-9.27-10.12-20.14c-5.18,6.82-10.42,10.24-19.17,10.04.37,2.57,1.09,4.81,2.22,6.7l13.52,22.67c1.39-4.98.11-7.37-.94-11.21-.71-2.59,1.03-7.62,5.03-5.92ZM174.84,668.33l6.14-3.8c-1.33-6.13-3.51-17.43-5.77-22.53-2.05,2.27-3.54,9.01-4.65,8.49l-5.17-2.43-.12,11.08,9.57,9.2ZM642.69,725.71l5.04-8.13,26.76-43.12c-1.61-1.7-3.36-3-6.05-4.66l-32.09,51.02c-3,1.64-4.79,3.38-3.59,7.75,1.1.66,4.13,1.46,5.85,1.17,1.39-.23,2.96-2.23,4.08-4.03ZM654.15,737.85l14.37-24.22,9.98-18.13,3.83-14.06c.17-.61.65-2.31.14-2.14l-1.79.61-32.96,54.05-6.91,5.44c1.96,3.47,4.36,4.65,7.83,3.66,1.93-.55,4-2.67,5.5-5.2ZM416.13,830.38c12.48-4.04,24.24-8.08,37.03-9.43l43.58-4.58,7.3-.3,57.18.72,46.37,4.97,21.3,3.01-.13-39.58c0-2.52,2.07-4.86,4.58-4.71s3.68,3.11,3.74,5.64l.87,36.23,34.32-17.51,41.71-20.95c1.4-4.2.85-7.83.68-11.94l-.9-21-.91-22.7-.86-16.71-9.07.28c-7.1.22-14.09-.82-20.99-3.24l-20.91,35.93c-3.51,6.03-7.56,7.91-14.75,8.6l-16.35,1.56c-60.4,6.95-118.98,22.24-175.79,43.95l-61.59,25.02c-.28,2.64-2.33,6.3-5.05,6.3l-48.14-.08-9.26-.03c-5.4-.02-10.58-.24-15.64-2.11l-25.76-9.53c-1.29,3.75-2.08,7.88-1.79,11.52l11.2,4.82,14.03,6.03c4.1,1.76,8.44,3.97,13.31,3.98l68.76.22c5.06.02,11.55-2.49,13.59-6.64s3.66-6.19,8.35-7.71ZM369.91,812.24c5.2-1.4,9.28-4.29,13.27-6.88l19.89-11.09c61.53-34.32,149.54-61.2,221.33-63.26l-1.51-7.39c-74.87,4.01-156.92,27.63-221.47,65.99l-5.56,3.52-8.48,5.21c-.05.96.14,2.67-.45,2.66-6.08-.06-11.1,5.99-17,11.23ZM332.48,812.57c-2.26-2.74-4.26-4.41-6.8-6.07-66.37-43.22-147.23-63.65-225.63-71.19l-47.17-4.54-5.71,6.74,10,1.37,77.6,7.77c34.1,5.11,67.02,11.94,99.54,22.71l45.79,17.89,39.52,19.36c4.45,2.18,7.84,5.05,12.85,5.95ZM411.99,805.94c71-31.46,142.97-52.5,221.27-61.09-.17-1.85-1.57-4.18-2.87-5.68l-14.03.78c-57.91,3.22-121.39,21.17-174.45,44.75-21.99,9.77-43.21,20.18-62.58,34.14,12.48-3.1,21.61-9.01,32.67-12.89ZM289.87,801.35l-25.29-11.16c-37.76-16.66-77.56-26.34-118.45-32.8l-49.52-6.17-30.85-2.88-12.09-1.02-6.46,8.14c47.84,2.23,93.76,8.35,139.55,19.87,39.05,9.83,76.11,23.41,113.56,37.69l17.83,6.8c2.41.92,4.31,2.38,7.66.03l-35.94-18.5ZM261.56,875.3c6.19-1.79,12.46-4.36,17.03-8.67,6.41-6.05,6.74-15.28,4.37-23.26-.71-3.75-1.92-6.52-4.86-9.25-.61-6.23-.02-12.37,1.4-19.4l-65.51-22.35-.63,13.81.76,16.48c.09,1.87-.91,4.86-2.25,6.11-15.9,2.04-32.21,13.2-32.06,28.92.06,6.58,3.99,11.9,9.47,14.73,20.23,10.41,50.11,9.28,72.28,2.88ZM365.2,816.11c-5.25-1.55-6.76-.69-10.35,3.85l6.97.48,3.38-4.33ZM597.97,858.8c-1.58-19.63-23.26-23.23-23.26-25.73l-.02-5.95-17.05-1.03-12.83-.7-45.66.2-.31,12.96c-2.25,6.05-4.75,11.87-5.17,18.42-1.25,19.41,30.41,26.42,47.21,26.37l16.89-.05c17-1.56,41.64-6.44,40.19-24.5Z"/>
        <path class="cls-1" d="M648.93,801.84c-1.13.57-4.14-1.13-4.54-2.3-.44-1.32.61-4.37,1.81-5.13l8.35-5.36,38.21-19.03c1.7-.85,4.94-1.86,6.41-1.23,1.15.49,1.78,3.82,1.49,4.97-.34,1.32-1.98,2.9-3.75,3.79l-47.98,24.29Z"/>
      </g>
    </g>
  </g>
</svg>