<?xml version="1.0" encoding="UTF-8"?>
<svg id="Layer_2" data-name="Layer 2" xmlns="http://www.w3.org/2000/svg" viewBox="0 0 829.22 870.83">
  <defs>
    <style>
      .cls-1 {
        fill: #2c45c9;
      }
    </style>
  </defs>
  <g id="gentrace-sample-file-last-art">
    <g>
      <path class="cls-1" d="M588.81,490.24c-2.48-2.79-2.02-6.17.15-8.25l8.22-7.91c1.22-1.38,5.08-1.99,6.54-.36l30.8,34.44,79.56-80.77c2.07-2.1,5.85-1.82,7.54-.1l8.35,8.48c3.02,3.07,1.7,5.85-.98,8.56l-91.16,92.09c-2.93,2.96-6.36,1.81-8.67-.78l-40.36-45.41Z"/>
      <g>
        <path class="cls-1" d="M294.44,473.16c-8.8-12.34-12.32-26.09-14.58-40.69-.41-2.62.57-6.24,2.2-7.73,2.31-2.11,5.67-2.15,8.79-.84,28.02,11.81,59.58,10.68,86.87-2.73,2.03-1,5.1-1.05,6.8-.27s3.95,3.98,4.11,6.29c2.26,32.68-16.35,64.84-48.69,67.28-17.97,1.35-34.76-6.27-45.49-21.31ZM349.11,480.93c18.68-6.84,28.63-28.67,27.82-48.28-14.63,7.15-29.49,9.07-45.18,10.48-12.4,1.12-23.57,7.95-31.91,17,8.83,18.56,29.61,27.99,49.28,20.79Z"/>
        <path class="cls-1" d="M271.14,390.19c-18.29.87-27.89-33.37-16.12-59.64,2.29-5.1,6.71-9.83,11.92-11.75,18.37-6.77,33.92,31.5,18.34,61.4-2.76,5.3-7.84,9.69-14.14,9.99ZM277.45,350.55c3.16-1.87,4.3-5.5,3.89-8.51-.3-2.22-2.85-6.62-5.22-6.23-5.12.85-7.45,9.36-3.72,14.08.71.9,3.88,1.35,5.05.66Z"/>
        <path class="cls-1" d="M390.77,367.15c18.99-2.24,42.26,11.31,33.49,18.17-2.05,1.6-4.86.99-7.22-.8-11.48-8.73-26.28-9.45-39.62-3.91-1.79.74-5.22,0-6.49-1.46-4.98-5.72,16.06-31.05,46.09-29.47,2.22.12,4.61,2.51,5.01,4.09.55,2.18-1.19,5.81-3.87,5.73-9.9-.28-19.16,1.1-27.4,7.65Z"/>
        <path class="cls-1" d="M287.23,279.2c-10.72-10.39-25.39-10.36-35.51-.05-1.28,1.3-4.94,1.36-6.29.42s-2.25-5.12-1.01-6.67c13.07-16.24,37.39-15.97,50.59.1,1.3,1.58.51,5.78-.86,6.79-1.45,1.08-5.29.98-6.92-.59Z"/>
        <path class="cls-1" d="M424.44,304.42c-3.1,8.82-16.98-7.5-39.82,9.28-2.14,1.58-4.96,1.82-6.77.57-1.56-1.08-2.31-5.52-.7-6.99,21.08-19.21,50.64-12.42,47.28-2.86Z"/>
        <path class="cls-1" d="M388.37,57.55c0,12.77-10.35,23.12-23.12,23.12s-23.12-10.35-23.12-23.12,10.35-23.12,23.12-23.12,23.12,10.35,23.12,23.12ZM363.76,71.76c8.96.99,15.55-6.87,15.42-14.63-.14-8.17-7.41-15.09-15.88-13.88-7.53,1.07-12.22,7.65-11.96,14.74.23,6.36,4.7,12.92,12.42,13.77Z"/>
      </g>
      <path class="cls-1" d="M631.12,827.07c-23.69,23.79-100.47,34.05-136.85,37.51-78.67,7.48-157.29,8.37-236.13,2.01-41.81-3.37-135.22-13-162.53-38.68-6.66-6.26-6.54-15.42-.03-21.64,16.01-15.31,46.86-21.35,69-27.02,12.73-13.42,27.67-19.3,46.27-22.04l-1.51-37.31-58.2-4.75c-20.12-1.64-35.6-19.92-36.08-40.2l1.56-60.26c-13.14,10.23-29.51,14.14-44.06,7.55-11.08-5.02-17.68-15.59-15.77-27.54-14.93-9.51-19.28-24.73-16.62-41.9-12.69-10.21-23.35-21.29-31.38-34.94-18.06-30.68-6.25-61.04,16.83-85.85,27.18-27.84,62.4-47.79,99.19-61.14l4.46-154.15,2.5-74.24c.79-23.49,20.67-40.69,43.7-40.19l51.83,1.12.53-21.01c.29-11.52,9.64-21.09,21.54-20.76l52.26,1.47c2.36-37.93,31.36-66.34,69.3-62.81,35.35,3.29,62.56,32.36,62.81,67.72l46.92,2.19c11.56.54,20.72,10.57,20.52,21.62l-.31,17.07,76.09,2.86c20.04.75,38.93,18.07,37.92,39.51l-7.7,163.24c-.02.38.11,1.88.14,1.87s.89-.25,1.46-.41c17.95-8.47,34.22-19.3,50.03-31.19,6.64-5,13.75-4.04,19.93,1.05l29.11,23.91c21.54,15.76,45.39,26.37,71.74,31.15l32.06,4.03c9.28,1.17,14.31,7.11,14.3,16.12-.02,31.75-1.35,62.71-6.15,94.06l-6.77,34.72c7.33,4.57,14.55,11.65,15.5,20.29,2.24,9.56-1.3,18.69-7.77,25.98,1.75,9.69-.82,18.76-6.72,26.55-3.24,3.57-7.1,6.06-11.86,7.94-.58,8.54-5.03,16.09-10.9,20.32-7.94,5.73-16.66,6.63-26.22,3.41-27.31,33.35-69.4,64.54-109.15,81.25-5.28,2.22-10.73,1.02-15.54-1.79-18.85-11-35.77-23.55-52.87-38.21l-2.52,63.19c-.51,12.66-3.85,24.32-13.18,33.12-9.78,9.16-22.69,12.66-36.14,11.79l-57.67-3.72,2.64,20.89c12.89.81,24.06,4.78,35,11.29l57.54,9.88c16.88,2.9,48.68,13.34,59.17,26.34,4.56,5.65,4.14,13.33-1.24,18.74ZM284.17,146.87l191.52,5.64c5.39.16,7.77-4.14,7.96-8.54l2.23-53.1c.21-5.07-2.94-10.76-8.64-10.98l-53.34-2.14c-3.33-.13-6.16-1.67-5.85-5.59,1.04-13.21-1.2-26.33-8.5-37.64-15.44-23.92-46.97-31.24-71.66-16.57-17.26,10.26-26.09,29.41-26.33,49.41-.04,3.41-1.76,6.35-5.47,6.25l-57.39-1.63c-7.19-.2-10.65,5.86-10.82,12.09l-1.48,53.99c-.11,4,2.89,7.67,6.83,7.77l40.95,1.05ZM501.78,346.34c1.89-7.9,7.98-11.58,15.55-11.77,19.09-.46,37.78-1.88,56.57-6.47l3-62.46,5.71-114.65c-.29-18.56-15.18-30.02-33.05-30.35l-49.1-.89-1.58,30.13c-.45,8.57-8.64,14.18-17.19,13.46l-239.7-6.94c-10.33-1.51-16.21-9.36-15.79-19.33l.97-23.18-48.54-1.3c-20.88-.56-35.79,12.86-36.41,33.55l-9.85,331.62-6.99,190.24c-.79,21.51,12.28,35.95,33.6,37.52l271.47,19.89,86.67,6.19c19.88,2.14,33.84-12.66,34.68-31.92l4.24-97.45c-30.37-38.76-52.14-79.35-58.69-128.33-3.17-24.09-4.48-47.52-1.79-71.74l6.2-55.82ZM595.92,321.16l8.59-168.21c.82-16.05-12.41-28.75-27.3-29.68,9.6,8.54,15.46,19.8,14.81,32.62l-8.72,170.33,12.63-5.06ZM531.01,451.11c-1.38-24.84-.06-48.73,2.35-73.5.44-4.57,2.25-8.17,7.45-8.36,45.84-1.71,83.64-16.94,121.22-42.16,3.58-2.4,7.22-1.31,10.33,1.45,31.59,28.11,70.19,45.02,112.33,49.23,2.29.23,5.24,1.4,6.39,2.63,1.26,1.36,1.74,4.81,1.7,7.14-.49,32.31-2.89,64.04-10,94.98,7.49-.24,13.48.7,20.16,2.92l8.01-44.76c3.07-26.65,4.32-52.69,4.32-79.49,0-3.35-3.05-5.2-6.11-5.41-58.45-3.94-94.64-22.1-137.29-61.04-2.49-2.28-4.82-2.36-7.45-.58l-32.31,21.76c-38.54,22.34-71.62,28.77-115.81,29.84-2.08.05-4.42,3.42-4.7,5.6-6.08,46.84-10.26,93.01-.23,139.35,9.67,44.71,36.9,89.14,68.2,122.11,19.4,20.43,41.42,36.87,65.43,51.32,2.53,1.52,5.79,2.28,8.53,1.03,20.29-9.27,38.6-20.48,56.51-33.78,16.55-12.26,31.29-25.85,44.76-41.34-6.98-4.13-12.3-9.25-16.58-16.23-12.16,13.65-25.12,24.95-39.48,35.49-13.92,10.17-27.84,18.86-43.26,26.62-2.63,1.32-6.3.97-8.98-.67-67.37-41.29-110.98-103.81-115.46-184.14ZM685.45,605.23c18.38-12.61,34.33-26.54,48.7-43.23-.7-9.58,4.2-17.4,12.47-22.09-2.63-11.32,1.56-22.25,12.16-26.91-3.51-11.63,1.13-23.42,12.36-28.41,3.78-15.53,6.97-30.33,7.88-46.19l2.85-49.88c-43.68-4.39-83.36-22.05-115.81-51.13-36.48,25.38-76.85,40.99-121.85,42.4l-2.79,46.07c-.93,15.44.82,29.91,2.65,45.37,9.93,68.08,50.35,118.32,107.6,154.1l33.78-20.12ZM106.19,537.98c-2.01-2.08,2.27-5.28,4.28-4.3l9.44,4.55.52-21.24c-11.22-4.72-22.8-.38-34.44,3.91-1.1.41-3.51-1.49-3.58-2.56-.05-.9.48-2.99,1.29-3.55l4.05-2.82c-5.69-7.16-11.12-14.55-14.77-23.08-4.55-10.64-5.15-22.61.89-22.02,1.37.13,2.83,2.22,3.7,4.81,12.4-12.3,27.68-20.95,45.03-27.6l1.73-61.61c-40.58,15.19-91.94,45.8-109.41,83.84-15.02,32.71,10.83,62.26,37.24,82.16-3.22,9.94-3.86,19.94,1.57,28.66,6.09,9.78,18.52,15.22,29.88,12.95,3.46-.69,6.52-1.79,7.87,2.26,2.47,7.43-11.9,10.82-24.76,6.47-.33,5.41,2.83,9.92,7.57,12.69,8.31,4.86,17.84,4.8,27.21.39,15.56-7.33,20.28-28,12.52-44.86l4.54-1.54c.35-4.7,1.26-11.6.26-16.38-1.29-6.16-8.97-7.34-12.63-11.13ZM96.87,506.64c9.02-3.17,16.52-2.63,23.98-1.1l1.57-49.57c-15.67,5.77-29.74,13.92-40.54,26.69,3.96,8.83,8.99,16.52,14.99,23.97ZM747.57,554.61c-2.07,3.19-2.97,8.46-1.17,12.49,6.81,15.3,30.45,25.12,40.93,13.53,8.75-9.67-.17-17.6,9.08-19.22,11.04-1.93,16.9-13.55,13.43-24.04-1.2-3.62-.13-5.62,2.78-7.85,7.79-5.98,8.93-18.69,1.64-25.73-13-12.55-37.76-15.9-43.42-3.44-1.91,4.19-1.41,9.82,1.25,13.19,11.82,2.03,33.8,10.99,29.18,16.24-.8.9-3.74,1.47-4.89.84-12.36-6.75-29.02-14.35-36.54-3.65-2.54,3.61-3.82,12.23.59,14.51,9.5,4.91,29.66,13.72,24.44,18.76-.87.84-3.75,1.19-4.84.44-10.93-7.47-25.76-16.41-32.46-6.07ZM573.73,704.16l2.94-66.4-12.48-15.13-3.25,76.08c-.58,13.48-5.04,25.19-16.92,33.64,16.27.19,28.96-11.23,29.71-28.19ZM409.76,764.29l-4.16-29.72-122.83-9.12.07,40.51c42.73-2.55,84.31-3.04,126.92-1.67ZM229.53,822.47c12.56-1.66,24.59-4.58,35.53-10.42,6.72-3.59,10.5-9.4,10.35-17.14.17-7.2-2.32-14.41-2.45-21.59l-.68-37.51-52.26-4.26,1.26,29.68c.12,2.82-1.54,5.14-4.52,5.63-21.13,1.48-45.48,11.87-51.62,32.3-7.91,26.34,39.98,26.54,64.4,23.31ZM528.66,806.3c-1.06-8.25-5.51-14.29-11.31-19.44-11.42-10.17-25.93-15.31-41.46-16.08-2.44-.12-4.64-1.96-4.9-4.15l-1.95-16.32-51.63-3.9,3.97,34.8-.34,18.7c.52,8.53,4.92,15.08,12.88,18.67,20.74,9.37,43.81,12.61,66.61,9.79,14.46-1.79,30.03-7.29,28.14-22.06Z"/>
    </g>
  </g>
</svg>