<?xml version="1.0" encoding="UTF-8"?>
<svg id="Layer_2" data-name="Layer 2" xmlns="http://www.w3.org/2000/svg" viewBox="0 0 559.49 804.16">
  <defs>
    <style>
      .cls-1 {
        fill: #2c45c9;
      }
    </style>
  </defs>
  <g id="gentrace-sample-file-last-art">
    <g>
      <path class="cls-1" d="M205.67,797.58c-34.91-3.93-114.84-16.1-134.13-41.1-4.6-5.96-4.09-13.44,1.02-18.9,13.47-14.4,44.68-21.66,65.6-25.99,7.65-7.65,17.6-11.89,28.27-13.86l-1.69-34.48-38.04-9.09c-11.94-4.66-20.75-14.46-20.72-27.86l.29-140.62c-28.11,12.34-59.09,16-84.19-1.71-30.62-25.04-24.39-64.7-11.18-99.72-19.62-39.93-2.48-88.94,39.25-103.65,5.9-16,18.84-27.19,35.62-28.67,6.4-6.3,14.41-9.31,23.62-10.1l.72-27.71c.3-11.45,2.83-20.65,9.16-30.18l67.18-101.06,4.71-62.02c.97-12.75,12.65-20.05,25.3-20.85l264.98,26.11c13.66,2.03,23.58,12.65,22.49,26.61l-4.82,61.59c19.31,27.26,37.41,54.42,54.8,82.84,4.54,7.41,5.81,15.17,5.55,23.86l-2.81,94.43-5.65,195.78-4.23,110.89c-.41,10.63-5.22,20.78-14.7,26.03l-83.22,46.09,2.48,18.7c26.35,5.42,65.69,13.09,83.26,30.99,6.1,6.21,6.42,14.89.28,21.25-22.79,23.6-100.31,33.26-136.41,36.05-64.45,4.98-128.52,3.6-192.79-3.63ZM305.46,272.81c7.78-5.04,16.14-4.69,24.14-1.95,11.01-3.76,22.78.52,29.09,10.43,4.19,6.57,5.67,14.09,5.74,21.93l4.73,9.93c8.02,19.87,9.67,41.14,6.05,62.44,12.33,15.71,25.7,30.54,43.35,42.52l3.36-167.44c.67-8.79,2.96-16.02,7.03-23.74l59.74-113.37,4.91-59.88c.8-9.78-5.37-17.72-15.81-17.44L217.47,10.6c-9.73-.67-16.02,5.47-16.68,14.51l-4.48,61.23-70.03,105.51c-3.54,5.34-5.74,11.44-5.87,17.69l-.67,31.65c19.13-1.04,37.35.63,44.93,18.37,13.52,3.37,24.27,11.86,29.38,25.34l20.7-7.23c10.48-3.66,21.35-2.89,30.04,3,2.68-2.31,6.16-5.74,9-6.22l14.58-2.45c12.12-5.89,25.29-5.63,37.08.8ZM437.38,232.7l-3.99,10.45,7.7-1.34,107.57-31.34c-1.56-4.66-3.56-8.51-6.08-12.84l-48.35-72.33-17.19,32.05,46.93,32.39c1.78.99,2.15,4.03.92,5.37-.86.93-3.42,1.31-4.66.53l-47.53-29.86-35.31,66.92ZM425.13,627.84l-1.18,54.6c-.12,5.62,5.52,9.54,10.74,7.48h0c.3-.12.58-.25.86-.4l88.08-47.84c8.5-4.62,12.91-11.2,13.25-21.25l3.48-103.45,8.72-286.46c.16-5.38-5.01-9.32-10.15-7.75-33.96,10.37-66.81,20.54-100.91,29.02-3.45.86-5.91,3.91-5.98,7.46l-3.25,159.59c-.07,3.34,1.99,6.34,5.11,7.53,4.22,1.61,8.27,2.73,12.61,3.48,1.06.19,2.15.11,3.21-.13,20.75-4.77,40.77,8.14,45.44,29.24,4.76,21.49-7.34,42.51-27.76,50.75-10.27,4.14-20.86,5.12-31.57,3.94-4.62-.51-8.7,3.01-8.78,7.66l-1.93,106.54ZM148.48,269.93c2.1,0,5-.83,5.87-2.2.76-1.2,1.16-4.89.57-6.32-5.08-12.32-22.91-11.19-36.14-10.73-6.22.22-11.98.23-18.01,2.69,11.5,3.64,23.79,9.08,24.85,21.1,1.81,1.2,6.41,2.37,8.56,1.77,2.8-.78,4.54-3.17,6.49-6.28l7.82-.03ZM116.8,277.23c1.03-9.42-12.01-14.83-24.57-15.66s-23.94,4.9-29.55,16.13l14.66-.59c6.15-.25,11.46-1.3,17.62,1.04,9.12,3.46,20.95,7.2,21.83-.92ZM141.29,346.8c5.83-16.36,13.77-28.25,26.21-37.17-.6-10.9,5.82-19.63,16.52-22.11-3.43-9.05-11.34-14.8-20.09-18.09-2.8,8.1-10.43,10.9-18.32,9.7-5.64,6.37-13.84,7.97-21.45,4.57-3.32,4.78-7.69,7.05-13.47,7.64,17.9,14.03,27.98,33.61,30.61,55.45ZM353.82,287.54c-2.57-5.78-7.15-11.46-14.19-11.89l14.19,11.89ZM462.19,500.81c18.09-6.3,27.89-24.64,22.4-42.43-3.9-12.64-15.76-20.75-28.94-19.21-7.75.91-14.97.63-22.45-2.04-25.51-9.1-45.52-31.04-62.83-51.49-1.3-1.53-5.69-3.72-5.36-6.27,2.04-16.18,3.1-31.93-.62-47.93-3.96-17.05-12.34-32.83-25.47-43.99-6.87-5.84-14.91-9.58-23.76-7.77,12.01,8.55,30.27,33.79,20.59,36.01-1.51.35-4.43-.69-5.23-2.41-9.27-20.03-31.45-40.93-53.79-34.02,16.17,8.85,28.34,21.62,36.2,38.21.69,1.46-1.34,4.88-2.77,5.12s-4.49-.81-5.3-2.28c-8.12-14.79-19.64-26.83-34.93-33.87-4.45-2.05-9.86-3.21-14.28-1.48-3.39,1.33-4.87,5.15-4.7,8.28.14,2.41,1.99,6.78,4.89,8.27,22.26,11.42,37.88,32.71,38.17,58.21l.22,19.69c.1,9.07,1.98,17.73,7.01,25.16,6.21,9.17,16.55,13.51,27.63,11.32,1.82-.36,4.98.77,5.81,2.12.89,1.45.64,3.96-.33,6.18,12.89,19.25,27.76,37.02,45.75,52.03,22.15,18.47,53.8,34.43,82.09,24.58ZM194.27,297.77l39.17-12.16c-4.06-3.09-8.72-2.41-12.9-1.19l-35.71,10.46c-4.42,1.29-7.78,4.71-8.58,9.01l18.03-6.13ZM84.28,414.03c17.3-2.81,30.68-13.53,38.84-28.33,17.04-30.92,6.9-70.1-22.79-89.1-25.06-16.04-57.18-9.7-74.91,14.29-18.88,25.55-16.42,62.12,5.76,85.2,13.66,14.21,33.19,21.18,53.1,17.95ZM289.04,403.59c-4.85-12.06-5.08-22.58-4.78-34.01,2-25.06-10.45-47.45-32.29-59.34-6.33-3.45-10.09-8.89-10.62-16.67l-21.51,6.5c14.63,4.69,26.23,12.19,35.32,23.61,21.74,26.96,23.41,63.55,4.43,92.54l29.44-12.64ZM246.76,415.78c24.59-28.58,20.09-72.47-9.52-95.65-24.92-19.51-60.34-14.25-77.99,12.32-18.04,27.15-13.3,64.16,10.52,86.36,21.95,20.45,56.61,20.66,76.99-3.03ZM141.36,391.56l-3-16.03c-2.69,7.76-5.86,14.17-9.93,21.6l12.93-5.56ZM107,417.8c-9.79,3.62-17.05,5.97-26.86,6.86l-2.45,15.19c-.33,2.07-3.58,3.62-5.61,3.13-1.64-.4-4.15-3.44-3.89-5.2l1.88-13.12c-20.5-1.34-39.25-11.32-52.37-28.93-9.27,25.74-13.41,58.95,7.97,77.74,21.27,18.7,56.09,13.62,80.65,1.09l.67-56.77ZM416.86,517.73c.09-4.85-2.82-9.23-7.29-11.12-12.83-5.42-24.3-12.78-35.19-21.66-18.34-15.44-33.76-33.16-46.86-53.4-1.95-3.01-5.17-4.92-8.73-5.31-7.1-.79-13.53-3.68-18.97-8.39-3.45-2.99-8.26-3.86-12.46-2.06l-52.66,22.57c-17.93,7.37-36.64,7.52-54.35-.53-12.94-5.89-23.18-15.52-30.38-27.58-3.03-5.08-9.31-7.18-14.76-4.87l-10.89,4.62c-4.32,1.83-7.14,6.06-7.18,10.75l-.5,57.15-.62,147.42c-.04,10.27,6.84,17.84,16.36,19.87l62.54,13.37,199.84,34.49c.29.05.59.09.88.12l5.16.49c6.84.66,12.78-4.65,12.91-11.51l3.14-164.45ZM142.39,740.16c13.32,15.89,57.21,10.23,77.65,1.66,7.31-3.43,10.02-9.23,9.87-17l-.93-49.28-54.19-10.26,1.44,31.69c3.04.54,5.78,1.13,7.98,2.9,1.22.98,1.32,5.34.14,6.37-3.7,3.24-22.9-3.42-38.73,11.89-5.88,5.68-9.01,15.13-3.23,22.03ZM371.15,702.99c-.03-1.37-.86-3.36-1.61-3.49l-130.58-22.28-.07,24.19c44.68-2.44,88.29-1.69,132.27,1.57ZM438.61,762.29c7.12-3.79,10.45-11.22,8.98-19.09l-8.26-44.18c-9.24,4.86-19.64,7.6-30.23,6.18l-28.2-3.77,4.57,20.58c.34,1.54,1.12,3.7.75,4.78-1.18,3.37-14.25,4.61-19.69,17.2-11.22,25.97,44,33.24,72.09,18.3Z"/>
      <rect class="cls-1" x="332.21" y="-34.4" width="10.89" height="270.68" rx="5.45" ry="5.45" transform="translate(202.73 426.5) rotate(-84.13)"/>
      <path class="cls-1" d="M190.21,222.64c-9.24-6.96-21.08-6.87-29.76.79-1.37,1.21-4.76,1.1-6.06.02s-1.97-5.14-.41-6.7c11.54-11.51,30.12-12.42,42.34-1.53,1.61,1.43,1.54,5.28.44,6.55-1.31,1.51-4.87,2.14-6.55.87Z"/>
      <path class="cls-1" d="M328.43,250.17c-7.77-9.33-18.83-11.84-29.69-7.3-1.72.72-5.12-1.3-5.53-2.95-.38-1.51.61-4.69,2.41-5.63,13.97-7.3,30.81-2.66,39.97,10.14,1.16,1.61.47,5.09-.74,6.12-1.42,1.2-5.06,1.26-6.42-.38Z"/>
      <path class="cls-1" d="M228.75,481.23c18.65.72,23.84-15.21,27.47-16.65,1.61-.64,5.3.86,5.89,2.38,2.69,6.92-13.15,25.11-33.43,24.43-13.25-.44-25.19-8-30.98-20.88-.76-1.69,1.03-5.08,2.55-5.71,2.25-.93,5.53.27,6.73,2.55,4.51,8.6,12.84,13.53,21.77,13.87Z"/>
      <path class="cls-1" d="M109.98,384.89c-13.97,19.09-37.89,23.77-58.32,13.03-15.46-8.12-25.21-24.34-27.22-40.49-2.31-18.55,4.43-36.69,18.33-48.26,14.52-12.09,34.31-13.88,50.42-4.37,27.88,16.45,36.13,53.66,16.79,80.1ZM103.41,377.46c13.19-20.4,8.27-47.35-10.77-61.61-13.9-10.41-32.19-9.97-45.06,1.83-11.33,10.39-16.43,25.85-13.33,41.53,2.65,13.39,11.98,26.65,25.86,31.98,16.3,6.26,33.58,1.31,43.3-13.73Z"/>
      <path class="cls-1" d="M239.55,406.88c-14.69,17.51-38.52,20.57-57.14,7.93-24.79-16.84-30.71-52.27-13.35-76.55,13.32-18.64,37.35-24.45,57.02-12.6,28.04,16.89,34.81,55.78,13.47,81.22ZM232.77,400.14c15.59-19.62,12.06-48.36-7.36-63.38-14.66-11.35-34.73-9.85-46.73,4.43-17.13,20.38-12.37,52.07,10.07,66.36,14.72,9.37,32.92,6.56,44.02-7.41Z"/>
    </g>
  </g>
</svg>