<?xml version="1.0" encoding="UTF-8"?>
<svg id="Layer_2" data-name="Layer 2" xmlns="http://www.w3.org/2000/svg" viewBox="0 0 928.75 795.21">
  <defs>
    <style>
      .cls-1 {
        fill: #2c45c9;
      }
    </style>
  </defs>
  <g id="gentrace-sample-file-last-art">
    <g>
      <path class="cls-1" d="M905.37,422.23l14.76-103.69c.85-5.99-.23-10.77-2.58-16.23l-25.44-59.33,1.8-27.18c.66-10.02-6.99-15.05-15.84-16.27l-140.63-19.39c-4.24-.58-8.41-.27-11.82,2.26-2.33,1.72-4.68,6-4.78,9.7l-.72,27.19-39.73,64.29c-3.18,5.15-4.32,9.71-4.89,15.81l-10.9,117.03-19.93-9.12,9.44-258.47c.99-27.24-7.9-52.32-28.08-71.07,9.07-29.13-10.32-46.08-36.25-57.2-21.11-8.55-42.57-13.36-65.41-16.33-41.15-5.36-82.02-5.48-123.31-1.18-21.76,2.27-42.21,6.06-62.61,13.24-25.96,9.85-45.17,25.45-37.74,54.68-18.72,15.59-30.29,37.35-30.67,62.1l-3.85,253.23-23.16-23.73-9.3-98.7c-.88-9.31-2.46-18.23-4.55-26.86-3.81-15.73-18.36-23.98-33.52-20.05l-82.24,21.3c-.91-2.73-2.28-6.3-3.98-7.42-2.18-1.43-4.64-1.25-8.04-.91l-.71-4.91c4.48-1.45,6.14-5.17,4.95-9.27l-8.2-28.41c-1.39-4.81-6.26-8.67-11.75-8.21-17.79,1.5-35.08,6.67-50.66,14.95-6.28,3.34-7.53,9.91-5.73,15.86l8,26.53c1.26,4.19,4.8,5.88,9.31,4.76.88.79,1.71,3.94,1.02,4.79-5.95,3.48-6.39,7.46-3.78,14.41l-26.81,8.35C6.4,272.1-.19,282.21,0,293.43c.14,8.29,2.47,16.24,5.73,23.83l23.05,53.72,23.18,53.18c-29.81,16.78-20.37,63.42-2.15,88.16,6.89,9.35,17.02,14.52,28.01,14.9l5.65,40.09c1.63,11.58,12.38,19.31,24.12,18.17,13.79-1.34,26.67-4.27,40.46-7.42,39.29-8.97,77.31-19.84,115.67-32.73l-.39,46.21c-.11,12.95,5.66,24.64,13.15,34.78,9.82,11.71,21.57,20.28,35.84,26.4l1.1,10.55c.98,9.41,7.35,16.3,16.12,18.77l-.16,7.79c-9.85.42-17.88,6.97-26.41,10.28-28.86,5.51-75.02,11.83-96.51,29.79-5.04,4.21-8.64,11.07-5.56,17.34,3.11,6.31,9.1,10.99,15.38,14.23,27.18,14.03,69.97,21.74,101.46,25.64,91.18,11.29,194.09,11.72,284.5-4.59,24.83-4.48,63.43-13.08,80.18-29.24,6.62-6.39,5.61-16.05-1.29-21.9-19.2-16.31-54.85-22.4-80.61-27.55-8.67-6.31-18.15-9.96-28.93-11.4l.18-8.44c4.16-4.07,5.63-8.82,8.13-13.9,7.22-14.67,28.87-17.12,45.28-38.05,7.68-9.81,12.54-20.82,12.98-33.58l4.08-120.06,16.39,5.96-5.08,56.05c-.77,8.48,4.64,16.06,12.87,18.15l134.03,34.01c4.44,1.12,9.77,2.01,13.96.4l58.85-22.76c6.84-2.64,10.41-9,11.26-15.76l3.29-26.08c10.44-.77,19.24-6.42,25.25-15.12,18.21-26.36,26.19-77.19-7.69-90.99ZM311.47,49.38c8.5-19.94,47.13-29.06,69.65-32.61,51.26-8.09,102.94-7.93,154.11.35,25.14,4.07,74.06,16.05,81.46,39.52,6.9,21.89-14.68,39.25-35.22,47.35-53.68,21.16-128.64,20.65-185.21,9.89-26.15-4.97-59.84-14.7-77.81-33.4-7.93-8.25-11.55-20.38-6.98-31.1ZM266.11,398.37l-.6,51.19c-1.51-1.21-2.94-2.89-3.53-4.47l-15.49-41.7-2.13-24.55,21.75,19.53ZM45.54,230.96l-7.62-24.55c-.4-1.27,1.23-4.03,2.52-4.63,15.17-7.07,30.21-12.14,47.54-12.95l8.17,26.47c-17.8,3.17-35,7.19-50.62,15.67ZM93.42,232.12c-12.56,3.13-23.71,6.41-36.8,10.8l-2.12-6.76c11.72-5.94,23.62-9.08,36.63-11.34l2.29,7.3ZM57.5,506.49c-14.47-19.62-23.08-57.89-3.69-71.87,12.65-9.12,35.79-10.51,42.67.57,1.86,2.99,1.94,6.74.74,9.86-1.03,2.68-4.61,5.57-7.96,5.98l-15.98,1.96c-1.58.19-3.51,2.86-3.45,4.24.05,1.37,2.63,4.02,3.99,3.85l20.12-2.5c5.78-.72,11.72,5.19,12.72,10.56.97,5.18-1.85,10.56-6.34,12.89-10.66,5.52-18.31,2.33-21.37,6.05-.8.98-.15,4.79,1.1,5.07,6.69,1.53,13.58-.18,20-2.29,2.73.45,5.94,4.22,6.6,6.76.9,3.45-.18,7.97-2.59,10.89-8.96,10.86-34.6,14.22-46.57-2.01ZM267.09,533.78c-51.44,17.43-103.19,31.79-156.57,41.85-8.38,1.58-16.6-3.07-17.76-11.58l-5.1-37.48c9.37-2.07,18.09-5.23,23.8-12.47,6.93-8.78,6.82-20.66-2.18-27.79,5.58-5.19,7.9-11.44,6.61-18.39-1.16-6.26-4.62-12.27-12.2-15.84,4.54-7.62,4.98-16.05-.61-23.51-8.94-11.94-26.61-12.23-42.15-8.16l-36.91-84.71c-5.36-12.29-10.14-23.85-13.71-36.6-2.72-9.72,2.38-19.11,12.01-21.95l28.82-8.51c3.12-.92,3.99-3.41,3.11-6.41l-2.27-7.78c17.06-6.64,33.85-11.83,51.77-14.99l2.18,8.56c.43,1.68,4.34,1.42,6.34.9l86.68-22.45c4.02-1.04,9.13-.57,12.36,1.47,5.49,3.47,8.58,9.49,9.65,15.88,2.76,16.59,4.33,32.51,5.83,49.43l9.1,102.66c.55,6.24,1.56,11.46,3.7,17.35l36.67,100.78c2.92,8.03-1.18,17.04-9.16,19.74ZM399.39,726.36c-.07,6.89-6.08,11.36-11.71,14.75-23.25,11.89-79.4,18-92.15-1.87-3.07-4.78-2.1-11.52.3-16.47,7.53-15.57,24.75-22.07,42.1-24.88.86-3.72.98-11.61.83-16.58,19.95,5.27,40.11,9.04,60.91,11.44l-.28,33.6ZM608.13,728.57c2.12,6.61.28,13.65-5.73,18-5.06,3.66-11.05,5.86-17.26,6.69-22.26,2.97-45.13.29-65.73-8.52-7.03-3.01-13.69-9.02-13.61-16.66l.28-33.63c18.89-2.09,37.73-4.83,56.06-9.9-.03,4.62.14,12.39.9,16.65,18.27,1.13,39.65,10.38,45.09,27.36ZM568.72,671.12c-1.49,2.85-3.97,2.12-7.89,3.28-45.38,13.47-113.17,14.45-159.53,7.98l-8.44-1.18c-21.03-2.93-41.64-6.31-61.5-13.22-6.24-2.17-9-4.18-8.21-10.38,17.19,5.92,33.8,10.15,51.87,13.17,63.11,10.52,135.68,11.1,196.95-5.88l-3.24,6.23ZM636.25,348.59l-9.12,252.68c-.4,11.01-6.51,20.29-13.89,28.11-20.21,21.4-54.04,29.44-82.75,33.7-36.44,5.4-72.22,6.05-109.04,2.98-40.56-3.38-97.81-11.61-128.13-37.75-10.95-9.44-19.69-21.92-19.53-36.65l.51-46.71c.03-2.39,1.25-4.56,3.18-5.96,8.17-5.94,11.8-16.47,8.39-26.36l-10.21-29.59c-.29-.83-.43-1.71-.41-2.59l5.5-348.3c.27-17.28,7.29-32.6,18.24-45.02,3.01-3.4,8.3-3.34,11.33.03,17.51,19.44,47.04,28.9,71.96,35.03,32.78,7.54,65.43,10.18,99.2,9.85,30.58-.3,59.8-3.88,88.98-12.25,16.72-5.72,33.74-12.75,45.46-25.28,3.2-3.42,8.69-3.15,11.55.56,11.82,15.37,16.72,33.79,16,53.75l-7.22,199.78ZM642.41,467.47l1.92-49.06,19.49,8.31-4.2,47.29-17.21-6.54ZM805.04,583.05l-135.19-34.09c-4.36-1.1-6.91-3.94-6.65-8.47l12.14-131.01,10.85-115.73,43.7-71.13,1.27-32.61,146.63,20.24c1.77.24,3.85.88,4.67,1.69.96.94,1.6,4.05,1.47,5.52l-2.23,25.39-41.81,75.26c-2.48,4.47-3.7,8.59-4.33,13.73l-12.89,105.27-17.63,145.93ZM874.61,554.92c-.24,1.92-2.68,5.09-4.63,5.84l-55.4,21.38,29.5-237.26,1.87-16.8,40.37-73.3,21.68,51.07c1.11,2.63,2.87,6.21,2.47,9.26l-14.78,105.06c-10.69-1.29-21.28,1.06-28.45,8.85-6.78,7.36-7.91,17.97-2.2,26.26-5.92,3.42-9.72,9.35-10.74,15.08-1.42,7.9.64,14.39,5.87,19.41-7.48,7.15-8.7,18.58-2.3,27.14,5,6.68,12.07,9.85,20.1,11.12l-3.36,26.89ZM912.58,493.11l-6.92,13.83c-8.15,12.56-24.72,16.09-37.09,7.66-3.52-2.4-5.4-6.44-5.59-10.31-.15-3.11,2.11-9.87,6.33-9.58l16.89,1.14c1.44.1,3.59-2.85,3.62-4.18.15-6.66-12.78-.88-22.06-7.71-4.55-3.35-5.71-8.69-3.79-14.17,1.31-3.73,5.77-8.97,10.89-8.56l16.32,1.29c1.52.12,4.27-2.14,4.42-3.64.72-7.19-11.8-3.15-19.97-6.59-6.3-2.66-6.17-11.35-2.33-16.04,4.17-5.09,10.17-6.55,16.64-6.75,13.41-.41,24.94,7.91,27.6,21.26,2.87,14.4.68,28.92-4.97,42.37Z"/>
      <path class="cls-1" d="M512.04,391.83c-1.43-1.34-5.31-1.83-8.29-1.02-30.1,8.16-60.63,7.4-90.03-1.32-2.71-.8-5.97-.44-7.88.93-1.82,1.31-3.32,4.51-3.48,7.32-1.85,32.4,24.11,58.86,55.97,59.16,31.36.3,58.17-25.88,56.58-57.96-.13-2.7-1.43-5.76-2.88-7.12ZM454.69,446.17c-24.21-2.18-42.74-22.16-42.26-46.46,30.28,9.06,60.38,9.66,92.07,1.5.56,26.74-23.18,47.35-49.8,44.96Z"/>
      <path class="cls-1" d="M531.75,286.3c-8.55-2.57-17.25,2.74-21.18,10.74-10.27,20.87-5.47,53.84,14.03,55.23,18.69,1.33,27.46-28.3,20.77-50.67-2.04-6.82-6.74-13.22-13.62-15.29Z"/>
      <path class="cls-1" d="M412.87,298.99c-2.62-6.62-7.86-12.58-14.89-14.05-8.74-1.82-16.94,4.22-20.17,12.54-8.42,21.68-.78,54.11,18.77,53.8,18.73-.3,24.9-30.58,16.29-52.29Z"/>
      <path class="cls-1" d="M514.04,232.42c-1.75,1.1-3.32,3.85-3.24,5.44.1,1.84,2.25,4.48,3.84,4.59,1.57.1,4.3-.76,5.8-1.7,8.87-5.55,20.15-2.08,26.24,6.63,1.88,2.68,5.45,2.6,7.41.95,1.35-1.13,2.09-4.77.91-6.61-8.98-14-26.95-18.11-40.96-9.29Z"/>
      <path class="cls-1" d="M392.46,250.33c2.42,1.26,5.93-.46,6.76-2.45.84-2.01-.13-5.43-2.41-6.64-12.09-6.41-27-3.97-35.98,6.13-2.16,2.43-2.29,6.12-.18,7.98,1.83,1.62,5.35,1.06,7.06-.85,6.47-7.2,15.79-8.83,24.75-4.17Z"/>
      <path class="cls-1" d="M616.15,137.62c-20.86,12.89-56.6,22.7-88.09,26.4-5.71.67-5.26,4.12-5.04,5.37.19,1.04,4.89,3.36,6.18,3.26,45.41-3.66,76.76-15.93,90.94-26.17,6.04-4.37,2.61-7.67,1.7-8.8-1.19-1.47-3.93-1.15-5.69-.06Z"/>
      <path class="cls-1" d="M355.45,81.94c56.06,24.63,157.42,27.13,214.84,5.1,11.79-4.52,26.16-13.08,25.69-24.45-.43-10.35-17.37-19.86-28.84-24.22-12.47-4.74-24.77-7.92-38.22-10.24-47.69-8.21-96.07-8.21-143.7.3-14,2.5-26.62,6.37-39.18,12.33-4.56,2.16-8.87,5.87-12.01,9.52-10.39,12.09,6.69,25.18,21.43,31.65ZM354.31,47.03c44.88-17.69,116-17.04,164.52-10.51,18.12,2.44,34.94,6.52,51.48,13.47,7.06,2.97,17.68,9.87,17.93,13.75.33,5.1-14.74,13.49-24.21,16.92-34.34,12.45-75.91,12.9-112.75,11.6-8.65-10.68-24.71-25.04-21.38-34.76,3.92-11.46,33.3-13.39,49.66-8.21,10.48,3.32,18.32,10.93,24.93,19.28,5.88,7.43,2.46,16.14,8.93,15.5,5.41-.53,4.07-12.13-1.17-19.41-7.32-10.16-16.97-19.5-29.23-23.8-16.28-5.71-35-4.31-50.29,2.54-11.52,5.16-15.1,17.95-9.02,28.05,4.5,7.47,9.77,13.32,15.88,20.18-30.71-2.73-69.29-7.94-93.9-24.62-3.05-2.07-5.77-5.29-7.09-8.8,4.08-5.16,9.56-8.76,15.71-11.19Z"/>
      <path class="cls-1" d="M457.89,61.94c-4.62,2.07-7.35,6.11-7.61,10.63-.26,4.52,2.38,8.73,6.9,11.06,13.94,7.2,35.58,4.48,37.32-7.43,1.8-12.29-19.92-21.73-36.61-14.26ZM461.08,76.62c-1.88-.97-3.98-5.05-1.96-6.31,8.74-5.41,23.46-2.5,27.03,4.29,1.52,2.89-12.33,8.6-25.08,2.02Z"/>
      <path class="cls-1" d="M222.89,427.1c-4.74-12.58-8.2-24.77-9.12-38.27l-3.57-52.09-2-44.38-2.15-22.34s.04,0,.04,0c-1.24-15.6-2.28-24.61-20.59-19.02,0,0,0,.04.03.1l-56.63,14.5c-2.62.67-3.89,3.62-2.61,5.99.02.03.03.06.05.09.91,1.65,2.82,2.48,4.64,2.02l56.74-14.3c.05.18.08.29.08.29,2.63-.7,5.68-1.76,7.76-1.73.66.8,1.4,4.13,1.66,5.92.36,2.22.64,4.53.9,6.86,0,0,.03,0,.08,0,1.4,11.95,1.9,23.71,2.54,35.96l3.86,73.56c1.06,20.15,6.3,37.9,13.37,56.57l22.77,60.13c3.86,7.38,12.29,4.92,8.78-2.46l-26.62-67.41Z"/>
      <path class="cls-1" d="M72.92,376.89l-23.73-48.17c-3.43-6.96-7.68-16.95-8.69-24.6-1.51-11.4-9.25-6.77-7.38,4.92.65,4.03,4.45,12.98,7.98,20.17l27.85,56.79,9.05,21.34c2.54,4.63,9.92,2.87,7.46-2.05l-12.54-28.39Z"/>
      <path class="cls-1" d="M741.42,227.07l121.6,17.16c1.9.27,3.67-1.06,3.94-2.96s-1.06-3.67-2.96-3.94l-121.6-17.16c-1.9-.27-3.67,1.06-3.94,2.96s1.06,3.67,2.96,3.94Z"/>
      <path class="cls-1" d="M816.54,319.8l-110.01-23.65c-2.28-.49-4.51,1.06-4.82,3.38-.01.1-.02.19-.03.29-.21,1.99,1.19,3.81,3.14,4.23l109.94,23.95c2.02.44,4.08-.71,4.67-2.69.07-.25.14-.5.2-.75.5-2.16-.92-4.29-3.08-4.76Z"/>
      <path class="cls-1" d="M859.56,330.5l40.08-9.96c1.58-1.13,2.92-4.28,2.11-5.7-.58-1.02-2.89-1.66-4.26-1.31l-38.54,9.77c-1.94.49-3.74,2.12-3.62,3.87.09,1.2,2.71,2.97,4.23,3.33Z"/>
    </g>
  </g>
</svg>