<?xml version="1.0" encoding="UTF-8"?>
<svg id="Layer_2" data-name="Layer 2" xmlns="http://www.w3.org/2000/svg" viewBox="0 0 945.8 808.81">
  <defs>
    <style>
      .cls-1 {
        fill: #2c45c9;
      }
    </style>
  </defs>
  <g id="gentrace-sample-file-last-art">
    <g>
      <path class="cls-1" d="M612.21,800.58c-97.83,10.94-195.33,10.97-292.62.09-28.5-3.19-124.95-16.5-127.29-43.72-2.1-24.39,70.98-37.57,94.28-40.63,11.58-10.1,26.33-14.29,41.35-15.18l-.32-25.73c-12.48-5.01-23.6-11.61-33.13-20.64-6.95-6.55-10.9-14.36-11.95-23.86l-8.71-78.52c-39.3,33.44-98.03,32.16-142.32,9.04-20.88-11.94-36.74-27.8-37.36-52.88l-42.31,5.28c-16.4,2.04-29.94-10.31-31.22-26.57L.37,339.32c-2.29-16.72,6.12-33.97,24.18-36.33l192.72-25.19c10.74-1.4,19.81,1.94,27.81,9.22l-9.05-86.53c-11.8-5.4-30.66-17.65-29.81-28.93l4.35-57.95c.85-11.27,22.93-21.1,35.7-25.7l3.43-37.06c1.55-16.76,35.32-27.5,52.6-31.98,25.92-6.72,51.61-10.59,78.36-13.51,68.56-7.47,149.08-7.71,217.19,2.93,25.86,4.04,83.9,14.91,86.03,42.32l2.76,35.52c15.73,5.98,33.84,12.27,34.97,29.91l3.49,54.6c.77,12.02-16.31,23.72-27.95,29.58l-7.43,78.34c3.97-.42,7.88-1,12.12-.3l221.72,36.3c14.06,2.3,24.7,15.8,21.74,30.37l-33.1,162.64c-3.01,14.79-15.16,26.74-31.05,24.11l-64.88-10.74c-3.93,24.02-18.87,38.54-39.33,50.16-38.09,19.6-88.26,27.12-126.75,4.5l-6.47,67.6c-.78,8.12-7.34,13.88-12.58,19.24-9.9,7.2-20.15,12.25-31.87,16.62l-.26,23.95c12.75,1.1,24.36,5.16,34.9,12.21,22.45,3.02,43.99,6.88,65.4,13.61,15.17,4.77,41.5,15.81,36.53,30.91-8.29,25.19-93.81,37.5-123.64,40.84ZM615.13,84.49c13.47-3.1,25.76-7.13,38.22-12.66,5.89-2.62,11.18-6.25,15.61-10.73,4.69-4.74,4.88-11.7-.03-16.58-15.64-15.54-58.98-23.14-83.4-26.42-52.92-7.11-105.71-8.2-159.03-5.1-35.73,2.08-70.33,5.98-105.23,13.16-18.12,3.73-45.67,10.58-57.9,21.97-3.76,3.5-3.66,8.63.03,12.22,13.53,13.19,41.98,20.91,61.87,25.3,85.84,18.94,204.21,18.58,289.86-1.15ZM674.4,71.27c-13.97,12.35-37.76,19.7-55.88,23.99-77.12,18.24-170.14,19.27-248.73,9.76-25.59-3.67-50.06-7.77-74.45-15.67-13.29-4.3-25.6-9.44-36.74-18.04l-5.22,64.66,26.25,8.71c94.88,25.97,205.49,29.08,302.62,15.12,26.85-3.86,52.53-9.61,78.29-17.19l18.83-7.33-4.98-64.02ZM709.97,114.07c-1.35-6.2-13.77-12.47-22.5-15.57l2.48,32.78c8.75-4.11,21.31-11.32,20.03-17.21ZM242.61,131.89l2.62-31.57c-8.47,3.11-15.04,6.8-21.73,11.69-6.62,7.82,7.63,14.37,19.11,19.88ZM701.97,184.5c5.06-3.12,10.19-7.73,12.16-12.88l-2.69-40.31c-7.63,5.31-14.69,9.86-23.09,12.89l-31.52,11.4c-117.28,33.41-290.11,32.44-404.45-7.82-11.77-4.14-22.39-8.96-32.71-15.96l-2.56,36.47c-.26,3.68,1.56,6.87,4.09,9.56l12.24,8.68c13.98,7.71,28.17,13.4,43.61,18.24,90.43,28.34,200.69,31.72,294.31,18.73,40.89-5.68,95.74-17.48,130.61-39.01ZM756.19,477.7c-7.24-3.47-15.6-.25-17.62,7.43,3.68,8.05,5.77,15.87,7.1,24.74-.76,2.9-2.86,4.67-5.76,4.57-6.81-.23-3.54-15.25-12.88-27.5-3-3.93-7.62-5.93-12.07-4.74-3.79,1.01-7.4,4.93-7.81,9.9-1.42,17.24,3.44,35.46,14.64,48.73,2.18,2.59,4.19,4.47,2.18,7.63-4.89,7.68-17.4-7.74-21.53-19.78-21.07,6.28-40.12-.01-57.69-11.59l2.31-21.02c-11.29-5.33-16.45-16.7-13.91-28.9l33.89-163.18c1.71-8.22,4.76-14.77,10.97-19.84l7.53-78.35c-38.27,16.22-79.51,24.58-120.98,30.19-60.39,7.68-120.81,8.16-181.4,1.93-46.24-5.41-92.44-14.03-135.55-31.99l14.05,130.83,12.83,117.68,4.35,42.6,15.08,136.35c.57,5.19,4.98,10.09,8.4,13.36,17.94,17.16,50.64,26.9,75.54,31.98,51.45,10.5,103.93,12.12,155.97,4.64,28.81-4.14,68.45-13.19,90.65-30.03,6.99-5.3,8.62-11.7,9.36-19.93l6.42-70.83c.1-1.15,1.7-3.6,2.74-3.48l3.83.43c10.85,9.44,23.64,14.22,37.75,16.9,18.23,3.13,36.29,1.74,54.28-2.79,36.93-9.31,74.18-31.82,66.63-73.64-1.55-8.58-4.53-15.58-11.61-21.23-5.27-4.2-17.83-3.38-18.19,4.47,3.06,11.87,10.6,32.28-.28,30.94-2.52-.31-4.17-2.56-4.42-5.27-1.14-12.21-4.77-24.93-14.79-31.21ZM180.35,459.13c11.1,2.65,17.85,12.52,15.69,23.19l6.25,1.75,45.41-5.91c10.53-1.37,17.42-10.53,15.96-21.19l-12.38-90.1-8.39-58.08c-1.66-11.46-9.63-21.51-22.96-19.8l-191.23,24.58c-12.53,1.61-19.03,11.34-17.38,23.52l20.32,149.52c1.1,9.32,8.95,17.36,18.68,16.12l45.12-5.77c3.51-17.02,15.34-30.99,31.87-35.52,9.54-2.62,18.85-.38,25.79,5.77,7.95-6.53,17.36-10.43,27.25-8.06ZM805.92,474.94c8.35,9.53,10.9,22.12,10.98,34.6l65.19,10.99c8.49,1.43,16.74-4.22,18.46-12.57l33.71-163.11c2.18-10.56-5.06-18.05-14.91-19.66l-217.76-35.54c-9.25-1.51-20.39,2.28-22.52,12.45l-35.04,167.55c-1.6,7.64,2.75,16.23,10.63,17.51l41.45,6.77c.63-4.88,1.65-9.32,4.15-13.27,6.64-10.51,20.21-12.88,30.46-4.93,9.95-12.93,25.16-13.52,37.56-2.74,10.84-11.07,27.31-9.82,37.63,1.94ZM266.15,481.44c-4.7,3.41-9.25,5.64-13.86,7.58-7.04,20.48-17.97,34.28-40.62,32.02-3.05,11.14-11.91,27.03-19.52,22.98-1.52-.81-2.59-4.38-1.16-6.12,12.91-15.75,16.43-40.05,5.93-44.4-7.49-3.1-14.2,5.9-19.14,13.78-1.74,2.77-4.64,3.7-7.47,1.95-6.56-4.07,5.05-16.35,12.24-23.48,2.69-2.67,3.6-7.44,2.12-10.77-3.26-7.38-14.08-7.6-22.87-.85-10.33,7.94-16.54,19.08-20.29,31.39-.78,2.57-4.89,3.54-7.03,2.51-6.73-3.22,3.65-23.57,10.64-32.74-7.41-7.21-20.57-3.35-28.13,4.07-15.27,14.99-15.83,39.22-1.67,55.44,7.42,8.5,16.43,14.6,26.89,19.44,41.06,18.99,96.87,18.63,130.05-15.4l-6.1-57.41ZM233.14,503.02c2.87-3.95,5.04-7.62,7.11-12.36l-28.89,3.83c2.04,5.27,2.63,10.31,1.98,15.59,7.58,1.48,14.26-1.38,19.79-7.05ZM698.71,518.14l-2.49-12.68-38.75-6.1-1.46,12.27,13.86,5.68c9.24,3.79,19.61,3.8,28.84.84ZM376.51,756.18c6.19-2.17,11.05-5.99,13.97-11.52,2.9-8.76,1.02-17.73-4.88-24.98l1.57-27.56c-16.75-2.97-32.54-6.77-48.76-12.5l.33,28.49c.02,1.92-2.28,4.07-4.15,4.23-18.73-1.57-44.24,7.03-48.31,25.2-1.52,6.81,1.02,12.97,6.59,17.08,19.07,14.06,60.01,9.84,83.64,1.57ZM629.38,758.53c8.54-4.85,11.41-14.07,7.5-22.73-6.49-14.39-28.14-22.18-44.8-21.84-1.63-.31-3.95-2.42-3.94-3.96l.19-26.88-48.79,10.89,1.5,26.36c-2.17,4.51-4.84,9.32-5.94,14.08-1.64,13.19,7.21,20.59,19.59,24.61,21.4,6.95,55.6,10.32,74.69-.53ZM529.9,709.74l-1.19-14.18c-44.14,5.66-87.27,4.83-130.58-1.53l-.95,15.61c45.24-1.75,88.63-1.74,132.72.11Z"/>
      <g>
        <path class="cls-1" d="M631.55,51.12c9.91,21.46-69.06,26.26-73.42,5.2-4.13-19.94,64.89-23.68,73.42-5.2ZM619.45,54.34c-16.57-5.97-33.05-5.26-48.93.24,15.83,5.83,33.79,5.66,48.93-.24Z"/>
        <g>
          <path class="cls-1" d="M506.62,470.79c-1.78,28.57-17.65,58.56-47.25,57.45-29.04-1.09-43.3-29.97-45.68-57.59-.15-1.77,1.55-4.6,2.78-5.52,1.46-1.09,5.31-1.62,7.2-.75,23.69,10.94,49.69,10.81,73.47.22,1.45-.65,4.94-.2,6.21.51,1.43.81,3.4,3.69,3.27,5.67ZM468.21,516.09c9.64-2.78,16.24-10.08,20.24-18.67-17.81-6.19-38.14-5.95-53.82,4.09,6.99,11.63,20.04,18.49,33.59,14.58Z"/>
          <path class="cls-1" d="M414.8,369.85c9.92,22.53,1.42,53.91-16.72,53.4-18.86-.53-25.91-33.92-13.86-55.72,3.22-5.82,9.36-9.82,15.72-9.26s12.14,5.42,14.85,11.58Z"/>
          <path class="cls-1" d="M514.13,423.74c-20.02-9.76-17.57-58.85,4.39-63.3,7.29-1.48,13.85,2.71,17.47,9.45,7.83,14.61,7.07,33.82-2.11,47.69-4.36,6.59-12.58,9.66-19.75,6.16Z"/>
          <path class="cls-1" d="M540.78,323.48c-6.67-8.72-17.03-10.26-25.95-4.39-1.41.93-4.57.41-5.6-.68-1.52-1.61-1.46-5.1.44-6.6,12.31-9.78,29.98-6.74,38.66,6.44,1.08,1.63.33,4.9-1.01,6.12-1.27,1.15-5.06,1.05-6.55-.89Z"/>
          <path class="cls-1" d="M408.81,317.87c-8.96-5.59-19.46-3.76-26.46,4.08-1.4,1.56-4.09,2.1-5.86,1.23-1.6-.78-2.82-4.13-1.62-5.95,8.59-13.04,26.16-16.45,38.69-7.19,1.72,1.27,2.04,4.62,1.12,6.2-.81,1.39-4.25,2.64-5.86,1.63Z"/>
        </g>
      </g>
      <g>
        <g>
          <path class="cls-1" d="M728.11,404.22v10c9.37,0,18.4,3.69,24.76,10.11,4.12,4.16,6.44,9.26,6.95,15.21l-59.5-9.84c4.23-7.91,11.88-13.24,21.72-14.95,1.99-.35,4.03-.52,6.07-.52v-10M728.11,404.22c-2.6,0-5.2.22-7.78.67-15.44,2.69-27.51,12.61-31.93,27.7-.57,1.96,1.2,5.46,3.37,5.82l72.56,12c3.49-.34,5.27-2.38,5.48-5.13.79-10.56-2.31-20.39-9.83-27.99-8.41-8.49-20.04-13.08-31.87-13.08h0Z"/>
          <path class="cls-1" d="M758.26,393.51c-13.54,8.96-31.51,5.08-39.17-8.89-7.76-14.16-3.12-32.52,10.19-41.25,8.03-5.26,17.2-6.4,26.33-2.64,7.33,3.02,13.78,9.76,15.85,19.08,2.81,12.61-1.91,26.24-13.2,33.7ZM754.77,382.69c6.42-5.86,8.53-15.02,5.48-22.91-2.14-5.52-7.17-9.11-12.15-10.12-5.85-1.18-11.48.61-15.74,4.84-5.47,5.44-7.65,13.3-5.65,20.78,1.62,6.05,6.43,10.26,11.54,11.67,6.01,1.67,11.69.15,16.53-4.27Z"/>
          <path class="cls-1" d="M872.25,428.82l-69.04-11.75c-2.44-.41-4.07-3.84-3.64-5.76.53-2.35,2.65-4.04,5.45-4.58l69.38,11.61c3.4.57,5.09,3.46,4.53,6.4s-3.28,4.65-6.68,4.07Z"/>
          <path class="cls-1" d="M883.43,376.92c3.31.55,4.74,3.9,4.4,5.97-.49,3.02-3.2,5.04-6.61,4.47l-67.93-11.38c-3.21-.54-5.01-3.15-4.76-5.8.28-2.89,3.15-5.15,6.47-4.6l68.43,11.34Z"/>
        </g>
        <g>
          <path class="cls-1" d="M97.42,410.73v10c2.98,0,5.98.37,8.92,1.1,6.6,1.63,11.09,5.69,13.7,8.81,1.35,1.61,2.35,3.17,3.08,4.52l-55.97,7.6c.91-4.32,3.53-10.61,8.72-14.66,6.17-4.81,13.62-7.36,21.56-7.36v-10M97.42,410.73c-9.92,0-19.65,3.19-27.71,9.48-13.83,10.8-16.52,33.37-8.29,33.37.21,0,.43-.02.66-.05l66.65-9.05c2.24-.3,4.65-1.31,5.31-2.41,3.21-5.32-6.29-25.24-25.31-29.95-3.75-.93-7.55-1.39-11.32-1.39h0Z"/>
          <path class="cls-1" d="M114.48,375.79c0,15.59-12.64,28.22-28.22,28.22s-28.22-12.64-28.22-28.22,12.64-28.22,28.22-28.22,28.22,12.64,28.22,28.22ZM103.84,375.84c0-9.72-7.88-17.6-17.6-17.6s-17.6,7.88-17.6,17.6,7.88,17.6,17.6,17.6,17.6-7.88,17.6-17.6Z"/>
          <path class="cls-1" d="M155.02,401.26c-3.02.41-5.52-2-5.88-3.86-.58-3.03,1.21-5.95,4.46-6.38l62.59-8.28c3.02-.4,5.8,1.68,6.2,3.83.75,4.06-1.85,5.9-5.39,6.37l-61.98,8.32Z"/>
          <path class="cls-1" d="M150.8,361.79c-3.76.5-6.12-.68-6.96-3.54-.7-2.38.72-5.98,3.98-6.41l63.49-8.42c3.01-.4,5.5,1.72,5.85,4.05.41,2.7-1.28,5.62-4.34,6.03l-62.02,8.29Z"/>
        </g>
      </g>
    </g>
  </g>
</svg>