<?xml version="1.0" encoding="UTF-8"?>
<svg id="Layer_2" data-name="Layer 2" xmlns="http://www.w3.org/2000/svg" viewBox="0 0 898.39 820.71">
  <defs>
    <style>
      .cls-1 {
        fill: #2c45c9;
      }
    </style>
  </defs>
  <g id="gentrace-sample-file-last-art">
    <g>
      <g>
        <path class="cls-1" d="M690.35,504.14c-1.92-.92-1.29-5.79.16-6.88,1.94-1.44,5.47-1.22,8.67.15l-12.53-27.16c-1.19-2.58-5.63-4.65-8.12-4.7-2.85-.06-6.64,1.77-8.33,4.3l-13.46,20.15c-2.05,3.06-5.07,4.09-7.55,2.67-4.56-2.61-3.25-5.98-1.01-9.27l13.54-19.98c4.14-6.1,11.41-8.89,18.73-8.27,6.36.53,13.14,4.54,16.18,11.19l12.18,26.65c1.18-3.67,2.14-5.89,4.57-6.89,2.28-.94,6.95,1.5,6.12,4.46l-5,17.72c-1.08,3.82-5.63,4.79-8.72,3.3l-15.43-7.44Z"/>
        <path class="cls-1" d="M627.88,555.93l27.3,2.87c1.24.95,2.33,3.81,2.36,5.17.03,1.55-2.12,5.12-3.94,4.94l-26.3-2.55c-6.29-.61-11.8-4.96-14.42-9.29-3.48-5.75-4.29-13.25-.58-19.02l14.94-23.21-6.6.7c-1.45.15-3.21-3.16-3.24-4.64-.03-1.69,2.14-4.47,4.03-4.96l15.69-4.12c4.21-1.1,6.98,1.93,7.57,5.63l2.34,14.83c.49,3.13-.5,6.04-3.8,6.52-2.56.37-4.88-1.69-5.84-4.4l-1.21-3.43-13.76,20.51c-1.43,2.13-1.81,6.69-1.05,8.83s3.37,5.3,6.52,5.63Z"/>
      </g>
      <g>
        <path class="cls-1" d="M539.24,355.3c11.47,20.98,2.51,52.22-16.11,52.46-6.35.08-12.19-3.36-15.61-9.43-7.67-13.6-7.58-31.45.91-44.57,3.64-5.63,9.61-8.71,15.54-8.54,6.26.18,11.91,3.94,15.27,10.08Z"/>
        <path class="cls-1" d="M393.47,109.55c0,2.09-2.8,5.09-4.45,4.95s-4.56-2.86-4.56-4.62l-.06-32.56c0-2.19,2.56-5.04,4.57-5.07s4.61,2.98,4.6,4.93l-.1,32.38Z"/>
        <path class="cls-1" d="M408.61,396.62c-3.81,5.54-9.6,8.04-15.34,7.8s-11.13-3.66-14.45-9.39c-12.11-20.89-3.2-51.73,14.49-52.99,6.05-.43,12,2.14,15.67,7.63,9.23,13.8,9.29,32.9-.37,46.95Z"/>
        <path class="cls-1" d="M442.2,118.65c-.01,1.61-2.64,4.11-3.87,4.39-1.47.35-4.79-2.07-4.78-3.7l.21-32.65c0-1.51,2.42-4,3.75-4.3,1.6-.36,4.92,2.21,4.91,4.03l-.22,32.23Z"/>
        <path class="cls-1" d="M497.66,448.54c1.48-2.01,4.41-2.99,6.15-1.68,9.4,7.1-8.83,23.43-26.98,29.17-24.53,7.76-51.92.48-65.96-21.19-5.55-8.56,2.77-13.89,7.86-7.83,9.82,11.72,22.64,19.43,37.93,20.08,16.11.69,31.22-5.26,41.01-18.55Z"/>
        <path class="cls-1" d="M403.88,300.56c-9.49-2.59-18.42.41-25.22,7.02-5.55,5.4-11.52.71-5.76-6.75,5.22-6.76,19.76-14.89,36.51-9,3.16,1.11,2.82,3.56,2.3,6.01s-5.32,3.41-7.83,2.72Z"/>
        <path class="cls-1" d="M417.51,116.7c-.02,1.74-3.42,3.92-4.82,3.59s-3.92-3.03-3.91-4.59l.15-32.65c0-1.71,2.51-4.58,4-4.86,1.74-.32,5.04,2.74,5.01,4.9l-.44,33.61Z"/>
        <path class="cls-1" d="M541.07,315.41c-6.36-6.44-15.46-9.83-23.81-6.58-6.81,2.66-11.29-6.09-2.76-9.86,11.69-5.18,25.14.32,33.39,10.3,1.24,1.5,1.34,3.67.25,5.29-.05.08-.11.16-.16.24-1.6,2.32-4.94,2.61-6.92.61Z"/>
      </g>
      <g>
        <path class="cls-1" d="M879.96,431.69l-153.93-52.26c-5.03-1.71-8.58-5.78-9.42-9.53-1.16-5.15-.22-10.92,4.01-14.63l117.89-103.45c4.75-4.17,11.94-3.84,16.99-2.02s10.41,6.22,11.66,12.44l31.07,154.43c.89,4.42-2.34,9.52-5.17,12.12-2.51,2.31-7.89,4.68-13.11,2.91ZM730.76,369.99l71.33,24.21-3.26-12.44c-.99-3.79,1.49-8.78,4.31-11.14l14.48-12.1c1.99-1.66,5.26-1.88,7.28-.89,1.57.76,3.6,5.56,2.23,6.66l-16.11,12.88c-1.39,1.11-2.22,4.6-1.62,6.38l5,14.82,66.77,22.68c1.2.41,3.67-.05,4.54-.73s1.9-3.3,1.64-4.58l-30.42-150.74c-.57-2.84-4.93-5.52-7.18-5.73-2.37-.22-5.22,1.15-7.5,3.15l-78.24,68.57c6.24,6.96,15.93,8.34,24.53,4.79l16.67-6.88c14.99-6.18,31.12.42,37.78,14.98,1.45,3.16,2.56,5.89,3.06,9.85.23,1.84-4.42,4.11-6.21,3.59-1.61-.47-3.97-2.99-4.49-4.99-3.02-11.51-14.21-18.48-25.49-13.95l-18.65,7.49c-12.5,5.02-26.26,1.73-35-8.32l-27.56,24.5c-.91.81-1.74,3.3-1.54,4.36s1.98,2.98,3.67,3.55Z"/>
        <path class="cls-1" d="M827.01,382.38c-1.43,1.09-5.09.5-6.48-.53s-2.23-5.46-.54-6.8l15.21-12.1c6.32-5.03,14.33-5.64,22.42-3.65l-1.05-7.01c-.21-1.42.76-3.93,1.79-4.87,1.33-1.21,5.94-.65,6.34.97l4.7,19.16c.34,1.39-.8,4.32-1.95,5.15-3.99,2.9-15.5-9.32-26.4-1.02l-14.05,10.7Z"/>
      </g>
      <g>
        <path class="cls-1" d="M110.88,442.74c-1.74,2.32-10.68,3.83-14.04.03l-12.82-111.58c3.93-4.09,10.45-4.69,15.35-1.58l12.39,108.27c.18,1.54-.2,3.94-.89,4.86Z"/>
        <path class="cls-1" d="M133.92,439.99c-1.56,2.16-5.02,2.46-8.2,1.21-1.32-.52-2.36-3.33-2.59-5.28l-12.57-107.23c-.42-3.6,7.97-6.13,11.68-1.12l12.46,107.17c.19,1.63-.07,4.25-.78,5.24Z"/>
        <path class="cls-1" d="M200.49,431.12c-3.68,4.42-8.95,4.59-13.65,1.98l-13.01-112.37c3.94-3.71,9.33-4.35,13.84-1.63l12.82,112.02Z"/>
        <path class="cls-1" d="M177.7,433.19c-2.79,4.87-8.35,5.35-13.07,2.59l-12.93-112.63c3.13-3.69,9.72-4.15,13.55-1.25l12.45,111.28Z"/>
        <path class="cls-1" d="M155.39,434.96c.32,2.69-2.94,4.39-4.5,4.66-1.76.31-6.63-.13-6.9-2.5l-12.6-110.9c-.46-4.04,10.23-5.32,11.06-1.53l12.94,110.26Z"/>
        <path class="cls-1" d="M76.5,445.77l-10.76-87.86-2.85-24.43c.06-1.45,3.36-3.37,4.74-3.39s4.44,1.01,5.43,2.35l12.88,111.82c-.61,3.36-7.12,4.47-9.44,1.51Z"/>
        <path class="cls-1" d="M218.99,428.11c.28,2.48-2.65,4.16-3.98,4.34-1.55.21-5.47-.88-5.69-2.8l-12.81-111.04c1.17-1.9,3.1-3.29,4.68-3.59,1.39-.27,5.17,1.17,5.35,2.69l12.45,110.39Z"/>
        <path class="cls-1" d="M65.73,445.13c.35,2.96-2.21,4.93-4.25,4.82-2.44-.12-3.82-2.01-4.14-4.74l-12.6-106.99c-.3-2.58,1.04-4.87,2.94-5.6,1.46-.55,4.99.78,5.23,2.86l12.82,109.64Z"/>
        <path class="cls-1" d="M237.08,424.4c.27,2.42-.74,4.43-1.69,5.26-1.11.97-5.86.39-6.05-1.26l-12.83-110.07c-.33-2.79,1.26-5.26,3.42-5.44,2.7-.22,4.68,1.54,5,4.37l12.15,107.15Z"/>
      </g>
      <path class="cls-1" d="M207.93,776.9c-7.26-10.15,3.56-20.48,15.73-26.2,28.38-13.33,63.64-18.02,95.02-21.95,9.49-5.06,19.55-7.55,30.1-8.18l.02-20.12c-14.2-4.27-27.96-10.01-38.91-20.65-12.33-11.97-19.6-28.03-19.82-45.46l-.84-64.22c-40.93,32.42-95.11,34.12-131.47-3.72-35.95-5.27-53.1-41.41-46.41-75.54l-61.98,6.58c-17.65,1.88-31.28-13.26-32.24-30.11L.28,325.46c-1.94-16.38,6.17-35.97,24.94-38.13l207.87-23.9c15.1-1.74,29.84,11.38,31.46,25.71l17.21,152.34c1.75,15.53-10.27,30.86-25.55,32.7l-56.84,6.83-3.39,6.11c8.54,6.75,11.85,18.16,6.46,28.61,6.49,6.65,15.4,9.57,24.95,10.06,24.44,1.25,47.19-17.42,62.11-35.75l.45-76.14,1.33-97.44c.47-34.52,12.4-66.73,32.47-94.44l16.03-20.47c17.34-22.14,26.5-48.53,25.45-76.78-6.09-4.38-8.92-10.61-8.5-17.99,1.38-24.47.89-48.25.1-72.82-.59-18.09,32.6-26.71,51-29.51,43.77-6.67,88.22-5.92,131.62,2.57,15.84,3.1,42.25,12.63,41.94,27.31l-1.68,78.33c-.14,6.7-5.24,11.73-10.41,15.38-1.09,26.71,6.19,52.76,22.31,74.13l16.97,22.5c18.94,25.11,29.38,54.41,32.13,85.86l.76,45.14-1.72,58.24,102.84,9.03c18.73,1.64,34.91,15.24,34.47,35.69-.43,20.37-3.89,40.58-5.4,61.68,12.09,6.98,20.95,16.99,28.46,28.57,3.96,6.1,7.75,11.73,9.89,18.83,7.5,26.76-1.57,59.2-25.13,74.05-18.12,11.42-41.22,10.43-57.32-3.56-5.39-4.68-8.79-10.35-10.4-17.23l-82.71-7.34-1.5,26.66c-1.85,32.83-27.4,55.67-59.08,63.27l-.7,19.4c8.22.87,15.72,2.51,23.5,5.47l54.3,8.81c15.05,2.44,42.02,11.81,52.43,22.34,5.75,5.82,6.25,13.93.6,19.95-11.89,12.69-36.73,19.62-55,23.82-25.32,5.82-50.23,9.56-76.4,12.06-86.19,8.22-172.41,6.86-258.27-3.93-23.24-2.92-45.19-7.2-67.43-13.42-13.5-3.77-31.46-10.65-38.98-21.15ZM538.49,52.41c11.82-2.2,31.9-8.95,32.11-16.99.23-9-21.2-15.49-33.3-18.05-40.84-8.66-98.92-8.97-139.76-.18-11.45,2.47-31.02,9.09-29.94,17.06,1.15,8.51,20.94,15,32.42,17.26,45.45,8.96,92.3,9.49,138.48.91ZM569.45,113.11l1.37-61.66c-11.57,6.29-23.33,10.04-36.2,12.39-30.75,5.59-61.39,6.09-92.67,4.16-24.6-2.32-53.07-5.17-74.34-18.14l.38,35.35c.09,8.67-1.08,16.77-.27,25.54.9,9.7,29.64,18.51,43.27,21.16,34.95,6.8,70.46,7.48,105.75,2.64,17.34-2.37,43.3-7.91,52.71-21.43ZM624.07,612.53l-25.75-2.32c-18.43-1.66-31.33-15.38-33.1-34.15l11.54-128.24c1.94-21.51,18.05-37.88,40.62-35.92l11.96,1.04,2.01-75.75c1.2-45.26-11.95-83.82-40.65-118.36-20.18-24.29-32.12-53.24-31.82-85.35-13.22,5.98-25.98,8.91-40.12,11.22-35.01,4.93-70.09,4.45-104.93-1.55-13.31-2.8-25.39-6.1-38.01-11.91-.55,30.11-11.13,57.38-30.1,80.22-13.31,16.02-25.02,32.23-32.7,51.79-7.18,18.29-11.34,37.18-11.47,57.34l-1.82,298.82c-.17,27.43,6.22,50.07,31.33,62.91,11.45,5.85,23.28,9.97,36.07,12.01l33.34,5.3c42.13,4.28,83.8,5.2,126.08,1.82,26.17-2.09,60.2-8.03,78.94-25.54,11.26-10.53,17.04-24.98,17.66-40.32l.92-23.07ZM142.27,452.34c13.72-6.07,28.3-6.82,41.54-.9,8.41,3.78,13.98,10.54,15.67,19.43l54.32-6.31c9.66-1.12,19.29-10.82,18.13-21.32l-16.2-147.24c-1.61-14.65-11.42-24.05-26.46-22.33l-196.65,22.45c-12.31,1.41-24.28,9.68-22.68,23.45l17.19,148.15c1.47,12.6,12.5,21.25,25.1,19.78l62.64-7.29c5.02-12.73,14.3-22.33,27.4-27.89ZM673.56,561.36l13.08-10.05c2.54-1.95,6.84.12,7.26,3.05.36,2.53-1.03,4.34-4.39,7.4l23.32,2.2c2.89.27,6.8-1.51,8.49-3.25s3.14-6.47,2.13-8.73l-9.93-22.2c-1.27-2.84.74-6.12,3.51-6.79,2.98-.73,5.5.76,6.76,3.69l6.62,15.36c7.95-8.7,18.8-11.49,30.63-11l6.44-65.81c.87-8.87-.53-16.64-6.26-23.3-5.24-6.1-12.43-8.48-21.2-9.28l-120.93-11.06c-15.2-1.39-30.51,6.43-32.09,23.27l-11.85,126.33c-1.65,17.56,10.69,28.46,27.28,29.93l115.28,10.2c1.45-3.74,3.18-6.48,5.66-9.45-7.1-9.12-5.9-21.82,2.2-30.33-4.68,1.45-9.32,2.89-13.9,2.49l-23.04-2.02c1.6,2.42,3.1,4.38,3.08,5.9-.02,1.79-2.13,4.3-3.61,4.61-1.4.3-4.29-.82-5.29-1.94l-9.9-10.95c-1.91-2.11-2.36-5.93.65-8.24ZM190.63,514.67c5.12-1.09,5.65-9.41,4.38-13.61-3.89-12.96-24.42-13.23-39.88-4.62-1.42.79-5.17.05-5.42-1.35-.22-1.21.57-3.49,1.38-4.86,10.55-6.89,22.28-9.26,34.92-7.44,6.24-4.59,5.76-13.5-.08-18.8-15.72-14.26-49.76-7.21-61.12,16.68-9.13,19.21-6.85,42.33,5.92,59.24,12.41,16.42,34.36,22.19,52.34,12.96,6.65-3.41,11.9-8.87,13.44-15.84,1.38-6.27-1.86-12.23-8.28-13.05-12.83-1.64-20.61,7.85-23.21,2.53-3.23-6.6,13.98-10.88,25.6-11.84ZM289.23,556.62l-.06-50.65c-10.8,10.2-20.28,18.22-32.69,23.82-16.28,7.53-34.58,8.75-50.81.66,1.55,19.7-13.77,31.61-33.71,35.81,36.73,28.58,83.98,22.01,117.27-9.65ZM758.09,609.71c-.81.84-3.71,1.54-4.83.97-9.6-4.92-20.46-7.6-25.47.03-5.76,8.79,2.63,21.02,15.67,26.28,17.55,7.08,36.78,1.11,48.15-14.27,10.64-14.39,13.99-32.95,9.44-50.35-5.46-20.9-24.78-33.88-46.15-32.2-7.75.61-15.17,3.23-19.37,9.68-3.46,5.32-2.57,12.24,2.93,15.51,12.54-1.3,24.5.92,34.45,8.75.49,1.55.68,3.89-.01,4.79-3.48,4.53-11.8-6.47-27.53-5.85-9.75.38-17.21,5.7-17.59,14.65-.14,3.35,2.19,8.63,5.52,10.04,13.54-.6,29.44,7.2,24.8,11.98ZM391.08,768.74c5.48-2.86,11.83-6.9,11.79-13.72l-.28-44.65-43.07-6.89-.25,23.5c-.03,2.65-2.08,4.52-4.9,4.28-17.85-1.14-41.79,7.51-46.57,23.56-8.65,29.04,58.13,25.25,83.27,13.92ZM566.84,733.95c-1.89.11-4.3-2.13-4.26-3.87l.48-23.52-43.37,5.88-1.33,37.66c-.32,8.93,2.05,15.85,10.68,19.88,20.84,9.74,54.07,14.34,75.46,6.31,4.05-1.52,7.83-5.21,9.07-8.21,6.8-16.45-18.74-35.82-46.72-34.12ZM509.25,725.34l.05-12.26c-33.07,1.32-64.55.8-96.42-1.85l.05,14.07,96.32.05Z"/>
    </g>
  </g>
</svg>