<?xml version="1.0" encoding="UTF-8"?>
<svg id="Layer_2" data-name="Layer 2" xmlns="http://www.w3.org/2000/svg" viewBox="0 0 952.26 1006.12">
  <defs>
    <style>
      .cls-1 {
        fill: #2c45c9;
      }
    </style>
  </defs>
  <g id="gentrace-sample-file-last-art">
    <g>
      <path class="cls-1" d="M705.23,934.43c6.51,6.63,5.9,15.47-.13,21.75-20.41,21.26-83.19,32.84-115.4,37.65-59.3,8.85-118.51,12.53-178.7,12.28-65.54-.27-130.12-4.53-194.63-14.95-21.96-3.55-42.58-7.81-63.7-13.85-20.25-5.79-63.04-21.22-46.99-40.74,9.33-11.35,29.58-18.03,44.81-22.77,24.96-7.78,50.17-10.79,75.86-16.06,9.11-1.87,17.49-9.69,27.8-8.93l-1.21-50.55-42.9-1.4c-35.77.87-70.19,6.45-104.72,15.48-1.9.5-5.13.09-6.59-.88s-2.39-3.83-2.55-6.26l-4.36-65.59c-11.21-2.03-21.41-6.22-29.17-14.77-21.5-.39-39.98-12.24-51.03-30.9-13.53-22.85-15.07-50.1-5.43-75.15,12.53-32.57,42.69-57.07,73.82-72.22l-9.91-243.84-1.81-44.53c-.14-3.41,1.69-6.45,5.09-7.47l23.1-6.93-.22-11c-.04-1.83,2.56-5.19,4.25-5.65l27.85-7.51-.7-17.04c-.22-5.22,2.04-7.67,6.79-9.42,51.03-18.82,105.92-23.04,159.54-12.99,39.09,7.33,79.02,21.61,108.15,49.21,12.14-11.65,25.27-20.54,40.29-28,48.69-24.2,103.34-33.14,157.41-27.24,19.33,2.38,36.88,6.9,54.9,13.89,1.32,1.37,2.85,4.13,2.87,5.84l.26,20.3,25.69,5.87c1.64.38,3.35,4.22,3.33,5.88l-.09,9.65c9.38.87,17.97,2.62,26.9,6.22,2.39.97,4.17,3.9,4.15,6.91l-1.03,172.29-.54,106.59c28.13,2.27,48.49-17.66,60.88-41.67-14.11-25.76-15.2-61.06,5.08-82.62,7.73-8.22,17.77-11.87,28.94-12.92l23.95-70.33c2.58-7.57,5.48-14.99,10.6-20.68,5.58-6.2,13.55-9.01,21.54-7.19,16.85,3.83,19.59,23.11,16.29,40.77-3.14,16.82-8.14,32.57-14.25,49.48,12.25-1.7,24.19,4.54,28.28,16.62,1.81,5.36,1.93,10.88,1.76,16.6,13.13-1.12,23.52,8.28,25.22,21.26,2.07,15.81-4.1,31.08-15.4,42.59-4.85,29.46-23.52,56.02-55.22,57.61-23.4,59.91-71.42,103.61-138.36,97.1l-1.52,162.03c-.02,2.48-.38,4.84-1.43,6.33s-4.41,2.35-6.49,1.77c-49.18-13.72-91.32-15.96-141.24-9.54l-1.16,53.58c9.88,1.74,18.91,4.85,27.5,9.69,32.37,5.16,92.42,14.39,114,36.38ZM157.55,727.58c5.75,12.82,3.25,27.82-6.94,37.58l.07,6.89c38.27-9.71,77.55-9.95,116.34-1.5,52.07,11.29,103.59,36.33,140.84,74.95,18.77-21.26,39.93-38.24,64.13-52.07,54.93-30.6,121.62-47.2,183.26-32.04l-4.31-275.83-3.56-248.84c-38.08-13.36-78.06-16.35-117.71-10.62-31.12,4.5-60.18,13.08-87.75,27.71-12.65,7.2-24.53,14.75-34.15,25.59-1.44,1.62-3.52,3.68-5.12,3.83s-4.07-1.42-5.2-2.5l-11.62-11.16c-14.93-11.01-30.71-19.61-48.44-25.99-64.25-23.12-134.59-23.47-199.38-.47l6.02,237.53,3.85,159.2c13.66,8.8,18.2,25.88,11.21,40.71,13.99,12.14,12.66,35.72-1.53,47.02ZM422.62,845.02c24.26-12.13,46.61-22.98,71.41-31.56,59.84-20.55,122.35-29.57,184.31-14.77l-1.38-529.79c-6.3-2.1-12.54-3.45-19.08-3.91l4.36,295.99,3.08,204.65c.07,4.4-3.05,8.18-7.4,7.03-27.21-7.19-54.72-8.37-82.79-4.21-55.78,8.27-114.05,35.42-152.52,76.57ZM137.47,635.13l-3.71-158.41-5.31-206.28c-7.22,1.03-14.39,2.97-22.12,5.81l10.29,311.02,1.78,45.03,19.07,2.84ZM440.44,847.8l4.14,5.35c30.65-10.35,61.14-18.38,92.99-24.46,56.5-10.23,110.77-11.12,166.49,4.48l3.55-542.41c-6.55-2.82-13.62-4.54-20.81-4.72l.27,224.19.93,244.82.33,49.08c0,1.46-1.47,4.17-2.62,4.88s-4.12,1.04-5.78.63c-35.4-8.74-70.83-10.2-107.06-5.07-46.67,6.6-90.83,21.73-132.43,43.24ZM108.23,632.32l-1.74-43.41-9.76-294.62-18.21,5.44,8.14,204.39,6.3,131.14,15.28-2.94ZM849.05,445.58l15.4-39.54c4.21-12.94,7.87-25.5,9.94-39.02,1.78-11.65-.76-23.97-10.42-25.23-10.5-1.37-16.05,10.26-19.56,21.52l-23.16,68.15c11.17,1.73,19.85,6.58,27.81,14.13ZM862.6,498.43c13.34-3.71,23.02-26.17,26.31-40.4,1.38-5.97.87-12.12-1.78-17.44-4.34-8.73-15.04-10.89-22.68-5.29l-8.78,19.63c7.07,12.99,3.26,28.18-8.75,36.57,2.44,6.06,8.88,8.83,15.68,6.94ZM896.94,527.9c-8.36,3.33-17.51,2.63-24.52-3.07-5.02-4.08-7.3-10.32-7.46-16.47-11.88,2.89-22.36-2.35-27.22-13.27,2.01,11.1,1.84,21.16-2.68,31.27-1.39,1.47-3.58,3.01-5.15,3.43-1.46.4-5.07-2.49-4.51-3.91,4.11-10.36,5.61-20.58,1.33-30.79-13.61-3-25.83-15.78-18.87-19.88,2.82-1.66,5.43-.45,7.5,1.97,5.82,6.78,16.52,10.49,24.93,6.4,10.36-5.04,11.75-18.63,4.61-27.5-9.88-12.27-26.79-18.11-42.23-13.76-28.95,8.17-35.47,59.01-9.88,88.78,1.81,2.11.48,6.23-2.06,6.75-2.24.46-4.94-.81-6.89-3.38-6.67,12-14.9,23-26.21,31.15-12.03,8.75-25.85,13.53-41.49,12.2l-.5,85.95c61.72,6.15,104.43-32.76,127.9-86.99l-9.94-3.5c-1.46-.51-1.78-4.89-.85-6.22s3.55-2.22,5.68-1.67c28.39,7.3,50.74-10.35,58.5-37.49ZM894.94,517.87c13.45-7.87,21.41-24.02,19.95-39.09-.88-9.11-9.66-15.91-17.57-12.64-4.84,14.13-11.03,26.85-21.93,37.36-3.55,3.42.39,11.83,3.78,14.09,4.21,2.81,10.25,3.5,15.77.27ZM158.89,703.56c.15-7.03-2.68-15.12-9.46-16.88-13.52-3.5-27.31-2.35-41.28-1.21-2.45.2-4.92-1.72-5.55-3.65-.52-1.61,1.14-5.6,3-5.93,15.05-2.63,29.54-2.19,44.56.14,5.7-12.58-.43-25.7-13.14-30.22-12.43-4.43-25.56-4.29-38.55-1.35-21.98,4.98-37.43,22.24-40.37,44.69-.38,2.94-2.64,5.1-5.32,4.76-2.37-.3-3.96-2.75-3.92-5.43,2-21.72,13.97-40.18,34.09-49.17l-2.17-41.93c-18.99,10.15-35.7,22.28-49.31,38.68-13.29,16.13-21.64,35.13-21.35,56.2.45,32.62,22.61,63.93,56.03,62.12,16.62,20.48,50.69,19.48,72.16,7.4,10.97-6.17,15.88-19.18,9.86-30.26l-37.06,2.25c-3.36.2-6.02-1.39-6.38-4.72-1.04-9.72,20.68-2.25,44.4-8.77,6.77-1.86,9.62-9.68,9.77-16.74ZM391.37,844.25c-9.13-8.9-18.49-16.02-29.1-22.91-30.83-20-64.53-33.68-100.61-41.25-38.32-8.03-76.61-6.79-114.31,3.22-1.98.53-5.84-1.67-6.05-3.45l-.84-7.28-16.1,5.7,1.41,30.16c71.37-20.43,141.38-13.35,210.17,11.69l55.42,24.12ZM123.65,819.55c-4.12,1.19-7.37-1.83-7.55-5.67l-1.6-33.97-12.69.88,4.18,61.05c91.63-24.87,177.62-17.48,266.37,11.32l3.16-5.18c-83.25-38.91-162.84-54.26-251.88-28.42ZM601.49,924.99c-5.56-16.44-26.69-25.45-44.23-27.24-2.85-.53-4.47-3.52-3.42-6.46l1.03-55.18-56.6,11.65,2.51,56.64c-4.59,6.15-7.55,12.62-8.32,20.22-.37,11.06,8.78,18.16,19.25,21.77,39.63,13.63,100.08,9.1,89.77-21.39ZM316.64,941.04c5.11-3.65,8.04-8.6,8.55-14.95.02-7.93-3.01-15.08-8.11-21.48l2.29-55.65-56.38-9.61,1.37,54c-.29,1.95-2.09,3.67-4.1,4.25-18.18,2-40.59,11.87-44.53,29.44-7.67,34.21,74.06,31.86,100.9,14ZM329.39,851.36l-1.5,36.56c54.46-3.67,108.03-3.56,162.23-.64l-1.9-36.98-43.61,13.57c.06,3.99-1.87,9.98-6.25,10.01l-57.19.44c-5.66.04-9.06-4.46-8.54-10.4l-43.24-12.57ZM434.85,864.34l.1-8.12-52.47-.04c-.47,2.45-.39,5.64.12,8.22l52.24-.06Z"/>
      <path class="cls-1" d="M883.35,85.15l-92.11-.34c-3.21,0-5.6-2.27-6-4.97-.29-1.97,2.06-5.96,4.93-5.96l92.97.36c2.99,0,5.26,2.96,5.43,5.19.14,1.86-1.88,5.73-5.23,5.73Z"/>
      <path class="cls-1" d="M732.42,223.43c-2.59,1.09-5.7,1.22-7.43-.37-1.27-1.17-1.96-4.63-1.28-6.62l15.31-44.5c-39.35-55.13-18.29-127.91,40.08-158.1s128.07-10.93,159.45,44.97c9.86,17.55,14.11,36.2,13.67,56.44-2.21,31.16-16.86,59.96-41.3,79.42-38.62,30.75-92.42,34.54-135.01,10.38l-43.49,18.38ZM776.92,193.73c30.99,18.87,67.02,21.69,99.78,8.97,18.85-7.67,34.6-19.48,46.5-35.75,24.77-33.88,25.08-78.71.24-112.81-22.46-30.85-60.17-46.85-98.33-43.24-29.15,2.69-55.55,16.15-73.94,38.55-29,35.31-29.58,84.95-.91,120.73l-14.88,41.47,41.55-17.91Z"/>
      <path class="cls-1" d="M839.93,122.94l-55.97-.04c-3.31,0-5.66-2.4-5.99-5.18-.24-2.08,1.99-5.92,4.96-5.92l57.03.05c2.79,0,5.33,3.01,5.42,5.03.13,3.1-1.93,5.44-5.46,6.05Z"/>
      <path class="cls-1" d="M905.86,122.13l-43.11-.04c-3.31,0-5.66-2.4-5.99-5.18-.24-2.08,1.99-5.92,4.96-5.92l44.17.05c2.79,0,5.33,3.01,5.42,5.03.13,3.1-1.93,5.44-5.46,6.05Z"/>
      <path class="cls-1" d="M867.67,160.68l-56.87-.39c-3.31,0-5.66-2.4-5.99-5.18-.24-2.08,1.99-5.92,4.96-5.92l57.93.4c2.79,0,5.33,3.01,5.42,5.03.13,3.1-1.93,5.44-5.46,6.05Z"/>
      <g>
        <path class="cls-1" d="M474.24,570.86c-2.15,30.9-20.65,62.97-53.01,63.69-16.1.36-30.98-7.27-40.37-20.81-8.79-12.67-13.96-27.21-15.03-42.7-.33-4.77,4.79-9.01,9.05-7.32,27.22,10.76,61.4,11.5,88.38.48,2.07-.84,5.39-1.02,7.02-.21,1.77.88,4.13,4.56,3.96,6.89ZM402.89,619.71c11.79,6.14,26.02,5.44,36.89-1.34,8.68-5.41,14.04-13.68,18.02-23.1-5.99-7-14.18-11.71-23.44-12.85l-27.25.39c-10.05.14-18.98,5.8-24.26,13.67,4.23,9.68,10.17,18.09,20.04,23.24Z"/>
        <path class="cls-1" d="M365.56,448.78c10.61,25.03,5.67,65.47-17.56,66.65-24.34,1.23-31.39-40.91-19.09-67.46,3.54-7.65,10.68-12.13,18.23-12.15s15.07,5.07,18.42,12.96Z"/>
        <path class="cls-1" d="M485.59,488.67c18.59-2.01,44.28,13.07,35.45,21.19-3.12,2.87-6.29,1.44-9.12-1.13-10.46-9.51-25.5-10.95-38.61-5.66-2.74,1.1-6.29.92-7.99-1.04-1.91-2.19-1.7-5.63.02-8.11,11.32-16.38,28.06-27.46,47.86-31.06,3.53-.64,6.54,1.89,6.86,5,.29,2.83-1.62,5.85-4.95,6.42-11.25,1.92-21.37,6.66-29.51,14.39Z"/>
      </g>
    </g>
  </g>
</svg>