<?xml version="1.0" encoding="UTF-8"?>
<svg id="Layer_2" data-name="Layer 2" xmlns="http://www.w3.org/2000/svg" viewBox="0 0 1408.04 648.37">
  <defs>
    <style>
      .cls-1 {
        fill: #2c45c9;
      }
    </style>
  </defs>
  <g id="gentrace-sample-file-last-art">
    <g>
      <path class="cls-1" d="M20.25,265.12c.77.57,3.41-.31,3.36-1.16-.05-.68-.79-2.16-1.34-2.59l-10.62-8.14c-.71-.55-3-.35-3.36.31-.36.66.11,2.72.76,3.21l11.2,8.38Z"/>
      <path class="cls-1" d="M34.57,253.92c.22.81,1.93,2.13,2.68,1.95.74-.18,1.62-2.32,1.37-3.19l-3.75-13.38c-.16-.57-2.84-.85-3.11-.32-.27.53-.72,2.01-.53,2.67l3.34,12.25Z"/>
      <path class="cls-1" d="M17.85,281.11c-.33-.69-2.29-1.91-3.12-1.87l-12.49.65c-.76.04-2.58,1.74-2.19,2.35.39.61,2.18,1.82,2.97,1.78l12.38-.56c.82-.04,2.78-1.67,2.45-2.36Z"/>
      <path class="cls-1" d="M250.01,461.04l5.77-26.6c.91-4.19-4.23-7-7.51-6.96-1.72-3.51-3.91-5.25-7.52-6.06-4.19-13.81-14.58-24.55-27.47-31.14l5.06-68.35c3.88-1.41,9.35-4.46,9.16-8.37-.4-8.5-1.77-16.83-3.84-25-1.17-4.59-8.64-5.56-11.72-7.8l-3.44-16.54c-1.06,2.05-2.74,5.22-2.49,6.65l3.49,20.63-15.22,9c5.1,2.25,8.84-.11,12.67-2.52,4.41-2.78,7.11-5.54,5.68-12.23,2.34.94,5.37,2.64,7.59,4.35l3.41,23.9c-8.79,6.22-17.31,10.31-27.56,13.15-40.84,11.3-83.96,11.78-125.46,2.7-10.11-2.21-26.17-7.68-32.54-14.39l4.1-24.22,8.83-4.46c-1.63,6.33-.2,9.91,4.3,12.59,25.87,15.39,67.77,15.79,98.43,13.35,13.63-1.24,25.92-3.71,38.85-8.02l1.43-3.49c.77-1.86-16.22,3.9-27.18,5.43-31.95,4.47-75.89,4.85-104.84-8.21-2.84-1.28-5.57-3.69-7.93-5.84l5.29-28.23c4.89-4.73,11.6-7.17,18.12-8.92,32.41-8.72,80.31-9.17,111.95.77,5.24,1.65,9.79,3.36,15.82,3.45-6.39-5.64-13.68-7.94-21.94-9.79-33.9-7.59-68.89-7.37-102.82.28-7.16,1.61-13.34,4.25-19.6,7.66-3.38,1.84-5.88,5.74-6.55,9.36l-2.91,15.74c-4.96,1.43-10.74,3.3-13,7.31-1.99,8.49-3.51,16.89-4.09,25.36-.33,4.7,6.03,7.13,9.79,9.06l3.62,36.77c-2.31-.54-5.33-.92-7.17-.24l-25.64,9.46c-4.66,1.72-6.77,4.99-5.29,10.13l8.26,28.66c-11.99,14.86-6.6,41.22,11.08,47.31,6.59,9.52,17.85,13.71,29.55,12.22l3.68,31.33c.32,2.76,5.18,6.97,7.69,8.06l13.53,5.86-.95,15.52c-14.64,1.91-45.63,8.77-42.89,19.01,1.96,7.34,19.24,12.56,29.79,14.48,41.32,7.54,83.73,7.78,125.06.34,11.6-2.09,32.23-7.76,32.52-15.61.28-7.6-15.49-13.17-25.92-15.01.5,1.83-3.31,4.57-3.31,4.57,5.98,5.36.41,10.54-2.6,11.16-4.13.86-8.19.63-12.39.55-5.49-.11-9.05-2.15-12.85-5.93-5.61-5.58-.43-8.52-2.61-11.61-.35-.5-2.15-1.38-2.98-1.42l-25.44-1.15-33.34.91,1.96-10.79c19.94,2.62,38.64,2.09,58.21-1.74l1.1,8.89,3.31.07.38-8.97,5.07,3.83,11.66-.82-1.12,11,11.09,5.8,3.34-4.43-10.58-3.84,1.33-9.29,40.71-6.79c6.66-1.11,4.88-7.6,7.56-11.69,6.86.22,12.25-4.34,12.82-11.06,3.32-3.48,4.19-7.96,2.82-12.39,3-6.2.87-12.99-5.17-16.72ZM238.2,426.7l5.57-.66-1.15,2.91-4.29-.32c-.36-.03-.12.07-.13-1.93ZM235.8,419.49c1,2.34.33,6.07-1.44,6.58-2.03-1.23-4.58-2.79-6.2-2.98s-4.77,1.72-6.45,2.86c-2.46-4.58-5.89-8.3-10.09-11.31l1.32-19.85c10.3,5.69,18.2,13.82,22.87,24.7ZM231.5,428.88l-7.52,1.29c1.25-1.84,1.97-2.89,2.59-3.34.77-.57,2.81.22,4.94,2.05ZM210.64,425.36l.78-6.14,4.75,4.77-5.53,1.37ZM216.86,430.88l-6.19.38c.87-1.29,1.84-2.48,2.65-2.95.81-.47,2.95,1.32,3.55,2.57ZM218.79,434.1c-3.4,3.04-7.23,3.76-10.91.95l10.91-.95ZM13.31,379.05c-.39-1.33.97-4.06,2.33-4.55l29.79-10.86,23.65,76.01-26.69,10.93c-8.21-9.33,7.42-8.36,9.99-16.18,1.17-3.57-.54-6.97-2.84-10.07.86-2.22,1.82-5.85.45-8.3-1.04-1.88-4.55-3.67-6.59-4.59-.03-2.18-.16-5.48-.94-7.03-2.74-5.43-13.11-3.45-21.17,1.98l-7.99-27.33ZM23.99,449.26c-9.47-9.72-11.54-25.6-3.18-36.69,5.13-6.8,18.41-9.72,18.73-4.5.08,1.33-1.36,3.69-2.64,4.35l-8.48,4.34c-.51.26-1.83,2.08-1.44,2.48l1.97,2.02c7.28-5.61,16.61-7.46,17.82-2.97.49,1.81-.94,4.5-2.75,5.27l-8.6,3.65c-.64.27-1.55,3.86-.89,3.97,4.24.73,6.93-4.83,12.65-2.94,1.25.41,2.1,4.25,1.23,5.23-3.98,4.47-8.49,4.02-11.4,9.02-1.4,2.4-.49,6.31.53,9.51-3.72,2.57-9.93.98-13.55-2.74ZM99.57,551.18c-7.78,3.99-18.54,1.35-20.22-4.85-.62-2.27.25-6.75,1.7-8.26l5.27-5.49,1.22-17.06,15.78,3.16-2.41,15.41c1.95,2.68,4.15,5.93,4.14,8.81-.02,3.05-2.35,6.68-5.47,8.29ZM167.03,512.85c-30.7,5.73-67.73,5.43-95.79-8.58-3.97-2.73-5.29-5.96-5.77-10.52l-2.75-25.96,4.51-1.61c.79-.28.9-2.57.46-3.99-11.17,4.54-23.44,4.26-32.56-4.77l34.22-13.42c2.4-.94,3.56-4.51,3.23-7.14l-19.44-62.41-4.35-47.09c9.07,3.38,17.3,5.93,26.61,8,28.57,5.57,57.03,6.34,85.98,3.08,18.44-2.08,35.7-5.98,52.36-13.37l-7.38,103.74c-3.24-1.79-5.85-2.76-8.52-1.83-1.83.64-3.78,3.51-5.23,5.83-1.44.72-6.41,1.74-6.92,3.85l-18.66,76.2ZM203.35,432.11l-6.54.93c.69-1.11,1.34-1.99,2.26-2.82.72-.65,2.57.25,4.28,1.89ZM173.52,515.15c-2.89-1.38-2.09-4.27-1.33-7.4l16.92-69.71,13.29-2.05c1.47-.71,2.86-.3,1.17,1.21-3.71.34-8.32.78-11.57,2.79l-18.48,75.17ZM251.72,478.33c-.12,4.49-.96,6.85-2.83,10.46-1.03,1.99-1.52,4.83-2.76,6.2-1.4,1.56-6.21,2.87-8.14,2.32l-3.66-1.05c-.98-.28-.94-4.04.07-4.05h6.69c.47,0,1.67-.93,1.99-1.27,3.47-3.64-6.46-.65-9.66-3.88-.57-.57-1.07-3.19-.67-3.87.51-.84,2.06-1.05,3.39-1.16l6.79-.57c-2.23-4.1-6.97-2.54-7.85-5.53-1.21-4.15,7.02-3.33,9.21-6.49-2.69-2.68-6.79-1.56-9.51-.31-3.12,2.18-3.9,5.94-3.4,9.94-3.48,2.63-3.79,6.86-1.18,10.51l-.61,6.31c-.15,1.56,2.41,3.27,4.87,4.56.11,2.29-.58,5.32-1.87,8.24l-55.57,8.75,18.36-75.3,9.12-1.56c-.49,2.3-2.7,3.51-4.57,4.35-.59.48-.33,2.95.5,3.29.83.34,3.37.48,4.2-.04,1.9-1.2,3.45-5.08,3.85-8.03l9.32-1.31c.59,4.65-3.57,2.2-5.54,5.09-.5.74,1.64,2.93,2.59,3.02,3.07.31,6.2-2.54,6.63-5.78.43-3.2,2.8-4.27,6.73-5.02l-6.95-2.19,10.16-1.62c.4,2.47.13,6.78-1.14,7.78l-3.68.71c-.82.16-1.04,2.32-.47,2.92s2.81,1.28,3.75,1.07c3.52-.79,5.98-5.07,6.14-9.05l7.46-1.89-8.35-1.5,9.25-.76-.85,5.3c-.17,1.06-2.81,1.7-4.47,2.45l.72,2.8c.19.75,3.26.68,4.01.28,5.38-2.91,3.04-9.85,5.59-10.68.87-.28,2.56,1.73,2.36,2.64l-5.95,26.81c8.99,8.68,6.08,11.32,5.93,17.1Z"/>
      <path class="cls-1" d="M28.7,382.13c2.02.41,6.51-1.06,8.03-2.64-.59-3-3.67-2.65-5.47-1.72l-3.08,1.6c-.48.25-.02,2.64.52,2.75Z"/>
      <path class="cls-1" d="M25.96,382.18c0-1.61-1.3-2.91-2.91-2.91s-2.91,1.3-2.91,2.91,1.3,2.91,2.91,2.91,2.91-1.3,2.91-2.91Z"/>
      <path class="cls-1" d="M77.43,276.77c-4.53-1.36-9.95,4.53,17.97,8.55,23.13,3.33,46.16,3.14,69.32-.42,9.8-1.51,28.31-6.1,31.22-10.88.32-.53-.75-2.47-1.14-2.79-7.32,3.53-14.6,6.24-22.56,7.87-28.62,5.85-66.75,6.11-94.82-2.32Z"/>
      <path class="cls-1" d="M130.68,412.08c-5.26-1.49-6.18,10.36.77,18.8,4.14,5.02,10.65,6.79,17.01,5.24,5.05-1.23,9.58-5.48,11.7-11.18,1.59-4.3,3.56-8.94.53-13.43-10.87,3.55-20.09,3.4-30.01.58ZM147.55,432.07c-4.59,1.42-9.31-.35-12.31-3.4-2.97-3.02-4.63-7.41-4.57-12,9.31,2.14,17.05,2.34,27.09.02.11,6.41-3.71,13.36-10.22,15.38Z"/>
      <path class="cls-1" d="M169.29,376.34c-6.32.28-9.69,10.38-5.8,19.71.74,1.77,3.97,3.65,5.7,3.58,6.36-.25,9.69-10.2,6.03-19.6-.7-1.78-4.17-3.77-5.93-3.69Z"/>
      <path class="cls-1" d="M127.2,393.88c.6-.09,1.79-.68,2.16-1.16,1.79-2.35-3.28-12.29-11.02-11.47-5.24.55-9.08,4.62-10.18,10.15l.37,3.11c.07.63,2.82,1.06,3.01.45l.89-2.87c.92-2.98,2.99-6.09,5.92-6.44,6.93-.84,6.69,8.55,8.85,8.24Z"/>
      <path class="cls-1" d="M719.06,442.65l-11.19-5.12,1.02-8.66,54.47-4.21c2.88-.22,6.22-2.92,6.33-6.24l4.87-146.62c.07-2.22-1.26-5.53-2.7-6.31-1.6-.86-4.28-1.19-7.25-1.54l.06-9.84c13.05-.63,24.25-5.63,33.17-14.92,7.04-7.68,11.65-16.77,13.71-27.48,7.72-3.02,11.7-10.24,12.24-18.4,7.77-7.2,9.89-18.17,4.33-21.03-2.05-1.06-5.36-.52-7.95.24.74-4.33.76-10.41-3.52-12.97-4.77-2.85-9.96.74-11.83,5.89-2.17-3.55-4.15-5.84-7.01-6.07-2.49-.2-6.75,2.06-7.13,4.87l-1.68,12.42c-2.15-2.42-4.53-2.49-5.64-2.36-3.01.37-5.59,2.96-6.42,6.37-1.82,4.38,1.87,9.39,4.13,13.14,2.26,3.74.5,9.94,6.17,12.7-3.76,13.33-14.56,16.83-13.39,19.95,1.63,4.35,15.55-7.59,17.79-21.65-3.97-2.8-5.46-5.51-5.69-9.39-.38-6.53-6.45-8.71-5.2-13.54h.02c.03-.14.07-.27.11-.41.18-.54.45-1.11.83-1.73.57-.78,1.31-1.33,2.06-1.45l5.6,6.68c.65.78,2.41,2.08,3.05,1.37.51-.57.8-2.39.72-3.33-.83-9.74.72-21.07,4.5-19.89,6.62,2.06,2.52,19.92,5.97,17.15.38-.31,1.28-1.33,1.47-1.89l4.71-13.99c.39-1.16,3.8-2.22,4.76-1.51,4.12,3.05,1.03,11.96-1.42,19.46-.23.69,2.31,2.42,2.7,1.86l1.28-1.89c1.85-2.72,4.34-6.86,8.01-6.92,1.84.01,2.96,5.41,1.82,6.9l-7.5,9.8c1.48,8.29-5.01,13.5-10.87,16.54-5.35,22.71-19.06,39.84-43.77,41.29l.19-19.67,6.63-1.25c3.62-.9,1.32-2.99-.83-2.92l-5.8.23,1.35-122.78-42.96-65.93-.63-28.83c-.08-3.69-2.57-9.11-7.7-8.79l-134.69,8.39c-5.09.32-8.21,5.12-8.29,9.44l-.57,31.79-35.47,47.24-.17,21.25-13.63-11.13-22.39-7.05c-.88-.28-2.73.26-3.24.69-.51.43-.58,2.72-.15,3.48l10.6,18.74c.25.44,1.62,1.46,1.93,1.2l2.2-1.81-6.42-11.63,4.03-4.08,9.68,3.33,5.26,3.84,48.79,40.37c-3.77,3.29-5.7,5.96-7.88,10.04l-47.83-38.52c-1.03-.83-1.97-1.38-1.91-2.05l.27-2.79c-1.52-.32-3.63,2-4.96,4.64l25.69,21,1.71,123.16c-1.67,3.24-3.4,7.16-4.64,11.44-4.28,13.7-2.39,28.93,5.28,41.59l.94,61.72c-11.55,1.6-22.44,4.14-33.26,8.03.5-4.9-2.52-9.02-5.85-11.78l8.66-32.14c.5-1.85-1.19-6.05-2.83-6.72-1.74-.71-4.84-.76-7.25-.66l-3.5-5.29c.44-2.39.5-4.98-.36-7.19-4.69-12.13-13.28-21.34-24.65-27.06-2.32-47.49-7.31-90.97-23.8-135.57.84-5.48-.14-10.09-3.76-14.01l2.12-5.15-2.17-26.89c-.21-2.55-4.37-5.57-6.56-5.45-2.45.14-5.56,1.58-7.68,3.02l-4.34,2.94c-1.71,1.16-10.52-9.19-18.14-.16-5.65,6.69-12.38-7.63-21.3,1.68-2.6,2.71-5.7,3.17-8.89,1.06-4.58-3.03-9.98-2.79-13.46,1.51-5.89,7.25-14.65-7.44-22.32,2.72-5.61,7.42-13.52-7.43-21.81,2.19-2.17,2.52-5.47,3.48-8.4,1.56-4.58-2.99-9.82-2.68-13.4,1.71-5,6.13-13.69-6.18-20.42,2.32-5.64,7.12-9.9-2.45-19.08.2-2.16.62-4.38,3.67-5.34,6.63l3.48,27.76,3.72,4.3c-2.07,3.48-2.71,6.82-1.91,10.76l3.28,16.21c-4.5,35.79-5.18,70.5-4.08,106.52,1.34,44.01,2.8,87.14,6.79,130.92.56,6.11,2.7,10.49,8.68,12.87l9.03,3.59,11.09,13.12c2.37,2.81,6.43,5.28,10.09,5.81l13.91,2.01.06,14.22c-12.36,2.06-33.46,7.52-32.93,16.01.49,7.8,19.01,12.74,30.23,14.7,37.1,6.5,74.65,5.33,111.51-1.77.11-.02.22-.04.33-.05-1.91,1.83-8.78,11.4-9.68,12.4-2.89,3.24-4.42,8.07-1.72,10.3,16.8,13.93,34.23,25.83,52.08,38.38-.49,5.85.6,11.72,4.21,16.39,4.01,4.35,9.38,5.33,14.78,3.44,4.29,1.83,8.91,1.71,12.92-.4l6.83-3.43c5.97,3.7,11.8,6.13,18.13,8.33.13,1.48.4,4.35-.53,4.74l-3.39,1.44c-3.18,1.35-6.14,1.7-9.93,1.94-9.96.63-26.56,7.76-26.04,14.51.56,7.23,17.66,12.43,28.15,14.73,40.95,8.99,98.45,8.96,139.69.85,11.9-2.34,32.81-8.09,31.9-16.52-.2-1.81-2.48-4.5-4.17-5.88-4.58-3.12-8.94-5.28-14.04-3.87-5.5-3.88-10.49-5.64-17.47-7.1.01-.95.49-3.83.91-4.71,12.89-3.7,26.49-8.34,27.73-21.53,4.66-.56,10.45-1.69,13.81-5.85,3.99-4.93,5.54-10.78,4.84-17.28,15-11.67,17.68-31.84,7.16-47.7-6.2-9.35-14.59-16.15-25.46-20.86l.05-14.42,40.57-4.3c9.3-.99,29.91-7.84,28.95-15.3-1.07-8.26-18.24-10.89-25.93-14.4ZM573.09,54.35l11.12,23.4-41.05,16.75,29.92-40.15ZM574.83,156.92c4.53,1.02,8.38,7.63,5.04,11.82-3.08,3.87-9.9,1.12-11.48-2.9.92-3.09,3.77-6.98,6.44-8.92ZM538.61,277.67c.28-.7.47-1.38.57-2.06,2.01-4.65,4.32-8.45,5.7-10.7,1.25-1.58,2.27-3.4,3.34-5.42-1.96-.5-3.33-.38-3.92.25l-2.67,2.87h-.02s-.04.04-.05.07l-1.41-112.92,28.82,22.55c4.24,3.32,10.92,3.38,14.13-.8,4.25-5.53,1.63-12.59-3.51-16.87l-39.62-33.05.1-21.47,48.16,15.37c3.42,1.19,6.65,1.33,9.47-1.06l-51.96-16.37,39.94-16.82,15.78,33.52,2.92,7.43-2.82,180.9c3.89-1.4,4-4.95,4.06-8.56l2.89-175.09-32.64-68.87.34-31.73c.03-3.2,2.35-6.04,5.6-6.23l12.6-.77,118.92-7.64c2.47-.16,5.08,1.4,5.12,3.71l.5,28.56-133.33,10.02c-1.06.08-3.42,2.24-2.65,2.72l2.57,1.6,134.86-10.09,41.83,64.35-1.18,93.68-.15,56.97c0,2.29,2.72,6.23-.43,8.44l-137.93,5.17c-3.88.15-7.14,3.76-7.19,7.36l-.64,42.52-6.24-1.29c-.38-3.38-1.11-5.62-3.33-7.51-4.26-3.62-17-.73-22.37,8.01-6.36.58-14.71-2.5-19.01-7.85-12.12-15.06,2.8-31.45-2.6-31.92-3.02-.26-7.33,11.52-6.42,20.89,1.04,10.6,8.59,19.8,19.11,21.87l11.06,2.17c2.98-8.76,12.11-12.46,19.32-9.23.33.97.54,3.39-.16,3.38l-2.85-.04c-.93-.01-2.91,1.44-2.55,2.3.29.69,2,1.69,2.79,1.77l13.32,1.4v.07c7.51.44,9.05,1.31,9.05,2.47,0,2.82,0,4.48-5.43,5.11-.68-.14-1.41-.27-1.82-.27l-10.65-.16h-3.18c-.6,0-.28,3.3.3,3.46,4.61,1.26,8.25,1.47,10.99,1.17v.06c4.05-.08,7.01-.46,9.14-1.28l-.1.24c.75.3,1.48,1.54,1.38,2.92-.11,1.42-1.09,2.63-2.74,3.49l.03-.04c-10.62,3.93-20.19-.06-19.91,1.99l.39,2.87,12.86,1.65c-1.31,6.06-9.2,5.69-17.83,3.95-5.8-1.17-10.35-4.77-13.99-9.41-14.95-.32-29.98-5.99-39.27-18.23-9.99-13.17-11.51-30.32-5.37-45.55ZM492.54,335.39c-3.22-1.66-6.23-.57-8.44,2.85-1.17-1.51-3.09-3.73-4.66-4.22-1.88-.58-4.78.39-7.72,1.6l-1.15-28.98c11.38,6.12,18.78,16.64,21.98,28.75ZM480.34,341.35l-6.68.16c.63-1.66,2.31-3.68,3.5-3.74,1.43-.06,3.63,2.77,3.18,3.58ZM462.99,356.54c.7.46,2.51.93,3.34.69,4.85-1.38,5.91-7.75,5.44-11.9l10-1.28c.44,1.54.14,6.03-1.21,6.85l-4.05,1.36c-.85.29-.05,2.92.75,3.31,10.7,5.3,4.8-16.39,13.59-18.27,2.62-.56,3.12,3.16,3.29,5.25.2,2.41.94,6.42-.7,7.25l-3.52,1.78c-.7.36.09,2.16.66,2.7.43.41,2.83,1.05,3.5.83,2.71-.92,4.39-5.79,4.9-9.53.23-1.71,6.37-.54,5.75,1.8l-9.45,35.84c4.67,1.37,8.25,5.55,6.41,9.79-.04.09-.07.18-.11.27-7.5,2.44-13.16,7.49-15.82,13.94-.81,1.09-1.13,2.04-2.04,4.09l-5.82-2.14c-1.09-.4-1.72-3.67-1.31-4.75.34-.9,1.93-2.3,2.86-2.19l6.55.71-5.67-6.94c-1.13-1.38,3.22-4.51,5.12-4.26,4.11.53,7.21.29,10.43-2.73-7.92-3.1-18.2-.6-18.8,2.96l-1.19,7.03c-.34,1.99-4.01,4.57-3.64,6.2l1.67,7.23c.62,2.67-.92,6.99,1.3,8.89,2.22,1.9,4.88,2.59,8.5,2.88l-.6,13.54c-.38,1.73-.85,3.47-1.44,5.21l-79.48,6.08,23.28-96.52-2.38-1.51c-.41-.26-1.25,1.07-1.62,1.71l-22.66,92.82-2.87-3.04,22.63-93.89,20.33-1.68-.96,7.15c-2.47.62-3.97.95-4.83,1.39-.87.44-.04,2.93.75,3.5.63.45,2.91.78,3.75.36,3.51-1.78,5.76-7.63,5.14-12.47l10.7-.69-.5,6.28c-.1,1.27-3.63,1.28-4.74,1.82-.84.41-.19,3.26.67,3.64.86.38,3.32.59,4.19.11,3.6-2,4.84-6.97,4.32-11.83l10.84-.54-1.16,6.62-4.55.83c-.84.15-.25,3.02.46,3.47ZM507.96,549.54c-1.11-.25-1.73-2.51-2.18-4.12l11.71.8,1.68-22.2-19.16-2.62c-.3-.81-.95-2.88-.39-3.17l3.4-1.82-4.55-1.31-4.25-17.87c-.17-.93-.33-1.86-.5-2.79.04-.7.19-1.54.43-1.85.48-.62,2.64-1.31,3.47-1.18l24.3,3.73c1.24.19,2.56,3.03,2.45,4.36l-6.01,76.73c-2.6-3.26-6.32-6.44-7.21-10.11l-3.51-14.47c3.28.02,5.47-.25,5.82-.83l-5.48-1.26ZM500.44,540.46l5.63,22.1c-1.72-.65-3.38-2.38-3.78-3.59l-5.19-15.56-4.85-23.29-4.59.74c-.99.16-1.77-3.11-1.58-3.56,1.6-.5,4.66-1.21,4.42-2.36l-.98-4.74-2.52,4.62c-.41.75-2.75-.88-3.12-1.7l-8.32-18.34c4.16-1.44,8.17-3.08,12.26-4.71.66,1.69,1.46,4.03,2.12,5.93l10.51,44.46ZM487.11,488.47s0-.01.02.01c0,.02.02.04.02.05-.02-.03-.02-.05-.04-.06ZM490.27,484.81c-.63-.38-1.46-.45-2.17-.2-2.2.77-4.57,1.64-6.96,2.55-.02,0-.03-.02-.05-.02l-.16.1c-2.5.95-5.02,1.93-7.41,2.85l-.36-.73c-.54-1.07-1.81-1.54-2.91-1.07l-19.18,8.14-13.36-5.3c-4.33-1.72-6.54-7.46-12.9-7.12l1.26-14.12,27.02-7.61c6.48-1.82,10.08-6.97,10.21-13.6l19.96-1.94c.56,3.67,3.17,6.78,6.21,9.05l1.11,28.63c0,.22.02.42.03.64-.12-.1-.23-.19-.34-.24ZM484.13,414.37l-.51,6.13-4.4-1.35c-1.07-.33-1.53-2.8-1.54-4.87l6.45.09ZM429.92,344.06c1.33-1.74,2.47-3.05,3.33-3.45,1.14-.53,3.17.61,4.76,2.98l-8.09.47ZM445.03,343.16c.85-1.99,2.84-4.14,3.9-3.76s2.38,1.63,3.8,3.16l-7.71.59ZM458.63,342.26c.66-1.51,2.38-3.34,3.61-3.58,1.51-.3,3.62,1.38,4.38,3.25l-7.98.33ZM303.44,469.72c-9.59-1.36-13.92-12.93-21.86-19-4.53-2.67-11.14-3-14.12-8.14-3.51-36.34-5.44-72.22-6.41-108.83l-1.07-40.11c-.74-27.93-.21-54.92,3.14-83.14,11.06,32.11,17.73,65.02,20.76,98.99l2.8,31.38c1.88-.13,3.74-2.3,3.6-4.21-1.53-21.64-3.23-42.24-6.88-63.58-3.79-22.19-9.55-43.12-16.4-64.46-3.07-9.81-5.3-19.57-6.66-29.61,1.15-1.94,2.31-4.17,2.53-5.62.2-1.33-2.01-3.39-3.56-4.55-1.26-8.92-2.93-18.39-3.05-27.46-.05-3.89,7.15-2.88,9.06-1.32,4.03,3.26,9.42,2.77,12.3-1.24,5.76-8,14.11,6,21.76-3.38,5.7-6.99,13.26,6.94,21.07-2.85,5.98-7.49,13.76,7.41,21.7-2.27,6.46-7.88,14.93,7.18,22.4-2.54,6.05-7.88,14.39,7.51,22.53-2.48,6.08-7.46,13.58,7.77,21.84-2.24,6.09-7.39,12.99,7.33,21.16-1.88,1.4-1.58,7.44-3.77,7.89-.91,1.39,8.69,2.01,18.45,2.1,26.93.01,1.42-2.71,4.87-1.9,5.99l3.46,4.77c1.23,1.7.51,6.47.71,8.89,17.87,48.57,21.32,92.84,24.15,143.77l1.43,25.74c-5.93-2.66-8.32-1.55-12.36,3.07-2-1.88-5.04-4.02-7.41-3.79-2.64.26-4.99,2.68-6.84,5.67-1.68-2.46-4.78-4.89-7.16-4.65-4.42.43-6.83,2.71-7.72,7.31l-6.07.54c-2.19.2-5.32,1.6-5.94,4.17l-21.64,90.16c-.47,1.94-1.05,4.86-.24,6.09,1.03,1.55,3.34,3.21,5.05,4.65,2,1.69,4.11,3.62,6.9,3.42l54.63-4.02c-.06,4.28-2.32,7.66-6.28,8.83l-19.99,5.91c-26.14,6.24-52.21,9.06-79.2,9.57-17.19.32-33.35-1.17-50.23-3.57ZM339.56,505.25c-4.67,6.51-16.08,5.99-21.62,1.08-4.8-4.25-2.81-11.22,1.72-14.91l.11-15.43,16.76,1.64-2,13.97c3.89,2.7,8.7,8.52,5.02,13.64ZM424.24,508.73c-1.1-1.32-2.22-4.75-3.8-5.06-6.11-1.2-13.71,4.01-19.66-2.87-2.84-3.28-2.71-7.67-.86-12.52-20.76-2.87-40.42-2.44-60.58-.94l1.52-9.63c20.33.27,39.61-1.14,59.78-3.73l.98,10.75c4.15-2.34,4.21-6.5,3.14-11.19l16.91-2.85-.85,16.32c6.1,1.08,11.1,3.16,13.97,8.57l.15,9.15c-2.09,3.28-7.28,5.83-10.7,3.99ZM415.73,538.67l3.61-6.32,10.22-14.48c.24-.22.49-.49.73-.84,2.11-3.01,5.84-5.69,8.9-8.05-.21-3.69-.73-7.61,2.96-10.62l3.65,4.6,24.09-10.86,19.02,41.89,8.67,21.83-1.19.16-5.46-4.6c.68-.81,1.59-1.74,1.18-2.11-.31-.27-1.51-1.05-1.92-1.12l-5.17-.86c-.66-.7-1.55-1.65-1.12-1.86l1.71-.84c.89-.43,3.24-2.33,3.37-3.4l-9.07-19.83-12.15,5.36.47,5.99-8.2-6.34,18.11-8.78-9.94-20.63-20.86,9.99,5.97,13.28c-3.9-2.6-5.7-4.63-8.84-8.21l-3.22,3.56,61.88,50.37c-3.24-.9-6.8.27-9.64,2.26-2.02-1.23-4.74-2.82-6.55-3.33-1.71-.48-5.16,2.52-6.87,3.02-2.18.64-6.83-.68-8.73.49-2.19,1.36-3.62,3.98-5.03,7.31l-50.57-37.04ZM504.86,587.61c-1.28,3.6-3.75,5.96-7.67,6.55-3.95,3.63-8.32,3.2-12.48.6-5.1,3.11-10.45,1.53-13.31-3.33-2.99-5.67-2.43-11.93.23-18.08.69-1.6,5.23-2.75,5.82-1.02,2.46,7.28.45,10.69,3.46,12.52.59.36,2.31-1.47,2.26-2.16l-.68-9.29c-.08-1.14,1.42-3.58,2.31-4.22,1.04-.75,4.29-.22,4.93.89,3.8,6.66,1.35,10.69,4.28,12.68.7.48,2.66-1.54,2.55-2.39l-.81-6.21c-.14-1.06.52-3.14,1.11-3.95.58-.81,3.69-1.03,4.44-.2,3.66,4.05,5.52,12.13,3.57,17.6ZM512.09,574.75l5.97,7.5-8.36,2.66,1.46-4.08c.26-.73-1.78-2.23-2.04-2.98l-3.37-9.81c2.5,2.03,4.41,4.27,6.35,6.71ZM513.95,627.15c-3.49-5.62,4.51-11.73,12.42-15.61l.03-6.47,18.44,3.93,1.43,12.61c.7,6.14-27.19,13.81-32.32,5.54ZM656.22,625.54c-1.62,7.66-21.36,5.51-33.69-2.48-1.62-1.05.14-5.34.36-7.06l.88-6.79,18.48-3.36.07,6.24c7.9,3.33,15.34,6.67,13.9,13.45ZM670.81,561.12l-.21,10.37.15,11.89c.13,10.41-21.24,16.88-34.56,19.27-32.82,5.89-65.33,6.24-97.63.72-11.25-1.92-21.81-5.04-31.55-10.52.77-7.56,9.89-4.07,13.65-7.86,1.14-1.14,1.37-4.45,1.54-6.58l4.85-59.88c.58-7.2,1.71-14.97,1.13-22.08-.21-2.55-1.91-3.18-3.71-4.93l-30.17-4.35-.24-28.89c10.4,5.2,19.71,7.93,30.54,10.56,36.34,7.1,73.45,7.49,110.05,1.13,12.97-2.25,24.66-6.08,36.58-11.41l-.41,102.57ZM699.63,518.12c7.13,13.93,3.04,30.44-9.91,39.18.42,5.39.12,10.53-2.56,14.79-2.75,4.38-7.08,6.35-12.25,5.89l.53-5.08c3.4-.39,6.57-1.23,7.22-4.95-.39-.46-4.18.06-6.29.74-.73.32-1.95-2.6-1.58-3.44,1.83-4.12,9.25-4.13,6.53-9.3l-5.96,2.74-.13-15.26c5.34,1.07,7.72-.85,9.37-5.08,3.19-8.17-1.09-16.79-9.33-20.93l.13-21.86c10.47,5.07,19.03,12.44,24.22,22.58ZM675.24,540.24l.12-17.88c5.71,3.73,8.27,9.84,4.54,16.24l-4.66,1.63ZM676.56,449.49c-10.27,8.66-26.87,13.21-40.46,15.69-32.55,5.92-65.17,6.33-97.91,1.65-16.4-2.34-39.07-7.76-50.43-18.36l.03-3.43,1.36-30.84c.64-8.05,6.98-14.63,16.15-16.75l-.03-.14,18.92-5.97c34.78-7.38,79.18-7.91,113.82-.31,11.06,2.42,21.01,6.01,30.8,11.34.95.57,1.81,1.16,2.58,1.85,5.48,4.99,5.27,14.49,5.31,21.63-.1,7.68-.18,15.93-.14,23.65ZM669.22,397.92c-15.38-9.19-33.95-12.06-51.42-14.8l.28-21c-.14-3.41-4.27-3.56-4.19-.03l-.36,20.55c-23.57-2.18-46.43-1.99-70.18.97l-.8-55.26c10.52,10.79,24.03,17.11,38.78,17.06,3.65,5.46,8.97,8.09,15.11,9.55,5.85,1.66,12.01,1.66,17.67-.53,3.91-1.51,5.3-5.19,4.98-8.93.31-.06.61-.13.92-.2,7.17-1.69,8.27-6.18,8.41-8.04.17-2.21-.67-4.35-2.09-5.73,1.04-1.4,1.47-3.29,1.47-5.81,0-4.54-4.5-5.73-9.22-6.2.06-.26.09-.51.1-.73l.98-45.04,145.62-5.48c1.71-.06,3.51.08,4.27.75.6.53,1.07,2.7,1.03,3.82l-5.19,147.43-83.68,6.34c0-.25,0-.51,0-.76-.1-7.44-.39-15.51-4.72-21.95-1.82-2.7-4.96-4.56-7.78-5.96ZM718.31,454.54c-2.32,5.99-13.34,2.95-21.68,2.08-3.51-.37-8.51,2.29-11.32-1.05-2.98-3.54-2.95-8.83-.71-13.15l-2.9-2.55c.02-2.99.03-5.98.03-8.94l22.83-1.52-1.02,11.75c9.53.92,17.08,7.45,14.78,13.39Z"/>
      <path class="cls-1" d="M705.61,322.72c-2.08-4.22-4.17-9.04-5.24-13.75l-23.8-10.28-26.27,10.34c-1.44,4.89-3.52,8.95-6.26,12.77l-1.03,36.57,30.57,15.31,31.35-14.68.67-36.28ZM700.69,321.98l-24.38,10.54-.12-11.32,21.12-8.8,3.38,9.58ZM674.89,303.13l.53,7.61c.07,1.02-1.52,3.27-1.97,3.41l-.81.11c-.69.33-3.62,1.15-4.63.66l-10-4.93,16.88-6.86ZM671.82,368.68l-25.08-12.79.72-31.42,25.08,12.15-.72,32.06ZM672.75,332.64l-23.61-11.3,3.91-9.83,19.89,9.7-.19,11.43ZM671.74,316.12l1.48-.62.96-.41,5.8-.4c-.48-.44-2.37-2.38-2.31-3.15l.65-8.23,15.44,6.95-15.88,7.11c-4.61,2.06-6.33-1.16-6.13-1.24ZM701.27,356.44l-25.75,12.35.44-32.13,26.1-11.47-.78,31.25Z"/>
      <path class="cls-1" d="M710.18,359.54c2.12,1.14,10.77,4.35,11.81,4.73l-.93,26.45-20.21-10.79c.27-1.39.28-11.56.34-12.72.38-6.87-2.76-2.71-2.76-2.02l-.45,10.15-.47,7.21,25.48,13.19,23.66-12.93.92-31.67-23.64-12.41c-1.69-.88-6.49,1.79-6.88,3.67l5.84-.24,19.52,10.15-18.29,8.99-5.71-2.3-8.81-3.36c-1.39-.37-3.11,1.94.58,3.92ZM725.38,364.56l18.66-9.21-1.03,25.45-18.33,9.98.69-26.22Z"/>
      <path class="cls-1" d="M626.69,121.64l123.78-11.83c1.25-.12,2.16-1.23,2.04-2.47s-1.23-2.16-2.47-2.04l-123.78,11.83c-1.25.12-2.16,1.23-2.04,2.47s1.23,2.16,2.47,2.04Z"/>
      <path class="cls-1" d="M668.54,218.11c-4.51,8.3,2.42,21.43,11.3,24.17,6.76,2.09,14.03.58,18.55-4.94,4.6-5.61,6.97-12.27,5.63-19.81-12.26,3.45-23.22,4.09-35.49.58ZM685.49,239.03c-8.22.08-14.01-7.29-14.32-15.88,9.03,1.83,17.73,2.35,28.57-.43.76,7.63-5.82,16.24-14.25,16.32Z"/>
      <path class="cls-1" d="M719.81,187.59c-2.43-2.02-7.18-2.71-10.01-1.5-5.62,2.39-8.73,8.76-7.08,14.18,1.11.14,2.84,0,3.03-.68l.76-2.78c1.02-3.72,3.35-7.36,7.34-6.94,7.5.79,5.75,12.95,8.9,10.45,3.08-2.44.33-10-2.94-12.72Z"/>
      <path class="cls-1" d="M664.14,188.53c-3.33-2.11-7.51-2.14-11.11,0-3.52,2.1-6.05,8.43-6.09,11.88,0,.82,2.55,2.69,2.95,2.07,2.46-3.71,2.04-11.48,9.11-11.25,6.55.22,5.94,11.24,7.91,10.39l2.02-.87c1.36-.58-.03-9.22-4.79-12.24Z"/>
      <path class="cls-1" d="M601.21,362c-1.11,1.68-1.03,4.46-1.15,6.27-.12,1.81-.68,9.07-.14,10.89,1-.64,2.68-.18,3.69-.55.93-.34.75-12.39.83-13.38.15-1.91-1.55-1.85-3.23-3.23Z"/>
      <path class="cls-1" d="M662.65,422.48l-27.92,8.51c-34.09,5.37-68.55,5.85-102.65.01-19.99-3.42-28.98-9.91-33.01-10.85-.67-.15-1.06,2.24-.7,2.83,2.19,3.65,17.63,9.14,26.15,10.87,38.18,7.73,77.09,7.93,115.24.3,9.71-1.94,25.87-7.49,23.97-10.15l-1.08-1.52Z"/>
      <path class="cls-1" d="M588.32,540.39c-5.26-1.17-2.58,14.99,7.66,19.35,5.23,2.23,11.14,2.13,15.75-1.04,6.41-4.42,10.27-12.17,8.34-20.45-11.15,5.03-20.85,4.57-31.74,2.15ZM603.85,557.03c-6.72.37-12.73-4.64-14.11-12.11,8.88,1.82,17.95,2.04,26.38-1.06-.53,7.45-5.7,12.81-12.26,13.18Z"/>
      <path class="cls-1" d="M577.87,504.49c-1.51-.17-4.81,1.24-5.68,2.57-3.73,5.69-3.95,12.5-.59,18.43,1.04,1.83,4.43,3.54,6.27,3.27,6.48-.94,9.24-12.21,4.94-20.73-.74-1.47-3.43-3.37-4.94-3.54Z"/>
      <path class="cls-1" d="M626.95,501.92c-6.47-.15-10.14,11.09-6.11,20.25.87,1.97,4.18,4.01,6.07,3.91,5.85-.31,9.4-10.09,5.86-19.94-.76-2.12-3.81-4.17-5.82-4.22Z"/>
      <polygon class="cls-1" points="455.53 531.66 440.21 552.67 459.17 566.38 473.84 546.93 455.53 531.66"/>
      <path class="cls-1" d="M450.82,527.84c-.6-.13-1.72-.33-1.89.21l-.8,2.55-12.86,18.29,2.08,1.12,13.94-18.9c.49-.67.08-3.15-.47-3.27Z"/>
      <path class="cls-1" d="M478.7,553.36l.75.78,3.47,2.39c.3.36.41.53.55.63l4.88,3.49c-.83-1.7-2.71-3.45-4.07-4.34l-.78-.51-3.23-2.67-.5-.42-3.5-3.18c-4.72,7.23-10.67,12.37-13.56,20.52,6.59-4.85,10.6-14.72,15.99-16.7Z"/>
      <path class="cls-1" d="M488.34,508.11c-.65-5.53-1.24-7.56-2.45-10.79-.52,4.29.68,7.75,2.45,10.79Z"/>
      <path class="cls-1" d="M357.19,415.77c.28-.67.68-2.43.59-3.25l-1.81-15.53c-.75-6.43-5.55-12.51-7.96-18.43l3.57-7.26c1.74-3.53,1.56-8.14-.08-11.61-1.25-2.63-5.14-5.58-8.61-6.22l-6.88-1.27-12.27-27.51c-7.48-1.75-5.53-13.41-14.17-9.72-3.09,1.32-5.12,5.09-2.84,9.05,1.3,2.25.98,5.99.77,8.62l7.84,18.41c-11.39,3.46-17.6,13-20.06,24.03l-8.87.96c-.65.46-2.07,2.64-1.38,2.8l2.74.64,10.3,1.2c1.43-8.92,4.79-17.87,12.57-23.05,9-5.98,20.04-3.76,29.12,1.03,1.7-.09,5.22-.92,6.15.21,1.14,1.37,2.14,3.65,2.74,5.55l-3.3-1.88,1.73,7c.43,1.72-.77,5.01-2.44,5.61-1.75.63-4.45-.28-5.66-1.73-8.82-10.66-17.05-7.69-15.27-5.38,2.16,2.81,10.4,2.87,14.71,12.72,1.58,3.61-.51,7.86-4.05,8.42-6.81-12.28-14.05-9.85-12.47-7.97,3.05,3.63,8.82,6.01,8.72,12.42-.03,1.8-2.15,4.53-3.63,4.83-4.9.98-6.42-8.28-11.55-6.67-1.22.38.78,3.95,2.01,4.86-6.29,7.89-13.33-2.9-15.77-.79-.42.36-.99,1.36-.68,1.81l1.99,2.9c-5.93,6.42-16.42,7.32-23.84,1.24-.59-.13-2.94.61-2.65,1.32l1.16,2.78c9.03,6.9,21.79,4.97,29.54-3.07,5.05,1.99,9.12-.22,13.33-2.16,2.68,1.19,6.79,2.54,9.42.97,2.6-1.55,4.09-4.45,5.15-8.12l7.65,12.24c2.08,3.32,13.44,12.43,14.45,10.04ZM312.36,318.31l2.08,2.58c.46.57,1.46,2.73.89,3.12l-3.52,2.44c-.71-1.32-2.1-4.79-2.21-6.48-.04-.58,2.4-2.11,2.77-1.66ZM319.19,350.2l-8.27-17.69c1.77-3.26,5.72-5.1,9.86-5l10.14,23.05-11.73-.36ZM344.15,401.61l-4.91-9.56c3.47-4.31,3.12-7.19,4.1-13.56l8.64,18.39-7.82,4.73ZM346.87,404.4l5.96-3.5.54,9.09-6.51-5.59Z"/>
      <rect class="cls-1" x="276.7" y="173.6" width="153.32" height="4.61" transform="translate(-17.68 41.25) rotate(-6.52)"/>
      <rect class="cls-1" x="279.62" y="158.91" width="144.54" height="3.81" transform="translate(-15.71 40.17) rotate(-6.39)"/>
      <path class="cls-1" d="M359.24,264.67c-6.98.48-9.64,12.6-4.46,21.05.97,1.59,4.44,3.14,6.18,2.98,5.96-.57,9.2-10.77,4.2-20.65-.86-1.71-4.18-3.5-5.92-3.38Z"/>
      <path class="cls-1" d="M409.12,260.18c-1.79.08-4.98,2.34-5.64,4.29-3.22,9.49.24,19.77,6.56,19.63,6.3-.14,9.77-10.7,5.24-20.22-.91-1.92-4.22-3.79-6.17-3.7Z"/>
      <path class="cls-1" d="M388.02,310.6c-14.2.15-14.05-12.89-17.25-10.45-3.7,2.83,3.32,14.55,15.32,14.56,9.87.49,17.16-5.8,18.34-14.75l-1.3-2.39c-1.96-3.59-3.61,12.9-15.11,13.02Z"/>
      <path class="cls-1" d="M294.06,422.29c-.49-.38-2,1.85-1.96,2.5l1.56,24.54c.06.87,1.81,2.36,2.55,2.17.74-.19,1.67-2.19,1.56-3.5l-2.07-23.23c-.06-.73-1.14-2.1-1.63-2.48Z"/>
      <path class="cls-1" d="M362.34,243.14c.35-3.59-6.24-6.2-12.67-3.41-2.46,1.07-5.58,4.87-5.9,7.41-.07.53,1.91,1.96,2.33,1.62,2.08-1.71,6.75-9.82,12.63-5.06.73.59,3.52.22,3.6-.56Z"/>
      <path class="cls-1" d="M409.14,235.1c-3.41.17-7.24,1.83-9.28,4.9-.55.83,2.32,3.05,2.93,2.23,5.82-7.84,14.63,2.98,15.4.81,1.63-4.63-5.15-8.13-9.04-7.94Z"/>
      <path class="cls-1" d="M1407.38,246.54c.05-6.02-6.39-5.38-8.89-7.42-3.99-3.36-6.97-8.3-13.97-5.01-.88-12.03-3.2-27.64-12.71-25.99-3.97.69-6.71,4.4-6.19,8.64l2.95,24.17c.42,3.45-1.51,4.55-3.46,6.95-7.54,9.29-4.25,23.75,6,29.89.17,20.81-7.9,45.49-24.81,57.25l1.71-27.51c.28-4.48-1.98-9.79-3.8-13.92l-7.06-16.01c-1.2-5.14,1.37-11.31.64-16.73-3.17-23.87-81.87-38.87-121.11-17.56-5.05,2.74-8.99,7.81-9.18,13.61l-.44,13.6-10.95,16.4c-2.12,3.18-4.5,8.09-4.7,12.16l-4.55,91.2c-10.32,3.62-17.78,10.33-24.31,18.69l12.23-131.71c2.63-23.61,2.03-46.13-1.24-69.58l-4.03-28.97c-1.1-7.93,6.03-17.93-1.16-25.48,1.28-1.04,4.69-3.76,4.87-5.5l2.49-23.1c.63-5.87-4.5-13.42-11.37-14.28l-175.52-22.09c-6.88-.87-15.41,3.15-16.25,10.02l-3.09,25.32c-.19,1.59,2.56,4.71,3.4,5.62-8.85,4.71-4.54,15.18-6.8,22.59-10.02,32.8-15.79,65.54-17.73,99.9l-1.36,68.7c-1.65,1.05-3.85,2.73-5.55,4.27-5.12,3.51-11.21,8.59-14.54,14.59-3.9-17.83-14.04-33.68-29.87-44.09-.91-2.36-1.34-7.07-.35-8.73,2.82-2.47,4.68-4.99,4.89-8.6l1.33-22.17c.56-9.36-33.37-21.45-62.24-12.8-4.68,1.4-10.11,4.76-10.57,9.72l-2.17,23.4c1.58,2.64,3.61,5.56,2.77,8.33-1,3.32-2.64,5.33-5.84,6.87-24.29,11.63-37.41,36.58-39.54,63.49l-6.38,80.77c-18.89,15.56-26.69,41.57-11.38,62.17l-2.29,29.85c.29,13.69,5.95,26,16.54,35.25-9.12,2.94-20.65,8.02-19.6,15.07,1.05,7.05,16.73,12.11,26.73,14.32,24.83,5.48,49.53,6.85,75.01,5.89,1.87-.07,4.39,2.81,5.5,4.24,3.92,5.06,10.87,5.76,16.6,2.81,4.08-2.1,7.77-6.48,10.8-9.66l29.3-5.89c2.57,3.04,5.98,6.43,8.93,6.86,4.36.63,8.81-.46,12.04-3.14,9.9-8.19,20.11-25.89,14.19-37.68l9.33-1.56c3.49-.58,6.61-3.21,7.32-6.79l5.2-26.23c41.47,10.2,85.03,12.4,127.75,5.63,12.77-2.02,36.29-8.44,33.79-17.7-1.17-4.32-6.89-9.08-11.2-8.17-7.35,1.56-3.72,13.6-18.24,11.91,0,0-10.18-.41-13.78-1.6-3.6-1.19-9.38-6.11-7.96-9.67,2.22-5.58,11.86-1.5,23.32-5.21l8.57,3.34c-.23-2.19-1.56-4.28-3-5.46l15.22-14.17,10.65-3.01c4.85-1.37,7.65-5.37,8.14-10.24l3.14-31.03c3.83,6.6,8.82,11.2,15.46,15.67-3.76,2.72-6.61,5.53-6.59,9.22.06,8.42,7.08,13.8,15,13.67-1.17,10.36,2.48,19.71,10.93,25.23.8,7.21,4.59,13.1,11.53,17.15l-7.33,4.51c4.88,2.54,8.74,1.97,10.75-1.97l19.22,6.89c.24,1.25.5,4.2-.08,5.22-2.44,4.35-31.96,12.1-33.14,2.69-1.12-2.15-.61-4.26.72-5.51,4.01-3.78,3.27-5.18,2.06-6.87-9.48,2.55-26.99,8.93-26.51,15.45.57,7.76,20.77,13.21,32.19,15.19,36.11,6.26,72.71,6.7,109.01,1.31,12.61-1.87,36.24-7.66,36.35-16.48.12-8.82-21.34-13.91-33.13-16.13-6.57-1.24,1.6-5.74,3.36-14.91,8.84-5.18,12.95-13.18,13.87-23.47l10.07-112.7c22.5-8,38.05-26.76,46.76-48.99,5.42-13.84,6.99-28.07,8.05-43.15,3.78-3.86,7.9-9.19,6.44-15.86,3.09-4.53,4.41-10.44,2.85-15.17ZM833.87,259.01l1.32-7.3c1.37-7.57,34.16-12.32,58.6-.62,1.99.95,5.8,4.51,5.1,6.4-1.61,3.72-6.58,5.5-10.43,6.24-16.74,3.22-33.29,1.22-49.15-5.67-1.25,4.2,2.08,5.71,4.96,6.35l-.67,9.56s.26,4.14,1.68,4.11,1.32-2.58,1.75-4.71c.38-1.88.31-5.55.48-7.74,11.56,3.01,23.02,4.63,35.92,3.36l-.2,9.89s-.02,2.94,1.88,3.03,1.23-3.41,1.53-5.81c.5-3.99-.24-8.37,1.84-8.46,1.14-.05,3-.21,2.95-.2v10.09c-.01.38-.4,3.1,1.28,2.56,1.68-.54,1.55-3.7,1.55-3.7.3-.74.06-10.17.81-10.44l3.64-1.32-1.59,15.96c-13.77,9.42-38.67,7.39-54.98,1.25-3.41-1.28-8.29-4.05-9.9-6.98l1.6-15.84ZM791.05,344.28c3.95-23.31,18.54-42.22,40.06-51.81,2.17-1.94,3.37-6.1,4-9.32,17.24,8.93,37.86,10.16,56.83,4.99-.06,2.68.07,8.43,2.62,10.22,18.2,12.45,29.58,31.78,29.78,54.39l-1.95,29.4c-2.84-6.99-6.8-11.86-12.51-13.99-12.29-4.58-24.35,3.66-28.66,18.48-4.39-1.41-8.9-1.77-12.87.77-1.57-11.46-9.86-21.42-22.07-21.59-11.81-.17-20.62,8.6-23.88,19.94l-34.45-14.96,3.09-26.52ZM921.33,441.64c6.44,3.93,11.8,7.39,16.33,14.63l-18.02,2.93,1.69-17.56ZM912.02,411.61c-4.13,3.91-8.82,5.7-14.01,4.81-3.71-.64-8.37-3.61-10.82-7.87-6.44-11.2-3.45-26.23,6.49-34.29,6.22-5.04,14.34-4.56,19.93,1.32,9.35,9.82,8.57,26.41-1.6,36.04ZM857.37,410.96c-4.37,4.36-9.7,6.12-15.39,5.44-4.51-.54-10.04-3.72-12.9-8.62-5.65-9.69-4.78-22.43,2.31-30.82,7.06-8.36,19.03-10.04,26.61-1.99,9.4,9.97,9.27,26.11-.64,36ZM763.86,468.78c1.7-11.93,8.09-21.96,16.84-29.91l2.63-6.61,4.59-57.01,33.5,14.49c-1.28,13.87,4.82,27.08,17.6,30.12,7.52,1.79,14.77-.14,20.44-5.1,6.72-5.88,8.94-14.15,9.74-22.91.97-3.11,9.53-3.37,10.58-.27.26,8.21.68,16.11,6.18,22.37,4.58,5.21,11.25,7.64,18.2,6.37,6.28-1.15,11.46-5.29,15.82-11.9l-4.48,51.42-39.22,6.59c-3.44.58-7.22,3.68-7.92,7.12l-7.84,38.52-7.19,1.35c-.44-10.18-6.86-16.96-13.7-21.23-9.39-5.86-19.09-5.06-28.66-.88-5.57-.75-12.1-3.22-16.69-6.54-6.4-4.63-8.79-12.41-4.91-19.39l6.56-8.34,1.41-2.01c.3-.44-2.12-1.95-2.55-1.69-5.35,3.23-11.69,11.7-11.26,19.61.45,8.33,5.6,14.79,12.71,17.73l13.84,5.72c13.28-8.53,29.37-4.27,37.07,9.29,2.74,4.83,4.67,11.91-.77,15.62l-5.5-12.8c-.22-.52-2.37-1.32-2.9-1.19-.53.13-1.68,1.13-1.4,1.6l1.37,2.21c3.29,5.32,5.18,10.4,1.81,14.2-.71.8-3.38.71-3.84-.32l-4.86-10.9c-.27-.61-2.35-1.45-2.99-1.32-4.08.86,2.06,5.29,2.91,11.49.16,1.18-1.44,3.76-2.51,4.06-1.25.36-3.82-1.04-4.52-2.18l-4.6-7.5c-3.79.77-6.24,1.05-9.32-.31-1.96-.87-3.87-4.03-4.89-7.21-24-.78-44.66-18.49-41.26-42.36ZM854.53,537.56c.76.07.59,3.12-.01,3.59-4.63,3.61-12.63,5.37-16.05.58l9.42-3.29-9.41-5.88-14.16,3.21c3.21,5.51,11.05-4.39,19.02,2.05l-12.09,2.51,4.23,2.71,16.36,9.68-.58,7.63-7.48-2.25c-.12,4.86,7.09,5.45,6.24,6.79l-1.38,2.18-51.83-27.91c-.84-.45-2.16-.99-2.16-1.54l.02-2.79c2.37,1.32,4.49,2.05,6.32.86l-5.32-5.05,24.03-4.07c1.73,2.87,3.93,5.28,6.14,5.48,2.73.24,5.47-1.44,7.58-2.96,5.74,1.47,7.85.68,11.21-4.14,4.21-.07,7.77-1.82,8.43-7.04l6.5-1.14-3.74,18.25-2.97-.21c-.64-.04-1.26,2.01-1.38,2.48l3.07.29ZM853.38,544.67l-.41,5.27-5.71-2.98,6.12-2.28ZM816.41,573.88c-25.69-5.18-46.73-20.19-46.96-47.44l1.97-24.83c8.2,8.45,19.23,12.11,30.46,13.39,2.23,4.08,5.64,7.13,10.7,8.84l-20.79,3.97c-1.6,3.69-1.66,8.05-.75,12.53l30.97,17.16c-6.2,3.74-8.83,9.33-5.6,16.38ZM866.67,594.55l-46.87-22.37c-1.11-2.82-1.04-6.05.35-8.36,1.05-1.74,4.22-3.78,6.39-3.84l27.18,13.05c3.32,1.6,8.87-1.25,12.58-1.31,1.81.27,5.21,2.78,6.94,4.17-4.01,6.51-6.02,11.49-6.58,18.67ZM872.45,570.98l5.6-1.06-2.02,2.94c-.33.49-1.52-.13-3.58-1.88ZM874.84,601.56c-8.35-4.19-2.69-24.19,11.1-32.48,3.04-1.83,8.22-2.52,11.85-1.97,10.5,1.58-6.78,42.57-22.95,34.45ZM926.17,584.97l-20.65-10.8-2.36-8.64,21.76-3.89,7.14,4.94c-3.22,5.7-5.15,11.18-5.89,18.38ZM931.18,560.71l5.06-.81-2.01,3.04c-.33.5-1.41-.63-3.05-2.23ZM934.42,591.81c-7.85-3.25-3.05-23.08,8.16-32.16,3.06-2.48,8.99-3.15,13.06-2.36,10.7,2.06-6.67,40.55-21.22,34.52ZM973.85,546.25c-.61,1.77-2.66,3.63-4.78,3.99l-115.91,19.31,18.26-91.9c.97-4.89,3.67-7.87,9.01-7.95l107.68-17.07c.76-.12,3.04.37,3.66.79.77.53,1.11,2.57.9,3.61l-9.89,47.32-.34.63-8.58,41.26ZM1021.92,501.6c-.97,2.96-3.98,2.26-6.51,2.92l-22.51,5.86c-2.02.53-6.24-2.62-6.34-4.62l-.05-.98,2.46-10.33c1.53-1.84,4.67-4,6.93-4.16l1.58-5.66,17.43,4.08c.34,6.03,9.36,5.76,7.01,12.89ZM1019.13,491.99c.27-1.18.68-2.58,1.15-2.47l6.92,1.61-8.07.86ZM1152.05,468.27c-.21,2.14-4.3,4.52-6.08,4.96l-9.55,2.32-11.06,10.26c-4.21,3.9-9.28,7.45-15.33,7.46h-28.99c-30.09-2.05-59.15-6.86-88.56-14.12l4.21-22.57c.93-4.98-4.03-8.6-8.3-7.98l-28.71,4.17-4.93-56.26c-.22-2.47-1.68-4.79-4.35-4.49l5.04,61.44-13.51,2.32c-4.48-8.51-11.7-14.15-20.36-18.35l5.89-63.97c3.42,3.11,9.36,5.69,18.03,6.69,6.09,1.97,8.49.66,14.58-2.99,4.35,1.48,8.3.51,12.16-1.12,2.62,1.31,6.3,3.01,9.8,1.1,1.92-1.05,3.4-3.68,5.23-7.02,4.16,9.06,10.55,16.58,18.71,20.94,1.21-.6,2.41-4.32,1.45-4.81l-3.34-1.7c-2.26-1.15-3.82-2.55-6.34-5.22,2.11-1.53,3.61-2.5,5.56-3.31l3.37-1.41c.73-.3.4-2.74.06-3.52l-6.23-14.32c2.08-2.89,3.51-5.55,4.5-8.74,2-6.48-.17-12.99-6.95-15.33l-10.17-3.5-13.05-29.18c-2.38-1.09-5.21-3.38-5.87-5.83-1.31-4.9-5.19-6.3-9.02-4.38-3.08,1.55-4.68,5.79-1.88,9.24,1.86,2.29.38,6.4,1.27,8.49l8.84,20.68c-13.7,4.58-16.27,20.87-17.91,20.95l-3.98.19c-.68.03-3,1.24-2.55,1.77.45.54,1.56,1.42,2.28,1.67l6.78,2.34c2.01-6.3,4.58-13.04,8.94-17.89,5.84-6.51,14.02-7.81,22.11-5.1,11.36,3.81,19.68,12.67,15.91,19.52-.71,1.28-4.77,2.42-5.65,1.2-4.3-5.98-9.98-11.3-15.78-9.45-.62.2-.09,2.93.58,3.12,5.24,1.48,12.09,6.69,12.88,13.2.34,2.79-2.5,6.93-5.01,5.39-2.72-2.36-3.86-7.99-8.74-7.49-2.87,3.29,5.09,5.68,4.69,11.94-.1,1.59-2.89,4.97-4.45,4.56-4.5-1.2-6.87-8.67-10.27-6.79-.51.28-.66,1.66-.37,2.17l1.82,3.2c-3.85,2.36-7.31.9-11.21-1.12l-2.42-1.25c-.37-.19-1.29,1.42-1.08,1.79l1.46,2.58c-2.24,1.66-5.22,2.04-8.34,1.7v-.02c-.22-.02-.43-.05-.65-.07-1.24-.18-2.5-.46-3.73-.81l-.07.34c-10.05-1.64-14.56-5.54-15.38-8.4l.35-3.78c.52-5.7.45-11.35-.2-16.87l.33.03c.55-5.31,5.86-13.5,18.9-21.27l1,6.27c1.02.36,3.22-1.82,3.17-3.24-1.31-37.8-.17-74.62,4.46-112.16,2.71-22.04,8.15-42.5,14.1-63.82l2.15-17.54c1.85-1.37,4.76-3.92,4.71-5.7-.04-1.58-2-4.36-3.36-6.06l2.8-23.5c.44-3.7,5.9-8,10.33-7.44l177.45,22.28c5.31.67,7.77,6.93,7.28,11.08l-2.64,22.22c-2.61,1.23-5,3.37-5.02,5.45-.02,1.54,1.95,4.05,3.8,5.73l-3.76,21.57-10.86,37.17c-7.67,26.27-12.24,52.61-13.51,79.97l-2.83,37.01c.01.38,2.36,2.02,2.81,1.39l1.36-1.88,4.25-53.62,6.59-40.55,14.61-52.24c3.8,21.99,7.62,43.01,5.81,64.77l-5.99,72.01-14.02,143.55ZM991.33,368.89c3.97-3.12,4.48-6.35,4.67-11.67l6.64,14.04-7.77,4.8-3.54-7.17ZM971.86,302.85l10.67,24.25-10.62.27-8.88-19.92c.97-2.99,5.62-5.13,8.83-4.6ZM962.89,300.69l-1.65-3.13c-.31-.59-.64-2.23-.49-2.88.15-.65,1.52-1.46,2.17-1.61,1.71-.38,4,4.79,2.92,6.37-.43.62-2.61,1.91-2.96,1.26ZM1184.87,429.68c-1.63-1.37-3.58-3.88-3.42-5.47.21-2.05,2.3-4.08,4.14-4.67l-.72,10.14ZM1185.51,415.26c-4.69,1.71-7.45,5.12-7.91,8.83-.53,4.36,2.89,7.99,7.23,10.4l-1.23,35.26c-4.46.14-7.37-1.22-9.73-4.35-1.61-2.13-2.2-6.37-.14-8.62l2.13,3.55c.44.74,2.64.86,3.17.3-.71-4.09-1.09-8.12-.54-12.54-5.86-3.45-12.37-7.82-15.1-14.68-6.55-16.46,7.53-31.7,23.29-38.9l-1.17,20.76ZM1372.29,211.97c7.08-.38,8.11,18.41,9.08,30.48l-8.66,1.01-2.95-26.84c-.17-1.56,1.22-4.59,2.54-4.66ZM1214.81,250.31c4.87-4.33,11-7.49,17.82-9.08,27.26-6.35,55.86-4.82,82.2,4.58,8.49,3.03,19.31,9.85,18.94,17.26-.38,7.73-14.7,14.14-22.99,15.34l-20.89,3.03c-2.05-1.87-3.42-.4-5.07-.31-21.69,1.17-56.74-3.04-70.9-18.15-3.53-3.76-2.95-9.26.88-12.67ZM1211.25,265.78c5.77,6.28,12.69,10.1,21.26,12.78,24.55,7.7,50.83,8.72,76.22,4.28,9.22-1.62,16.84-4.67,24.18-10.12-.09,9.39-23.04,14.69-34.9,15.88-26.39,2.64-64.18.06-84.6-16.32-1.74-1.39-2.64-4.29-2.16-6.5ZM1318.94,533.12c.44,1.99-1.24,6.12-3.48,7.01-9.9,3.95-24.66.3-25.89-6.58-.32-1.79,1.01-5.82,2.71-6.5l17.22-6.96c1.06,5.38,7.92,6.18,9.44,13.03ZM1288.19,523.48c-17.93,3-35.73,2.41-53.67-.66-13-2.22-29.79-7.58-34.83-19.39l20.77,7.86c29.79,7.59,65.35,8.18,93.62-2.36-3.45,8.84-16.29,12.95-25.89,14.55ZM1343.6,310.68l-2,28.45-.7,9.74-11.76,132.5c-.85,9.54-4,16.86-13.04,21.53-25.65,13.23-66.17,11.53-94.71,4.19-15.15-3.9-34.83-13.01-34.09-28.68l8.61-182.43,13.84-21.64c6.02,5.18,11.6,8.59,18.84,11.1,25.45,8.8,53.03,10.5,79.59,5.64,9.31-1.7,17.69-5.08,25.46-10.2l5.13,11.74-7.6,6.76c4.43.39,5.81-1.45,9.25-3.88,2.58,4.66,3.58,9.78,3.2,15.18ZM1393.71,274.92c0,37.88-14.32,74.88-49.86,90.32l.62-16.22c.22-5.65.37-7.89,5.07-11.08,17.13-11.59,26.61-40.47,25.79-62.49-8.51-4.48-13.59-15.88-7.8-24.22,3.83-5.5,13.23-5.08,18.47-2.93.56,1.36.75,4.16,0,4.99-3.35,3.62-8.87,1.38-11.18,4.85,4.03,3.62,7.68.81,9.49,11.54.8.43,3.54-1.38,3.32-2.41l-1.17-5.51,6.75-.19c2.02,1.29,4.22,2.17,7.04,2.93.87,3.62-2.15,8.54-6.54,10.42ZM1401,258.94c-.58.68-4.04,1.22-4.11.44l-.3-3.18c-.06-.62.41-2.89-.18-2.76-4.46.97-3.75,5.61-8.28,3.8,1.08-3.07,1.95-5.24,1.95-7.93,0-2.07-2.29-4.49-4.58-6.39-1.32-1.1-.45-4.96,1.29-5.63,1.65-.63,5.65.4,6.15,2.08l2.47,8.28,3.48-3.72c.72-.77,3.43,1.06,3.94,2.02,2.06,3.91.91,9.82-1.82,13.01Z"/>
      <path class="cls-1" d="M1143.59,347.03c7.14,13.38,10.06,28.03,6.59,42.58-4.52,18.95-17.83,33.53-36.87,38.15-3.4,14.64-20.86,18.33-34.79,13.44-1.77-.62-2.91-5.17-1.41-5.15l11.96.12c.71,0,2.02-3.03,1.33-3.2-5.72-1.37-18,.24-19.6-7.92-.19-1,1.65-3.26,2.69-3.33,10.74,4.18,19.48,2.57,17.65.2-2.92-3.78-11.83.27-17.49-6.78.57-10.42,13.38,1.31,25.88-6.28l1.43-7.87c4.66,1.36,7.34,4.4,9.25,8.98,15.36-5.26,24.99-19.04,22.97-35.42-1.22-9.89-5.78-18.81-7.63-16.01-.38.58-.76,2.49-.41,3.23,8.12,17.38,4.14,35.64-13.07,42.58-2.63-3.92-5.52-5.82-10.24-7.27l3.19-25.26c.52-4.12-6.99-5.01-9.29-5.79-.69-3.14-1.35-8.23-4.49-9.41-5.93-2.24-8.98,2.6-11.78,7.38-.75-4.43-1.47-9.21-5.27-10.37-5.52-1.68-8.47,2.49-11.3,7.5-.56-5.11-1.63-10-6.8-10.75-4.64-.67-7.84,3.53-9.63,7.53-.55-5.33-2.63-9.82-7.7-10.03-3.91-.16-6.82,3.96-8.95,7.21-2.42-.46-10.83-2.52-11.64,2.88l-15.34,101.4c-.53,3.53,2.49,6.69,5.47,7.27l70.96,13.65,10.2-5.68,4.28-27.64c11.26-.66,19.38-6.21,22.79-15.82,15.51-4.63,27.31-14.88,33.9-29.45,8.84-19.53,6.8-42.17-5.48-60.2-1.92.79-2.4,3.56-1.36,5.51ZM1094.05,407.65l1.84-7.88c2.3,3.19.73,6.15-1.84,7.88ZM1099.7,370.64c.72.81,1.78,3.26,1.53,4.08-2.2,7.26-.64,15.8-4.94,22.46l3.41-26.55ZM1088.96,359.41l3.06,5.97-8.39-1.15,5.33-4.82ZM1071.75,357.38c1.51-.22,3.11,2.07,3.29,4.94l-7.15-.98c.45-1.47,2.52-3.77,3.86-3.96ZM1054.91,354.12c1.91-.28,3.45,2.16,3.4,5.31l-7.42-.66c.95-2.29,2.62-4.45,4.02-4.66ZM1039.51,351.88c1.58.45,3.05,3.99,2.55,5.24l-7.4-1.38c.77-2.26,3.13-4.36,4.85-3.87ZM1010.64,463.02c-2.09-.4-3.92-2.25-3.58-4.52l14.91-99.7,7.14.25c.05,4.02.64,8.42,1.79,10.57.4.75,3.03,1.19,3.85.94,1.02-.31,2.31-2.89,1.91-3.64l-3.58-2.92c-.81-.66.32-4.18.8-4.38l11.39,1.72.66,8.53c.11,1.44,2.48,3.4,3.8,3.57,1.32.17,4.36-2.54,3.78-3.55l-3.68-2.54c-.8-.55-.38-3.2-.16-5.04l12.36,2.01.97,10.12c.11,1.12,3.67,2.27,4.61,1.73.94-.54,2.18-2.07,2.79-3.19l-3.85-2.55c-.99-.66-.26-4.6.3-5.16l11.64,2.05c.35,3.16,1.09,8.06,1.96,10.49.34.94,4.37,1.63,4.86.77l1.79-3.12c-2.14-1.19-3.83-1.64-3.87-2.68l-.17-4.92,12.92,2.76-5.66,37.55-12.27-1.67c-2.01-.27-5.62,1.58-6.88,3.03-1.36,1.57-1.08,5.72-1.57,8.06-.63,3.01-3.44,5.83-2.59,9.36.6,2.49,3.05,5.06,5.72,7.16-.1,1.39-.49,5.2.18,6.58,1.84,3.86,6.54,5.94,11.34,6.15l-4.46,29.2-69.14-13.04ZM1086.76,468.66c-.25,1.76-1.07,3.54-2.68,4.89l3.96-26.11,1.77.1-3.04,21.12Z"/>
      <path class="cls-1" d="M1147.73,174.38l-2.24-2.22-159-20.11-2.48,2.15c-.58.5,1.95,2.09,2.69,2.35l157.58,19.95c1.39-.16,3.99-1.6,3.46-2.13Z"/>
      <rect class="cls-1" x="1066.23" y="64.85" width="4.71" height="164.05" transform="translate(789.7964 1188.8509) rotate(-82.8473)"/>
      <path class="cls-1" d="M1017.77,287.95c2.06.29,5.61-1.23,6.69-3.28,4.87-9.24,2.09-20.03-3.93-20.71-1.66-.19-5.28,1.29-6.17,2.77-5.25,8.61-2.7,20.37,3.41,21.22Z"/>
      <path class="cls-1" d="M1040.3,318.58c8.53.88,16.26-4.29,17.86-12.96-.76-.78-1.99-1.98-2.45-1.72-2.3,1.35-4.67,11.99-15.92,10.68-11.25-1.31-11.35-15.26-13.7-12.63l-1.66,1.86c.81,8.5,7.18,14.51,15.87,14.76Z"/>
      <path class="cls-1" d="M1077.6,270.19c-9.3-.76-20.18,6.93-19.18,11.75.37,1.76,7.99-1.38,15.71,6.59.58.6,2.42.99,3.14.84,3.06-.66-1.71-7.74-12.13-10.96,6.19-5.8,12.08-2.7,15.03-6.04.39-.45-1.77-2.11-2.57-2.17Z"/>
      <path class="cls-1" d="M1026.9,245.69c.44.63,3.12,1.26,3.26.59l.63-2.9c-6.15-6.24-14.73-5.9-20.49.65l1.34,2.84c.31.66,10.31-8.21,15.25-1.18Z"/>
      <path class="cls-1" d="M1129.06,432.95c-.81.14-1.42.81-1.5,1.63l-2.42,26.49c-.16,1.77,1.28,3.27,3.05,3.17.62-.03,1.07-2.14,1.13-3.02l1.86-26.36c.08-1.18-.96-2.12-2.13-1.92Z"/>
      <path class="cls-1" d="M869.85,444.02c11.51.53,20.15-11.77,15.94-14.63-2.27-1.54-4.35,11.18-15.7,10.66-11.37-.51-13.34-13.43-15.19-10.96l-1.36,1.83c1.67,7.58,8.75,12.75,16.31,13.1Z"/>
      <path class="cls-1" d="M927.56,500.8c-7.62,1.34-12.26,9.36-9.31,16.65,1.3,3.22,5.55,5.18,9.39,4.12,6.25-1.73,9.53-7.2,9.34-12.9-.17-4.97-4.45-8.74-9.42-7.87ZM929.26,517.04c-1.16,1.18-5.35,1.33-6.46.06-3.58-4.15-.82-10.24,3.92-12.22,1.14-.48,4.03-.15,4.93.63,2.55,2.2,1.7,7.37-2.4,11.54Z"/>
      <path class="cls-1" d="M812.82,541.4c-.57-.12-.9,2.1-.5,2.52l1.26,1.31,28.62,14.83c1.17-2.16.63-3.29-.56-3.92l-25.94-13.77c-.74-.39-2.3-.85-2.87-.97Z"/>
      <path class="cls-1" d="M847.7,384.54c-1.75-.14-5.16,1.58-6.09,3.22-2.92,5.16-2.95,10.71-.32,16.03.7,1.42,3.89,3.12,5.4,2.9,5.38-.78,8.87-10.25,6.32-17.83-.63-1.89-3.61-4.18-5.31-4.31Z"/>
      <path class="cls-1" d="M899.7,385.27c-1.9-.22-5.32,1.44-6.34,3.3-2.69,4.93-2.72,10.25-.43,15.49.72,1.64,4.04,3.5,5.68,3.33,5.5-.57,8.95-8.99,6.44-17.66-.56-1.92-3.59-4.27-5.35-4.47Z"/>
      <path class="cls-1" d="M1350.23,202.43c.84.72,2.53.7,3.27.36.55-.25.34-2.97-.12-3.38l-9.86-8.68c-.6-.53-3.76-.21-3.6.51l.67,2.98,9.65,8.21Z"/>
      <path class="cls-1" d="M1370.52,188.94l-.67-12.3c-.04-.74-1.17-2.31-1.67-2.76-.5-.45-2.51,1.55-2.47,2.29l.97,16.68c2.67.3,3.97-1.55,3.84-3.91Z"/>
      <path class="cls-1" d="M1390.31,199.89l7.81-9.48c.5-.6.31-2.57-.02-3.23-.21-.44-2.54-.1-2.83.25l-8.14,9.72c-.68.81-.91,2.84-.22,3.47.51.47,2.94-.18,3.4-.73Z"/>
      <path class="cls-1" d="M1235.9,402.91c-5.57-2.45-5.88,8.05-.14,16.82,4.16,6.36,11.15,9.4,18.56,8.12,10.89-1.88,19.42-17.59,13.87-23.72-10.7,3.28-22.53,3.07-32.28-1.22ZM1250.98,424.1c-8.76-.08-14.77-8.07-14.96-16.57,9.4,3.25,18.07,3.78,29.38,1.84-.01,7.16-6.31,14.8-14.41,14.73Z"/>
      <path class="cls-1" d="M1276.47,369.07c-1.62-.13-4.97,1.48-5.88,3.09-4.8,8.51-2.31,19.14,4.23,20.2,1.65.27,5.19-1.37,6.09-3.11,4.95-9.54,1.84-19.68-4.44-20.18Z"/>
      <path class="cls-1" d="M1232.99,369.59c-.73-1.8-3.69-3.88-5.42-3.91-1.86-.03-5.08,1.66-5.91,3.37-4.57,9.52-1.26,19.72,4.9,19.89,6.26.17,10.35-9.7,6.42-19.35Z"/>
      <path class="cls-1" d="M1339.73,303.65l-1.94.98-9.6,5.08c-.67.35-2,2.26-1.38,2.53.61.27,2.57.69,3.17.37l9.72-5.22c.67-.36.61-4.04.03-3.75Z"/>
      <path class="cls-1" d="M1278.02,274.98c4.57-4.56,9.2-7.39,15.33-8.98,1.35-3.19,2.75-7.08,2.03-9.51-.58-1.97-2.78-4.04-5.26-6.72l16.24,3.94c1.16.28,3.4-.65,3.81-1.79-8.87-4.16-17.83-5.2-27.11-6.18-6.78-.72-11.91,1.62-18.18,3.87l-16.84,6.03c-3.81,1.36-6.43,5.18-6.44,8.56-.02,11.28,23.03,13.81,36.4,10.78ZM1249.4,259.13l24.39-8.52c6.09-2.13,18.49,3.52,17.79,8.54-.17,1.22-1.91,3.02-3.25,3.87l-12.27,7.85c-10.13,3.35-30.7-.82-30.56-6.61.04-1.55,2.42-4.62,3.9-5.13Z"/>
      <path class="cls-1" d="M1223.4,256.96c5.69-.99,10.39-2.74,15.39-5.48-6.17-1.18-12.44.22-15.39,5.48Z"/>
      <path class="cls-1" d="M1277.8,265.22c-3.85-2.28-7.04.67-11.92-3,3.46-6,10.99-2.91,13.77-.27.49.47,3.34-1.02,3-1.63-.34-.61-1.35-2.13-1.95-2.48-7.76-4.59-19.03-1.54-18.85,4.28.24,7.58,19.74,5.36,15.95,3.11Z"/>
    </g>
  </g>
</svg>