<?xml version="1.0" encoding="UTF-8"?>
<svg id="Layer_2" data-name="Layer 2" xmlns="http://www.w3.org/2000/svg" viewBox="0 0 896.8 985.51">
  <defs>
    <style>
      .cls-1 {
        fill: #2c45c9;
      }
    </style>
  </defs>
  <g id="gentrace-sample-file-last-art">
    <g>
      <path class="cls-1" d="M88.35,318.64c.68,4.05-.86,6.79-4.16,8.08-2.26.88-7.36-.37-7.97-3.7l-4.72-25.88c-.65-3.54,1.78-6.84,4.44-7.63,3.94-1.18,7.7.94,8.38,5.03l4.04,24.11Z"/>
      <path class="cls-1" d="M49.17,336.86c3.45,2.35,4.03,6.52,2.36,9.1-2.24,3.46-6.51,3.92-9.73,1.73l-18.74-12.72c-3.08-2.09-3.7-6.53-1.77-9.32,2.45-3.53,6.64-3.23,10.05-.91l17.83,12.13Z"/>
      <path class="cls-1" d="M129.96,331c-2.55,3.66-5.74,5.21-9.45,3.29s-4.4-6.36-1.82-10.06l12.5-17.92c2.3-3.29,6.4-4.11,9.46-1.99,3.26,2.26,3.55,6.25,1.17,9.67l-11.86,17.02Z"/>
      <g>
        <path class="cls-1" d="M699.55,456.27c-4.36-4.92-1.5-11.65,2.61-14.35,5.59-3.66,10.31-.62,14.33,3.83l25.22,27.95,75.81-82.72c3.57-3.9,9.96-2.97,13.29-.3,2.96,2.37,5.59,8.82,2.11,12.63l-81.94,89.64c-4.52,4.94-11.88,7.93-17.16,1.98l-34.27-38.66Z"/>
        <g>
          <path class="cls-1" d="M335.07,982.42c-46.24-3.49-156.62-15.5-183.75-49.06-5.4-6.68-5.37-15.34-.32-22.27,16.72-22.98,74.55-34.78,104.61-39.78,6.21-1.03,12.48-1.77,17.82-6.39-34.99-16.68-47.72-38.67-49.3-76.51l-.4-29.8-.25-132.09c-42.79,28.49-91.81,22.38-130.47-10.09-19.84,3.11-39.39.99-57.33-7.32-13.29-6.15-22.6-16.95-27.39-30.81-9.07-26.21-10.35-53.76-5.53-81.07l4.17-19.46c10.1-26.89,34.66-32.93,62.97-31.98-10.59-25.67-15.56-61.28,4.66-80.1,14.38-13.38,36.79-11.69,47.76,4.56,15.6,23.1-.04,56.34,20.32,83.8,17.02,22.96,20.9,46.84,15.12,75.01,9.36,12.54,24.42,16.65,39.23,11.57,9.91-3.39,18.22-9.6,26.5-16.65l.21-145.66c.06-43.33,11.76-88.15,36.66-123.43l19.12-27.11c21.99-31.16,29.05-63.51,29.01-100.94-10.24-3.59-16.62-11.31-16.54-21.73l.52-64.64c.14-17.45,32.75-28.14,50.74-32.01,48.26-10.37,98.26-11.23,146.8-2.36,11.26,2.06,21.14,5.56,30.77,10.72,7.82,4.18,13.3,11.47,13.59,20.53l1.93,61.82c.34,10.79-6.06,19.17-16.27,23-.17,38.31,10.8,66.45,37.65,93.55,12.97,13.09,24.03,26.65,32.64,43.09,14.14,27,22.55,55.81,25.7,86.15l2.5,52.85-.06,169.27c18.69,10.93,34.83,24.58,48.35,41.76l25.92-56.9c-29.4-19.1-49.11-49.05-56.27-83.3-15.36-74.6,36.78-146.48,110.41-161.36,60.9-12.31,117.95,24.44,140.15,80.87,16.89,40.7,11.35,86.7-12.25,123.54-28.35,44.25-79.38,67.67-131.44,59.14l-17.57,39.15c10.07,14.17,15.62,30.19,16.74,47.59,1.49,18.55-1.97,36.61-10.7,52.77-7.79,14.42-18.74,24.28-32.64,32.51-24.75,14.65-55.33,16.33-80.68,1.96l-.41,46.47-2.8,24.4c-4.48,21.76-18.3,38.73-38.22,48.37l-.68,1.43c-.2.41.99,1.64,1.5,1.86l13.31,5.63c29.19,6.65,70.63,14.72,91.01,34.82,8.56,8.45,8.35,20.6-.43,28.73-17.85,16.52-51.74,25.97-76.64,31.38-27.76,6.03-54.88,10.17-83.37,12.78-62.31,5.72-124.25,6.45-186.65,1.74ZM490.79,48.35c10.41-2.72,29.58-9.91,29.17-16.32s-20.53-12.19-31.41-14.32c-33.71-6.6-67.63-7.21-101.96-3.91-19.35,1.86-37.49,4.53-55.85,9.96-10.07,2.98-26.87,10.61-25.39,15.76,1.76,6.13,17.62,11.33,27.28,13.38,46.9,9.96,111.46,7.68,158.17-4.54ZM410.58,130.67l-.69-39.43c.5-2.26,2.66-4.81,4.62-5.02,2.43-.26,4.89,1.71,5.61,4.07l.75,40.12,35.93-2.89-1.04-40.17c.07-3.38,2.53-5.78,5.92-5.48,2.17.2,4.17,2.86,4.17,5.63l1.08,38.45,29.54-6.46-1.38-40.98c.71-2.44,2.71-4.64,4.86-4.86,2-.2,4.96,2.32,5.04,4.53l1.38,37.95,13.34-6.23c5.35-2.5,5.73-7.7,5.57-12.86l-1.6-51.2-11.1,6.65c-10.19,4.47-20.15,7.82-31.34,10.11-49,10.03-99.16,10.99-148.37,2.25-10.97-1.95-20.17-5.79-29.85-11.15l.15,51.45c.03,9.77,11.15,13.05,21.03,15.87l-.57-58.01c0-2.65,2.41-5.25,4.91-5.31,2.27-.06,4.61,2.11,5.34,4.69l.58,61.49,29.25,4.73-.24-38.36c-.02-3.21,2.8-5.62,5.87-5.31,2.2.22,4.17,2.61,4.42,5.36l.08,39.3,36.74,1.05ZM574.77,852.36c27.52-14.59,32.02-40.17,32.08-69.03l.1-46.44c-15.01-11.14-22.57-28.52-10.6-43.02-7.29-14.42-3.33-30.51,11.02-38.01l.05-14.04-.27-20.55-.05-234.24c0-17.12-1.33-32.77-3.61-49.37-3.12-22.69-9.36-43.81-18.83-64.56-8.41-18.43-19.82-34-34.18-48.26-28.06-27.9-40.33-58.02-41.86-97.53-43.45,14.34-90.17,16.97-134.87,13.67-18.54-1.37-36.12-4.16-53.83-9.41l-1.24,18.61c-2.31,34.69-15.28,65.88-36.17,93.36-12.79,16.83-23.91,33.76-31.94,53.51-9.64,23.71-15.39,49.02-15.39,75.3l-.11,403.98c0,10.83.54,20.51,2.4,30.58,5.62,30.34,29.17,44.76,57.22,53.52,22.1,6.9,44.07,10.57,67.33,13.09,59.65,6.45,136.42,5.83,193.14-12.82l19.61-8.34ZM806.66,553.11c62.32-24.3,93.76-94.72,71.17-157.02-10.56-29.13-30.8-52.71-58.33-67.18-57.54-30.24-127.2-.69-157.95,53.2-18.8,32.94-22.26,70.75-6.47,107.93,12.13,28.55,37.8,54.55,70.9,64.99,26.14,8.25,54.34,8.35,80.69-1.92ZM17.23,482.82c-7.87,30.4-8.35,58.97.65,89.03,3.94,13.17,12.34,22.75,25.15,28.05,15.36,6.36,32.54,7.89,49.05,4.96,13.7-2.43,19.57-10.67,23.52-5.72,1.02,1.28,1.42,5.54-.04,6.48l-10.12,6.51c37.24,27.13,81.13,29.09,118.09.43l-.04-73.99c-22.82,17.34-48.07,22.87-69.04,2.92l-5.81,14.18c-.68,1.66-4.88,2.18-6.37,1.3s-2.72-3.97-2.02-5.83c11.14-29.53,14.13-63.7-5.63-89.19-12.9-16.64-15.13-36.44-15.37-57.41-.16-13.51-1.95-29.38-14.04-34.69-10.47-4.6-21.74,0-27.63,9.62-12.2,19.96-3.39,47.14,5.02,68.56,13.19,2.84,25.21,8.36,33.38,18.72,9.13,11.57,9.6,27.17.6,38.61,11.09,11.69,9.64,29.46-.73,40.6,4.66,7.98,5.82,16.89,1.6,26.31-8.32,18.57-33.75,21.38-53.99,18.94-3.23-.39-5.88-2.62-5.74-5.5.13-2.69,2.8-4.95,5.6-4.99l22.94-.32c5.93-.08,11.49-2.86,16.16-6.31,7.05-5.2,9.61-16.11,3.75-22.92l-43.72-2.14c-3.29-.16-5.08-3.79-4.27-6.63.51-1.82,3.61-3.67,6.19-3.63l41.97.75c4.61-3.08,7.29-8.71,7.19-13.85-.08-4.67-1.52-12.07-6.64-13.98-14.03-5.24-28.59-5.89-43.46-6.4-3.17-.11-5.73-2.03-5.97-5.03-.14-1.79,2.13-4.9,4.45-5.11,15.62-1.42,30.31.73,45.3,4.5,7-7.58,6.65-18.52.14-26.27-4.16-4.95-9.76-8.94-16.11-11.2-26.13-9.32-66.71-7.73-74.05,20.63ZM705.07,628.83l27.12-60.26c-10.52-2.52-19.9-6.12-29.62-11l-26.19,56.94c10.04,2.76,19.39,7.04,28.69,14.32ZM655.32,612.36c-10.17-12.45-22.58-22.68-36.84-32.12l-.03,44.65c10.55-8.28,22.52-11.88,36.87-12.53ZM607.71,691.18l31.81,7.01c3,.25,5.29,2.56,5.26,5.3s-2.8,4.98-5.95,4.64c-12.03-1.31-23.24-3.58-34.65-6.64-7.84,11.65,4.29,24.32,16.25,31.6,24.15,14.69,53.21,12.79,76.68-2.23,12.69-8.12,22.18-18.66,28.11-33,10.09-24.4,8.34-52.29-4.7-76.15l-6.91,15.25c1.32,2.7,1.8,6.08-.64,8.06-1.76,1.43-5.16,1.04-7.22-1.06-15.83-16.09-37.58-22.61-59.89-19.15-16.46,2.55-32.06,13.79-26.77,28.99,11.51.34,21.93,1.19,33.04,3.49,2.17.45,3.76,4.19,3.43,5.96-.41,2.23-3.1,4.35-5.86,3.96-12.8-1.96-24.98-2.54-37.63-1.91-9.5,5.43-11.03,17.37-4.34,25.89ZM346.28,920.99c5.4-4.32,9.33-10.69,9.28-17.75l-.15-18.61-46.12-8.1-25.86-7.69c-.72,4.98-3.96,7.18-8.38,8.47-11.18,3.27-21.43,9.2-28.23,18.63-4.74,6.58-6.61,15.76-2.41,22.82,4.37,7.34,12.29,11.48,20.74,13.56,24.47,6.03,61.62,4.32,81.15-11.32ZM599.66,926.01c9.79-7.2,10.74-19.71,3.18-29.28-7.69-9.73-18.88-16-30.89-19.83-3.52-1.12-5.52-4.07-6.07-8.06-22.99,8.8-46.47,13.25-71.24,16.29l.51,20.78c.17,6.82,5.17,11.82,9.91,16.28,23.28,16.46,72.72,19.9,94.59,3.81Z"/>
          <path class="cls-1" d="M448.13,577.14c.86,33.93-20.53,66.56-54.14,65.14-15.27-.64-29.55-9.07-38.13-22.7-8.18-13.01-11.63-27.7-12.15-43.39-.05-1.4,1.86-4.19,3.04-4.83s4.31-.99,5.53-.39c27.12,13.22,59.72,12.99,87.38,1.39,3.03-1.27,8.35.41,8.46,4.8ZM428.45,612.96c-19.83-11.74-47.43-11.94-61.55,5.14,8.09,10.49,20.39,15.52,33.53,14.15,11.24-1.17,22.33-8.54,28.01-19.29Z"/>
          <path class="cls-1" d="M461.53,534.06c-7.55.49-14.22-4.16-17.49-10.54-12.97-25.26-3.87-61.69,16.63-62.36,20.55-.67,30.25,36.28,16.4,62.16-3.07,5.74-8.47,10.28-15.53,10.74Z"/>
          <path class="cls-1" d="M345.48,466.22c15.71,22.2,6.87,64.44-14.53,64.72-23.38.31-30.47-44.25-13.46-65.72,3.63-4.57,9.04-7,14.47-6.89,5.26.11,10.2,3.21,13.51,7.89Z"/>
          <path class="cls-1" d="M346.89,404.74c-11.41-6.26-23.07-3.72-31.4,5.58-1.53,1.71-4.92,2.62-6.62,1.66-2.17-1.23-3.04-4.99-1.59-7.06,10.13-14.41,30.55-19.24,44.26-8.48,1.13.88,1.79,4.09,1.53,5.48-.29,1.59-4.16,3.93-6.18,2.82Z"/>
          <path class="cls-1" d="M480.43,415.37c-7.96-10.23-20.01-13.58-31.26-7.55-1.6.86-5.32-.73-6.05-2.28-.68-1.44-.31-4.87,1.21-5.95,13.91-9.9,33.17-4.87,43.82,9.43,1.47,1.98.8,5.72-.96,7.14-1.38,1.11-5.19,1.23-6.76-.79Z"/>
        </g>
      </g>
    </g>
  </g>
</svg>