<?xml version="1.0" encoding="UTF-8"?>
<svg id="Layer_2" data-name="Layer 2" xmlns="http://www.w3.org/2000/svg" viewBox="0 0 797.63 953.91">
  <defs>
    <style>
      .cls-1 {
        fill: #2c45c9;
      }
    </style>
  </defs>
  <g id="gentrace-sample-file-last-art">
    <g>
      <g>
        <path class="cls-1" d="M375.71,950.88c-47.63-2.88-153.66-14.41-187.76-41.27-4.81-3.79-8.82-9.5-7.09-15.75,6.97-25.2,81.91-37.35,109.68-41.79,5.27-2.71,11.43-5.64,17.26-7.27,1.85-1.15,1.94-7,.15-8.21-8.72-5.88-16.72-10.83-24.18-18.05-16.28-15.77-27.55-36.36-27.71-59.49l-.57-80.24c-14.45,7.09-28.61,10.1-43.78,6.61l.88,14.38c-3.03,7.4-8.52,11.32-16.16,12.95-6.07,1.29-12.52,2.47-18.51.8s-10.23-5.94-11.22-11.73l-3.02-17.74c-23.34-2.79-46.15-18.7-42.6-42.67.36-2.43-.96-5.14-2.59-6.93-9.71-10.7-10.55-26.11-3.48-38.63-8.29-13.33-5.26-30.08,6.29-40.09,6.4-5.55,13.51-8.08,22.32-10.48l-2.46-15.81c-4.13-1.15-6.8-3.72-7.27-7.14l-1.61-11.87c-14.61-2.09-27.49-4.71-40.71-10.33C20.28,469.8-17.23,389.81,7.72,316.05c12.28-36.29,37.09-66.95,70.87-84.51,60.32-31.35,131.81-17.4,176.8,35.13,2.24-41.81,23.31-75.39,58.56-94.8-4.06-5.23-6.85-10.69-7.83-17.51l1-102.17c.08-7.88,5.64-14.61,11.4-19.49C345.69,9.7,408.22,2.33,445.01.6c39.88-1.88,83.18.53,121.97,9.09l24.31,6.9c16.24,4.61,42.41,18.77,42.44,35.72l.15,97.34c.01,8.13-1.73,15.1-7.55,21.98,37.19,22.36,60.28,61.54,60.29,105.06l.02,166.02c41.66,9.54,81.83,33.99,101.05,71.82,22.91,45.73,4.01,95.18-34.04,126.72-.21,20-8.65,38.21-24.24,50.18-7.35,5.64-15.32,7.76-24.74,7.39-3.69-1.14-7.06-2.81-10.75-5.03l-8.25,1.61-.55,60.57c-.22,24.46-12.27,46.09-29.75,62.58-11.34,10.15-23.63,17.58-37.67,23.61l-1.55,1.95c-.36.46,1.46,1.85,2,2.05l11.64,4.18,61.02,11.25c16.13,2.97,43.55,12.97,55.04,24.63,6.34,6.43,5.47,15.95-1.16,21.81-6.43,5.69-13.83,9.68-21.99,12.98-43.34,17.54-107.75,25.41-155.16,28.87l-15.16,1.1-16.58.94-21.47.93-37.6,1.01-25.19.05-34.62-1.03-24.28-.97-16.93-1.03ZM606.54,70.23c11.2-5.84,20.63-16.07,13.1-24.77-11.74-13.56-36.83-21.03-55.42-24.95-29-6.12-63.07-9.92-92.71-8.71-11.84-.48-23.22-.48-35.1.41-33.09,2.48-63.96,6.75-94.82,19.06-7.38,2.95-13.98,7.33-19.47,12.8-4.74,4.71-4.78,11.25-.22,16.3,12.44,13.8,42.27,22.35,62.06,26.12,35.74,6.8,71.44,9.51,107.84,7.77,36.24-1.73,83.07-7.53,114.74-24.03ZM623.35,153.64v-81.72c-8.13,6.01-14.94,10.36-23.61,13.73-58.49,22.77-135.55,23.26-197.71,15.32-29.18-4.56-61.18-10.91-85.22-29.91l-.53,77.65c-.04,6.62,1.87,12.36,6.92,16.79,6.99,6.13,15.3,10.54,24.25,13.92,44.23,16.71,109.7,21.01,157.12,17.38,27.77-2.13,54.38-5.42,80.5-14.24,14.03-4.74,38.28-15.5,38.28-28.92ZM653.97,625.67l10.55-9.58c2.67-.82,6.36-.19,7.31,2.1,1.01,2.44-.09,5.11-2.12,6.8-11.01,9.15-22.3,25.01-14.54,35.92,2.08,2.92,8.08,5.54,10.95,2.66l10.36-10.4c1.66-1.67,4.27-2.76,6.5-2.07,1.63.51,3.54,4.62,2.33,6l-12.58,14.33c-1.62,1.84-.81,7.2.65,9.28,4.82,6.86,16.65,5.12,21.72-.93l9.07-10.81c1.34-1.59,4.7-1.85,6.4-.45,1.4,1.15,1.85,5.07.59,6.67l-9.01,11.43c7.33,3.35,14.3,1.17,20.2-3.14,14.08-10.27,21.34-27.14,20.95-44.81-.05-2.31,2.37-4.58,4.13-6.02,15.65-12.79,27.28-28.92,34.46-47.86,15.81-41.68-4.83-81.68-40.13-106.2-19.41-13.48-40.98-21.78-64.01-26.92-2.92-.65-5.31-2.3-5.74-4.99-.31-1.94,2.02-4.5,4.15-6.25l-.48-167.53c-1.16-39.85-24.08-74.12-57.74-93.74-32.51,20.55-80.86,27.22-118.91,28.93-42.45,1.9-91.76-.18-132.53-11-15.45-4.1-29.78-8.99-43.53-18.02-23.89,12.35-42.5,32.36-51.28,57.87-4.69,14.9-6.25,29.69-5.16,45.07,32.11,49.71,31.92,113.02-.33,162.55l.23,313.91c.01,16.82,7.94,30.81,16.93,43.92,21.32,25.96,55.9,37.61,88.68,43.53,26.68,4.82,53.04,7.56,80.08,7.55l33.88-.02,21.53-1.05c40.87-2,91.45-9.31,126.26-30.89,23.42-14.53,39.41-38.66,40.92-66.8l.45-60.34c-8.8-3.1-13.28-10-13.6-19.3-10.79-.76-18.22-9.27-19.12-19.75-.61-7.17,1.67-13.8,4.78-19.91-3.68-6.29-6.45-13.24-5.42-21.22,2.31-17.86,15.69-31.65,34.16-34.74l-.03-47.14-10.9-3.4c-1.87-1.54-3.02-3.98-2.39-6.3.47-1.76,3.56-3.85,5.64-3.37,22.12,5.08,42.02,14.47,55.9,32.62,4.9,6.4-9.25,28.42-16.41,38.23-6.69,9.17-11.35-5.04-33.2.45-15.03,3.77-26.39,18.92-20.58,35.13ZM281.02,362.89c0-74.97-60.77-135.75-135.73-135.75S9.55,287.91,9.55,362.89s60.77,135.75,135.73,135.75,135.73-60.78,135.73-135.75ZM191.31,551.96c13.06-8.75,28.24-6.5,37.87,3.95,5.57,6.14,7.91,12.74,9.35,22.06,6.78-6.02,12.04-12.72,17.22-20.3l-.15-98.57c-19.21,20.89-40.17,36.03-66.09,44.56l1.54,11.19c.41,2.99-1.26,5.8-4.13,7.94l4.39,29.18ZM145.66,519.61c12.69-.46,22.65-2.42,34.31-4.87.16-2.54-.27-5.37-1.11-8-12.17,2.89-22.66,3.84-35.37,3.85-.5,2.64.13,7.22,2.16,9.03ZM154.01,543.82c10.23-.36,16.39.38,25.44,2.34l-2.88-19.84-24.92,3.82,2.37,13.68ZM701.45,581.58c5.73-7.99,10.25-15.89,13.12-24.95-7.5-9.44-16.13-15.93-28.29-20.39l-.35,42.29,15.53,3.05ZM194.54,631.9c-12.54,2.45-24.23,4-36.81,4.41-2.49-1.73-3.36-4.7-2.14-6.9,1.31-2.37,3.82-2.67,6.62-2.85,10.6-.66,21.22-1.89,31.34-5.28,4.55-1.52,5.99-9.02,5.46-13.2-.45-3.53-3.01-9.2-7.28-10.63-24.29-8.14-42.83,4.57-42.53-6.1.08-2.79,2.42-4.29,5.29-4.85,11.39-2.24,21.91-1.78,33.58-.67,5.61-2.91,7.27-12.13,4.13-17.92-2.84-5.23-7.5-8.92-13.21-10.65-15.04-4.57-31.36-4.06-45.5,2.56-12.18,5.7-16.56,19.78-9.4,30.92,1.86,2.9,2.3,6.38.37,9.33-6.46,9.9-4.59,22.24,4.23,30.3,2.17,1.98,3.72,4.97,2.84,8.08-4.95,17.44,10.05,30.03,27.94,34.28l1.3-6.67c.61-3.15,27.57-.89,37.38-12.91,5.76-7.07,4.34-16.89-3.62-21.25ZM255.73,665.87l-.11-89.5-17.27,14.83c-2.81,10.37-6.08,26.78-13.41,23.22-1.41-.68-3.01-4.13-2.56-5.67l5.12-17.4c1.52-8.38.73-16.91-3.19-24.37-4.91-9.35-15.94-12.75-25.29-7.69,7.12,9.86,7.33,21.4-.01,30.35l5.89,6.23c6.49,9.03,5.67,20.83-.76,30.22,9.37,8.09,9.49,21.34,3.52,32.34l2.25,16.28c16.11,3.79,32.32.98,45.83-8.82ZM198.81,700.79c2.43-.87,3.97-4.37,3.56-6.97l-4.34-27.21c-8.84,4.37-15.99,6.32-25.54,7.1l4.1,25.33c1.11,6.85,12.53,5.19,22.22,1.74ZM387.13,878.78l-.29-19.61c-23.8-2.86-45.8-7.9-67.79-17.5-.27,5.06-.43,8.23-1.41,11.94-21.19,2.75-42.18,18.79-36.64,37.95,9,31.16,106.71,26.5,106.13-12.78ZM602.77,912.94c14.78-.08,37.6-7.19,41.08-21.18,1.66-6.68.09-13.23-3.68-18.64-7.29-10.46-18.57-15.54-31-18.25-2.68-.59-2.95-5.65-2.56-8.68l-28.33,8.15-39.62,6.46-.29,17.91c-.17,10.56,5.92,19.09,14.73,24,11.53,6.43,23.67,10.38,36.85,10.31l12.83-.07Z"/>
        <path class="cls-1" d="M545.91,718.1c-4.06,44.79-39.15,79.12-86.81,71.25l-.42,18.26c-.06,2.51-1.16,4.64-3.47,5.19-1.7.4-5.38-1.6-5.4-3.4l-.24-20.23c-47.36,7.56-81.74-24.14-87.55-69.81-.62-3.42,1.61-6.02,5.09-6.34,19.4-1.79,37.78,1.31,56.42,10.31-5.79-23.14-3.4-44.81,6.01-65.46,5.46-12.04,12.64-22.24,20.83-32.71,1.12-.81,3.64-1.91,4.86-1.75s2.76,1.93,3.81,3.27c16.21,20.59,26.64,40.84,29.07,67.38.87,9.52-1.34,18.72-2.96,29.41,13.35-7.02,26.99-11.09,41.71-10.61l13.1.42c2.48.08,6.23,1.6,5.94,4.83ZM458.09,710.55l.15,39.5,12.72-15.72c11.05-24.22,9.78-51.92-2.54-75.76l-14.34-22.96-15.01,24.39c-11.63,25.3-12.17,48.21-1.7,74.01,5.29,5.32,8.37,10.55,13,16.95l.18-39.99c.48-1.42,2.52-3.42,3.89-3.5,1.15-.06,3.21,1.82,3.65,3.08ZM416.1,750.25l31.62,24.22c-2.02-18.4-13.08-31.92-27.17-41.03-10.25-6.32-21.55-10.25-33.58-10.76l-14.96-.64c6.31,35.22,30.6,59.61,67.02,58.3-2.58-3.22-5.7-5.3-8.73-7.8l-19.25-15.87c-2.26-1.86-3.51-4.22-1.45-6.84,1.25-1.59,4.22-1.34,6.5.41ZM499.51,754.59l-31.7,25.89c19.48,1.19,36.68-5.88,49.51-18.95,9.75-10.86,15.89-23.45,18.28-38.27-36.01-3.8-69.55,15.1-75.31,51.75l32.61-25.14c1.81-1.26,4.19-1.44,5.66-.33,1.04.78,2.12,4.1.96,5.05Z"/>
        <path class="cls-1" d="M495.16,527.5c-5.17,12.68-13.91,23.41-26.35,28.63-17.63,7.41-36.54.17-48.04-15.02-8.25-10.9-11.76-23.68-13.52-37.7-.27-2.15.65-5.52,1.91-6.88,1.18-1.28,5.06-2.21,7.05-1.5,24.72,8.8,50.67,8.5,75.42-.11,1.61-.56,5.24.3,6.38,1.29s2.75,3.91,2.61,5.47c-.83,9.11-2.09,17.53-5.46,25.81ZM471.83,542.01c7.51-5.6,12.54-13.37,14.63-22.14-18.95-10.24-46.45-8.06-61.02,8.06,1.26,3.45,3.44,6.58,5.93,9.42,10.48,11.95,27.26,14.5,40.45,4.66Z"/>
        <path class="cls-1" d="M524.43,441.42c.26-15.33-3.25-32.13-16.78-31.96-5.09.07-9.89,3.64-12.44,8.87-3.75,7.67-3.81,15.88-4.51,24.67-.17,2.09-4.36,3.37-6.19,2.58-2.26-.98-3.88-3.87-3.81-7.09.23-10.5,1.5-20.44,7.26-28.86,4.52-6.61,10.88-11.03,18.25-11.48,19.84-1.19,29.78,19.31,28.78,41.22-.15,3.25-1.45,5.71-4.24,6.41-2.54.64-6.37-1.22-6.32-4.37Z"/>
        <path class="cls-1" d="M404.54,416.04c-2.75-4.38-7.59-7.06-11.97-6.94-4.65.12-9.22,3.32-11.83,7.85-8.14,14.13-1.4,25.49-8.21,28.58-1.74.79-6.38-.74-6.67-3.32-2.33-20.72,7.46-44.11,26.64-44.4,7.66-.11,14.5,3.7,19.47,10.11,9.51,12.26,9.43,34.21,6.45,36.76-1.13.96-4.1,1.24-5.5.71-6.44-2.45-.25-16.39-8.38-29.34Z"/>
        <path class="cls-1" d="M538.31,350.35c-7.49,2.53-7.46-10.34-19.12-11.87-16.63-2.19-17.38,11.75-24.13,7.51-2.35-1.47-2.49-5.42-.54-7.91,6.17-7.83,15.21-11.63,25.1-10.16,16.45,2.45,26.2,19.89,18.68,22.43Z"/>
        <path class="cls-1" d="M409.17,346c-6.31,3.17-8.49-9.78-21.5-8.56-13.56,1.28-13.69,13.33-20.23,12.17-2.9-.51-4.42-4.06-2.95-7.06,3.85-7.83,11.18-13.8,19.61-15.1,11.25-1.73,21.76,2.51,27.1,12.87.68,1.32-.74,5.03-2.02,5.67Z"/>
        <path class="cls-1" d="M316.01,213.6c-10.81,8.89-12.71,16.53-17.05,14.47-5.88-2.79,3.86-13.55,12.23-20.26,1.51-1.21,4.37-.92,5.52.54,1.24,1.57.98,3.88-.7,5.26Z"/>
        <g>
          <rect class="cls-1" x="570.47" y="107.35" width="9.55" height="69.08" rx="4.48" ry="4.48"/>
          <path class="cls-1" d="M377.04,175.62c-.06.01-.13.02-.19.03-2.77.45-5.26-1.74-5.27-4.54l-.02-55.91c0-2.9,2.65-5.06,5.49-4.51.04,0,.08.02.12.02,2.15.43,3.7,2.32,3.69,4.51l-.08,55.89c0,2.21-1.57,4.14-3.75,4.51Z"/>
          <rect class="cls-1" x="573.11" y="125.21" width="68.42" height="8.96" rx="4.48" ry="4.48" transform="translate(477.57 737) rotate(-89.99)"/>
          <path class="cls-1" d="M417.28,183.47s-.07.01-.11.02c-2.8.45-5.3-1.83-5.3-4.66l-.06-58.35c0-.72,1.24-1.58,2.92-2.19,3.05-1.1,6.27,1.19,6.27,4.44l.04,56.13c0,2.24-1.56,4.24-3.76,4.62Z"/>
          <rect class="cls-1" x="463.3" y="148.2" width="68.37" height="9.87" rx="4.76" ry="4.76" transform="translate(344.19 650.57) rotate(-89.98)"/>
          <path class="cls-1" d="M537.9,180.92c-.07.02-.14.03-.21.04-3.02.63-5.84-1.72-5.84-4.8l.04-53.83c0-2.31,1.62-4.35,3.89-4.78.04,0,.08-.01.12-.02,2.97-.54,5.69,1.8,5.69,4.82l.04,53.82c0,2.26-1.53,4.27-3.73,4.76Z"/>
          <rect class="cls-1" x="302.98" y="125.05" width="68.44" height="9.42" rx="4.71" ry="4.71" transform="translate(207.38 466.93) rotate(-89.99)"/>
          <rect class="cls-1" x="423.33" y="148.64" width="67.65" height="9.51" rx="4.76" ry="4.76" transform="translate(303.61 610.5) rotate(-89.98)"/>
        </g>
      </g>
      <g>
        <path class="cls-1" d="M258.31,362.88c0,62.43-50.6,113.05-113.03,113.05s-113.03-50.61-113.03-113.05,50.6-113.05,113.03-113.05,113.03,50.61,113.03,113.05ZM247.75,362.89c0-56.6-45.88-102.49-102.48-102.49s-102.48,45.89-102.48,102.49,45.88,102.49,102.48,102.49,102.48-45.89,102.48-102.49Z"/>
        <path class="cls-1" d="M227.31,377.72c-.39,2.6-2.95,4.18-5.12,3.91-5.62-.69-3.07-9.15-4.2-21.67-2.64-29.19-20.47-54.97-47.8-65.76-2.32-.91-1.78-4.15-1.59-6.17.23-2.44,3.44-4.03,6.09-3.06,17.93,6.59,32.03,19.38,41.93,35.66,10.49,17.26,13.82,36.48,10.69,57.08Z"/>
      </g>
    </g>
  </g>
</svg>