<?xml version="1.0" encoding="UTF-8"?>
<svg id="Layer_2" data-name="Layer 2" xmlns="http://www.w3.org/2000/svg" viewBox="0 0 818.35 878.11">
  <defs>
    <style>
      .cls-1 {
        fill: #2c45c9;
      }
    </style>
  </defs>
  <g id="gentrace-sample-file-last-art">
    <g>
      <g>
        <path class="cls-1" d="M761.63,413.19c-.98,6.14-7.91,8.52-13.7,7.71l-175.38-24.53c-5.64-.79-9.06-6.01-8.15-11.44l14.27-85.09c.9-5.37,6.92-7.69,11.8-7.04l96.84,13.01,79.53,11.56c5.74.83,8.94,6.96,8.09,12.32l-13.29,83.49ZM753.69,407.77l12.68-81.18-112.74-15.99-62.41-8.37c-1.16-.16-3.54.21-4.11,1.01-.45.64-.85,2.15-1.06,3.39l-13.19,80.33,177.69,24.89c1.45-.86,2.87-2.34,3.14-4.08Z"/>
        <path class="cls-1" d="M727.79,643.56c-.94,6.6-6.43,10.18-12.3,9.34l-37.2-5.34c-2.78-.4-6.23-1.93-7.65-3.55-1.84-2.12-2.58-6-2.17-8.85l5.75-39.77c.36-2.5,1.83-5.71,3.4-6.88,2.14-1.6,6.03-2.4,8.88-2.01l38.09,5.28c5.88.81,9.77,5.59,8.89,11.74l-5.69,40.03ZM719.59,640.29l5.46-36.03c.33-2.16-1.37-4.12-3.52-4.43l-38.4-5.38-6.21,39.88c-.32,2.05.95,4.59,3.07,4.89l34.55,4.89c1.01.14,2.8-.12,3.57-.49.62-.3,1.33-2.27,1.49-3.34Z"/>
        <path class="cls-1" d="M717.03,716.34c-.88,6.1-4.95,11.58-11.48,10.62l-39.83-5.88c-5.72-.84-8.78-6.21-7.98-11.58l6.25-41.63c.66-4.39,5.33-7.63,9.82-7l41.16,5.79c5.64.79,8.22,6.71,7.45,12.06l-5.4,37.62ZM705.24,718.42c1.15.17,3.38-2.41,3.42-3.32l5.86-39.78-42.09-6.23-6.2,38.71c-.13.83,0,2.97.25,3.74s2.02,1.59,2.86,1.71l35.89,5.17Z"/>
        <path class="cls-1" d="M654.14,634.69c-.8,5.43-6.11,8.11-11.19,7.32l-40.54-6.26c-4.84-.75-6.49-6.89-5.89-10.93l6.1-41.02c.82-5.5,5.96-8.82,11.37-8.04l38.68,5.54c4.79.69,8.58,5.35,7.85,10.28l-6.36,43.1ZM610.78,583.44l-6.69,44.51,42.08,6.33,6.69-44.51-42.08-6.33Z"/>
        <path class="cls-1" d="M643.69,708.11c-.72,4.86-5.05,8.89-9.94,8.16l-41.31-6.14c-4.67-.69-7.66-6.12-7-10.42l6.49-42.31c.79-5.12,6.1-8.19,11.19-7.45l38.66,5.57c5.53.8,8.85,5.95,8.03,11.42l-6.14,41.18ZM631.85,707.85c1.47.22,3.79-1.78,3.96-2.92l6.08-40.52-38.12-5.95c-2.42-.38-4.17,1.5-4.51,3.89l-5.22,35.91c-.31,2.17,1.31,4.15,3.33,4.46l34.47,5.14Z"/>
        <path class="cls-1" d="M653.31,567.84l-38.35-5.5c-4.91-.7-8.5-5.54-7.77-10.44l6.09-40.94c.45-3.03,2.25-6.19,4.38-7.64,2.65-1.8,5.77-1.78,9.07-1.29l37.07,5.43c6.3.92,8.02,7.46,7.22,12.74l-5.99,39.44c-.84,5.5-5.37,9.11-11.71,8.2ZM657.08,557.04l6.01-41.31-37.88-5.59c-1.38-.2-3.78,1.37-3.97,2.72l-5.91,40.82,37.76,5.7c1.13.17,3.8-1.02,3.99-2.34Z"/>
        <path class="cls-1" d="M676.19,484.09c-1,6.88-5.95,10.49-12.47,9.55l-38.04-5.46c-4.83-.69-8.32-5.76-7.57-10.67l6.27-41.46c.84-5.57,5.71-9.04,11.38-8.28l36.92,4.92c4.9.65,10.3,4.8,9.45,10.64l-5.93,40.76ZM632.54,435.18l-6.63,44.68,41.84,6.21,6.63-44.68-41.84-6.21Z"/>
        <path class="cls-1" d="M582.61,557.75l-38.08-5.6c-5.52-.81-8.46-6.09-7.66-11.3l6.2-40.3c.79-5.17,5.56-9.62,10.94-8.89l36.43,4.96c5.91.81,10.4,5.31,9.47,11.51l-6.25,41.53c-1.08,4.99-4.98,8.98-11.04,8.09ZM585.19,548.88l6.57-43.24-36.85-5.44c-1.62-.24-3.83,1.69-4.07,3.23l-5.63,36.64c-.31,2,1.17,4.05,3.09,4.28l36.89,4.54Z"/>
        <path class="cls-1" d="M561.75,705.26l-39.53-5.74c-5.15-.75-8.63-5.68-7.86-10.92l6.19-41.96c.7-4.76,6.17-7.89,10.73-7.25l37.94,5.28c5.68.79,9.65,5.52,8.8,11.18l-6.01,40.08c-.72,4.78-4.14,10.21-10.26,9.32ZM563.16,696.92l6.91-43.21-35.04-5.37c-2.36-.36-4.73-.1-6.68.99l-5.78,38.52c.18,2.51,1.83,3.75,4.26,4.08l36.34,4.99Z"/>
        <path class="cls-1" d="M582.95,622.02c-.91,6.06-5.22,10.66-11.36,9.75l-37.53-5.58c-5.58-.83-9.48-5.29-8.62-11l6.26-41.53c.94-6.26,6.54-8.87,12.52-8.02l36.39,5.15c6.46.91,8.97,6.97,8.09,12.81l-5.76,38.43ZM574.35,623.17l6.52-43.52-35.93-5.51c-1.12-.17-3.5.01-4.26.65-.61.51-1.28,2.22-1.42,3.13l-5.6,36.49c-.25,1.61,1.62,3.67,3.16,3.87l37.53,4.89Z"/>
        <path class="cls-1" d="M605.37,473.13c-1.08,7.16-5.26,11.74-12.5,10.7l-35.63-5.15c-5.2-.75-9.62-5.39-8.79-10.83l6.12-40c.95-6.24,5.55-10.71,12.27-9.79l36.39,5.02c4.91.68,8.85,5.8,8.09,10.85l-5.94,39.2ZM562.64,425.56l-6.57,44.56,40.94,6.03,6.57-44.56-40.94-6.03Z"/>
        <path class="cls-1" d="M715.36,484.21c-.74-.34-2.21-2.04-2.16-2.77.06-.87,1.42-2.44,2.02-2.58,2.05.99,5.03,1.84,6.43,1.05,1.95-1.1,3.44-3.08,4.38-5.65-5.96.63-10.69-.86-11.96-5.91-1.38-5.49,1.58-10.89,6.69-12.03s10.9,1.52,11.78,7.66c.7,4.87-.73,11.04-3.27,15.36-2.9,4.91-8.47,7.37-13.92,4.86ZM727.69,465.44c0-2.54-2.06-4.59-4.59-4.59s-4.59,2.06-4.59,4.59,2.06,4.59,4.59,4.59,4.59-2.06,4.59-4.59Z"/>
        <path class="cls-1" d="M708.14,542.22c5.5-1.14,11.21.46,12.27,5.86s-1.29,9.97-6.31,11.63c-3.96,1.31-9.89-.75-11.69-5.74-2.43-6.77-.25-14.5,4.65-19.59,3.56-3.7,9.62-4.15,13.06-1.09.64.56,1.25,2.36,1.12,3.07-.6,3.33-5.33-1.19-8.58-.14-1.98.64-3.7,1.94-4.53,6ZM715.93,550.66c0-2.57-2.08-4.65-4.65-4.65s-4.65,2.08-4.65,4.65,2.08,4.65,4.65,4.65,4.65-2.08,4.65-4.65Z"/>
        <path class="cls-1" d="M702.86,374.43c3.67,5.67,12.04,6.5,16.49,1.7,1.7-1.83,1.56-5.85.07-7.98-3.23-4.61-11-2.98-12.37-5.83-.57-1.2-.21-4.43.67-5.44,2.46-2.81,7.59,1.34,12.73-2.82,1.89-1.53,2.76-5.68,1.25-7.64-3.89-5.04-10.72-3.92-14.64.27-1.06,1.14-4.44-.13-5.17-1.34-.8-1.34-.36-4.21,1.17-5.71,6.7-6.55,19.3-6.28,25.19,1.55,4.81,6.4,2.27,16.27-4.49,19.98,3.83,3.66,5.72,7.47,5.47,12.03-.26,4.5-2.53,8.91-6.59,11.64-9.19,6.17-26.13,1.34-27.42-8.89-.18-1.4,1.76-3.82,3-4.08,1.36-.28,3.53.85,4.64,2.56Z"/>
        <path class="cls-1" d="M655.64,378.53c-3.67-.54-3.04-6.95-.68-8.75l15.41-11.77c3.47-2.65,6.89-5.3,9.14-9.08,1.6-2.68,1.79-6.84-.36-9.22-1.54-1.72-5-2.47-7.3-1.94-5.13,1.18-6.88,9-12,5.29-1.21-.88-1.22-4.21-.29-5.77,3.14-5.26,8.31-7.72,13.88-7.96,5.67-.24,11.55,2.18,14.46,7.91,3.44,6.79,1.18,15.99-4.94,20.72l-17.15,13.24,18.14,2.9c1.43.23,2.4,3.49,2.23,4.78s-2.24,3.79-3.57,3.59l-26.97-3.94Z"/>
        <path class="cls-1" d="M631.55,372.71l6.17-36.11-5.91,3.08c-1.21.63-4.2.47-5.11-.53-1.09-1.19-.74-4.98.69-5.83l13.08-7.74c1.52-.9,6.66.69,6.73,2.46l-6.85,43.68c-.37,2.34-1.54,4.02-3.53,4.63-1.57.49-5.7-1.16-5.28-3.65Z"/>
        <path class="cls-1" d="M691.21,625.88c2.07-1.86,7.21,6.85,12.06,2.54.93-.82,1.36-4.31.53-5.18-3-3.15-6.79-1.49-7.07-4.85s8.26-.13,8.52-4.9c.06-1.07-1.4-3.49-2.37-3.6-4.08-.49-4.87,1.17-8.13,1.11-.96-.02-.72-3.37.08-4.06,2.52-2.17,7.52-2.75,11.06-1.06,2.54,1.21,4.48,3.94,4.6,6.35.13,2.84-1.6,5.18-3.68,7.31,2.53,2.73,3.55,6.42,2.16,9.73-1.13,2.67-4.47,4.79-7.96,4.98-4.07.22-8.56-1.97-10.14-4.88-.44-.81-.22-2.99.33-3.5Z"/>
        <path class="cls-1" d="M700.02,692.68l-18.82-2.99c-.83-.13-1.87-2.41-1.47-3.03.48-.75,2.34-2.05,3.22-1.91l16.82,2.67c.82.13,2.39,1.32,2.54,2.05.18.88-.94,2.31-2.29,3.22Z"/>
        <path class="cls-1" d="M697.98,702.95l-17.22-2.52c-1.09-.16-2.39-1.94-2.27-3.1.1-.96,2.02-2.02,3.17-1.83l16.29,2.65c.92.15,2.35,1.27,2.66,1.97.37.83-1.59,2.99-2.63,2.83Z"/>
        <path class="cls-1" d="M618.53,621.24c-2.58-1.84.66-5.3,2.12-6.41l11.03-8.33c1.52-1.15,1.16-5.64-.26-6.53-4.66-2.9-6.66,3.44-9.35,2.91-.91-.18-1.87-2.85-1.41-3.72,1.67-3.17,5-4.87,8.23-4.74,3.45.14,7.11,1.76,8.43,5.49,1.54,4.35-.62,9.14-4.15,11.83l-7.73,5.9,9.62,1.72c.59.11,1.18,1.96,1.22,2.56s-1.3,2.13-1.98,2.01l-15.77-2.7Z"/>
        <path class="cls-1" d="M617.22,678.37c2.2-.41,4.68,1.92,4.8,3.65.19,2.63-1.19,5.08-3.23,5.45-2.56.46-5.02-.95-5.41-3.02-.51-2.71.72-5.48,3.84-6.07Z"/>
        <path class="cls-1" d="M645.74,545.95c-4.49,4.89-11.63,4.43-15.86-.17-.83-.91-.95-3.49-.05-4.02,3.1-1.86,5.86,4.67,10.52,2.48,2.27-1.07,3.39-4.42,2.54-6.32-2.57-5.68-12.49,0-11.72-4.07l2.56-13.53,12.99,1.41c.93.1,2.39,1.61,2.48,2.41s-1.18,2.61-1.97,2.49l-9.06-1.29c-1.35-.19-2.15,4.72-.84,4.96,3.73.62,7.62,1.88,9.41,4.57,2.04,3.07,1.8,8.03-1,11.08Z"/>
        <path class="cls-1" d="M648.88,475.36c-4.69-.17-8.17-2.58-9.08-6-1.07-4.04.83-7.83,4.3-10.3-1.22-2.68-2.04-5.73-1.05-8.32s4.11-4.52,7.13-4.8c4.02-.36,7.8,1.44,9.09,4.64,1.37,3.43.38,7.43-2.68,9.95,2.29,2.82,3.06,6.7,1.64,10.04s-4.84,4.94-9.35,4.78ZM654.94,452.53c-.45-1.18-3.22-2.41-4.27-2.27s-3.15,1.64-3.37,2.76c-.44,2.28,2.42,4.5,4.28,4.39,2.12-.12,4.31-2.36,3.36-4.88ZM653.97,468.05c.74-3.75-2.67-5.85-5.15-5.67-2.32.18-5.14,2.13-4.42,5.21.34,1.47,3.09,3.11,4.47,3.32s4.77-1.2,5.1-2.87Z"/>
        <path class="cls-1" d="M576.27,532.89c-5.39.42-2.12,7.01-6.31,6.75-3.54-.22-.21-6.86-2.88-7.42l-8.96-1.88c-1.32-.28-1.45-3.91-.48-4.95l12.58-13.56c.96-1.03,4.93-.17,6,.93l-2.1,15.17,3.25,1.91c.68.4-.31,2.98-1.09,3.04ZM569.81,527.84l.99-10.49-8.38,9.26,7.4,1.23Z"/>
        <path class="cls-1" d="M553.31,681.93c-2.11,3.63-5.78,5.08-9.45,4.61-2.82-.36-6.21-3.11-7.28-6.49-1.94-6.11-.65-12.6,2.94-17.78,2.14-3.1,5.69-4.51,9.29-3.9,8.1,1.38,9.91,14.27,4.5,23.56ZM551.4,666.95c-.17-1.55-2.59-3.97-4.03-4-1.26-.03-3.96,1.43-4.55,2.65-3.32,6.93-2.7,15.64,1.77,16.24s7.7-6.68,6.81-14.89Z"/>
        <path class="cls-1" d="M554.52,610.59l2.9-18.4-4.42.85c-.96.18-1.79-3.17-.96-3.68l6.91-4.26c.56-.34,2.58-.19,3.19.06s.99,2.15.87,2.93l-3.51,22.64c-.13.87-1.44,2.26-2.21,2.41-.92.18-2.91-1.59-2.76-2.54Z"/>
        <path class="cls-1" d="M577.49,463.45c-.47.76-1.99,1.63-2.7,1.76-.87.16-2.7-2.55-2.09-3.51l11.99-18.91-10.5-1.93c-.83-.15-2.17-1.92-2.01-2.74s1.86-2.03,2.81-1.89l15.23,2.25c.82,1.09.47,3.93-.15,4.93l-12.57,20.03Z"/>
      </g>
      <g>
        <path class="cls-1" d="M575.59,849.12c-19.31,6.92-37.89,11.59-57.82,15.02-100.51,17.31-217,17.25-318.38,6.85-34.13-3.5-67.17-9.84-99.7-19.81-12.52-3.84-32.29-12.95-32.52-24.79-.43-22.28,62.43-33.96,84.63-37.64,9.86-7.14,21.2-11.2,33.24-12.71l.91-24.6c-58.95-18.7-85.56-49.93-86.3-114.11-23.12-5.87-46.22-21.23-51.34-45.63-14.89-9.33-27.72-21.3-36.66-36.56-22.5-38.37-10.04-81.43,17.65-114.16,16.29-19.26,36.46-34.03,59.38-44.96l-2.07-39.06c-1.36-25.68-2.93-50.65-2.75-76.28.26-37.59,14.09-76.2,41.46-102.37-11.59-8.71-18.8-13.64-19.65-28.14-1.23-21.06-2.45-41.55-1.07-62.54l1.02-15.41c.72-10.86,4.23-20.18,12.67-27.17,7.77-6.44,16.5-11.09,26.41-14.19,24.03-7.52,47.58-14.03,72.48-18.77,32.57-6.2,64.43-9.72,97.56-11.36,52.73-2.61,152.51.73,195.7,28.27,6.97,4.44,13.92,10.83,15.88,19.06,3.72,15.55,5.43,30.83,6.69,46.82l3.78,48c.67,8.47-3.66,15.6-11.18,20.48,29.61,21.23,50.94,57.8,52.04,94.92l21.91,2.02,183.78,25.23c15.51,2.13,28.34,15.3,25.78,31.7l-21.18,135.75c12.9.41,23.96,6.52,28.29,17.73,4.63,12.01,1.59,25.24-7.17,35.07,6.66,14.46,3.95,30.78-7.13,41.92,2.89,10.83,1.23,21.52-5.56,29.89-6.19,7.64-16.74,12.06-27.56,10.99-.56,1.17-.91,3.23-1.19,5.02l-19.91,127.29-4.45,20.13c-4.12,11.85-15.53,19.32-27.69,18.08l-13.5-1.37-160.72-24.39c-17.5,15.62-39.93,22.95-62.83,28.43l.25,14.08c11.57,1.1,21.54,4.92,31.09,10.87,24.59,3.57,91.73,14.51,91.71,39.16,0,10.55-14.53,19.14-25.95,23.24ZM454.17,87.72c17.82-5.28,47.73-15.61,58.54-27.77,4.89-5.5,4.12-12.91-1.24-17.68s-11.51-8.2-18.19-10.87c-38.06-15.22-84.08-19.25-125.04-20.92-15.61-.64-30.52-.9-45.96-.04l-17.47.97c-53.67,2.99-115.75,13.67-166.02,33.3-6.64,2.6-12.66,6.51-17.54,11.49-3.89,3.96-3.92,9.93.16,13.73s8.96,7.04,14.35,9.36c16.8,7.23,33.68,12.46,51.73,16.35,29.04,6.26,57.68,9.96,87.42,11.16,60.44,2.45,121.43-1.93,179.26-19.08ZM516.26,157.08c6.73-3.22,8.61-5.9,11.08-11.47l-2.53-36.36-4.75-42.96-10,8.53,1.53,16.98,4.67,65.27ZM246.82,115.34l-24.22-2.41.6,38.78c.04,2.55-2.17,4.54-4.7,4.25h0c-2.08-.24-3.66-1.97-3.72-4.06l-1.23-40.84-21.96-3.59,1.48,84.92c.03,2.53-2.11,4.55-4.64,4.37h-.12c-2.23-.16-3.97-1.99-4.03-4.23l-1.93-87.5c-16.6-4.09-27.81-6.62-44.09-13.38-.24,18.14-.13,34.92.67,52.03l.68,31.71c-1.26.44-5.71,1.89-6.47,1.76s-1.53-2.4-1.55-3.19l-2.47-79.95-.07-6.82c-5.59-3.19-9.9-6.23-14.64-10.15-1.5,26.96-.93,52.41,1.43,78.55,7.18,12.79,26.12,19.93,40.45,26.18l-1.5-63.25c-.07-3.16,2.98-5.48,5.99-4.52.04.01.08.03.13.04,1.89.6,3.2,2.32,3.25,4.3l1.62,66.13,18.81,6.54-.83-30.15c-.07-2.49,1.96-4.54,4.45-4.45.15,0,.3.01.45.02,2.23.12,4.01,1.91,4.1,4.14l1.39,32.04,21.81,5.55-.78-24.25c-.08-2.35,1.78-4.3,4.13-4.35.31,0,.63,0,.96,0,2.24.03,4.08,1.81,4.17,4.05l1.02,25.51c4.83,1.54,14.77,2.92,24.19,3.54l-2.85-87.32ZM486.6,174.75l22.8-12.92-4.93-67.9-.66-14.99-23.44,10.68,4.32,60.4,1.91,24.73ZM332.56,175.94l1.43,29.38,7.23.06,16.34-.97c1.74-.1,4.59-.7,6.13-1.31l-1.25-25.39c0-5.5,9.09-5.61,9.44-.17l1.6,25.86,29.56-4.83-1.83-36.77c.06-.52-.6-6.35,4.35-6.94,2.28-.27,4.19,1.81,4.33,4.11l2.31,38.04,29.05-6.9-2.32-46.49c.08-.74,1.57-1.3,3.92-1.73,2.6-.49,5.05,1.4,5.2,4.04l2.3,41.32,27.69-9.29-1.02-16.24-.89-18.94-3.55-50.38-27.16,8.32,1.34,25.1c.11,2.14-1.35,4.05-3.44,4.5-.04,0-.08.02-.13.03-2.59.56-5.07-1.3-5.27-3.94l-1.74-23.1-28.88,6.43,1.25,26.33c.1,2.09-1.3,3.96-3.34,4.45-2.18.53-4.56,1.03-4.59.71l-1.09-11.77-1.01-18.52-26.35,3.23-2.68.63c-.6.14-.5,2.2-.47,2.92l1.17,18.9.68,22.26c.08,2.65-2.12,4.8-4.77,4.65h-.12c-2.32-.13-4.16-1.99-4.28-4.31l-2.16-43.7-29.01,1.5.37,16.56,1.67,42.38ZM286.16,205.25l-3.5-87.91-27.69-1.47,3.01,87.3c7.64,1.54,17.75,2.2,28.18,2.08ZM324.39,206.04l-1-33.22-2.58-55.04-29.45.32,2.81,72.26,1.05,16.2,29.17-.52ZM86.06,531.91c-1.79,1.41-4.24,1.92-5.85,1.11-1.29-.65-2.37-3.89-1.66-5.5,1.14-2.61,3.54-4.39,6.22-6.08-34.78-40.06,33.65-74.21,38.94-62.1.68,1.57-.01,5.48-1.94,6.24-7.45,2.95-14.7,6.72-19.54,13.61l1.41,33.58,18.01-2.67c8.61-1.27,17.72.49,25.78,3.25,6.43,2.2,10.85,7.55,11.89,12.96,1.32,6.87-.93,12.9-6.32,17.26,5.41,2.87,10.21,5.15,14.04,9.02,8.69,8.76,8.06,22.73-2.08,30.04,3.29,6.13,3.92,12.44,1.23,19.17-2.01,5.02-7.64,8.56-12.95,11.44.16,5.31-.52,11.44-4.25,15.63-9.69,10.89-24.31,12.03-39.52,10.4l.56,9.76c3.08,53.41,30.57,77.28,79.48,92.68,33.98,10.7,68.07,17.37,103.71,20.43,63.02,5.41,138.97,2.97,199.6-14.84,12.54-3.68,23.76-8.35,34.65-15.84l-20.82-3.86c-9.2-1.71-17.61-7.38-21.15-16.28-1.97-4.97-3.3-11.47-2.36-17.32l41.48-259.68,12.5-74.71,13.73-78.67c1.75-10.01,9.02-17.3,18.13-20.9l-.98-7.58c-4.17-32.32-23.02-64.88-50.9-82.44-60.93,35.19-138.55,46.39-207.72,46.21-58.49-.16-121.86-7.74-174.6-32.92-30.25,26.56-42.89,70.25-41.21,109.23l4.29,99.66c3.86-1.11,6.72.85,7.18,3.29.83,4.36-1.58,5.46-4.89,6.78-26.79,10.66-50.37,27.94-67.92,50.81-20.66,26.93-30.53,61.03-14.69,92.29,7.63,15.06,19.62,27.94,34.15,36.51,3.88,2.28,5.5,3.4,6.25,8.21,1.36,8.8,7.22,16.47,13.93,22.44,16.01,14.26,46.48,22.57,64.97,14.31,4.64-2.07,8.69-8.02,6.16-12.97l-18.84-4.75c-2.13-.54-3.38-4.01-2.64-5.56.79-1.63,3.38-2.77,5.33-2.28,12.12,3.04,26.9,6.53,31.21-4.29,1.3-3.27.69-10.29-3.05-11.23l-20.59-5.2c-1.94-.49-3.11-4.4-2.21-6.02s3.34-2.46,5.21-2.05l16.11,3.53c3.28.72,7.68-1.6,9.01-4,1.56-2.8,1.87-6.62.26-9.72-4.79-9.2-22.94-13.56-34.9-16.04-2.56-.53-4.35-2.61-4.25-4.78.07-1.57,2.7-4.25,4.31-4l8.2,1.27c2.76.43,5.9.19,8.51-.99,3.7-1.67,5.86-5.13,5.39-9.08-1.46-12.43-43.14-13.25-64.02,3.21ZM740.07,518.42c2.12-8.38,6.5-13.35,12.28-17.9l-3.09-4.56c-1.22,5.91-5.78,9.04-11.19,8.29l-39.57-5.5c-5.54-.77-9.65-5.6-8.81-11.3l6.01-40.82c.87-5.9,5.67-9.81,11.66-8.98l39,5.42c6.04.84,9.82,6.61,8.25,12.54l-.49,10.64c6.72-7.29,13.79-10.31,23.57-12.19l21.87-136.8c1.76-11-6.08-19.92-16.5-21.36l-200.53-27.71c-12.38-1.71-21.45,6.74-23.34,17.94l-14.78,87.62-49.67,306.46-1.99,16.5c-1.39,11.49,6.24,20.09,17.45,21.8l76.28,11.63,127.84,18.91c11.18,1.65,19.89-6.51,21.55-17.01l22.84-144.23c-9.04-2.75-16.26-7.28-19.89-16.57-2.43,5.46-6.67,8.1-12.47,7.28l-37.87-5.38c-6.38-.91-10.45-5.44-9.48-11.9l6.13-40.89c.82-5.49,5.77-8.84,11.3-8.07l43.64,6.13ZM741.33,490.61l5.12-35.03c-.62-1.49-1.55-3.23-2.33-4.29l-36.98-5.28-3.38,2.84-5.02,34.11c-.1,2.39.01,4.52.43,7.2l37.18,5.49c1.21-.29,3.06-.69,3.74-1.18s.92-2.22,1.24-3.85ZM754.29,549.39c-5.98,1.44-8.38,10.26-7.58,15.24.85,5.26,4.4,10.05,10.12,12.25,11.85,4.56,27.17,2.56,33.06-6.75,3.74-5.91,5.69-13.38,2.09-19.44-1.68-2.82-2.5-5.83.58-8.05,11.77-8.44,14.31-25.22,4.94-36.71.44-2.33,1.88-4.62,3.61-6.24,6.17-5.78,8.85-14.04,7.22-22.21-3.03-15.19-24.12-17.48-38.57-11.16-8.06,3.53-13.38,11.27-13.05,20.15.18,4.79,2.91,8.8,7.04,10.85,12.1,6.01,21.97,1.16,22.91,7.08.3,1.9-.98,3.85-2.88,5.04-7.47.83-14.17.24-21.11-2.24-6.91,1.12-11.7,6.13-13.51,12.15-2.39,6.03-.85,13.5,4.47,17.88,11.08,9.12,26.41,2.04,25.76,10.39-.51,6.61-15.06,3.35-25.1,1.77ZM93.33,514.71c.68-5.4.08-26.57-1.08-31.98-9.22,8.6-8.31,27.62,1.08,31.98ZM730.22,568.05l6.16-41.31-38.49-5.81c-.86-.13-2.66,0-3.35.32s-1.4,2.13-1.52,2.95l-5.63,36.74c-.26,1.69,1.9,3.85,3.5,3.94l34.64,4.88c.25.22,4.27-.84,4.69-1.73ZM742.52,546.53l3.11-2.72c.64-.56-1.43-2.93-2.32-3.66l-.79,6.38ZM230.72,831.43c14.33-3.55,22.58-10.73,22.8-25.76l.46-31.39-.08-6.75c-20.25-3.52-38.99-7.57-58.79-13.42-1.01,9.74-1.11,17.94-.32,26.97.18,2.04-1.89,4.17-3.91,4.71-13.6.38-26.63,4.96-36.79,13.98-8.36,7.42-11.47,19.41-3.08,25.65,17.73,13.19,57.46,11.53,79.71,6.02ZM511.79,826.36c6.12-3.8,7.97-10.78,5.26-17.07-6.24-14.48-26.72-23.48-42.67-23.99-8.54-.28-2.81-10.73-5.71-21.35l-57.36,8.59.18,34.82c.03,6.02,2.66,11.52,6.01,16.07,5.18,3.71,10.48,6.5,16.82,8.02,22.01,5.26,58.54,6.67,77.47-5.08ZM401.76,782.68c.53-3.37.61-6.14.14-9.46l-65.32,1.36c-24.68-.36-47.96-2.16-72.96-5.5l-.31,13.5,37.23-.56,74.95.33,26.27.33Z"/>
        <path class="cls-1" d="M290.54,374.92c19.66,12.2,18.45,67.32-5.18,68.93-21.33,1.45-29.5-39.24-17.52-61.42,4.52-8.38,14.34-12.7,22.71-7.51Z"/>
        <path class="cls-1" d="M419.99,374.23c13.56,18.35,10.36,63.44-11.35,64.09-5.51.17-10.5-2.49-14.04-7.25-13.83-18.6-9.45-62.64,11.47-63.83,5.41-.31,10.48,2.34,13.92,6.99Z"/>
        <path class="cls-1" d="M327.44,516.41c-21.89-8.47-31.27-31.97-22.82-33.93,2.68-.62,5.15.66,5.98,3.53,6.25,21.64,35.62,30.5,57.55,18.63,8.85-4.79,14.64-12.6,17.05-22.32.54-2.16,3.43-3.71,5.23-3.51,2.54.29,4.68,3,4.11,5.93-5.67,28.9-39.65,42.28-67.1,31.66Z"/>
        <path class="cls-1" d="M290.47,332.17c-10.44-4.92-21.76-2.43-29.55,6.35-1.26,1.42-4.14,1.97-5.78,1.27-1.51-.64-2.49-4.37-1.34-6.03,14-20.26,43.36-14.12,42.42-4.69-.23,2.27-3.35,4.23-5.75,3.1Z"/>
        <path class="cls-1" d="M420.44,330.18c-7.83-7.34-19.06-8.51-28.09-2.78-2.31,1.46-5.07,1.22-6.61-1.12-1.06-1.61-.18-4.67,2.13-6.36,11.92-8.76,29.91-6.63,39.32,4.99,1.18,1.46.53,5.27-.66,6.17-1.58,1.2-4.39.69-6.09-.9Z"/>
        <path class="cls-1" d="M548.2,242.49c-.03,1.83-.98,4.1-2.06,4.31s-6.52.12-7.3-1.09c-3.63-17.42-12.18-32.46-24.88-44.7-.06-1.52,3.58-4.82,4.26-5.53s2.9-.19,4.01.32c13.1,12.76,21.22,28.57,25.97,46.68Z"/>
      </g>
    </g>
  </g>
</svg>