<?xml version="1.0" encoding="UTF-8"?>
<svg xmlns="http://www.w3.org/2000/svg" version="1.1" viewBox="0 0 34.9 23.2">
  <!-- Generator: Adobe Illustrator 30.6.0, SVG Export Plug-In . SVG Version: 2.1.4 Build 109)  -->
  <defs>
    <style>
      .st0 {
        fill: #0021b3;
      }
    </style>
  </defs>
  <g id="fixed-sockets">
    <g id="_x31_">
      <path class="st0" d="M27,23.2c-2.4,0-4.7-1.4-5.8-3.7-2.5-4.8-2.5-11.4,0-15.6C22.5,1.5,24.6,0,27,0c2.4,0,4.5,1.2,5.9,3.6,2.6,4.3,2.6,11,0,15.9-1.2,2.2-3.2,3.5-5.5,3.7h0c-.1,0-.3,0-.4,0ZM27.2,2.3s0,0-.1,0c-2,0-3.2,1.5-3.9,2.8-1.8,3.1-2.4,8.7,0,13.4.8,1.6,2.4,2.5,4,2.4h0c1.5,0,2.8-1,3.6-2.5,2.6-4.7,2-10.5.1-13.6-.7-1.1-1.9-2.5-3.7-2.5Z"/>
      <path class="st0" d="M7.8,23.1c-2.7,0-4.9-1.6-6.3-4.5C-.7,14.2-.7,7,3,2.5,4.3.9,6.2,0,8.2,0c1.8,0,3.7,1.1,4.9,2.7,3.4,4.7,3.1,11.7,1,15.9-1.4,2.9-3.6,4.4-6.1,4.5,0,0,0,0,0,0ZM8,2.4c-1.2,0-2.4.6-3.2,1.5-3.1,3.8-3.1,10-1.3,13.7.7,1.5,2,3.2,4.2,3.2s0,0,0,0c2.2,0,3.5-2,4.1-3.2,1.8-3.6,2-9.6-.8-13.5h0c-.8-1.1-1.9-1.8-3-1.8,0,0,0,0,0,0Z"/>
    </g>
  </g>
  <g id="moving-eyes">
    <g id="_x31_1" data-name="_x31_">
      <ellipse class="st0" cx="29.2" cy="16.9" rx="3.7" ry="4.8"/>
      <ellipse class="st0" cx="10.1" cy="16.9" rx="3.7" ry="4.8"/>
    </g>
  </g>
</svg>